#N canvas 423 603 1016 627 12;
#X obj 207 241 bonk~, f 13;
#X msg 290 348 \$2;
#X obj 290 374 / 130;
#X obj 299 567 outlet;
#X text 358 562 vol;
#X obj 290 398 t b b, f 20;
#X obj 424 432 dktaptempo;
#X obj 424 456 dkrange 500 50 0 1;
#X obj 429 563 outlet;
#X text 493 564 speed;
#X obj 424 480 clip 0 1;
#X obj 219 578 outlet;
#X obj 207 343 bang;
#X obj 213 37 inlet~;
#X text 263 35 signal~;
#X obj 482 35 inlet;
#X obj 482 59 route ms_lo ms_hi speed_lo speed_hi;
#X text 20 18 dkdrumtrig~ - triggers from a contact mic;
#X text 788 20 derek kwan;
#X text 792 46 pdkvabs 2018;
#X text 794 76 gpl v 3;
#X text 14 65 inlets: signal \, spigot \, messages;
#X obj 348 43 inlet;
#X text 398 41 spigot;
#X obj 207 265 spigot 0;
#X obj 297 272 spigot;
#X obj 348 67 t f f;
#X connect 0 0 24 0;
#X connect 0 1 25 0;
#X connect 1 0 2 0;
#X connect 2 0 5 0;
#X connect 5 0 3 0;
#X connect 5 1 6 0;
#X connect 6 0 7 0;
#X connect 7 0 10 0;
#X connect 10 0 8 0;
#X connect 12 0 11 0;
#X connect 13 0 0 0;
#X connect 15 0 16 0;
#X connect 16 0 7 2;
#X connect 16 1 7 1;
#X connect 16 2 7 3;
#X connect 16 3 7 4;
#X connect 16 4 0 0;
#X connect 22 0 26 0;
#X connect 24 0 12 0;
#X connect 25 0 1 0;
#X connect 26 0 24 1;
#X connect 26 1 25 1;
