#N canvas 366 243 747 520 12;
#X obj 156 184 tgl 30 0 empty empty 1 9 -7 0 15 -262144 -1 -1 1 1;
#X obj 198 183 tgl 30 0 empty empty 2 9 -7 0 15 -262144 -1 -1 0 1;
#X obj 109 185 tgl 30 0 empty empty 0 9 -7 0 15 -262144 -1 -1 0 1;
#X obj 111 142 hradio 15 1 0 8 empty empty offsetx3 0 -8 0 15 -262144
-1 -1 0;
#X obj 201 40 loadbang;
#X msg 205 69 0;
#X obj 334 209 * 3;
#X obj 313 4 notein;
#X obj 300 31 stripnote;
#X obj 298 57 - 60;
#X obj 297 80 / 2;
#X obj 300 106 t f f;
#X obj 297 142 sel 0 1 2;
#X obj 90 354 swap;
#X obj 90 379 pack f f;
#X obj 90 404 outlet;
#X obj 198 315 +;
#X text 14 5 dklogidy - logidy umi3 abstraction;
#X text 20 476 outlet: f f - number/tgl;
#X text 257 363 offsetx3: change button number by incr of 3;
#X text 560 4 derek kwan;
#X text 561 32 pdkvabs;
#X text 561 62 gpl v 3;
#X obj 22 40 inlet;
#X obj 23 73 route 0 1 2;
#X text 22 436 in1: f f - number/tgl;
#X text 23 458 in2: f - offset;
#X obj 136 38 inlet;
#X msg 341 283 0 0;
#X msg 385 278 1 0;
#X msg 430 278 2 0;
#X obj 19 231 r \$0-dklogidy-tgls;
#X obj 334 234 t f b b b;
#X obj 331 336 s \$0-dklogidy-tgls;
#X connect 0 0 13 0;
#X connect 1 0 13 0;
#X connect 2 0 13 0;
#X connect 3 0 6 0;
#X connect 4 0 5 0;
#X connect 5 0 3 0;
#X connect 5 0 2 0;
#X connect 5 0 0 0;
#X connect 5 0 1 0;
#X connect 6 0 32 0;
#X connect 7 0 8 0;
#X connect 7 1 8 1;
#X connect 8 0 9 0;
#X connect 9 0 10 0;
#X connect 10 0 11 0;
#X connect 11 0 12 0;
#X connect 11 1 16 0;
#X connect 12 0 2 0;
#X connect 12 1 0 0;
#X connect 12 2 1 0;
#X connect 13 0 14 0;
#X connect 13 1 14 1;
#X connect 14 0 15 0;
#X connect 16 0 13 1;
#X connect 23 0 24 0;
#X connect 24 0 2 0;
#X connect 24 1 0 0;
#X connect 24 2 1 0;
#X connect 27 0 3 0;
#X connect 28 0 33 0;
#X connect 29 0 33 0;
#X connect 30 0 33 0;
#X connect 31 0 24 0;
#X connect 32 0 16 1;
#X connect 32 1 28 0;
#X connect 32 2 29 0;
#X connect 32 3 30 0;
#X coords 0 -1 1 1 140 120 1 100 100;
