#N canvas 505 232 1413 917 12;
#X obj 156 184 tgl 30 0 empty empty 1 9 -7 0 15 -262144 -1 -1 0 1;
#X obj 198 183 tgl 30 0 empty empty 2 9 -7 0 15 -262144 -1 -1 0 1;
#X obj 109 185 tgl 30 0 empty empty 0 9 -7 0 15 -262144 -1 -1 0 1;
#X obj 111 142 hradio 15 1 0 8 empty empty offsetx3 0 -8 0 15 -262144
-1 -1 4;
#X obj 201 40 loadbang;
#X msg 205 69 0;
#X obj 345 256 * 3;
#X obj 90 379 pack f f;
#X obj 90 404 outlet;
#X obj 98 327 +;
#X text 14 5 dklogidy - logidy umi3 abstraction;
#X text 29 647 outlet: f f - number/tgl;
#X text 268 410 offsetx3: change button number by incr of 3;
#X text 776 24 derek kwan;
#X text 777 52 pdkvabs;
#X text 777 82 gpl v 3;
#X obj 22 40 inlet;
#X obj 22 89 route 0 1 2;
#X text 31 607 in1: f f - number/tgl;
#X text 32 629 in2: f - offset;
#X obj 136 38 inlet;
#X msg 352 330 0 0;
#X msg 396 325 1 0;
#X msg 441 325 2 0;
#X obj 55 55 r \$0-dklogidy-tgls;
#X obj 345 281 t f b b b;
#X obj 342 383 s \$0-dklogidy-tgls;
#X text 593 191 modes: click \, toggle \, hold;
#X obj 642 280 loadbang;
#X obj 644 312 t b b, f 23;
#X obj 809 371 s \$0-dklogidy-mode;
#X obj 649 361 s \$0-dklogidy-offset;
#X text 594 157 args: channel \, offset \, mode;
#X obj 649 337 f \$2;
#X obj 809 347 f \$3;
#N canvas 393 511 919 638 dklogidy-noteinner 0;
#X obj 269 227 stripnote;
#X obj 284 287 - 60;
#X obj 283 310 / 2;
#X obj 286 336 t f f;
#X obj 313 4 notein \$1;
#X obj 292 66 r \$0-dklogidy-mode;
#X obj 275 102 swap;
#X obj 275 126 pack f f;
#X obj 275 150 route 0 1 2;
#X obj 267 409 sel 0 1 2, f 19;
#X obj 456 290 - 60;
#X obj 455 313 / 2;
#X obj 458 339 t f f;
#X obj 439 412 route 0 1 2, f 19;
#X obj 264 523 outlet;
#X obj 332 531 outlet;
#X obj 419 524 outlet;
#X obj 452 381 pack f f;
#X obj 365 37 t f f;
#X obj 534 328 > 0;
#X connect 0 0 1 0;
#X connect 1 0 2 0;
#X connect 2 0 3 0;
#X connect 3 0 9 0;
#X connect 4 0 6 0;
#X connect 4 1 18 0;
#X connect 5 0 6 1;
#X connect 6 0 7 0;
#X connect 6 1 7 1;
#X connect 7 0 8 0;
#X connect 8 0 0 0;
#X connect 8 1 0 0;
#X connect 9 0 14 0;
#X connect 9 1 15 0;
#X connect 9 2 16 0;
#X connect 10 0 11 0;
#X connect 11 0 12 0;
#X connect 13 0 14 0;
#X connect 13 1 15 0;
#X connect 13 2 16 0;
#X connect 18 0 0 1;
#X connect 18 1 19 0;
#X connect 19 0 17 1;
#X restore 386 66 pd dklogidy-noteinner;
#X obj 109 220 t b f;
#X msg 98 263 0;
#X obj 156 219 t b f;
#X msg 148 264 1;
#X obj 198 218 t b f;
#X msg 198 262 2;
#X connect 0 0 38 0;
#X connect 1 0 40 0;
#X connect 2 0 36 0;
#X connect 3 0 6 0;
#X connect 4 0 5 0;
#X connect 5 0 3 0;
#X connect 5 0 2 0;
#X connect 5 0 0 0;
#X connect 5 0 1 0;
#X connect 6 0 25 0;
#X connect 7 0 8 0;
#X connect 9 0 7 0;
#X connect 16 0 17 0;
#X connect 17 0 2 0;
#X connect 17 1 0 0;
#X connect 17 2 1 0;
#X connect 20 0 3 0;
#X connect 21 0 26 0;
#X connect 22 0 26 0;
#X connect 23 0 26 0;
#X connect 24 0 17 0;
#X connect 25 0 9 1;
#X connect 25 1 21 0;
#X connect 25 2 22 0;
#X connect 25 3 23 0;
#X connect 28 0 29 0;
#X connect 29 0 33 0;
#X connect 29 1 34 0;
#X connect 33 0 31 0;
#X connect 34 0 30 0;
#X connect 35 0 2 0;
#X connect 35 1 0 0;
#X connect 35 2 1 0;
#X connect 36 0 37 0;
#X connect 36 1 7 1;
#X connect 37 0 9 0;
#X connect 38 0 39 0;
#X connect 38 1 7 1;
#X connect 39 0 9 0;
#X connect 40 0 41 0;
#X connect 40 1 7 1;
#X connect 41 0 9 0;
#X coords 0 -1 1 1 140 120 1 100 100;
