#N canvas 366 227 777 550 10;
#X text 17 11 COMB_VAN~ - pd-vanilla comb filter;
#X text 16 31 port of Max's comb~;
#X obj 143 79 inlet~;
#X obj 92 171 delwrite~ \$0-cfd-ff \$1;
#X obj 248 142 *~ \$3;
#X obj 293 140 *~ \$4;
#X obj 248 164 +~;
#X obj 240 200 +~;
#X obj 92 242 delwrite~ \$0-cfd-fb \$1;
#X obj 286 66 delread~ \$0-cfd-ff \$2;
#X obj 404 131 delread~ \$0-cfd-ff \$2;
#X obj 243 239 outlet~;
#X obj 427 16 inlet;
#X obj 427 38 clip -1 1;
#X obj 333 26 inlet;
#X obj 541 36 inlet;
#X obj 541 58 clip -1 1;
#X obj 404 153 *~ \$5;
#X obj 627 36 inlet;
#X obj 627 58 clip -1 1;
#X text 59 403 where x = input \, y=output \, -1<=a \, b \, c \, <=1
;
#X text 483 206 arg1: max delay len (ms);
#X text 481 226 arg2/in2: delay len (ms);
#X text 480 245 arg3/in3: input coeff a;
#X text 480 260 arg4/in4: feedforward coeff b;
#X text 482 280 arg5/in5: feedback coeff c;
#X text 64 379 y[n] = a*x[n] + b*x[n-d] + c*y[n-d];
#X connect 2 0 3 0;
#X connect 2 0 4 0;
#X connect 4 0 6 0;
#X connect 5 0 6 1;
#X connect 6 0 7 0;
#X connect 7 0 8 0;
#X connect 7 0 11 0;
#X connect 9 0 5 0;
#X connect 10 0 17 0;
#X connect 12 0 13 0;
#X connect 13 0 4 1;
#X connect 14 0 9 0;
#X connect 14 0 10 0;
#X connect 15 0 16 0;
#X connect 16 0 5 1;
#X connect 17 0 7 1;
#X connect 18 0 19 0;
#X connect 19 0 17 1;
