#N canvas 331 139 1063 693 10;
#X obj 143 79 inlet~;
#X obj 248 164 +~;
#X obj 240 200 +~;
#X obj 243 239 outlet~;
#X obj 507 20 inlet;
#X obj 507 42 clip -1 1;
#X obj 246 23 inlet;
#X obj 614 25 inlet;
#X obj 614 47 clip -1 1;
#X obj 700 25 inlet;
#X obj 700 47 clip -1 1;
#X text 59 403 where x = input \, y=output \, -1<=a \, b \, c \, <=1
;
#X text 483 206 arg1: max delay len (ms);
#X text 17 11 TEETH_VAN~ - pd-vanilla comb filter;
#X text 16 31 port of Max's teeth~;
#X obj 92 171 delwrite~ \$0-tfd-ff \$1;
#X obj 92 242 delwrite~ \$0-tfd-fb \$1;
#X obj 244 66 delread~ \$0-tfd-ff \$2;
#X obj 352 137 delread~ \$0-tfd-fb \$3;
#X obj 248 142 *~ \$4;
#X obj 293 140 *~ \$5;
#X obj 352 159 *~ \$6;
#X obj 379 26 inlet;
#X text 479 248 arg3/in3: feedback delay len (ms);
#X text 481 226 arg2/in2: feedforward delay len (ms);
#X text 478 268 arg4/in4: input coeff a;
#X text 474 288 arg5/in5: feedforward coeff b;
#X text 476 308 arg6/in6: feedback coeff c;
#X text 64 379 y[n] = a*x[n] + b*x[n-ffdelay] + c*y[n-fbdelay];
#X connect 0 0 15 0;
#X connect 0 0 19 0;
#X connect 1 0 2 0;
#X connect 2 0 3 0;
#X connect 2 0 16 0;
#X connect 4 0 5 0;
#X connect 5 0 19 1;
#X connect 6 0 17 0;
#X connect 7 0 8 0;
#X connect 8 0 20 1;
#X connect 9 0 10 0;
#X connect 10 0 21 1;
#X connect 17 0 20 0;
#X connect 18 0 21 0;
#X connect 19 0 1 0;
#X connect 20 0 1 1;
#X connect 21 0 2 1;
#X connect 22 0 18 0;
