#N canvas 41 198 1121 666 10;
#X obj 343 234 noise~;
#X obj 343 256 *~;
#X obj 426 257 *~;
#X obj 426 279 *~;
#X obj 425 236 line~;
#X msg 422 191 1 \, 0 125;
#X obj 504 250 *~;
#X obj 504 272 *~;
#X obj 503 229 line~;
#X obj 426 301 *~;
#X obj 504 294 *~;
#X obj 449 60 inlet;
#X obj 452 101 bang;
#X obj 342 462 outlet~;
#X msg 497 184 5000 \, 10000 125;
#X obj 344 394 hip~ 10000;
#X obj 346 372 vcf~ 200;
#X connect 0 0 1 0;
#X connect 1 0 16 0;
#X connect 2 0 3 0;
#X connect 2 0 3 1;
#X connect 3 0 9 0;
#X connect 3 0 9 1;
#X connect 4 0 2 0;
#X connect 4 0 2 1;
#X connect 5 0 4 0;
#X connect 6 0 7 0;
#X connect 6 0 7 1;
#X connect 7 0 10 0;
#X connect 7 0 10 1;
#X connect 8 0 6 0;
#X connect 8 0 6 1;
#X connect 9 0 1 1;
#X connect 10 0 16 1;
#X connect 11 0 12 0;
#X connect 12 0 14 0;
#X connect 12 0 5 0;
#X connect 14 0 8 0;
#X connect 15 0 13 0;
#X connect 16 0 15 0;
