#N canvas 91 277 1339 733 10;
#X obj 437 630 *~;
#X obj 485 573 vline~;
#X obj 251 509 noise~;
#X obj 310 428 vline~;
#X obj 217 321 f;
#X obj 403 215 * 0.25;
#X obj 420 253 f;
#X obj 114 134 f \$1;
#X obj 500 243 f;
#X text 387 171 pitch glide proportion;
#X obj 253 216 f;
#X obj 626 249 f;
#X text 670 222 glide dur (prop);
#X obj 798 223 f;
#X obj 987 254 f;
#X text 1052 226 lowpass (hz);
#X obj 319 334 pack 0 0;
#X obj 491 306 *;
#X obj 568 266 t b f;
#X obj 247 145 f \$2;
#X obj 488 154 f \$3;
#X obj 620 178 f \$4;
#X obj 799 157 f \$5;
#X obj 987 170 f \$6;
#X obj 53 192 t b b;
#X obj 536 402 f;
#X obj 39 122 inlet;
#X obj 446 703 outlet~;
#X obj 363 46 loadbang;
#X text 300 183 note dur (ms);
#X text 142 182 main pitch (hz);
#X text 20 45 Derek Kwan \, 2016;
#X obj 646 17 inlet;
#X obj 865 67 bng 15 250 50 0 empty empty empty 17 7 0 10 -262144 -1
-1;
#X msg 865 87 error;
#X obj 865 109 print \$0-dkbd;
#X text 9 18 dksd~: snare drum synth;
#X text 847 201 pitchiness (q);
#X text 585 439 args: 1 main pitch \, 2 note dur (ms) \, 3 pitch glide
prop \, 4 glide dur prop \, 5 pitchiness (q) \, 6 lowpass hz;
#X obj 247 168 moses 4.99;
#X obj 114 158 moses 19.999;
#X obj 493 189 moses 1e-11;
#X obj 620 200 moses 1e-11;
#X obj 798 178 moses 1e-11;
#X obj 987 192 moses 29.9999;
#X text 592 599 args for 2nd inlet: pitch: main pitch \, dur: note
duration \, pgprop: pitch glide prop \, pgdur: pitch glide dur prop
\, noiseamt: pitchiness( q) \, lop: lowpass(hz);
#X obj 603 63 route pitch dur pgprop pgdur pitchamt lop;
#X text 588 491 inlets: 1 trigger \, 2 main pitch/ note dur (ms)/ pitch
glide prop/glide dur prop/pitchiness (q)/lowpass (hz);
#X obj 297 623 lop~ 5000;
#X msg 788 200 10;
#X obj 300 573 vcf~ 10;
#X obj 314 497 +~ 200;
#X msg 332 393 0 \, \$1 2 0 \, 0 \$2 5;
#X obj 485 595 *~;
#X msg 480 552 0 \, 1 2 0 \, 0 \$1 2;
#X obj 430 301 sqrt;
#X obj 312 453 *~;
#X msg 485 211 0.5;
#X msg 620 221 0.75;
#X msg 993 212 5000;
#X msg 110 194 300;
#X msg 246 189 125;
#X obj 263 545 *~ 9;
#X text 147 544 Compensate for q;
#X text 592 554 defaults: main pitch - 300 \, note dur - 125 \, pitch
glide prop - 0.5 \, glide dur prop - 0.75 \, pitchiness - 10 \, lowpass
- 5000;
#X connect 0 0 27 0;
#X connect 1 0 53 0;
#X connect 1 0 53 1;
#X connect 2 0 62 0;
#X connect 3 0 56 1;
#X connect 3 0 56 0;
#X connect 4 0 5 0;
#X connect 4 0 51 1;
#X connect 5 0 6 1;
#X connect 6 0 16 0;
#X connect 7 0 40 0;
#X connect 8 0 5 0;
#X connect 10 0 17 0;
#X connect 10 0 25 1;
#X connect 11 0 18 0;
#X connect 13 0 50 2;
#X connect 14 0 48 1;
#X connect 16 0 52 0;
#X connect 17 0 55 0;
#X connect 18 0 17 0;
#X connect 18 1 17 1;
#X connect 19 0 39 0;
#X connect 20 0 41 0;
#X connect 21 0 42 0;
#X connect 22 0 43 0;
#X connect 23 0 44 0;
#X connect 24 0 6 0;
#X connect 24 1 25 0;
#X connect 25 0 54 0;
#X connect 26 0 24 0;
#X connect 28 0 7 0;
#X connect 28 0 19 0;
#X connect 28 0 20 0;
#X connect 28 0 21 0;
#X connect 28 0 22 0;
#X connect 28 0 23 0;
#X connect 32 0 46 0;
#X connect 33 0 34 0;
#X connect 34 0 35 0;
#X connect 39 0 61 0;
#X connect 39 1 10 0;
#X connect 40 0 60 0;
#X connect 40 1 4 0;
#X connect 41 0 57 0;
#X connect 41 1 8 0;
#X connect 42 0 58 0;
#X connect 42 1 11 0;
#X connect 43 0 49 0;
#X connect 43 1 13 0;
#X connect 44 0 59 0;
#X connect 44 1 14 0;
#X connect 46 0 7 0;
#X connect 46 1 19 0;
#X connect 46 2 20 0;
#X connect 46 3 21 0;
#X connect 46 4 22 0;
#X connect 46 5 23 0;
#X connect 46 6 33 0;
#X connect 48 0 0 0;
#X connect 49 0 13 0;
#X connect 50 0 48 0;
#X connect 51 0 50 1;
#X connect 52 0 3 0;
#X connect 53 0 0 1;
#X connect 54 0 1 0;
#X connect 55 0 16 1;
#X connect 56 0 51 0;
#X connect 57 0 8 0;
#X connect 58 0 11 0;
#X connect 59 0 14 0;
#X connect 60 0 4 0;
#X connect 61 0 10 0;
#X connect 62 0 50 0;
