#N canvas 659 203 552 405 10;
#X obj 148 -151 spigot;
#X obj 219 -182 tgl 15 0 empty empty empty 17 7 0 10 -262144 -1 -1
0 1;
#X msg 185 -190 0;
#X obj 98 -106 bng 15 250 50 0 empty empty empty 17 7 0 10 -262144
-1 -1;
#X obj 235 -101 bng 15 250 50 0 empty empty empty 17 7 0 10 -262144
-1 -1;
#X obj 347 -347 inlet;
#X obj 345 -307 bng 15 250 50 0 empty empty empty 17 7 0 10 -262144
-1 -1;
#X obj 209 -230 loadbang;
#X obj 112 -351 inlet;
#X obj 219 -37 outlet;
#X obj 106 -65 outlet;
#X obj 143 -238 metro \$1;
#X obj 200 -352 inlet;
#X text 338 -67 bangsync by Derek X. Kwan;
#X text 236 -59 beat monitoring;
#X text 123 -105 synced bang;
#X text 389 -341 bang to be synced;
#X text 50 -350 tgl on/off;
#X text 213 -334 change tempo (m/s);
#X connect 0 0 3 0;
#X connect 1 0 0 1;
#X connect 2 0 1 0;
#X connect 3 0 10 0;
#X connect 4 0 9 0;
#X connect 5 0 6 0;
#X connect 6 0 1 0;
#X connect 7 0 2 0;
#X connect 8 0 11 0;
#X connect 11 0 0 0;
#X connect 11 0 2 0;
#X connect 11 0 4 0;
#X connect 12 0 11 1;
