#N canvas 677 442 450 300 10;
#X obj 56 39 inlet~;
#X obj 71 76 *~;
#X text 64 18 a;
#X obj 123 39 inlet~;
#X obj 149 76 *~;
#X text 131 18 bi;
#X obj 129 109 +~;
#X obj 130 136 +~ 1e-20;
#X text 191 139 protect against div0;
#X obj 129 159 q8_rsqrt~;
#X obj 127 209 *~;
#X obj 58 206 *~;
#X obj 52 241 outlet~;
#X obj 129 238 outlet~;
#X connect 0 0 1 0;
#X connect 0 0 1 1;
#X connect 0 0 11 0;
#X connect 1 0 6 0;
#X connect 3 0 4 0;
#X connect 3 0 4 1;
#X connect 3 0 10 0;
#X connect 4 0 6 1;
#X connect 6 0 7 0;
#X connect 7 0 9 0;
#X connect 9 0 10 1;
#X connect 9 0 11 1;
#X connect 10 0 13 0;
#X connect 11 0 12 0;
