#N canvas 223 314 875 660 12;
#X obj 579 229 inlet;
#X obj 255 429 f 0;
#X obj 337 428 + 1;
#X obj 240 227 inlet;
#X obj 243 315 t b f;
#X obj 337 453 outlet;
#X text 285 222 float;
#X text 633 232 reset;
#X text 407 456 current total;
#X text 23 25 dkaccum - running sum;
#X obj 371 350 f \$1;
#X obj 387 152 loadbang;
#X obj 407 238 inlet;
#X text 431 201 change current value;
#X text 25 160 inlet - input/current/reset;
#X text 29 185 outlet - current total;
#X text 22 131 args - current (and reset) value;
#X text 673 16 derek kwan 2017;
#X text 670 61 pdkvabs;
#X text 668 42 gpl v 3;
#X connect 0 0 10 0;
#X connect 1 0 2 0;
#X connect 2 0 1 1;
#X connect 2 0 5 0;
#X connect 3 0 4 0;
#X connect 4 0 1 0;
#X connect 4 1 2 1;
#X connect 10 0 1 1;
#X connect 11 0 10 0;
#X connect 12 0 10 1;
