#N canvas 223 131 592 425 12;
#X obj 70 104 loadbang;
#X obj 70 274 pdcontrol;
#X obj 70 298 t l l, f 16;
#X obj 170 374 list length;
#X obj 170 398 outlet;
#X obj 73 401 outlet;
#X obj 169 132 inlet;
#X obj 70 196 f \$1, f 29;
#X obj 70 220 max 1;
#X msg 70 250 args \$1;
#X obj 279 133 inlet;
#X text 31 17 dkargs: parent args abstractions;
#X text 158 100 get args;
#X text 281 99 arg level;
#X obj 169 156 bang;
#X text 45 361 args;
#X text 186 337 num args;
#X connect 0 0 7 0;
#X connect 1 0 2 0;
#X connect 2 0 5 0;
#X connect 2 1 3 0;
#X connect 3 0 4 0;
#X connect 6 0 14 0;
#X connect 7 0 8 0;
#X connect 8 0 9 0;
#X connect 9 0 1 0;
#X connect 10 0 7 1;
#X connect 14 0 7 0;
