#N canvas 393 96 1376 643 12;
#X obj 311 53 inlet~;
#X text 376 51 position in samples;
#X obj 303 108 snapshot~;
#X obj 920 38 inlet;
#X obj 309 554 *~;
#X obj 399 437 line~;
#X msg 404 405 \$1 5;
#X obj 712 96 loadbang;
#X msg 714 154 0;
#X obj 544 88 inlet;
#X text 605 82 on/off;
#X obj 578 150 == 1;
#X obj 774 362 f \$2;
#X obj 774 387 moses 1e-20;
#X msg 773 420 1;
#X obj 773 445 t b f;
#X msg 773 470 1;
#X obj 773 495 /;
#X text 819 349 number of grains;
#X obj 309 581 outlet~;
#X text 1 113 INLETS:;
#X text 0 146 position in samples/;
#X text 2 173 tgl/messages;
#X text 9 315 ARGS:;
#X text 7 342 array name \, number of grains;
#X text 8 238 OUTLETS:;
#X text 9 261 signal~;
#X text 1131 28 derek kwan 2017;
#X text 1131 50 gpl v 3;
#X obj 300 374 *~ 1;
#X msg 990 226 all randamp \$1;
#X text 1134 74 pdkvabs;
#X text 10 19 dkasyncgrn~ - synchronous granular synth;
#N canvas 20 442 1384 508 \$0-dkasyncgrn-trig 0;
#X obj 407 298 metro;
#X obj 491 226 f;
#X obj 527 149 del 1;
#X obj 520 169 v \$0-grainms;
#X obj 378 74 inlet;
#X text 429 80 on/off;
#X obj 525 72 inlet;
#X text 577 74 grainms;
#X obj 610 114 loadbang;
#X obj 389 436 outlet;
#X text 477 435 trigger;
#X obj 772 65 inlet;
#X text 831 71 num grains;
#X obj 498 260 * 8;
#X obj 746 141 t b f;
#X obj 721 414 outlet;
#X text 781 419 trig interval;
#X obj 964 68 inlet;
#X obj 829 149 t b f;
#X obj 964 104 moses 1;
#X text 1015 70 overlap;
#X obj 490 327 / 16;
#X obj 514 199 t f f;
#X connect 0 0 9 0;
#X connect 1 0 13 0;
#X connect 2 0 3 0;
#X connect 3 0 22 0;
#X connect 4 0 0 0;
#X connect 6 0 1 0;
#X connect 8 0 2 0;
#X connect 11 0 14 0;
#X connect 13 0 15 0;
#X connect 13 0 21 0;
#X connect 14 0 13 0;
#X connect 14 1 13 1;
#X connect 17 0 19 0;
#X connect 18 0 21 0;
#X connect 18 1 21 1;
#X connect 19 1 18 0;
#X connect 21 0 0 1;
#X connect 22 0 1 0;
#X connect 22 1 21 1;
#X restore 536 201 pd \$0-dkasyncgrn-trig;
#N canvas 671 221 1136 367 \$0-dkasyncgrn-init 0;
#X obj 301 261 v \$0-samplelen;
#X obj 515 214 v \$0-grainms;
#X obj 642 310 v \$0-grainsamp;
#X obj 305 225 array size \$1;
#X obj 688 232 samplerate~;
#X obj 688 257 / 1000;
#X obj 588 133 t f f b;
#X obj 633 271 *;
#X obj 812 280 v \$0-randsamp;
#X obj 878 216 / 1000;
#X obj 878 191 samplerate~;
#X obj 830 243 *;
#X obj 839 163 t f b;
#X text 893 165 randomized in ms;
#X text 651 76 grain length in ms;
#X obj 643 25 inlet;
#X obj 921 25 inlet;
#X obj 758 11 loadbang;
#X obj 325 161 t b s;
#X obj 331 76 inlet;
#X text 389 96 array name;
#X msg 805 104 3;
#X msg 583 77 125;
#X connect 3 0 0 0;
#X connect 4 0 5 0;
#X connect 5 0 7 1;
#X connect 6 0 1 0;
#X connect 6 1 7 0;
#X connect 6 2 4 0;
#X connect 7 0 2 0;
#X connect 9 0 11 1;
#X connect 10 0 9 0;
#X connect 11 0 8 0;
#X connect 12 0 11 0;
#X connect 12 1 10 0;
#X connect 15 0 6 0;
#X connect 16 0 12 0;
#X connect 17 0 21 0;
#X connect 17 0 22 0;
#X connect 17 0 3 0;
#X connect 18 0 3 0;
#X connect 18 1 3 1;
#X connect 19 0 18 0;
#X connect 21 0 12 0;
#X connect 22 0 6 0;
#X restore 852 208 pd \$0-dkasyncgrn-init;
#X msg 303 133 all \$1;
#X obj 544 113 t f f;
#X obj 428 205 sel 0;
#X msg 428 230 all stop;
#X msg 564 266 all trigivl \$1;
#X msg 773 233 all set \$1;
#X obj 851 170 symbol;
#X obj 871 105 route set grainms randms randamp overlap;
#X obj 300 349 clone -x util/dkasyncgrn-grain~ \$2 \$0 \$1;
#X connect 0 0 2 0;
#X connect 2 0 35 0;
#X connect 3 0 42 0;
#X connect 4 0 19 0;
#X connect 5 0 4 1;
#X connect 6 0 5 0;
#X connect 7 0 8 0;
#X connect 7 0 12 0;
#X connect 7 0 42 0;
#X connect 8 0 5 0;
#X connect 9 0 36 0;
#X connect 11 0 6 0;
#X connect 11 0 33 0;
#X connect 12 0 13 0;
#X connect 13 0 14 0;
#X connect 14 0 15 0;
#X connect 15 0 16 0;
#X connect 15 1 17 1;
#X connect 15 1 33 2;
#X connect 16 0 17 0;
#X connect 17 0 29 1;
#X connect 29 0 4 0;
#X connect 30 0 43 1;
#X connect 33 0 2 0;
#X connect 33 1 39 0;
#X connect 35 0 43 0;
#X connect 36 0 37 0;
#X connect 36 1 11 0;
#X connect 37 0 38 0;
#X connect 38 0 43 1;
#X connect 39 0 43 1;
#X connect 40 0 43 1;
#X connect 41 0 40 0;
#X connect 41 0 34 0;
#X connect 42 0 41 0;
#X connect 42 1 34 1;
#X connect 42 1 33 1;
#X connect 42 2 34 2;
#X connect 42 3 30 0;
#X connect 42 4 33 3;
#X connect 43 0 29 0;
