#N canvas 668 112 1423 859 12;
#X obj 417 502 bonk~;
#X obj 448 124 array size \$1;
#X obj 424 413 line~;
#X obj 500 219 samplerate~;
#X obj 500 244 / 1000;
#X obj 436 181 t f f b;
#X obj 387 347 pack f f;
#X obj 405 641 list store;
#X obj 382 553 snapshot~;
#X msg 382 578 append \$1;
#X obj 745 33 inlet;
#X obj 514 30 inlet;
#X text 570 35 start;
#X obj 714 516 array define \$0-qpt;
#X obj 464 303 t f f, f 18;
#X obj 610 451 del;
#X text 797 37 stop;
#X msg 824 164 stop;
#X obj 749 68 t b b;
#X obj 515 708 list length;
#X obj 515 733 array size \$0-qpt;
#X obj 456 772 array set \$0-qpt;
#X obj 892 26 inlet;
#X text 943 25 messages;
#X obj 828 436 symbol;
#X msg 791 475 write \$1;
#X msg 705 458 const -1;
#X obj 584 264 f 0;
#X text 19 12 dkattqpt - record attack cuepoints in a sound;
#X msg 1027 182 bang;
#X obj 420 676 t a a a;
#X obj 409 802 outlet;
#X text 47 38 inlets: start/stop/;
#X obj 892 51 route start stop array write offset dump;
#X obj 986 112 symbol;
#X msg 986 137 set \$1;
#X text 48 61 messages (start/stop/array/write/offset/dump/bonk msgs)
;
#X text 52 88 args: array name;
#X obj 701 803 outlet~;
#X obj 618 555 /~ 1;
#X text 467 802 dump;
#X text 734 783 progress;
#X text 56 115 outlet: dump/progress;
#X text 1241 16 derek kwan;
#X text 1246 37 pdkvabs;
#X text 1249 69 gpl v 3 2017;
#X obj 425 465 tabread4~ \$1;
#X obj 501 83 t b b b b, f 15;
#X msg 417 527 bang;
#X obj 469 270 /;
#X connect 0 0 48 0;
#X connect 1 0 5 0;
#X connect 1 0 39 1;
#X connect 2 0 8 0;
#X connect 2 0 39 0;
#X connect 2 0 46 0;
#X connect 3 0 4 0;
#X connect 4 0 49 1;
#X connect 5 0 6 0;
#X connect 5 1 49 0;
#X connect 5 2 3 0;
#X connect 6 0 2 0;
#X connect 7 0 30 0;
#X connect 8 0 9 0;
#X connect 9 0 7 0;
#X connect 10 0 18 0;
#X connect 11 0 47 0;
#X connect 14 0 6 1;
#X connect 14 1 15 0;
#X connect 15 0 7 0;
#X connect 17 0 15 0;
#X connect 17 0 2 0;
#X connect 18 0 7 0;
#X connect 18 1 17 0;
#X connect 19 0 20 0;
#X connect 22 0 33 0;
#X connect 24 0 25 0;
#X connect 25 0 13 0;
#X connect 26 0 13 0;
#X connect 27 0 2 0;
#X connect 29 0 7 0;
#X connect 30 0 31 0;
#X connect 30 1 21 0;
#X connect 30 2 19 0;
#X connect 33 0 18 0;
#X connect 33 1 17 0;
#X connect 33 2 34 0;
#X connect 33 3 24 0;
#X connect 33 4 27 1;
#X connect 33 5 29 0;
#X connect 33 6 0 0;
#X connect 34 0 35 0;
#X connect 34 0 1 1;
#X connect 35 0 46 0;
#X connect 39 0 38 0;
#X connect 46 0 0 0;
#X connect 47 0 1 0;
#X connect 47 1 27 0;
#X connect 47 2 7 1;
#X connect 47 2 26 0;
#X connect 47 3 18 0;
#X connect 48 0 8 0;
#X connect 49 0 14 0;
