#N canvas 231 216 1405 831 12;
#X obj 478 102 inlet~;
#X obj 769 66 loadbang;
#X obj 434 722 outlet~;
#X text 1023 17 derek kwan;
#X text 1026 64 gpl v 3 2017;
#X obj 554 66 inlet;
#X obj 644 139 inlet;
#X obj 921 141 inlet;
#X text 974 137 bypass;
#X obj 629 255 env~;
#X obj 325 598 vcf~ 5;
#X obj 629 280 - 20;
#X obj 629 412 + 20;
#X obj 254 385 delwrite~ \$0-dkautowah_del 5;
#X obj 626 494 line~;
#X msg 629 437 \$1 2;
#X obj 624 519 lop~ 3, f 7;
#X obj 631 379 * 29.8;
#X obj 379 655 pdkez_sig2sel~;
#X obj 629 305 clip 0 80;
#X obj 632 336 * 1.25;
#X text 698 335 1 - 100 for sanity's sake;
#X text 678 262 scale from 20-100;
#X text 727 393 1 - 500 (*4.8) -> 1 - 8000 (* 79.8);
#X obj 551 310 * 75;
#X obj 551 335 + 4.8;
#X obj 554 91 s \$0-dkautowah_range;
#X obj 651 190 s \$0-dkautowah_q;
#X text 613 69 range;
#X text 693 141 q;
#X obj 769 91 s \$0-dkautowah_sel;
#X text 851 68 sel;
#X obj 280 432 delread~ \$0-dkautowah_del 1.5;
#X obj 921 166 s \$0-dkautowah_bypass;
#X obj 557 571 r \$0-dkautowah_bypass;
#X obj 434 697 util/pdkvabs_switcher~;
#X obj 435 521 r \$0-dkautowah_sel;
#X obj 440 243 r \$0-dkautowah_range;
#X obj 440 268 clip 0 1;
#X obj 346 488 r \$0-dkautowah_q;
#X obj 986 442 loadbang;
#X obj 988 507 f \$1;
#X msg 988 557 0.5;
#X obj 1116 505 f \$2;
#X obj 988 532 moses 1e-20;
#X obj 1116 530 moses 1e-20;
#X obj 896 620 pack \$0 f f f, f 29;
#X obj 986 467 t b b;
#X obj 1250 502 f \$3;
#X text 1048 505 range;
#X text 1166 505 q;
#X msg 1116 555 5;
#X text 1300 508 sel;
#X msg 896 646 \; \$1-dkautowah_range \$1 \; \$1-dkautowah_q \$2 \;
\$1-dkautowah_sel \$3 \;;
#X text 1028 41 pdkvabs;
#X connect 0 0 13 0;
#X connect 0 0 9 0;
#X connect 0 0 35 1;
#X connect 1 0 30 0;
#X connect 5 0 26 0;
#X connect 6 0 27 0;
#X connect 7 0 33 0;
#X connect 9 0 11 0;
#X connect 10 0 18 0;
#X connect 10 1 18 1;
#X connect 11 0 19 0;
#X connect 12 0 15 0;
#X connect 14 0 16 0;
#X connect 15 0 14 0;
#X connect 16 0 10 1;
#X connect 17 0 12 0;
#X connect 18 0 35 0;
#X connect 19 0 20 0;
#X connect 20 0 17 0;
#X connect 24 0 25 0;
#X connect 25 0 17 1;
#X connect 32 0 10 0;
#X connect 34 0 35 2;
#X connect 35 0 2 0;
#X connect 36 0 18 2;
#X connect 37 0 38 0;
#X connect 38 0 24 0;
#X connect 39 0 10 2;
#X connect 40 0 47 0;
#X connect 41 0 44 0;
#X connect 42 0 46 1;
#X connect 43 0 45 0;
#X connect 44 0 42 0;
#X connect 44 1 46 1;
#X connect 45 0 51 0;
#X connect 45 1 46 2;
#X connect 46 0 53 0;
#X connect 47 0 46 0;
#X connect 47 1 43 0;
#X connect 47 1 41 0;
#X connect 47 1 48 0;
#X connect 48 0 46 3;
#X connect 51 0 46 2;
