#N canvas 1150 399 699 745 12;
#X obj 144 175 inlet;
#X obj 290 178 inlet;
#X obj 145 418 sel 0 1;
#X msg 290 203 0;
#X obj 407 249 loadbang;
#X obj 407 274 f \$1;
#X obj 145 459 outlet;
#X obj 226 450 outlet;
#X text 14 19 dkbangroute - route bang with bang;
#X text 19 93 else right (or if arg nonzero);
#X text 506 22 derek kwan \, pdkvabs;
#X obj 407 299 == 0;
#X text 510 55 gpl v 3 2017;
#X text 18 64 if middle inlet gets bang \, left bang goes out left
;
#X text 17 143 right inlet resets state;
#X obj 478 171 inlet;
#X msg 144 199 bang;
#X obj 144 297 f;
#X obj 144 321 t f b;
#X msg 206 341 1;
#X connect 0 0 16 0;
#X connect 1 0 3 0;
#X connect 2 0 6 0;
#X connect 2 1 7 0;
#X connect 3 0 17 1;
#X connect 4 0 5 0;
#X connect 5 0 11 0;
#X connect 11 0 17 1;
#X connect 15 0 19 0;
#X connect 16 0 17 0;
#X connect 17 0 18 0;
#X connect 18 0 2 0;
#X connect 18 1 19 0;
#X connect 19 0 17 1;
