#N canvas 726 133 1124 769 10;
#X obj 450 663 *~;
#X obj 485 636 vline~;
#X obj 239 541 phasor~ 75;
#X obj 271 577 +~;
#X obj 316 536 noise~;
#X obj 272 608 cos~;
#X obj 319 447 vline~;
#X obj 312 560 *~ 0.005;
#X obj 271 623 lop~ 500;
#X obj 115 227 f;
#X msg 109 194 50;
#X obj 255 489 +~ 50;
#X obj 403 215 * 0.25;
#X obj 420 253 f;
#X obj 114 157 moses 20;
#X obj 114 134 f \$1;
#X obj 493 189 moses 0;
#X msg 485 211 0.25;
#X obj 500 243 f;
#X text 387 171 pitch glide proportion;
#X obj 247 167 moses 5;
#X obj 253 216 f;
#X obj 626 249 f;
#X text 677 213 glide dur (prop);
#X obj 620 200 moses 0;
#X msg 620 222 0.5;
#X obj 798 179 moses 0;
#X msg 798 201 0.5;
#X obj 798 223 f;
#X obj 798 245 / 100;
#X text 853 187 noisiness (percent);
#X obj 987 236 f;
#X obj 987 192 moses 30;
#X msg 987 214 500;
#X text 1042 200 lowpass (hz);
#X obj 319 334 pack 0 0;
#X obj 491 306 *;
#X obj 568 266 t b f;
#X msg 331 393 0 \, \$1 5 0 \, 0 \$2 5;
#X obj 247 145 f \$2;
#X obj 488 154 f \$3;
#X obj 620 178 f \$4;
#X obj 799 157 f \$5;
#X obj 987 170 f \$6;
#X obj 53 192 t b b;
#X obj 536 402 f;
#X msg 485 614 0 \, 1 5 0 \, 0 \$1 5;
#X obj 39 122 inlet;
#X obj 457 717 outlet~;
#X obj 119 84 inlet;
#X obj 235 115 inlet;
#X obj 363 46 loadbang;
#X text 586 439 args: 1 main pitch \, 2 note dur (ms) \, 3 pitch glide
prop \, 4 glide dur prop \, 5 noisiness (%) \, 6 lowpass hz;
#X text 304 180 note dur (ms);
#X text 142 182 main pitch (hz);
#X text 20 45 Derek Kwan \, 2016;
#X text 9 18 dkbd~: bass drum synth;
#X obj 646 17 inlet;
#X obj 865 67 bng 15 250 50 0 empty empty empty 17 7 0 10 -262144 -1
-1;
#X msg 865 87 error;
#X obj 865 109 print \$0-dkbd;
#X text 588 491 inlets: 1 trigger \, 2 main pitch \, 3 note dur (ms)
\, 4 pitch glide prop/glide dur prop/noisiness (%)/lowpass (hz);
#X text 592 599 args for third inlet: pgprop: pitch glide prop \, pgdur:
pitch glide dur prop \, noiseamt: noisiness( %) \, lop: lowpass(hz)
;
#X obj 640 52 route pgprop pgdur noiseamt lop;
#X text 591 552 defaults: main pitch - 50 \, note dur - 75 \, pitch
glide prop - 0.25 \, glide dur prop - 0.5 \, noisiness - 0.5 \, lowpass
- 500;
#X msg 247 189 75;
#X connect 0 0 48 0;
#X connect 1 0 0 1;
#X connect 2 0 3 0;
#X connect 3 0 5 0;
#X connect 4 0 7 0;
#X connect 5 0 8 0;
#X connect 6 0 11 0;
#X connect 7 0 3 1;
#X connect 8 0 0 0;
#X connect 9 0 11 1;
#X connect 9 0 12 0;
#X connect 10 0 9 0;
#X connect 11 0 2 0;
#X connect 12 0 13 1;
#X connect 13 0 35 0;
#X connect 14 0 10 0;
#X connect 14 1 9 0;
#X connect 15 0 14 0;
#X connect 16 0 17 0;
#X connect 16 1 18 0;
#X connect 17 0 18 0;
#X connect 18 0 12 0;
#X connect 20 0 65 0;
#X connect 20 1 21 0;
#X connect 21 0 36 0;
#X connect 21 0 45 1;
#X connect 22 0 37 0;
#X connect 24 0 25 0;
#X connect 24 1 22 0;
#X connect 25 0 22 0;
#X connect 26 0 27 0;
#X connect 26 1 28 0;
#X connect 27 0 28 0;
#X connect 28 0 29 0;
#X connect 29 0 7 1;
#X connect 31 0 8 1;
#X connect 32 0 33 0;
#X connect 32 1 31 0;
#X connect 33 0 31 0;
#X connect 35 0 38 0;
#X connect 36 0 35 1;
#X connect 37 0 36 0;
#X connect 37 1 36 1;
#X connect 38 0 6 0;
#X connect 39 0 20 0;
#X connect 40 0 16 0;
#X connect 41 0 24 0;
#X connect 42 0 26 0;
#X connect 43 0 32 0;
#X connect 44 0 13 0;
#X connect 44 1 45 0;
#X connect 45 0 46 0;
#X connect 46 0 1 0;
#X connect 47 0 44 0;
#X connect 49 0 15 0;
#X connect 50 0 39 0;
#X connect 51 0 15 0;
#X connect 51 0 39 0;
#X connect 51 0 40 0;
#X connect 51 0 41 0;
#X connect 51 0 42 0;
#X connect 51 0 43 0;
#X connect 57 0 63 0;
#X connect 58 0 59 0;
#X connect 59 0 60 0;
#X connect 63 0 40 0;
#X connect 63 1 41 0;
#X connect 63 2 42 0;
#X connect 63 3 43 0;
#X connect 63 4 58 0;
#X connect 65 0 21 0;
