#N canvas 1021 265 1390 843 12;
#X obj 306 440 phasor~;
#X obj 357 346 samplerate~;
#X obj 187 265 sel 1;
#X obj 140 403 *~ 1;
#X obj 194 405 *~ 0;
#X obj 412 31 inlet~;
#X msg 204 301 1;
#X msg 285 296 0;
#X msg 106 321 0;
#X obj 202 492 samphold~;
#X obj 364 282 t b f;
#X obj 364 381 /;
#X msg 599 450 16;
#X msg 642 449 8;
#X msg 686 453 4;
#X msg 737 457 2;
#X msg 782 458 1;
#X obj 558 519 expr pow(2 \, $f1);
#X obj 558 544 / 2;
#X text 606 547 half since pos and neg;
#X obj 220 723 outlet~;
#X msg 159 321 1;
#X obj 568 405 sel 0 1 2 3 4;
#X obj 486 39 inlet;
#X text 547 36 bitres;
#X obj 586 123 inlet;
#X text 647 120 rate;
#X obj 698 52 inlet;
#X text 751 48 bypass;
#X obj 698 77 s \$0-dkbitcrush_bypass;
#X text 938 60 derek kwan;
#X text 941 107 gpl v 3 2017;
#X obj 269 553 expr~ rint($v1 * $f2)/$f2;
#X obj 217 673 util/pdkvabs_switcher~;
#X obj 213 208 r \$0-dkbitcrush_rate;
#X obj 585 181 s \$0-dkbitcrush_rate;
#X obj 483 96 s \$0-dkbitcrush_bitres;
#X obj 399 624 r \$0-dkbitcrush_bypass;
#X obj 557 374 r \$0-dkbitcrush_bitres;
#X text 37 85 bitres: bit reduction level (0-4);
#X text 47 119 rate: rate reduction amt;
#X obj 976 338 loadbang;
#X obj 978 403 f \$1;
#X obj 1106 401 f \$2;
#X text 1156 401 rate;
#X obj 976 363 t b b;
#X obj 886 516 pack \$0 f f, f 29;
#X text 1038 401 bitres;
#X text 943 84 pdkvabs;
#X msg 886 542 \; \$1-dkbitcrush_bitres \$2 \; \$1-dkbitcrush_rate
\$3 \;;
#X obj 1106 425 max 1;
#X obj 586 147 max 1;
#X connect 0 0 9 1;
#X connect 1 0 11 0;
#X connect 2 0 8 0;
#X connect 2 0 21 0;
#X connect 2 1 6 0;
#X connect 2 1 7 0;
#X connect 3 0 32 0;
#X connect 4 0 9 0;
#X connect 5 0 4 0;
#X connect 5 0 3 0;
#X connect 5 0 33 1;
#X connect 6 0 4 1;
#X connect 7 0 3 1;
#X connect 8 0 4 1;
#X connect 9 0 32 0;
#X connect 10 0 1 0;
#X connect 10 1 11 1;
#X connect 11 0 0 0;
#X connect 12 0 17 0;
#X connect 13 0 17 0;
#X connect 14 0 17 0;
#X connect 15 0 17 0;
#X connect 16 0 17 0;
#X connect 17 0 18 0;
#X connect 18 0 32 1;
#X connect 21 0 3 1;
#X connect 22 0 12 0;
#X connect 22 1 13 0;
#X connect 22 2 14 0;
#X connect 22 3 15 0;
#X connect 22 4 16 0;
#X connect 23 0 36 0;
#X connect 25 0 51 0;
#X connect 27 0 29 0;
#X connect 32 0 33 0;
#X connect 33 0 20 0;
#X connect 34 0 10 0;
#X connect 34 0 2 0;
#X connect 37 0 33 2;
#X connect 38 0 22 0;
#X connect 41 0 45 0;
#X connect 42 0 46 1;
#X connect 43 0 50 0;
#X connect 45 0 46 0;
#X connect 45 1 43 0;
#X connect 45 1 42 0;
#X connect 46 0 49 0;
#X connect 50 0 46 2;
#X connect 51 0 35 0;
