#N canvas 1184 448 450 318 10;
#X obj 120 47 inlet~;
#X obj 234 132 pow;
#X msg 225 103 2;
#X obj 231 77 t b f;
#X obj 234 154 / 2;
#X obj 85 195 expr~ rint($v1 * $f2)/$f2;
#X obj 310 70 f \$1;
#X msg 308 120 32;
#X obj 323 26 loadbang;
#X obj 274 26 inlet;
#X obj 85 217 outlet~;
#X text 40 11 args: \$1 - bits;
#X text 23 286 based off 3.Bit-Reduction by Alexander Torres Porres
;
#X obj 308 97 moses 0.5;
#X connect 0 0 5 0;
#X connect 1 0 4 0;
#X connect 2 0 1 0;
#X connect 3 0 2 0;
#X connect 3 1 1 1;
#X connect 4 0 5 1;
#X connect 5 0 10 0;
#X connect 6 0 13 0;
#X connect 7 0 3 0;
#X connect 8 0 6 0;
#X connect 9 0 6 0;
#X connect 13 0 7 0;
#X connect 13 1 3 0;
