#N canvas 285 456 982 493 12;
#X obj 388 87 i;
#X obj 521 258 / 2;
#X obj 515 216 t f f;
#X obj 564 253 % 2;
#X obj 384 153 moses 1e-30, f 19;
#X obj 548 336 list append;
#X obj 561 377 list;
#X obj 456 388 spigot 0;
#X obj 391 210 t b b;
#X msg 453 323 1;
#X msg 494 323 0;
#X obj 456 413 print;
#X text 535 416 accumulate numbers in reverse;
#X obj 475 52 t f b;
#X obj 473 9 inlet;
#X text 22 7 dkbinlist;
#X text 21 29 int to binary list;
#X text 21 129 INLETS:;
#X text 23 146 integer;
#X text 20 220 OUTLET:;
#X text 21 243 binary list;
#X text 834 8 Derek Kwan 2017;
#X text 921 31 pdkm;
#X text 896 56 gpl v 3;
#X connect 0 0 4 0;
#X connect 1 0 0 0;
#X connect 2 0 1 0;
#X connect 2 1 3 0;
#X connect 3 0 5 0;
#X connect 4 0 8 0;
#X connect 4 1 2 0;
#X connect 5 0 6 0;
#X connect 5 0 7 0;
#X connect 6 0 5 1;
#X connect 7 0 11 0;
#X connect 8 0 5 0;
#X connect 8 1 9 0;
#X connect 9 0 7 1;
#X connect 10 0 7 1;
#X connect 13 0 0 0;
#X connect 13 1 5 1;
#X connect 13 1 10 0;
#X connect 14 0 13 0;
