#N canvas 539 224 1390 843 12;
#X obj 306 440 phasor~;
#X obj 357 346 samplerate~;
#X obj 187 265 sel 1;
#X obj 140 403 *~ 1;
#X obj 194 405 *~ 0;
#X obj 412 31 inlet~;
#X msg 204 301 1;
#X msg 285 296 0;
#X msg 106 321 0;
#X obj 202 492 samphold~;
#X obj 364 282 t b f;
#X obj 364 381 /;
#X obj 220 723 outlet~;
#X msg 159 321 1;
#X obj 486 39 inlet;
#X text 547 36 bitres;
#X obj 586 123 inlet;
#X text 647 120 rate;
#X obj 698 52 inlet;
#X text 751 48 bypass;
#X obj 698 77 s \$0-dkbitcrush_bypass;
#X text 938 60 derek kwan;
#X text 941 107 gpl v 3 2017;
#X obj 217 673 util/pdkvabs_switcher~;
#X obj 213 208 r \$0-dkbitcrush_rate;
#X obj 585 181 s \$0-dkbitcrush_rate;
#X obj 483 96 s \$0-dkbitcrush_bitres;
#X obj 399 624 r \$0-dkbitcrush_bypass;
#X obj 557 374 r \$0-dkbitcrush_bitres;
#X text 47 119 rate: rate reduction amt;
#X obj 976 338 loadbang;
#X obj 978 403 f \$1;
#X obj 1106 401 f \$2;
#X text 1156 401 rate;
#X obj 976 363 t b b;
#X obj 886 516 pack \$0 f f, f 29;
#X text 1038 401 bitres;
#X text 943 84 pdkvabs;
#X msg 886 542 \; \$1-dkbitcrush_bitres \$2 \; \$1-dkbitcrush_rate
\$3 \;;
#X obj 1106 425 max 1;
#X obj 586 147 max 1;
#X text 37 85 bits: num bits;
#X obj 557 398 max 0;
#X obj 558 463 t b f;
#X msg 560 485 0.5;
#X obj 560 509 pow;
#X obj 269 553 expr~ rint($v1/$f2)*$f2;
#X obj 557 422 - 1;
#X connect 0 0 9 1;
#X connect 1 0 11 0;
#X connect 2 0 8 0;
#X connect 2 0 13 0;
#X connect 2 1 6 0;
#X connect 2 1 7 0;
#X connect 3 0 46 0;
#X connect 4 0 9 0;
#X connect 5 0 4 0;
#X connect 5 0 3 0;
#X connect 5 0 23 1;
#X connect 6 0 4 1;
#X connect 7 0 3 1;
#X connect 8 0 4 1;
#X connect 9 0 46 0;
#X connect 10 0 1 0;
#X connect 10 1 11 1;
#X connect 11 0 0 0;
#X connect 13 0 3 1;
#X connect 14 0 26 0;
#X connect 16 0 40 0;
#X connect 18 0 20 0;
#X connect 23 0 12 0;
#X connect 24 0 10 0;
#X connect 24 0 2 0;
#X connect 27 0 23 2;
#X connect 28 0 42 0;
#X connect 30 0 34 0;
#X connect 31 0 35 1;
#X connect 32 0 39 0;
#X connect 34 0 35 0;
#X connect 34 1 32 0;
#X connect 34 1 31 0;
#X connect 35 0 38 0;
#X connect 39 0 35 2;
#X connect 40 0 25 0;
#X connect 42 0 47 0;
#X connect 43 0 44 0;
#X connect 43 1 45 1;
#X connect 44 0 45 0;
#X connect 45 0 46 1;
#X connect 46 0 23 0;
#X connect 47 0 43 0;
