#N canvas 900 465 450 300 10;
#X obj 48 61 inlet~;
#X obj 124 63 inlet~;
#X text 53 35 a;
#X text 133 36 ib;
#X text 97 33 +;
#X obj 198 63 inlet~;
#X obj 274 65 inlet~;
#X text 247 35 +;
#X text 203 37 c;
#X text 284 38 id;
#X obj 63 126 *~;
#X obj 124 120 *~;
#X obj 288 125 *~;
#X obj 206 120 *~;
#X text 18 126 ac;
#X text 116 147 bd;
#X text 206 151 bc;
#X text 303 145 ad;
#X obj 217 269 outlet~;
#X obj 97 269 outlet~;
#X obj 63 177 +~;
#X obj 251 188 -~;
#X obj 333 189 *~;
#X obj 381 183 *~;
#X obj 85 225 /~;
#X obj 224 228 /~;
#X obj 357 212 +~;
#X text 335 157 c2;
#X text 388 157 d2;
#X text 296 266 protect against div0;
#X obj 330 245 +~ 1e-20;
#X connect 0 0 10 0;
#X connect 0 0 12 0;
#X connect 1 0 11 0;
#X connect 1 0 13 0;
#X connect 5 0 10 1;
#X connect 5 0 13 1;
#X connect 5 0 22 0;
#X connect 5 0 22 1;
#X connect 6 0 11 1;
#X connect 6 0 12 1;
#X connect 6 0 23 0;
#X connect 6 0 23 1;
#X connect 10 0 20 0;
#X connect 11 0 20 1;
#X connect 12 0 21 1;
#X connect 13 0 21 0;
#X connect 20 0 24 0;
#X connect 21 0 25 0;
#X connect 22 0 26 0;
#X connect 23 0 26 1;
#X connect 24 0 19 0;
#X connect 25 0 18 0;
#X connect 26 0 30 0;
#X connect 30 0 25 1;
#X connect 30 0 24 1;
