#N canvas 133 289 1229 907 12;
#X obj 507 142 inlet~;
#X obj 800 17 loadbang;
#X obj 423 654 outlet~;
#X text 1023 17 derek kwan;
#X text 1026 64 gpl v 3 2017;
#X obj 554 66 inlet;
#X text 613 69 depth;
#X obj 644 139 inlet;
#X text 693 141 rate;
#X obj 921 141 inlet;
#X text 974 137 bypass;
#X obj 554 91 s \$0-dkchorus_depth;
#X obj 651 190 s \$0-dkchorus_rate;
#X obj 448 515 +~;
#X obj 921 166 s \$0-dkchorus_bypass;
#X obj 525 181 /~ 8;
#X obj 359 328 phasor~ 3;
#X msg 735 79 0.5;
#X msg 879 70 0.5;
#X obj 563 298 delwrite~ \$0-dkchorus_del 50;
#X obj 431 402 clone util/pdkvabschorus_voice~ 8 \$0-dkchorus_del;
#X obj 423 629 util/pdkvabs_switcher~;
#X obj 621 548 r \$0-dkchorus_bypass;
#X obj 403 365 *~ 1;
#X obj 361 243 r \$0-dkchorus_depth;
#X obj 308 205 r \$0-dkchorus_rate;
#X obj 862 198 loadbang;
#X obj 865 386 pack \$0 f f, f 29;
#X obj 957 273 f \$1;
#X text 1017 271 depth;
#X msg 957 323 0.5;
#X obj 1085 271 f \$2;
#X obj 957 298 moses 1e-20;
#X obj 1085 296 moses 1e-20;
#X msg 1085 321 1;
#X text 1135 271 rate;
#X obj 862 223 t b b;
#X text 1028 41 pdkvabs;
#X msg 865 411 \; \$1-dkchorus_depth \$2 \; \$1-dkchorus_rate \$3 \;
;
#X connect 0 0 15 0;
#X connect 0 0 21 1;
#X connect 1 0 18 0;
#X connect 1 0 17 0;
#X connect 5 0 11 0;
#X connect 7 0 12 0;
#X connect 9 0 14 0;
#X connect 13 0 21 0;
#X connect 15 0 13 1;
#X connect 15 0 19 0;
#X connect 16 0 23 0;
#X connect 17 0 11 0;
#X connect 18 0 12 0;
#X connect 20 0 13 0;
#X connect 21 0 2 0;
#X connect 22 0 21 2;
#X connect 23 0 20 0;
#X connect 24 0 23 1;
#X connect 25 0 16 0;
#X connect 26 0 36 0;
#X connect 27 0 38 0;
#X connect 28 0 32 0;
#X connect 30 0 27 1;
#X connect 31 0 33 0;
#X connect 32 0 30 0;
#X connect 32 1 27 1;
#X connect 33 0 34 0;
#X connect 33 1 27 2;
#X connect 34 0 27 2;
#X connect 36 0 27 0;
#X connect 36 1 31 0;
#X connect 36 1 28 0;
