#N canvas 824 422 633 256 12;
#X obj 25 123 inlet~;
#X obj 25 147 rzero~ 1;
#X obj 25 171 bonk~;
#X msg 25 195 bang;
#X obj 25 219 outlet;
#X text 20 22 dkchangetrig~ - trigger with changes in a signal;
#X text 49 80 args: off/on;
#X obj 220 121 loadbang;
#X obj 145 189 f \$1;
#X obj 145 213 switch~;
#X text 57 59 inlets: signal \, off/on;
#X obj 149 122 inlet;
#X text 416 17 derek kwan;
#X text 419 42 pdkvabs 2018;
#X text 422 65 gpl v 3;
#X connect 0 0 1 0;
#X connect 1 0 2 0;
#X connect 2 0 3 0;
#X connect 3 0 4 0;
#X connect 7 0 8 0;
#X connect 8 0 9 0;
#X connect 11 0 8 0;
