#N canvas 563 358 788 539 12;
#X obj 107 111 inlet~;
#X obj 246 62 inlet;
#X obj 259 110 f \$1;
#X obj 144 299 cos~;
#X obj 205 299 cos~;
#X msg 238 202 \$1 5;
#X text 118 25 -1: L \, 0: C \, 1: R;
#X obj 250 148 + 1;
#X obj 234 175 * 0.125;
#X obj 238 233 line~;
#X obj 233 259 +~ 0.75;
#X obj 90 357 *~;
#X obj 157 58 loadbang;
#X obj 168 357 *~;
#X obj 61 428 outlet~;
#X obj 146 430 outlet~;
#X text 42 27 arg: pan;
#X text 36 4 DKCOSPAN~ - cosine panner;
#X text 321 6 Derek Kwan \, 2016;
#X connect 0 0 11 0;
#X connect 0 0 13 0;
#X connect 1 0 2 0;
#X connect 2 0 7 0;
#X connect 3 0 11 1;
#X connect 4 0 13 1;
#X connect 5 0 9 0;
#X connect 7 0 8 0;
#X connect 8 0 5 0;
#X connect 9 0 3 0;
#X connect 9 0 10 0;
#X connect 10 0 4 0;
#X connect 11 0 14 0;
#X connect 12 0 2 0;
#X connect 13 0 15 0;
