#N canvas 303 275 788 539 12;
#X obj 107 111 inlet~;
#X obj 307 62 inlet;
#X obj 198 92 f \$1;
#X obj 143 343 cos~;
#X obj 204 343 cos~;
#X msg 237 246 \$1 5;
#X text 118 25 -1: L \, 0: C \, 1: R;
#X obj 249 192 + 1;
#X obj 233 219 * 0.125;
#X obj 237 277 line~;
#X obj 232 303 +~ 0.75;
#X obj 89 401 *~;
#X obj 157 58 loadbang;
#X obj 167 401 *~;
#X obj 60 472 outlet~;
#X obj 145 474 outlet~;
#X text 42 27 arg: pan;
#X text 36 4 DKCOSPAN~ - cosine panner;
#X text 321 6 Derek Kwan \, 2016;
#X text 126 305 cos theta;
#X text 302 201 -1 1 to 0 2;
#X text 308 235 to 0 0.25;
#X text 304 258 (into cos~ is x*2pi = 0 to pi/2);
#X text 264 330 sin theta;
#X obj 197 161 clip -1 1;
#X connect 0 0 11 0;
#X connect 0 0 13 0;
#X connect 1 0 24 0;
#X connect 2 0 24 0;
#X connect 3 0 11 1;
#X connect 4 0 13 1;
#X connect 5 0 9 0;
#X connect 7 0 8 0;
#X connect 8 0 5 0;
#X connect 9 0 3 0;
#X connect 9 0 10 0;
#X connect 10 0 4 0;
#X connect 11 0 14 0;
#X connect 12 0 2 0;
#X connect 13 0 15 0;
#X connect 24 0 7 0;
