#N canvas 758 521 759 554 12;
#X obj 374 231 < \$1;
#X obj 375 150 random 100000;
#X obj 370 179 / 1000;
#X obj 501 131 inlet;
#X obj 374 98 inlet;
#X obj 374 255 outlet;
#X text 19 11 dkcoinflip - weighted coin;
#X text 14 29 produces 1 a given pct of time else 0;
#X text 15 82 inlet - trig \, pct of time;
#X text 18 109 outlet - result;
#X text 544 33 derek kwan;
#X text 546 60 gpl v 3 2018;
#X text 550 84 pdkvabs;
#X connect 0 0 5 0;
#X connect 1 0 2 0;
#X connect 2 0 0 0;
#X connect 3 0 0 1;
#X connect 4 0 1 0;
