#N canvas 1015 349 1344 561 12;
#X obj 72 215 delwrite~ \$0-dkdelbank-del \$1;
#X obj 29 140 inlet~;
#X text 82 143 sig;
#X obj 28 525 outlet~;
#X obj 349 131 inlet;
#X text 393 133 deltimes;
#X obj 502 135 inlet;
#X text 549 133 fbs;
#X obj 630 134 inlet;
#X text 680 137 levels;
#X obj 29 427 +~;
#X obj 29 348 *~ 1;
#X obj 750 133 inlet;
#X obj 93 426 *~ 0.5;
#X text 30 19 dkdelbank~ - delay bank;
#X text 44 72 outlets: sig;
#X text 33 110 args: max delay time \, number of readheads \, dry \,
wet;
#X text 36 51 inlets: sig~ \, deltimes \, fbs \, levels \, msgs;
#N canvas 935 420 671 359 dkdelbank_defaults 1;
#X obj 113 41 loadbang;
#X obj 113 129 moses 1e-20;
#X msg 113 153 1;
#X obj 113 89 f \$3;
#X obj 113 177 outlet;
#X text 164 95 dry;
#X obj 312 135 moses 1e-20;
#X obj 312 183 outlet;
#X text 363 101 wet;
#X obj 312 95 f \$4;
#X obj 113 65 t b b b, f 59;
#X msg 501 113 1;
#X obj 501 137 outlet;
#X msg 312 159 1;
#X connect 0 0 10 0;
#X connect 1 0 2 0;
#X connect 1 1 4 0;
#X connect 2 0 4 0;
#X connect 3 0 1 0;
#X connect 6 0 13 0;
#X connect 6 1 7 0;
#X connect 9 0 6 0;
#X connect 10 0 3 0;
#X connect 10 1 9 0;
#X connect 10 2 11 0;
#X connect 11 0 12 0;
#X connect 13 0 7 0;
#X restore 931 273 pd dkdelbank_defaults;
#X obj 745 306 f;
#X obj 785 309 f;
#X obj 822 438 switch~;
#X text 344 50 (dry \, wet \, on);
#X text 1107 28 derek kwan;
#X text 1111 52 pdkvabs 2018;
#X text 1109 71 gpl v 3;
#X obj 126 159 catch~ \$0-dkdelbank-del-fb;
#X obj 745 272 route dry wet on clear;
#X msg 860 317 clear;
#X obj 93 378 clone -x util/dkdelbank-voice~ \$2 \$0-dkdelbank-del
\$2;
#X text 522 61 note: fbs scaled by number of delay lines;
#X obj 315 198 util/dkbankinlet;
#X obj 406 230 util/dkbankinlet;
#X obj 586 205 util/dkbankinlet;
#X text 518 91 REQS: DKBANKINLET from util;
#X connect 1 0 11 0;
#X connect 1 0 0 0;
#X connect 4 0 31 0;
#X connect 6 0 32 0;
#X connect 8 0 33 0;
#X connect 10 0 3 0;
#X connect 11 0 10 0;
#X connect 12 0 27 0;
#X connect 13 0 10 1;
#X connect 18 0 19 0;
#X connect 18 1 20 0;
#X connect 18 2 21 0;
#X connect 19 0 11 1;
#X connect 20 0 13 1;
#X connect 26 0 0 0;
#X connect 27 0 19 0;
#X connect 27 1 20 0;
#X connect 27 2 21 0;
#X connect 27 3 28 0;
#X connect 28 0 0 0;
#X connect 29 0 13 0;
#X connect 31 0 29 0;
#X connect 32 0 29 1;
#X connect 33 0 29 2;
