#N canvas 689 482 1343 667 12;
#X obj 42 204 inlet~;
#X text 95 207 sig;
#X obj 41 589 outlet~;
#X obj 345 132 inlet;
#X obj 385 200 dklisttoclone;
#X text 393 133 deltimes;
#X obj 502 135 inlet;
#X text 549 133 fbs;
#X obj 774 134 inlet;
#X text 824 137 levels;
#X obj 42 491 +~;
#X obj 42 412 *~ 1;
#X obj 891 134 inlet;
#X obj 106 490 *~ 0.5;
#X text 44 72 outlets: sig;
#X text 33 110 args: max delay time \, number of readheads \, dry \,
wet;
#N canvas 935 420 671 359 dkdelbank_defaults 0;
#X obj 113 41 loadbang;
#X obj 113 129 moses 1e-20;
#X msg 113 153 1;
#X obj 113 89 f \$3;
#X obj 113 177 outlet;
#X text 164 95 dry;
#X obj 312 135 moses 1e-20;
#X obj 312 183 outlet;
#X text 363 101 wet;
#X msg 312 159 0.5;
#X obj 312 95 f \$4;
#X obj 113 65 t b b b, f 59;
#X msg 501 113 1;
#X obj 501 137 outlet;
#X connect 0 0 11 0;
#X connect 1 0 2 0;
#X connect 1 1 4 0;
#X connect 2 0 4 0;
#X connect 3 0 1 0;
#X connect 6 0 9 0;
#X connect 6 1 7 0;
#X connect 9 0 7 0;
#X connect 10 0 6 0;
#X connect 11 0 3 0;
#X connect 11 1 10 0;
#X connect 11 2 12 0;
#X connect 12 0 13 0;
#X restore 1079 311 pd dkdelbank_defaults;
#X obj 893 344 f;
#X obj 933 347 f;
#X obj 970 476 switch~;
#X text 378 53 (dry \, wet \, on);
#X text 1107 28 derek kwan;
#X text 1111 52 pdkvabs 2018;
#X text 1109 71 gpl v 3;
#X obj 893 310 route dry wet on clear;
#X msg 1008 355 clear;
#X text 522 61 note: fbs scaled by number of delay lines;
#X obj 624 135 inlet;
#X text 669 137 lops;
#X obj 115 288 delwrite~ \$0-dkdellopbank-del \$1;
#X obj 114 238 catch~ \$0-dkdellopbank-del-fb;
#X obj 106 442 clone -x util/dkdellopbank-voice~ \$2 \$0-dkdellopbank-del
\$2;
#X text 36 51 inlets: sig~ \, deltimes \, fbs \, lops \, levels \,
msgs;
#X text 30 19 dkdellopbank~ - delay bank;
#X obj 343 158 route all;
#X msg 322 195 all \$1;
#X obj 542 248 dklisttoclone;
#X obj 500 206 route all;
#X msg 479 243 all \$1;
#X obj 660 220 dklisttoclone;
#X obj 618 178 route all;
#X msg 597 215 all \$1;
#X obj 815 259 dklisttoclone;
#X obj 773 217 route all;
#X msg 752 254 all \$1;
#X text 936 133 msgs;
#X connect 0 0 11 0;
#X connect 0 0 29 0;
#X connect 3 0 34 0;
#X connect 4 0 31 0;
#X connect 6 0 37 0;
#X connect 8 0 43 0;
#X connect 10 0 2 0;
#X connect 11 0 10 0;
#X connect 12 0 24 0;
#X connect 13 0 10 1;
#X connect 16 0 17 0;
#X connect 16 1 18 0;
#X connect 16 2 19 0;
#X connect 17 0 11 1;
#X connect 18 0 13 1;
#X connect 24 0 17 0;
#X connect 24 1 18 0;
#X connect 24 2 19 0;
#X connect 24 3 25 0;
#X connect 25 0 29 0;
#X connect 27 0 40 0;
#X connect 30 0 29 0;
#X connect 31 0 13 0;
#X connect 34 0 35 0;
#X connect 34 1 4 0;
#X connect 35 0 31 0;
#X connect 36 0 31 1;
#X connect 37 0 38 0;
#X connect 37 1 36 0;
#X connect 38 0 31 1;
#X connect 39 0 31 2;
#X connect 40 0 41 0;
#X connect 40 1 39 0;
#X connect 41 0 31 2;
#X connect 42 0 31 3;
#X connect 43 0 44 0;
#X connect 43 1 42 0;
#X connect 44 0 31 3;
