#N canvas 577 332 710 620 10;
#X obj 105 28 inlet~;
#X obj 118 557 outlet~;
#X obj 76 153 *~ 1000;
#X obj 60 193 clip~ -1 1;
#X obj 153 86 env~;
#X obj 152 120 dbtorms;
#X obj 137 190 * 1.4142;
#X obj 59 230 *~ 1, f 6;
#X obj 40 272 clip~ -0.707 0.707;
#X obj 367 22 inlet;
#X obj 290 20 loadbang;
#X obj 110 336 limiter~;
#X obj 43 334 z~ 64;
#X obj 78 383 *~;
#X obj 363 48 import zexy;
#X obj 175 456 *~ 1;
#X obj 75 464 *~ 1;
#X obj 192 377 > 30;
#X obj 124 380 <= 30;
#X obj 289 54 f \$1;
#X obj 288 87 moses 1;
#X msg 284 118 1;
#X obj 294 159 f;
#X text 346 74 lifted from LandonPD's distortion;
#X text 346 98 args: \$1 - distortion level (<= 30 clean \, > 30 distorted)
;
#X connect 0 0 2 0;
#X connect 0 0 4 0;
#X connect 0 0 16 0;
#X connect 2 0 3 0;
#X connect 3 0 7 0;
#X connect 4 0 5 0;
#X connect 5 0 6 0;
#X connect 6 0 7 1;
#X connect 7 0 8 0;
#X connect 8 0 11 0;
#X connect 8 0 12 0;
#X connect 9 0 19 0;
#X connect 10 0 19 0;
#X connect 11 0 13 1;
#X connect 12 0 13 0;
#X connect 13 0 15 0;
#X connect 15 0 1 0;
#X connect 16 0 1 0;
#X connect 17 0 15 1;
#X connect 18 0 16 1;
#X connect 19 0 20 0;
#X connect 20 0 21 0;
#X connect 20 1 22 0;
#X connect 21 0 22 0;
#X connect 22 0 17 0;
#X connect 22 0 18 0;
#X connect 22 0 2 1;
