#N canvas 647 339 1006 482 12;
#X msg 305 295 2;
#X obj 306 338 pow;
#X obj 306 363 * 440;
#X obj 363 289 / 12;
#X obj 297 212 t b f;
#X obj 306 388 outlet;
#X obj 294 140 inlet;
#X obj 456 181 f \$1;
#X obj 456 206 moses 1, f 10;
#X msg 425 239 12;
#X text 351 167 degree;
#X obj 460 138 inlet;
#X text 495 163 steps/oct;
#X obj 591 134 inlet;
#X text 704 175 ref pitch;
#X obj 591 199 moses 1, f 13;
#X msg 591 224 440;
#X obj 591 159 f \$2;
#X obj 395 94 loadbang;
#X text 4 7 dkeqtemp - degree to equal temperament in Hz;
#X text 6 109 inlets \;;
#X text 10 129 degree \, steps/oct \, ref pitch;
#X text 4 228 outlets:;
#X text 10 52 args: steps/oct \, ref Hz;
#X text 0 249 cooked pitch in Hz;
#X text 773 12 derek kwan 2017;
#X text 778 60 pdkvabs;
#X text 779 36 gpl v 3;
#X connect 0 0 1 0;
#X connect 1 0 2 0;
#X connect 2 0 5 0;
#X connect 3 0 1 1;
#X connect 4 0 0 0;
#X connect 4 1 3 0;
#X connect 6 0 4 0;
#X connect 7 0 8 0;
#X connect 8 0 9 0;
#X connect 8 1 3 1;
#X connect 9 0 3 1;
#X connect 11 0 7 0;
#X connect 13 0 17 0;
#X connect 15 0 16 0;
#X connect 15 1 2 1;
#X connect 16 0 2 1;
#X connect 17 0 15 0;
#X connect 18 0 7 0;
#X connect 18 0 17 0;
