#N canvas 143 205 1437 492 12;
#X obj 398 64 inlet~;
#X obj 361 141 +~;
#X obj 495 426 outlet~;
#X obj 681 51 inlet;
#X text 733 54 feedback;
#X obj 818 46 inlet;
#X obj 682 250 f \$4;
#X text 873 47 dry;
#X obj 956 50 inlet;
#X text 1009 47 wet;
#X obj 853 179 loadbang;
#X text 908 264 dry;
#X msg 682 300 1;
#X text 13 144 ARGS:;
#X text 13 166 maxdelay/deltime/fb/dry(*1)/wet(*0.5);
#X text 10 105 * = defaults;
#X text 22 228 INLETS:;
#X text 464 64 input;
#X text 570 26 delaytime;
#X text 15 330 OUTLETS:;
#X text 17 353 signal~;
#X text 1157 17 derek kwan 2017;
#X text 1163 38 pdkm;
#X text 1163 60 gpl v 3;
#X obj 1002 306 f \$5;
#X obj 682 275 moses 1e-30;
#X text 14 10 dkfbvdel~;
#X obj 539 53 inlet~;
#X text 24 254 input/delaytime (sig)/fb/dry/wet;
#X text 12 33 simple delay with fb (signal delaytime);
#X obj 378 209 delwrite~ \$0-dkfbdel \$1;
#X obj 630 195 delread4~ \$0-dkfbdel \$2;
#X obj 853 203 t b b b, f 22;
#X obj 713 93 f \$3;
#X obj 661 151 line~;
#X obj 539 268 *~;
#X msg 661 127 \$1 2;
#X msg 600 278 \$1 2;
#X obj 600 302 line~;
#X obj 474 352 *~;
#X msg 817 349 \$1 2;
#X obj 817 373 line~;
#X obj 654 378 *~;
#X text 1048 306 wet;
#X obj 1002 330 moses 1e-30;
#X msg 1002 354 0.5;
#X connect 0 0 1 0;
#X connect 0 0 39 0;
#X connect 1 0 30 0;
#X connect 3 0 36 0;
#X connect 5 0 37 0;
#X connect 6 0 25 0;
#X connect 8 0 40 0;
#X connect 10 0 32 0;
#X connect 12 0 37 0;
#X connect 24 0 44 0;
#X connect 25 0 12 0;
#X connect 25 1 37 0;
#X connect 27 0 31 0;
#X connect 31 0 35 0;
#X connect 31 0 42 0;
#X connect 32 0 33 0;
#X connect 32 1 6 0;
#X connect 32 2 24 0;
#X connect 33 0 36 0;
#X connect 34 0 35 1;
#X connect 35 0 1 1;
#X connect 36 0 34 0;
#X connect 37 0 38 0;
#X connect 38 0 39 1;
#X connect 39 0 2 0;
#X connect 40 0 41 0;
#X connect 41 0 42 1;
#X connect 42 0 2 0;
#X connect 44 0 45 0;
#X connect 44 1 40 0;
#X connect 45 0 40 0;
