#N canvas 143 205 1437 492 12;
#X obj 378 209 delwrite~ \$0-dkfbdellop \$1;
#X obj 398 64 inlet~;
#X obj 361 141 +~;
#X obj 495 426 outlet~;
#X obj 681 51 inlet;
#X text 733 54 feedback;
#X obj 818 46 inlet;
#X obj 866 291 f \$4;
#X text 873 47 dry;
#X obj 956 50 inlet;
#X text 1009 47 wet;
#X obj 916 223 loadbang;
#X text 908 264 dry;
#X msg 866 341 1;
#X obj 474 352 *~ 1;
#X obj 539 268 *~ \$3;
#X text 13 144 ARGS:;
#X text 13 166 maxdelay/deltime/fb/dry(*1)/wet(*0.5);
#X text 10 105 * = defaults;
#X text 22 228 INLETS:;
#X text 464 64 input;
#X text 570 26 delaytime;
#X text 15 330 OUTLETS:;
#X text 17 353 signal~;
#X text 1157 17 derek kwan 2017;
#X text 1163 38 pdkm;
#X text 1163 60 gpl v 3;
#X obj 1002 306 f \$5;
#X obj 1002 331 moses 1e-30;
#X obj 866 316 moses 1e-30;
#X obj 654 378 *~ 0.5;
#X msg 1002 356 0.5;
#X text 14 10 dkfbvdel~;
#X obj 630 195 delread4~ \$0-dkfbdellop \$2;
#X obj 539 53 inlet~;
#X text 24 254 input/delaytime (sig)/fb/dry/wet;
#X text 12 33 simple delay with fb (signal delaytime);
#X connect 1 0 2 0;
#X connect 1 0 14 0;
#X connect 2 0 0 0;
#X connect 4 0 15 1;
#X connect 6 0 14 1;
#X connect 7 0 29 0;
#X connect 9 0 30 1;
#X connect 11 0 7 0;
#X connect 11 0 27 0;
#X connect 13 0 14 1;
#X connect 14 0 3 0;
#X connect 15 0 2 1;
#X connect 27 0 28 0;
#X connect 28 0 31 0;
#X connect 28 1 30 1;
#X connect 29 0 13 0;
#X connect 29 1 14 1;
#X connect 30 0 3 0;
#X connect 31 0 30 1;
#X connect 33 0 15 0;
#X connect 33 0 30 0;
#X connect 34 0 33 0;
