#N canvas 250 159 1809 879 12;
#X obj 534 81 inlet~;
#X obj 688 323 delwrite~ \$0-dkflanger_del 5;
#X obj 395 387 delread4~ \$0-dkflanger_del 5;
#X obj 324 249 osc~ 3;
#X obj 85 590 *~ 0;
#X obj 390 659 +~;
#X obj 493 710 outlet~;
#X text 1102 31 derek kwan;
#X text 1105 78 gpl v 3 2017;
#X obj 256 427 sel 0 1;
#X msg 256 452 1;
#X msg 304 455 -1;
#X obj 312 492 t b f;
#X obj 93 536 * 1;
#X obj 700 84 inlet;
#X text 759 87 depth;
#X obj 790 157 inlet;
#X text 839 159 rate;
#X obj 1211 121 inlet;
#X text 1270 118 invert;
#X obj 1326 182 inlet;
#X text 1379 178 bypass;
#X obj 700 109 s \$0-dkflanger_depth;
#X obj 797 208 s \$0-dkflanger_rate;
#X obj 1211 146 s \$0-dkflanger_invert;
#X obj 1326 207 s \$0-dkflanger_bypass;
#X obj 697 425 *~ 0;
#X obj 389 344 +~ 5.5;
#X obj 366 297 *~ 4.5;
#X obj 405 266 * 4.5;
#X text 445 295 scale to 1ms - 10 ms;
#X obj 898 81 inlet;
#X obj 988 154 inlet;
#X text 957 84 width;
#X obj 898 106 s \$0-dkflanger_width;
#X obj 995 205 s \$0-dkflanger_fb;
#X text 1037 156 fb;
#X obj 69 473 r \$0-dkflanger_depth;
#X obj 205 187 r \$0-dkflanger_rate;
#X obj 375 183 r \$0-dkflanger_width;
#X obj 686 282 r \$0-dkflanger_fb;
#X obj 157 333 r \$0-dkflanger_invert;
#X obj 654 644 r \$0-dkflanger_bypass;
#X obj 493 685 util/pdkvabs_switcher~;
#X obj 392 230 clip 0 1;
#X text 1107 55 pdkvabs;
#N canvas 266 271 851 499 \$0-dkflanger_defaults 0;
#X obj 120 101 f \$1;
#X text 180 99 depth;
#X obj 76 201 pack \$0 f f f f f, f 74;
#X msg 120 151 0.5;
#X obj 248 99 f \$2;
#X obj 120 126 moses 1e-20;
#X obj 248 124 moses 1e-20;
#X msg 248 149 1;
#X text 298 99 rate;
#X msg 76 281 \; \$1-dkflanger_depth \$2 \; \$1-dkflanger_rate \$3
\; \$1-dkflanger_width \$4 \; \$1-dkflanger_fb \$5 \; \$1-dkflanger_invert
\$6 \;;
#X obj 358 116 moses 1e-20;
#X text 408 91 width;
#X msg 358 141 0.5;
#X obj 484 110 moses 1e-20;
#X text 534 85 fb;
#X msg 484 135 0.5;
#X obj 358 91 f \$3;
#X obj 484 85 f \$4;
#X obj 600 85 f \$5;
#X text 650 85 invert;
#X obj 129 39 t b b;
#X obj 138 9 loadbang;
#X connect 0 0 5 0;
#X connect 2 0 9 0;
#X connect 3 0 2 1;
#X connect 4 0 6 0;
#X connect 5 0 3 0;
#X connect 5 1 2 1;
#X connect 6 0 7 0;
#X connect 6 1 2 2;
#X connect 7 0 2 2;
#X connect 10 0 12 0;
#X connect 10 1 2 3;
#X connect 12 0 2 3;
#X connect 13 0 15 0;
#X connect 13 1 2 4;
#X connect 15 0 2 4;
#X connect 16 0 10 0;
#X connect 17 0 13 0;
#X connect 18 0 2 5;
#X connect 20 0 2 0;
#X connect 20 1 18 0;
#X connect 20 1 17 0;
#X connect 20 1 16 0;
#X connect 20 1 4 0;
#X connect 20 1 0 0;
#X connect 21 0 20 0;
#X restore 1224 65 pd \$0-dkflanger_defaults;
#X connect 0 0 1 0;
#X connect 0 0 5 1;
#X connect 0 0 43 1;
#X connect 2 0 4 0;
#X connect 2 0 26 0;
#X connect 3 0 28 0;
#X connect 4 0 5 0;
#X connect 5 0 43 0;
#X connect 9 0 10 0;
#X connect 9 1 11 0;
#X connect 10 0 12 0;
#X connect 11 0 12 0;
#X connect 12 1 13 1;
#X connect 13 0 4 1;
#X connect 14 0 22 0;
#X connect 16 0 23 0;
#X connect 18 0 24 0;
#X connect 20 0 25 0;
#X connect 26 0 1 0;
#X connect 27 0 2 0;
#X connect 28 0 27 0;
#X connect 29 0 28 1;
#X connect 31 0 34 0;
#X connect 32 0 35 0;
#X connect 37 0 13 0;
#X connect 38 0 3 0;
#X connect 39 0 44 0;
#X connect 40 0 26 1;
#X connect 41 0 9 0;
#X connect 42 0 43 2;
#X connect 43 0 6 0;
#X connect 44 0 29 0;
