#N canvas 858 203 1229 646 12;
#X text 16 19 dkflipflop - like a toggle but without the graphics;
#X obj 269 212 inlet;
#X obj 360 207 inlet;
#X obj 267 256 bang;
#X obj 440 327 + 1;
#X obj 440 351 % 2;
#X obj 253 356 t f f, f 20;
#X obj 257 324 f 1, f 22;
#X text 25 115 inlets: trigger \, "on" value \, "off" value \, reset(bang)/setstate
;
#X obj 255 425 sel 1 0;
#X obj 254 518 f 1;
#X obj 307 523 f 0;
#X obj 438 212 inlet;
#X obj 548 130 inlet;
#X obj 548 154 route reset bang float set;
#X msg 528 197 0;
#X text 653 26 derek kwan;
#X text 665 55 pdkvabs 2018;
#X text 667 80 gpl v 3;
#X text 277 168 trig;
#X text 372 183 on val;
#X text 435 187 off val;
#X text 601 128 messages;
#X text 17 71 args: init state \, "on" val \, "off" val;
#X obj 594 283 loadbang;
#X obj 600 355 f \$1;
#X obj 594 307 t b b b, f 29;
#X obj 677 354 f \$2;
#X obj 677 378 moses 1e-20;
#X msg 677 402 1;
#X obj 677 426 f;
#X obj 782 367 f \$3;
#X obj 254 562 outlet;
#X connect 1 0 3 0;
#X connect 2 0 10 1;
#X connect 3 0 7 0;
#X connect 4 0 5 0;
#X connect 5 0 7 1;
#X connect 6 0 9 0;
#X connect 6 1 4 0;
#X connect 7 0 6 0;
#X connect 9 0 10 0;
#X connect 9 1 11 0;
#X connect 10 0 32 0;
#X connect 11 0 32 0;
#X connect 12 0 11 1;
#X connect 13 0 14 0;
#X connect 14 0 15 0;
#X connect 14 1 15 0;
#X connect 14 2 7 0;
#X connect 14 3 7 1;
#X connect 15 0 4 0;
#X connect 24 0 26 0;
#X connect 25 0 4 0;
#X connect 26 0 25 0;
#X connect 26 1 27 0;
#X connect 26 2 31 0;
#X connect 27 0 28 0;
#X connect 28 0 29 0;
#X connect 28 1 30 0;
#X connect 29 0 30 0;
#X connect 30 0 10 1;
#X connect 31 0 11 1;
