#N canvas 351 164 1038 487 12;
#X obj 296 154 until;
#X msg 308 204 0;
#X obj 275 238 f;
#X obj 384 242 + 1;
#X obj 268 391 outlet;
#X obj 414 31 loadbang;
#X obj 297 27 inlet;
#X text 25 30 dkfor - for loop pd style;
#X text 8 270 goes up to step before upper limit;
#X text 4 295 and starts at 0;
#X obj 685 17 inlet;
#X text 682 45 stepsize;
#X text 846 2 derek kwan 2017;
#X text 848 28 gpl v 3;
#X text 848 54 pdkvabs;
#X obj 447 255 max 1;
#X obj 489 172 max 1;
#X obj 408 436 outlet;
#X text 483 446 done;
#X text 19 83 in1 = upper limit;
#X text 24 114 arg1/in2 = stepsize;
#X obj 489 147 f \$1;
#X obj 287 291 t f f f;
#X obj 447 279 - 1;
#X obj 412 353 >= 0;
#X obj 412 377 sel 1;
#X text 263 420 count;
#X obj 412 401 t b b;
#X obj 298 58 t f b f, f 15;
#X obj 298 82 moses 1;
#X connect 0 0 2 0;
#X connect 1 0 2 1;
#X connect 2 0 22 0;
#X connect 3 0 2 1;
#X connect 5 0 21 0;
#X connect 6 0 28 0;
#X connect 10 0 21 0;
#X connect 15 0 23 0;
#X connect 16 0 3 1;
#X connect 21 0 16 0;
#X connect 22 0 24 0;
#X connect 22 1 4 0;
#X connect 22 2 3 0;
#X connect 23 0 24 1;
#X connect 24 0 25 0;
#X connect 25 0 27 0;
#X connect 27 0 17 0;
#X connect 27 1 0 1;
#X connect 28 0 29 0;
#X connect 28 1 1 0;
#X connect 28 2 15 0;
#X connect 29 1 0 0;
