#N canvas 351 164 1038 487 12;
#X obj 291 110 until;
#X obj 298 58 t b b;
#X msg 303 160 0;
#X obj 251 197 f;
#X obj 368 184 + 1;
#X obj 363 213 t f f;
#X obj 424 104 f \$1;
#X obj 295 239 outlet;
#X obj 414 31 loadbang;
#X obj 297 27 inlet;
#X obj 533 101 f \$2;
#X obj 411 272 >= 1;
#X obj 410 300 sel 1;
#X text 25 30 dkfor - for loop pd style;
#X text 19 83 in1 = bang to start;
#X text 19 104 arg1/in2 = upper limit;
#X text 16 124 arg2/in3 = stepsize;
#X text 26 0 PDKM: Derek Kwan 2016;
#X text 21 274 goes up to step before upper limit;
#X text 14 295 and starts at 0;
#X obj 587 15 inlet;
#X text 582 39 lim;
#X obj 685 17 inlet;
#X text 682 45 stepsize;
#X text 846 2 derek kwan 2017;
#X text 848 28 gpl v 3;
#X text 848 54 pdkvabs;
#X obj 419 135 max 1;
#X obj 533 126 max 1;
#X obj 410 325 outlet;
#X text 478 326 done;
#X connect 0 0 3 0;
#X connect 1 0 0 0;
#X connect 1 1 2 0;
#X connect 2 0 3 1;
#X connect 3 0 4 0;
#X connect 3 0 7 0;
#X connect 4 0 5 0;
#X connect 5 0 11 0;
#X connect 5 1 3 1;
#X connect 6 0 27 0;
#X connect 8 0 6 0;
#X connect 8 0 10 0;
#X connect 9 0 1 0;
#X connect 10 0 28 0;
#X connect 11 0 12 0;
#X connect 12 0 0 1;
#X connect 12 0 29 0;
#X connect 20 0 6 0;
#X connect 22 0 10 0;
#X connect 27 0 11 1;
#X connect 28 0 4 1;
