#N canvas 351 164 1038 487 12;
#X obj 291 110 until;
#X msg 303 160 0;
#X obj 251 197 f;
#X obj 368 184 + 1;
#X obj 363 213 t f f;
#X obj 295 239 outlet;
#X obj 414 31 loadbang;
#X obj 297 27 inlet;
#X obj 411 272 >= 1;
#X obj 410 300 sel 1;
#X text 25 30 dkfor - for loop pd style;
#X text 21 274 goes up to step before upper limit;
#X text 14 295 and starts at 0;
#X obj 685 17 inlet;
#X text 682 45 stepsize;
#X text 846 2 derek kwan 2017;
#X text 848 28 gpl v 3;
#X text 848 54 pdkvabs;
#X obj 442 211 max 1;
#X obj 484 128 max 1;
#X obj 410 325 outlet;
#X text 478 326 done;
#X text 19 83 in1 = upper limit;
#X text 24 114 arg1/in2 = stepsize;
#X obj 298 58 t b b f, f 15;
#X obj 484 103 f \$1;
#X connect 0 0 2 0;
#X connect 1 0 2 1;
#X connect 2 0 3 0;
#X connect 2 0 5 0;
#X connect 3 0 4 0;
#X connect 4 0 8 0;
#X connect 4 1 2 1;
#X connect 6 0 25 0;
#X connect 7 0 24 0;
#X connect 8 0 9 0;
#X connect 9 0 0 1;
#X connect 9 0 20 0;
#X connect 13 0 25 0;
#X connect 18 0 8 1;
#X connect 19 0 3 1;
#X connect 24 0 0 0;
#X connect 24 1 1 0;
#X connect 24 2 18 0;
#X connect 25 0 19 0;
