#N canvas 420 389 695 322 12;
#X obj 227 191 max~;
#X obj 227 241 -~;
#X obj 227 266 /~;
#X obj 309 85 inlet~;
#X obj 157 94 inlet~;
#X text 40 10 dkgt~: >~;
#X text 530 5 derek kwan 2017;
#X text 531 29 gpl v 3;
#X text 530 51 pdkvabs;
#X obj 227 291 outlet~;
#X connect 0 0 1 0;
#X connect 1 0 2 0;
#X connect 1 0 2 1;
#X connect 2 0 9 0;
#X connect 3 0 0 1;
#X connect 3 0 1 1;
#X connect 4 0 0 0;
