#N canvas 613 604 739 484 12;
#X obj 275 240 cos~;
#X obj 240 321 -~ 1;
#X obj 240 346 *~ -0.5;
#X obj 257 105 bang~;
#X msg 257 130 clear;
#X obj 257 155 rpole~ 1;
#X obj 349 95 sig~ 1;
#X obj 213 390 outlet~;
#X obj 275 215 /~ 63;
#X obj 257 180 -~ 1;
#X text 15 12 dkhannblock~ - scan through hann every block;
#X text 627 5 derek kwan;
#X text 632 31 pdkvabs;
#X text 639 65 gpl v 3;
#X obj 428 81 loadbang;
#X obj 429 110 f \$1;
#X obj 429 135 moses 1;
#X msg 429 160 64;
#X obj 429 213 - 1;
#X obj 571 126 inlet;
#X text 567 160 block size;
#X text 25 69 args/in: blocksize;
#X connect 0 0 1 0;
#X connect 1 0 2 0;
#X connect 2 0 7 0;
#X connect 3 0 4 0;
#X connect 4 0 5 0;
#X connect 5 0 9 0;
#X connect 6 0 5 0;
#X connect 8 0 0 0;
#X connect 9 0 8 0;
#X connect 14 0 15 0;
#X connect 15 0 16 0;
#X connect 16 0 17 0;
#X connect 16 1 18 0;
#X connect 17 0 18 0;
#X connect 18 0 8 1;
#X connect 19 0 18 0;
