#N canvas 99 175 609 529 12;
#X obj 247 195 cos~;
#X obj 247 239 *~;
#X obj 251 116 -~ 0.5;
#X obj 253 155 /~ 2;
#X obj 247 264 outlet~;
#X obj 248 64 inlet~;
#X text 12 18 dkhann~ - sig idxable hann/hanning window;
#X text 18 154 in1: signal;
#X text 21 183 out: outlet;
#X text 421 17 derek kwan \, 2017;
#X text 420 38 pdkvabs;
#X text 419 63 gpl v 3;
#X text 6 420 w(n) = sin(pi*n)^2;
#X connect 0 0 1 0;
#X connect 0 0 1 1;
#X connect 1 0 4 0;
#X connect 2 0 3 0;
#X connect 3 0 0 0;
#X connect 5 0 2 0;
