#N canvas 144 131 1133 867 10;
#X obj 118 102 timer;
#X obj 117 125 < 3500;
#X obj 99 22 inlet;
#X obj 49 46 inlet~;
#X obj 48 312 *~ 0;
#X msg 71 141 1;
#X obj 131 195 f;
#X obj 136 149 sel 0;
#X obj 131 217 change;
#X msg 137 167 0;
#X obj 131 239 t f f;
#X obj 84 286 pack 0 5;
#X obj 211 253 sel 1 0;
#X obj 203 311 timer;
#X obj 84 308 line;
#X obj 145 354 samplerate~;
#X obj 203 385 *;
#X obj 203 332 t b f;
#X obj 207 468 + 1;
#X obj 200 433 f;
#X msg 420 237 0;
#X obj 205 407 t b f;
#X obj 247 282 t b b;
#X msg 273 483 stop;
#X obj 173 499 % 882000;
#X msg 90 568 start \$1;
#X obj 126 521 f;
#X obj 162 276 t b b;
#X obj 111 625 tabwrite~ \$1;
#X obj 615 47 inlet;
#X obj 694 123 moses 5;
#X msg 666 145 75;
#X obj 325 40 loadbang;
#X obj 618 113 metro;
#X obj 374 102 f \$2;
#X obj 374 124 moses 1;
#X msg 374 146 882000;
#X obj 239 128 moses 1;
#X msg 239 150 3500;
#X text 639 27 start/stop;
#X text 156 44 incoming bangs;
#X obj 472 29 inlet;
#X msg 480 245 set \$1;
#X text 526 326 arg1: array to write to;
#X text 524 343 arg2: array length;
#X text 514 432 in1: sig~;
#X text 511 453 in2: incominbg bangs;
#X text 517 520 in4: on off;
#X text 516 577 defaults: array len: 88200 \, time thresh: 3500 \,
rate: 75;
#X text 519 643 DEREK KWAN \, 2016;
#X obj 122 73 t b b;
#X obj 90 668 outlet;
#X msg 633 275 \; \$1 const 0;
#X obj 637 247 symbol \$1;
#X text 512 470 in3: thresh (time thresh) \, setarray (array to write
to) \, setlen(array len) \, rate (rate to check thresh) \, clear (to
clear array);
#X obj 240 681 outlet;
#X obj 109 47 spigot;
#X obj 559 82 t f b;
#X obj 363 611 f;
#N canvas 1 56 450 300 decr 0;
#X obj 175 54 inlet;
#X obj 175 119 f;
#X obj 175 141 t f f;
#X obj 174 177 <;
#X obj 174 199 sel 1;
#X obj 243 69 loadbang;
#X obj 264 128 f -1e+30;
#X obj 331 63 inlet;
#X obj 331 85 bang;
#X obj 174 221 outlet;
#X text 337 37 reset;
#X text 170 37 float;
#X text 13 9 DECREASE: detect decreases;
#X text 14 38 DEREK KWAN \, 2016;
#X connect 0 0 1 0;
#X connect 1 0 2 0;
#X connect 2 0 3 1;
#X connect 2 1 3 0;
#X connect 3 0 4 0;
#X connect 4 0 9 0;
#X connect 5 0 6 0;
#X connect 6 0 3 1;
#X connect 7 0 8 0;
#X connect 8 0 6 0;
#X restore 425 515 pd decr;
#X msg 373 578 0;
#X obj 411 612 + 1;
#X text 522 381 arg4: time threshold (ms);
#X text 520 399 arg5: rate to check thresh (ms);
#X text 519 368 arg3: array to write sample positions;
#X obj 299 530 t f b f b f;
#X obj 326 653 pack s 0 0;
#X obj 282 589 symbol \$3;
#X msg 322 683 \; \$1 \$3 \$2;
#X text 39 6 INCWRITEREC~: incremental tabwriter with sample table
;
#X text 30 707 set/start messages;
#X text 167 714 highest idx of samples;
#X obj 234 72 f \$4;
#X obj 679 93 f \$5;
#X obj 229 361 / 1000;
#X obj 485 190 route thresh setarray setlen rate clear reset;
#X obj 772 225 s \$0-resettimer;
#X obj 198 222 r \$0-resettimer;
#X obj 641 72 sel 1;
#X obj 425 537 t b b;
#X obj 438 570 symbol \$3;
#X msg 438 592 \; \$1 const 0;
#X connect 0 0 1 0;
#X connect 1 0 7 0;
#X connect 2 0 56 0;
#X connect 3 0 4 0;
#X connect 4 0 28 0;
#X connect 5 0 6 0;
#X connect 6 0 8 0;
#X connect 7 0 9 0;
#X connect 8 0 10 0;
#X connect 9 0 6 0;
#X connect 10 0 12 0;
#X connect 10 1 11 0;
#X connect 11 0 14 0;
#X connect 12 0 27 0;
#X connect 12 1 22 0;
#X connect 13 0 17 0;
#X connect 14 0 4 1;
#X connect 15 0 16 0;
#X connect 16 0 21 0;
#X connect 17 0 15 0;
#X connect 17 1 74 0;
#X connect 18 0 24 0;
#X connect 19 0 18 0;
#X connect 20 0 19 1;
#X connect 20 0 26 1;
#X connect 21 0 19 0;
#X connect 21 1 18 1;
#X connect 22 0 13 1;
#X connect 22 1 23 0;
#X connect 23 0 28 0;
#X connect 23 0 51 0;
#X connect 24 0 19 1;
#X connect 24 0 26 1;
#X connect 25 0 28 0;
#X connect 25 0 51 0;
#X connect 26 0 65 0;
#X connect 27 0 13 0;
#X connect 27 1 26 0;
#X connect 29 0 33 0;
#X connect 29 0 57 0;
#X connect 29 0 78 0;
#X connect 30 0 31 0;
#X connect 30 1 33 1;
#X connect 31 0 33 1;
#X connect 32 0 34 0;
#X connect 32 0 72 0;
#X connect 32 0 73 0;
#X connect 32 0 59 1;
#X connect 32 0 60 0;
#X connect 33 0 0 1;
#X connect 34 0 35 0;
#X connect 35 0 36 0;
#X connect 35 1 24 1;
#X connect 36 0 24 1;
#X connect 37 0 38 0;
#X connect 37 1 1 1;
#X connect 38 0 1 1;
#X connect 41 0 75 0;
#X connect 42 0 28 0;
#X connect 50 0 0 0;
#X connect 50 1 5 0;
#X connect 53 0 52 0;
#X connect 56 0 50 0;
#X connect 57 0 56 1;
#X connect 57 1 23 0;
#X connect 57 1 20 0;
#X connect 58 0 61 0;
#X connect 58 0 66 2;
#X connect 58 0 55 0;
#X connect 59 0 79 0;
#X connect 60 0 58 1;
#X connect 61 0 58 1;
#X connect 65 0 25 0;
#X connect 65 1 67 0;
#X connect 65 2 66 1;
#X connect 65 3 58 0;
#X connect 65 4 59 0;
#X connect 66 0 68 0;
#X connect 67 0 66 0;
#X connect 72 0 37 0;
#X connect 73 0 30 0;
#X connect 74 0 16 1;
#X connect 75 0 72 0;
#X connect 75 1 42 0;
#X connect 75 2 34 0;
#X connect 75 3 73 0;
#X connect 75 4 53 0;
#X connect 75 5 76 0;
#X connect 77 0 13 0;
#X connect 79 0 60 0;
#X connect 79 1 80 0;
#X connect 80 0 81 0;
