#N canvas 1 56 450 300 10;
#X obj 175 54 inlet;
#X obj 175 119 f;
#X obj 175 141 t f f;
#X obj 174 199 sel 1;
#X obj 243 69 loadbang;
#X obj 264 128 f -1e+30;
#X obj 331 63 inlet;
#X obj 331 85 bang;
#X obj 174 221 outlet;
#X text 337 37 reset;
#X text 170 37 float;
#X text 14 38 DEREK KWAN \, 2016;
#X text 13 9 INCREASE: detect increases;
#X obj 174 177 >;
#X connect 0 0 1 0;
#X connect 1 0 2 0;
#X connect 2 0 13 1;
#X connect 2 1 13 0;
#X connect 3 0 8 0;
#X connect 4 0 5 0;
#X connect 5 0 13 1;
#X connect 6 0 7 0;
#X connect 7 0 5 0;
#X connect 13 0 3 0;
