#N canvas 541 216 758 491 10;
#X obj 182 82 vadsr~ 1 1 0 1 1;
#X obj 135 90 noise~;
#X obj 135 112 *~;
#X msg 187 29 1;
#X obj 187 51 makenote 1 1;
#X obj 356 144 1000;
#X obj 318 146 /;
#X obj 351 101 t b b f;
#N canvas 163 381 450 300 del 0;
#X obj 78 37 inlet~;
#X obj 148 200 lop~ 10000;
#X obj 127 160 vd~ \$0-kp 10;
#X obj 290 150 vline~;
#X obj 299 116 pack 0 0;
#X obj 108 116 delwrite~ \$0-kp 2000;
#X obj 328 37 inlet;
#X obj 156 242 outlet~;
#X obj 389 50 inlet;
#X obj 292 260 block~ 1;
#X obj 252 215 *~ 0.999;
#X connect 0 0 5 0;
#X connect 1 0 7 0;
#X connect 1 0 10 0;
#X connect 2 0 1 0;
#X connect 3 0 2 0;
#X connect 4 0 3 0;
#X connect 6 0 4 0;
#X connect 8 0 10 1;
#X connect 10 0 5 0;
#X restore 162 205 pd del;
#X obj 387 2 inlet;
#X obj 576 92 inlet;
#X obj 158 289 outlet~;
#X text 469 14 freq;
#X text 619 86 twang;
#X obj 367 70 moses 1e-07;
#X obj 278 8 loadbang;
#X text 263 252 args: \$1 - freq \, \$2 - twang;
#X obj 367 48 f \$1;
#X obj 495 146 f \$2;
#X text 265 272 freq msg in hz starts note \, can also bang;
#X obj 125 13 inlet;
#X obj 125 35 bang;
#X text 54 18 start note;
#X obj 457 176 moses 1e-06;
#X connect 0 0 2 1;
#X connect 1 0 2 0;
#X connect 2 0 8 0;
#X connect 3 0 4 0;
#X connect 4 1 0 0;
#X connect 5 0 6 0;
#X connect 6 0 8 1;
#X connect 7 0 3 0;
#X connect 7 1 5 0;
#X connect 7 2 6 1;
#X connect 8 0 11 0;
#X connect 9 0 17 0;
#X connect 10 0 18 0;
#X connect 14 1 7 0;
#X connect 15 0 17 0;
#X connect 15 0 18 0;
#X connect 17 0 14 0;
#X connect 18 0 23 0;
#X connect 20 0 21 0;
#X connect 21 0 17 0;
#X connect 23 1 8 2;
