#N canvas 551 399 729 497 12;
#X obj 233 182 moses 49;
#X obj 303 221 moses 58;
#X obj 282 281 - 48;
#X obj 225 352 outlet;
#X obj 266 105 key;
#X text 12 12 dkkeyrow2num;
#X text 9 43 sends out floats for the key row;
#X text 497 17 derek kwan 2017;
#X text 501 36 gpl v 3;
#X text 500 63 pdkvabs;
#X msg 180 286 10;
#X obj 208 238 sel 48 45;
#X obj 353 262 sel 61;
#X msg 229 295 11;
#X msg 353 287 12;
#X text 9 72 adjusted to 1-12 (instead of 1-9 and 0 \, - \, +);
#X connect 0 0 11 0;
#X connect 0 1 1 0;
#X connect 1 0 2 0;
#X connect 1 1 12 0;
#X connect 2 0 3 0;
#X connect 4 0 0 0;
#X connect 10 0 3 0;
#X connect 11 0 10 0;
#X connect 11 1 13 0;
#X connect 12 0 14 0;
#X connect 13 0 3 0;
#X connect 14 0 3 0;
