#N canvas 553 249 727 518 12;
#X obj 255 369 s;
#X obj 221 163 list split 1;
#X obj 227 278 list;
#X obj 227 303 list trim;
#X msg 338 310 symbol \$1;
#X text 15 12 dkkeysend;
#X text 13 30 send by preceding symbol key;
#X text 531 19 derek kwan;
#X text 530 39 gpl v 3;
#X text 530 65 pdkvabs;
#X obj 223 107 inlet;
#X text 280 99 example: bobby 3;
#X text 219 75 input;
#X text 20 105 inlet:;
#X text 18 130 key and list pair;
#X obj 224 191 t b a;
#X connect 1 0 15 0;
#X connect 1 1 2 1;
#X connect 2 0 3 0;
#X connect 3 0 0 0;
#X connect 4 0 0 1;
#X connect 10 0 1 0;
#X connect 15 0 2 0;
#X connect 15 1 4 0;
