#N canvas 849 222 1167 611 12;
#X obj 17 281 array define \$0-grnstr 1.323e+06;
#X obj 338 262 dkphsrd~ 1.323e+06 0.01;
#X obj 748 182 tabwrite~ \$0-grnstr;
#X obj 748 18 inlet;
#X text 803 12 trig;
#X text 357 18 signal;
#X msg 713 80 0;
#X obj 748 43 t b b;
#X obj 297 18 inlet~;
#X obj 273 327 dksyncgrn~ \$0-grnstr \$1;
#X obj 272 406 outlet~;
#X text 8 22 dklgstr1~ live granular stretcher;
#X text 1023 48 pdkvabs;
#X text 1013 20 derek kwan \, 2017;
#X text 1026 76 gpl v 3;
#X text 17 209 args: number of grains;
#X text 24 79 in1: signal;
#X obj 446 21 inlet;
#X text 493 16 rate;
#X msg 505 66 0.01;
#X obj 544 20 loadbang;
#X obj 608 54 inlet;
#X text 663 51 on/off;
#X text 21 103 in2: rate (0.01*);
#X text 25 130 in3: on/off;
#X text 22 158 in4: trigger (record/playback);
#X obj 866 20 inlet;
#X text 929 23 msgs;
#X text 21 184 in5: dksyncgrn~ msgs;
#X connect 1 0 9 0;
#X connect 3 0 7 0;
#X connect 6 0 1 2;
#X connect 7 0 6 0;
#X connect 7 1 2 0;
#X connect 8 0 2 0;
#X connect 9 0 10 0;
#X connect 17 0 1 1;
#X connect 19 0 1 1;
#X connect 20 0 19 0;
#X connect 21 0 9 1;
#X connect 26 0 9 2;
