#N canvas 282 198 762 640 12;
#X obj 134 162 inlet~;
#X obj 65 325 *~;
#X obj 225 300 *~;
#X obj 353 96 inlet;
#X text 414 109 -1 \, 1 input;
#X obj 354 245 line~;
#X obj 356 168 clip -1 1;
#X obj 356 193 * 0.5;
#X obj 540 98 loadbang;
#X obj 531 134 f \$1;
#X text 419 130 to -1 0;
#X obj 356 218 - 0.5;
#X obj 130 297 *~ -1;
#X text 140 331 1 to 0;
#X obj 354 270 +~ 1;
#X text 399 275 0 to 1;
#X obj 72 455 outlet~;
#X obj 232 459 outlet~;
#X text 7 11 dklinpan~;
#X text 9 30 linear panner;
#X text 667 8 derek kwan;
#X text 661 32 pdkvabs;
#X text 657 61 gpl v 3;
#X text 9 79 args: panning (-1 to 1);
#X text 8 100 inlets:sig \, panning;
#X text 2 122 outlets: left sig \, right sig;
#X connect 0 0 1 0;
#X connect 0 0 2 0;
#X connect 1 0 16 0;
#X connect 2 0 17 0;
#X connect 3 0 6 0;
#X connect 5 0 12 0;
#X connect 5 0 14 0;
#X connect 6 0 7 0;
#X connect 7 0 11 0;
#X connect 8 0 9 0;
#X connect 9 0 6 0;
#X connect 11 0 5 0;
#X connect 12 0 1 1;
#X connect 14 0 2 1;
