#N canvas 1 208 1085 811 12;
#X obj 562 66 inlet;
#X obj 262 476 tabwrite~ \$1;
#X obj 243 240 inlet~;
#X obj 363 106 inlet;
#X text 345 148 play/rec;
#X obj 440 110 inlet;
#X text 444 152 off/on;
#X obj 363 224 f;
#X text 613 68 transport sync;
#X obj 451 21 loadbang;
#X obj 495 199 f;
#X obj 457 524 tabplay~ \$1;
#X obj 457 549 *~;
#X obj 369 260 change 0;
#X obj 243 350 *~;
#X msg 303 347 \$1 5;
#X obj 312 378 line~;
#X obj 546 410 line~;
#X msg 576 373 \$1 5;
#X obj 481 299 == 0;
#X text 30 606 minus 5 to make sure it falls before transport bang
;
#X obj 559 145 t b b b;
#X text 32 12 dkloopplay~: synced looper based on tabplay~;
#X text 6 320 in1: sig~ \, in2: play/rec;
#X text 6 344 in3: off/on \, in4: transport;
#X text 8 281 arg: sample array;
#X text 17 385 out~: sig;
#X text 27 38 Derek Kwan 2016 \, gpl v 3;
#X obj 457 574 outlet~;
#X obj 362 295 t f f;
#X obj 576 322 * 0;
#X obj 495 224 t b f;
#X obj 109 143 tgl 30 0 empty empty rec 0 -7 0 15 -262144 -1 -1 0 1
;
#X obj 156 143 tgl 30 0 empty empty on 0 -7 0 15 -262144 -1 -1 1 1
;
#X obj 785 80 inlet;
#X text 840 80 messages;
#X obj 785 105 route offset;
#X obj 483 475 f;
#X text 844 139 offset = offset in beats;
#X text 8 361 in5: messages;
#N canvas 1076 187 903 742 \$0-dkloopplay-syncer 0;
#X msg 183 366 1;
#X obj 150 268 t b b b;
#X msg 238 358 0;
#X obj 188 448 spigot 0;
#X obj 107 7 inlet;
#X obj 241 175 inlet;
#X text 304 161 transport sync;
#X obj 92 525 outlet;
#X text 267 503 goal: sync playback to transport;
#X text 261 535 idea: only let transport sync bangs in when;
#X text 267 559 the loop is done playing;
#X text 180 475 when done \, allow transport to restart process;
#X obj 237 412 f;
#X obj 107 32 t f f;
#X obj 121 234 spigot;
#X text 168 133 only allow bangs in when playing;
#X obj 275 272 timer;
#X text 363 247 figure out recording time;
#X obj 308 390 f;
#X obj 19 530 outlet;
#X obj 53 166 t b b;
#X text 21 562 rec bang;
#X text 117 560 play bang;
#X text 382 274 minus 1 to make sure it falls before transport bang
;
#X obj 325 300 - 1;
#X msg 308 365 1;
#X obj 306 338 moses 1;
#X msg 55 466 stop;
#X obj 58 135 sel 1 0;
#X obj 124 165 t b b;
#X msg 56 242 stop;
#X obj 192 86 == 0;
#X obj 183 307 delay 1;
#X connect 0 0 12 0;
#X connect 1 0 7 0;
#X connect 1 1 32 0;
#X connect 1 2 2 0;
#X connect 2 0 12 0;
#X connect 3 0 14 0;
#X connect 4 0 13 0;
#X connect 5 0 3 0;
#X connect 12 0 3 1;
#X connect 13 0 28 0;
#X connect 13 1 31 0;
#X connect 14 0 1 0;
#X connect 16 0 24 0;
#X connect 18 0 32 1;
#X connect 20 0 19 0;
#X connect 20 1 16 0;
#X connect 20 1 30 0;
#X connect 24 0 26 0;
#X connect 25 0 18 0;
#X connect 26 0 25 0;
#X connect 26 1 18 0;
#X connect 27 0 19 0;
#X connect 28 0 20 0;
#X connect 28 1 29 0;
#X connect 29 0 14 0;
#X connect 29 1 27 0;
#X connect 29 1 16 1;
#X connect 30 0 32 0;
#X connect 31 0 14 1;
#X connect 32 0 0 0;
#X restore 368 366 pd \$0-dkloopplay-syncer;
#N canvas 397 314 965 788 \$0-dkloopplay-offset 0;
#X obj 131 66 t b b;
#X obj 131 91 timer;
#X obj 130 150 * 0;
#X obj 122 222 t f b;
#X obj 164 267 samplerate~;
#X obj 130 175 / 1000;
#X obj 117 304 *;
#X obj 237 31 inlet;
#X text 289 27 beat offset;
#X obj 117 329 outlet;
#X obj 132 13 inlet;
#X text 188 5 transport;
#X connect 0 0 1 0;
#X connect 0 1 1 1;
#X connect 1 0 2 0;
#X connect 2 0 5 0;
#X connect 3 0 6 0;
#X connect 3 1 4 0;
#X connect 4 0 6 1;
#X connect 5 0 3 0;
#X connect 6 0 9 0;
#X connect 7 0 2 1;
#X connect 10 0 0 0;
#X restore 638 434 pd \$0-dkloopplay-offset;
#X connect 0 0 21 0;
#X connect 2 0 14 0;
#X connect 3 0 32 0;
#X connect 5 0 33 0;
#X connect 7 0 13 0;
#X connect 9 0 13 0;
#X connect 10 0 31 0;
#X connect 11 0 12 0;
#X connect 12 0 28 0;
#X connect 13 0 29 0;
#X connect 14 0 1 0;
#X connect 15 0 16 0;
#X connect 16 0 14 1;
#X connect 17 0 12 1;
#X connect 18 0 17 0;
#X connect 19 0 30 0;
#X connect 21 0 7 0;
#X connect 21 1 10 0;
#X connect 21 2 40 1;
#X connect 21 2 41 0;
#X connect 29 0 40 0;
#X connect 29 1 19 0;
#X connect 29 1 15 0;
#X connect 30 0 18 0;
#X connect 31 0 30 0;
#X connect 31 1 30 1;
#X connect 32 0 7 1;
#X connect 33 0 10 1;
#X connect 34 0 36 0;
#X connect 36 0 41 1;
#X connect 37 0 11 0;
#X connect 40 0 1 0;
#X connect 40 1 37 0;
#X connect 41 0 37 1;
#X coords 0 -1 1 1 150 80 1 100 100;
