#N canvas 86 190 1772 554 12;
#X obj 43 210 tabwrite~ \$1;
#X obj 165 383 outlet~;
#X obj 45 22 inlet~;
#X text 104 25 signal;
#X obj 181 25 inlet;
#N canvas 970 98 1366 987 dkloooper-tabwrite-msg 0;
#X obj 343 157 r \$0-looper-sync;
#X obj 217 133 sel 0 1;
#X obj 345 382 timer;
#X obj 653 646 del;
#X msg 784 393 stop;
#X obj 655 388 array size \$1;
#X obj 655 419 dksamptoms;
#X obj 47 290 r \$0-looper-stop;
#X obj 198 179 s \$0-looper-stop;
#X obj 647 687 s \$0-looper-stop;
#X msg 160 768 stop;
#X msg 230 838 start \$1;
#X obj 199 878 outlet;
#X obj 232 106 inlet;
#X text 284 108 rec off/on;
#X obj 50 419 s \$0-looper-playtrig;
#X obj 227 729 v \$0-looper-start;
#X obj 228 784 dkmstosamp;
#X obj 228 808 i;
#X text 357 737 start in ms;
#X obj 650 330 t b b b, f 18;
#X obj 655 501 -;
#X obj 712 465 v \$0-looper-start;
#X obj 655 525 max 0;
#X obj 345 428 + 0;
#X obj 396 401 v \$0-looper-start;
#X text 471 616 end of recording in ms;
#X obj 370 672 v \$0-looper-end;
#X obj 336 467 spigot 1;
#X obj 468 306 r \$0-looper-override;
#X obj 468 330 == 0;
#X obj 336 491 swap 0;
#X obj 421 467 r \$0-looper-qtize;
#X text 450 444 quantize end points?;
#X obj 336 515 pack f f;
#X text 468 287 override auto setting end point;
#X obj 336 539 route 0 1;
#X obj 472 547 r \$0-looper-syncdur;
#X obj 314 129 r \$0-looper-syncer;
#X obj 792 352 r \$0-looper-array;
#X obj 256 225 dkbangsync 0;
#X obj 376 297 t b b;
#X obj 119 366 s \$0-looper-clearblock;
#X obj 47 315 t b b b b b, f 34;
#X obj 337 623 t f f;
#X obj 339 881 outlet;
#X text 205 913 tabwrite msgs;
#X text 411 885 new ending value if not override;
#X obj 407 580 dknearest 0;
#X obj 256 261 t b b b b, f 98;
#X obj 948 293 symbol \$1;
#X obj 1029 257 r \$0-looper-array;
#X msg 953 333 \; \$1 const 0;
#X connect 0 0 40 2;
#X connect 1 0 8 0;
#X connect 1 1 40 0;
#X connect 2 0 24 0;
#X connect 3 0 9 0;
#X connect 4 0 3 0;
#X connect 5 0 6 0;
#X connect 6 0 21 0;
#X connect 7 0 43 0;
#X connect 10 0 12 0;
#X connect 11 0 12 0;
#X connect 13 0 1 0;
#X connect 16 0 17 0;
#X connect 17 0 18 0;
#X connect 18 0 11 0;
#X connect 20 0 5 0;
#X connect 20 1 22 0;
#X connect 20 2 4 0;
#X connect 21 0 23 0;
#X connect 22 0 21 1;
#X connect 23 0 3 0;
#X connect 24 0 28 0;
#X connect 25 0 24 1;
#X connect 28 0 31 0;
#X connect 29 0 30 0;
#X connect 30 0 28 1;
#X connect 31 0 34 0;
#X connect 31 1 34 1;
#X connect 32 0 31 1;
#X connect 34 0 36 0;
#X connect 36 0 44 0;
#X connect 36 1 48 0;
#X connect 37 0 48 1;
#X connect 38 0 40 1;
#X connect 39 0 5 1;
#X connect 40 0 49 0;
#X connect 41 0 2 0;
#X connect 41 1 25 0;
#X connect 43 0 15 0;
#X connect 43 1 42 0;
#X connect 43 2 10 0;
#X connect 43 3 2 1;
#X connect 43 4 4 0;
#X connect 44 0 45 0;
#X connect 44 1 27 0;
#X connect 48 0 44 0;
#X connect 49 0 16 0;
#X connect 49 1 41 0;
#X connect 49 2 20 0;
#X connect 49 3 50 0;
#X connect 50 0 52 0;
#X connect 51 0 50 1;
#X restore 74 108 pd dkloooper-tabwrite-msg;
#X text 263 40 playback/rec;
#N canvas 927 114 1118 1035 dklooper-playback-ctrl 0;
#X obj 383 241 r \$0-looper-sync;
#N canvas 461 244 1028 903 dklooper-calclooplen 0;
#X obj 268 149 t b b, f 24;
#X obj 437 426 r \$0-looper-sync;
#X obj 253 478 swap 0, f 27;
#X obj 253 502 pack f f, f 27;
#X obj 253 526 route 0 1, f 33;
#X obj 252 671 outlet;
#X obj 539 520 r \$0-looper-syncdur;
#X text 588 485 if syncing \, want to sync length with duration;
#X text 553 585 and -1 so we make sure loop ends before sync bang arrives
;
#X obj 368 603 - 1;
#X text 471 80 calculate loop length;
#X obj 277 73 inlet;
#X text 345 80 trig;
#X obj 268 178 v \$0-looper-end;
#X obj 432 175 v \$0-looper-start;
#X obj 258 254 -, f 27;
#X obj 257 286 abs;
#X obj 257 411 * 1;
#X obj 371 284 r \$0-looper-rate;
#X obj 371 308 t b f;
#X msg 371 332 1;
#X obj 371 356 /;
#X obj 368 579 dknearest;
#X connect 0 0 13 0;
#X connect 0 1 14 0;
#X connect 1 0 2 1;
#X connect 2 0 3 0;
#X connect 2 1 3 1;
#X connect 3 0 4 0;
#X connect 4 0 5 0;
#X connect 4 1 22 0;
#X connect 6 0 22 1;
#X connect 9 0 5 0;
#X connect 11 0 0 0;
#X connect 13 0 15 0;
#X connect 14 0 15 1;
#X connect 15 0 16 0;
#X connect 16 0 17 0;
#X connect 17 0 2 0;
#X connect 18 0 19 0;
#X connect 19 0 20 0;
#X connect 19 1 21 1;
#X connect 20 0 21 0;
#X connect 21 0 17 1;
#X connect 22 0 9 0;
#X restore 284 390 pd dklooper-calclooplen;
#X obj 287 352 spigot 1;
#X obj 279 27 r \$0-looper-playtrig;
#X obj 286 157 spigot 0;
#X msg 559 203 1;
#X text 625 207 make sure we can trigger looplencalc;
#X msg 577 524 0;
#X obj 430 694 del;
#X msg 492 642 stop;
#X obj 437 531 t f b b;
#X obj 431 606 + 0;
#X obj 638 566 r \$0-looper-break;
#X text 473 690 playtrig callback for looping;
#X obj 430 718 t b b b;
#X obj 451 783 s \$0-looper-endofloop;
#X msg 590 735 1;
#X obj 432 844 s \$0-looper-playtrig;
#X obj 291 484 t f f, f 21;
#X obj 302 882 outlet;
#X obj 353 83 t f f;
#X obj 299 116 sel 1;
#X obj 326 199 r \$0-looper-syncer;
#X obj 287 268 dkbangsync 0;
#X obj 537 21 r \$0-looper-on;
#X obj 548 275 r \$0-looper-clearblock;
#X msg 548 299 1;
#X obj 543 50 t f f;
#X obj 559 103 sel 1 0;
#X obj 587 153 s \$0-looper-stopplay;
#X connect 0 0 23 2;
#X connect 1 0 18 0;
#X connect 2 0 1 0;
#X connect 3 0 4 0;
#X connect 4 0 23 0;
#X connect 5 0 2 1;
#X connect 7 0 2 1;
#X connect 8 0 14 0;
#X connect 9 0 8 0;
#X connect 10 0 11 0;
#X connect 10 1 7 0;
#X connect 10 2 9 0;
#X connect 11 0 8 0;
#X connect 12 0 11 1;
#X connect 14 0 17 0;
#X connect 14 1 15 0;
#X connect 14 2 16 0;
#X connect 16 0 2 1;
#X connect 18 0 19 0;
#X connect 18 1 10 0;
#X connect 20 0 21 0;
#X connect 20 1 4 1;
#X connect 21 0 4 0;
#X connect 22 0 23 1;
#X connect 23 0 2 0;
#X connect 24 0 27 0;
#X connect 25 0 26 0;
#X connect 26 0 2 1;
#X connect 27 0 20 0;
#X connect 27 1 28 0;
#X connect 28 0 5 0;
#X connect 28 1 29 0;
#X restore 174 187 pd dklooper-playback-ctrl;
#N canvas 1222 300 815 780 dklooper-tabread-reader 0;
#X obj 83 52 inlet;
#X text 133 53 dur;
#X obj 84 204 t f f, f 41;
#X obj 360 271 t f b b, f 36;
#X obj 466 223 r \$0-looper-ramp;
#X obj 352 371 del;
#X msg 349 438 0;
#X msg 481 399 1;
#X msg 603 362 stop;
#X obj 346 546 line~;
#X obj 346 570 outlet~;
#X text 475 532 envelope;
#X obj 80 290 t b f, f 30;
#X obj 81 415 v \$0-looper-start;
#X obj 191 347 v \$0-looper-end;
#X msg 80 630 \$1 \, \$2 \$3;
#X obj 83 684 line~;
#X obj 83 546 pack f f f, f 31;
#X obj 80 314 t b b, f 16;
#X obj 83 708 outlet~;
#X text 165 679 reading location;
#X obj 191 371 dkmstosamp;
#X obj 81 439 dkmstosamp;
#X obj 346 522 pack 0 3;
#X obj 352 347 - 3;
#X obj 240 12 r \$0-looper-stopplay;
#X obj 415 71 r \$0-looper-sync;
#X obj 386 43 r \$0-looper-syncer;
#X obj 231 112 dkbangsync 0;
#X obj 83 570 t l l;
#X obj 476 719 outlet;
#X text 530 721 info dump;
#X msg 475 671 dur \$3;
#X connect 0 0 2 0;
#X connect 2 0 12 0;
#X connect 2 1 3 0;
#X connect 3 0 24 0;
#X connect 3 1 7 0;
#X connect 3 2 8 0;
#X connect 4 0 23 1;
#X connect 4 0 24 1;
#X connect 5 0 6 0;
#X connect 6 0 23 0;
#X connect 7 0 23 0;
#X connect 8 0 5 0;
#X connect 9 0 10 0;
#X connect 12 0 18 0;
#X connect 12 1 17 2;
#X connect 13 0 22 0;
#X connect 14 0 21 0;
#X connect 15 0 16 0;
#X connect 16 0 19 0;
#X connect 17 0 29 0;
#X connect 18 0 13 0;
#X connect 18 1 14 0;
#X connect 21 0 17 1;
#X connect 22 0 17 0;
#X connect 23 0 9 0;
#X connect 24 0 5 0;
#X connect 25 0 28 0;
#X connect 26 0 28 2;
#X connect 27 0 28 1;
#X connect 28 0 6 0;
#X connect 29 0 32 0;
#X connect 29 1 15 0;
#X connect 32 0 30 0;
#X restore 165 223 pd dklooper-tabread-reader;
#X obj 764 24 inlet;
#N canvas 6 203 1122 946 dklooper-message-handling 0;
#X obj 63 29 inlet;
#X msg 911 136 bang;
#X obj 904 169 s \$0-looper-syncer;
#X obj 425 162 > 0;
#X obj 425 186 s \$0-looper-on;
#X obj 384 322 > 0;
#X obj 384 346 s \$0-looper-qtize;
#X obj 350 210 > 0;
#X obj 350 234 s \$0-looper-sync;
#X obj 40 485 swap 0;
#X obj 40 509 pack f f;
#X obj 439 138 s \$0-looper-syncdur;
#X obj 211 545 r \$0-looper-syncdur;
#X obj 156 415 r \$0-looper-qtize;
#X obj 115 481 swap 0;
#X obj 115 505 pack f f;
#X obj 39 545 route 0 1;
#X obj 114 541 route 0 1;
#X obj 39 762 v \$0-looper-start;
#X obj 111 838 v \$0-looper-end;
#X obj 63 130 max 0;
#X obj 129 285 min;
#X obj 137 93 t f b;
#X obj 548 199 symbol;
#X obj 548 223 s \$0-looper-array;
#X obj 229 138 r \$0-looper-array;
#X obj 200 242 array size \$1;
#X obj 229 162 t b b s;
#X obj 618 118 max 0;
#X obj 618 142 s \$0-looper-ramp;
#X obj 696 198 s \$0-looper-rate;
#X obj 779 272 symbol \$1;
#X obj 839 240 r \$0-looper-array;
#X msg 776 308 \; \$1 const 0;
#X obj 802 90 > 0;
#X obj 802 114 s \$0-looper-override;
#X text 496 620 override: override auto setting end point;
#X obj 67 629 dknearest 0;
#X obj 165 684 dknearest 0;
#X obj 63 53 route start end quantize sync on syncdur set ramp rate
clear override syncer bang, f 142;
#X connect 0 0 39 0;
#X connect 1 0 2 0;
#X connect 3 0 4 0;
#X connect 5 0 6 0;
#X connect 7 0 8 0;
#X connect 9 0 10 0;
#X connect 9 1 10 1;
#X connect 10 0 16 0;
#X connect 12 0 37 1;
#X connect 12 0 38 1;
#X connect 13 0 9 1;
#X connect 13 0 14 1;
#X connect 14 0 15 0;
#X connect 14 1 15 1;
#X connect 15 0 17 0;
#X connect 16 0 18 0;
#X connect 16 1 37 0;
#X connect 17 0 19 0;
#X connect 17 1 38 0;
#X connect 20 0 9 0;
#X connect 21 0 14 0;
#X connect 22 0 21 0;
#X connect 23 0 24 0;
#X connect 25 0 27 0;
#X connect 26 0 21 1;
#X connect 27 0 21 0;
#X connect 27 1 26 0;
#X connect 27 2 26 1;
#X connect 28 0 29 0;
#X connect 31 0 33 0;
#X connect 32 0 31 1;
#X connect 34 0 35 0;
#X connect 37 0 18 0;
#X connect 38 0 19 0;
#X connect 39 0 20 0;
#X connect 39 1 22 0;
#X connect 39 2 5 0;
#X connect 39 3 7 0;
#X connect 39 4 3 0;
#X connect 39 5 11 0;
#X connect 39 6 23 0;
#X connect 39 7 28 0;
#X connect 39 8 30 0;
#X connect 39 9 31 0;
#X connect 39 10 34 0;
#X connect 39 11 1 0;
#X restore 764 85 pd dklooper-message-handling;
#X text 478 46 on;
#X obj 428 45 inlet;
#X obj 428 69 > 0;
#X obj 425 111 s \$0-looper-on;
#X obj 576 40 inlet;
#X msg 576 64 bang;
#X text 641 41 syncer;
#X obj 576 88 s \$0-looper-syncer;
#X obj 167 286 *~, f 23;
#X text 552 192 args: array name \, sync \, syncdur;
#X obj 104 143 r \$0-looper-array;
#X msg 103 168 set \$1;
#N canvas 946 621 979 502 dklooper-args 0;
#X obj 26 18 loadbang;
#X obj 34 133 f \$2;
#X text 329 30 args: array name \, sync \, syncdur;
#X obj 305 127 f \$3;
#X obj 25 298 outlet;
#X obj 618 115 loadbang;
#X obj 26 213 pack f f, f 43;
#X obj 26 42 t b b, f 38;
#X msg 26 237 syncdur \$2 \, sync \$1;
#X msg 618 139 start 0 \, rate 1 \, ramp 2;
#X connect 0 0 7 0;
#X connect 1 0 6 0;
#X connect 3 0 6 1;
#X connect 5 0 9 0;
#X connect 6 0 8 0;
#X connect 7 0 1 0;
#X connect 7 1 3 0;
#X connect 8 0 4 0;
#X connect 9 0 4 0;
#X restore 826 56 pd dklooper-args;
#X text 1304 9 derek kwan;
#X text 1303 55 gpl v 3;
#X text 1299 33 pdkvabs 2018;
#X obj 335 395 outlet;
#X text 397 397 info dump;
#X obj 512 399 outlet;
#X obj 518 359 r \$0-looper-endofloop;
#X text 579 399 end of loop;
#X text 548 219 inlets: signal \, playback/rec \, on \, syncer \, messages
;
#X obj 375 312 r \$0-looper-stop;
#X msg 375 336 rec 0;
#X msg 245 144 end \$1;
#X text 552 242 outlets: signal \, info dump \, end of loop;
#X obj 373 190 r \$0-looper-on;
#X obj 167 262 dkxgrn~ \$1 6;
#X connect 2 0 0 0;
#X connect 4 0 5 0;
#X connect 5 0 0 0;
#X connect 5 1 35 0;
#X connect 7 0 8 0;
#X connect 8 0 38 0;
#X connect 8 1 19 1;
#X connect 8 2 27 0;
#X connect 9 0 10 0;
#X connect 12 0 13 0;
#X connect 13 0 14 0;
#X connect 15 0 16 0;
#X connect 16 0 18 0;
#X connect 19 0 1 0;
#X connect 21 0 22 0;
#X connect 22 0 0 0;
#X connect 22 0 38 0;
#X connect 23 0 10 0;
#X connect 30 0 29 0;
#X connect 33 0 34 0;
#X connect 34 0 27 0;
#X connect 35 0 27 0;
#X connect 37 0 38 1;
#X connect 38 0 19 0;
