#N canvas 494 246 1121 974 12;
#X obj 239 174 inlet;
#X text 305 174 number of bangs;
#X obj 239 235 t b f b, f 53;
#X msg 239 260 1;
#X msg 330 714 0;
#X obj 249 754 f, f 12;
#X obj 409 655 + 1;
#X obj 443 708 >= 1, f 9;
#X obj 507 677 max 1;
#X obj 178 673 t b b, f 10;
#X obj 443 737 sel 1;
#X msg 400 759 0;
#X obj 808 311 loadbang;
#X obj 621 379 f \$1;
#X msg 621 404 tempo \$1 msec;
#X obj 208 508 metro, f 77;
#X obj 657 193 inlet;
#X obj 455 181 inlet;
#X text 503 185 metro messages;
#X obj 201 834 outlet;
#X text 10 236 inlets: number of bangs;
#X text 715 193 rate per tick;
#X text 3 267 rate per tick/metro messages;
#X text 798 26 derek kwan 2017;
#X text 810 53 gpl v 3;
#X text 800 84 pdkvabs;
#X obj 409 680 t f f;
#X obj 778 368 f \$2;
#X obj 778 393 moses 1e-20;
#X msg 778 418 1;
#X text 12 29 dkmbang_r - multiple banger with random gate;
#X text 10 93 args: tempo in ms \, rate per tick \, pct success;
#X obj 912 376 f \$3;
#X obj 260 629 dkrgate, f 92;
#X obj 912 401 moses 1e-20;
#X msg 912 426 100;
#X obj 912 451 max 1e-20;
#X obj 833 190 inlet;
#X text 881 195 pct success;
#X obj 164 588 dkbangroute;
#X text 10 536 first bang always goes through;
#X obj 414 846 outlet;
#X text 475 847 done;
#X connect 0 0 2 0;
#X connect 2 0 3 0;
#X connect 2 1 8 0;
#X connect 2 2 4 0;
#X connect 2 2 39 1;
#X connect 3 0 15 0;
#X connect 4 0 5 1;
#X connect 5 0 6 0;
#X connect 6 0 26 0;
#X connect 7 0 10 0;
#X connect 8 0 7 1;
#X connect 9 0 5 0;
#X connect 9 1 19 0;
#X connect 10 0 11 0;
#X connect 10 0 41 0;
#X connect 11 0 15 0;
#X connect 12 0 13 0;
#X connect 12 0 27 0;
#X connect 12 0 32 0;
#X connect 13 0 14 0;
#X connect 14 0 15 0;
#X connect 15 0 39 0;
#X connect 16 0 15 1;
#X connect 17 0 15 0;
#X connect 26 0 5 1;
#X connect 26 1 7 0;
#X connect 27 0 28 0;
#X connect 28 0 29 0;
#X connect 28 1 15 1;
#X connect 29 0 15 1;
#X connect 32 0 34 0;
#X connect 33 0 9 0;
#X connect 34 0 35 0;
#X connect 34 1 36 0;
#X connect 35 0 36 0;
#X connect 36 0 33 1;
#X connect 37 0 36 0;
#X connect 39 0 9 0;
#X connect 39 1 33 0;
