#N canvas 554 110 1021 646 12;
#X obj 222 133 inlet;
#X obj 338 461 f;
#X obj 485 512 + 1;
#X obj 222 158 t b b b;
#X msg 405 273 1;
#X obj 405 355 f;
#X obj 332 393 del, f 9;
#X obj 349 609 outlet;
#X obj 329 503 sel 4, f 7;
#X msg 459 601 bang;
#X obj 402 314 / 4;
#X msg 380 432 0;
#X msg 370 551 bang;
#X obj 367 79 f \$1;
#X msg 358 142 120;
#X msg 325 184 tempo \$1 msec;
#X obj 365 117 moses 0.1;
#X obj 545 90 f \$2;
#X obj 544 117 moses 1, f 15;
#X obj 575 259 i;
#X obj 465 21 inlet;
#X obj 368 41 loadbang;
#X obj 632 24 inlet;
#X msg 544 143 1;
#X text 518 21 tempo;
#X text 682 24 multiplier;
#X text 12 183 ARGS:;
#X text 6 207 tempo(ms)/multiplier;
#X text 14 304 INLETS:;
#X text 12 340 tempo msgs (any unit)/;
#X text 17 367 multiplier;
#X text 17 440 OUTLETS:;
#X text 17 466 multiplied bangs;
#X text 840 25 derek kwan 2017;
#X text 852 52 gpl v 3;
#X text 842 83 pdkvabs;
#X text 19 11 dkmbang - bang mulitplier;
#X connect 0 0 3 0;
#X connect 1 0 8 0;
#X connect 2 0 9 0;
#X connect 2 0 1 1;
#X connect 3 0 1 0;
#X connect 3 1 5 0;
#X connect 3 2 4 0;
#X connect 3 2 11 0;
#X connect 4 0 10 0;
#X connect 5 0 6 0;
#X connect 6 0 1 0;
#X connect 8 1 2 0;
#X connect 8 1 12 0;
#X connect 9 0 5 0;
#X connect 10 0 5 1;
#X connect 11 0 1 1;
#X connect 12 0 7 0;
#X connect 13 0 16 0;
#X connect 14 0 15 0;
#X connect 15 0 6 0;
#X connect 16 0 14 0;
#X connect 16 1 15 0;
#X connect 17 0 18 0;
#X connect 18 0 23 0;
#X connect 18 1 19 0;
#X connect 19 0 10 1;
#X connect 19 0 8 1;
#X connect 20 0 6 0;
#X connect 21 0 13 0;
#X connect 21 0 17 0;
#X connect 22 0 17 0;
#X connect 23 0 19 0;
