#N canvas 316 146 370 253 10;
#X obj 112 21 midirealtimein;
#X obj 105 71 f;
#X obj 153 77 + 1;
#X msg 52 95 0;
#X obj 122 102 sel 24;
#X obj 112 43 sel 248 250 251 252;
#X obj 71 205 outlet;
#X obj 143 205 outlet;
#X obj 206 206 outlet;
#X obj 265 207 outlet;
#X obj 23 61 loadbang;
#X text 280 181 STOP;
#X text 210 186 CONTINUE;
#X text 150 180 START;
#X text 80 188 QTR NOTE;
#X connect 0 0 5 0;
#X connect 1 0 2 0;
#X connect 1 0 4 0;
#X connect 2 0 1 1;
#X connect 3 0 1 1;
#X connect 4 0 3 0;
#X connect 4 0 6 0;
#X connect 5 0 1 0;
#X connect 5 1 7 0;
#X connect 5 2 8 0;
#X connect 5 3 9 0;
#X connect 10 0 3 0;
