#N canvas 793 152 567 542 12;
#X obj 209 53 inlet;
#X obj 209 78 t b f;
#X obj 160 113 samplerate~;
#X obj 268 122 / 1000;
#X obj 208 197 outlet;
#X obj 209 160 *;
#X text 8 8 dkms2smp: milliseconds to samples;
#X text 15 37 Derek Kwan \, 2016;
#X connect 0 0 1 0;
#X connect 1 0 2 0;
#X connect 1 1 3 0;
#X connect 2 0 5 0;
#X connect 3 0 5 1;
#X connect 5 0 4 0;
