#N canvas 548 333 450 300 10;
#X obj 144 26 log;
#X obj 125 105 /;
#X obj 156 138 log 2;
#X msg 167 92 2;
#X obj 140 72 t f b;
#X obj 131 207 pow 2;
#X msg 112 194 2;
#X obj 145 2 inlet;
#X obj 117 238 outlet;
#X obj 133 168 t b f;
#X obj 115 138 int;
#X connect 0 0 4 0;
#X connect 1 0 10 0;
#X connect 2 0 1 1;
#X connect 3 0 2 0;
#X connect 4 0 1 0;
#X connect 4 1 3 0;
#X connect 5 0 8 0;
#X connect 6 0 5 0;
#X connect 7 0 0 0;
#X connect 9 0 6 0;
#X connect 9 1 5 1;
#X connect 10 0 9 0;
