#N canvas 764 400 744 789 12;
#X obj 188 56 inlet;
#X obj 188 81 symbol;
#X obj 188 152 list fromsymbol;
#X obj 188 181 t l l;
#X obj 223 213 list length;
#X obj 223 238 - 1;
#X obj 185 274 list split;
#X text 426 123 c4 = 60;
#X obj 468 220 list tosymbol;
#X obj 476 302 + 1;
#X obj 476 369 * 12;
#X obj 165 323 list split 1, f 27;
#X obj 112 440 moses 97, f 22;
#X obj 196 482 moses 104;
#X obj 103 469 moses 65;
#X obj 103 511 moses 72;
#X obj 165 348 t f b;
#X obj 328 389 sel 35 98;
#X msg 330 438 1;
#X msg 392 431 -1;
#X obj 468 245 f;
#X obj 195 516 - 32;
#X msg 101 627 4;
#X msg 141 626 6;
#X msg 189 630 8;
#X msg 238 627 9;
#X msg 287 632 11;
#X msg 331 638 13;
#X msg 371 638 15;
#X obj 101 688 +, f 40;
#X obj 101 713 +;
#X obj 102 590 sel 67 68 69 70 71 65 66, f 38;
#X msg 349 502 0;
#X obj 476 394 - 4;
#X text 509 27 derek kwan \, pdkvabs;
#X text 520 48 gpl v 3 2017;
#X obj 101 738 outlet;
#X obj 253 356 route bang;
#X text 33 22 dknote2midi - note names to midi;
#X connect 0 0 1 0;
#X connect 1 0 2 0;
#X connect 2 0 3 0;
#X connect 3 0 6 0;
#X connect 3 1 4 0;
#X connect 4 0 5 0;
#X connect 5 0 6 1;
#X connect 6 0 11 0;
#X connect 6 1 8 0;
#X connect 8 0 20 0;
#X connect 9 0 10 0;
#X connect 10 0 33 0;
#X connect 11 0 16 0;
#X connect 11 1 37 0;
#X connect 12 0 14 0;
#X connect 12 1 13 0;
#X connect 13 0 21 0;
#X connect 14 1 15 0;
#X connect 15 0 31 0;
#X connect 16 0 12 0;
#X connect 17 0 18 0;
#X connect 17 1 19 0;
#X connect 18 0 30 1;
#X connect 19 0 30 1;
#X connect 20 0 9 0;
#X connect 21 0 31 0;
#X connect 22 0 29 0;
#X connect 23 0 29 0;
#X connect 24 0 29 0;
#X connect 25 0 29 0;
#X connect 26 0 29 0;
#X connect 27 0 29 0;
#X connect 28 0 29 0;
#X connect 29 0 30 0;
#X connect 30 0 36 0;
#X connect 31 0 22 0;
#X connect 31 1 23 0;
#X connect 31 2 24 0;
#X connect 31 3 25 0;
#X connect 31 4 26 0;
#X connect 31 5 27 0;
#X connect 31 6 28 0;
#X connect 32 0 30 1;
#X connect 33 0 29 1;
#X connect 37 0 32 0;
#X connect 37 1 17 0;
