#N canvas 182 145 1310 771 12;
#X obj 281 132 inlet;
#X obj 278 191 moses 0;
#X obj 243 423 tabread \$2;
#X obj 404 130 loadbang;
#X msg 417 169 0;
#X obj 175 549 tabread4~ \$1;
#X obj 313 251 f;
#X obj 346 248 i;
#X obj 328 283 -;
#X obj 342 349 moses 0.1;
#X msg 347 382 0;
#X obj 417 386 t b f;
#X msg 416 411 1;
#X text 429 345 >= 0.1: stutter according to decimal (0.5 = stutter
twice/beat);
#X text 325 447 turn on stutter;
#X text 427 317 < 0.1 : no stutter (make sure to turn off);
#X text 399 599 stutter val;
#X text 381 245 integer part: select sample pos \, decimal part: stutter
speed;
#X obj 278 255 i;
#X text 145 406 location table;
#X text 417 532 ramp before changing location;
#X text 565 128 sample len of array;
#X obj 57 167 t b f;
#X obj 26 195 samplerate~;
#X obj 44 223 /;
#X obj 39 259 phasor~;
#X obj 47 301 *~ 44100;
#X obj 165 279 bang;
#X obj 239 586 *~;
#X obj 854 122 inlet;
#X obj 852 191 moses 0;
#X obj 889 220 t b f;
#X msg 889 242 1000;
#X obj 889 264 /;
#X text 928 244 freq of subdiv;
#X obj 451 413 t b f;
#X msg 454 445 1;
#X obj 492 468 /;
#X text 500 423 freq multiplier;
#X text 33 46 args: 1 sample to read \, 2.location table(0-1) \, 3.subdiv
dur(ms);
#X obj 492 490 * 8;
#N canvas 783 252 670 413 nobustut 0;
#X obj 23 106 line~;
#X obj 29 157 samphold~;
#X obj 149 159 *~ 0.5;
#X obj 147 214 cos~;
#X obj 149 189 -~ 0.5;
#X obj 39 229 *~;
#X msg 29 84 0 \, \$1 \$1;
#X obj 29 184 vd~ \$0-stutter;
#X obj 255 346 outlet~;
#X obj 364 65 > 0.5;
#X obj 268 15 inlet;
#X obj 268 199 line~;
#X obj 330 252 line~;
#X obj 152 19 inlet~;
#X obj 48 28 sel 1;
#X obj 243 248 *~;
#X obj 326 293 *~;
#X obj 214 12 inlet;
#X text 374 310 in 1: sig;
#X text 379 326 in 2: stutters/sec;
#X text 381 344 in 3: 0 = clean \, 1 = stutter;
#X text 375 277 arg 1: max stutter time (ms);
#X text 372 294 arg 2: stutters/sec;
#X obj 369 149 == 0;
#X text 31 3 STUTTER~;
#X text 49 305 DEREK KWAN \, 2015;
#X obj 40 56 f 10000;
#X obj 154 70 delwrite~ \$0-stutter 10000;
#X obj 95 114 phasor~ 2;
#X msg 271 170 \$1 5;
#X msg 336 223 \$1 5;
#X obj 354 95 f;
#X connect 0 0 1 0;
#X connect 1 0 7 0;
#X connect 2 0 4 0;
#X connect 3 0 5 1;
#X connect 4 0 3 0;
#X connect 5 0 15 0;
#X connect 6 0 0 0;
#X connect 7 0 5 0;
#X connect 9 0 31 0;
#X connect 10 0 9 0;
#X connect 11 0 15 1;
#X connect 12 0 16 1;
#X connect 13 0 16 0;
#X connect 13 0 27 0;
#X connect 14 0 26 0;
#X connect 15 0 8 0;
#X connect 16 0 8 0;
#X connect 17 0 28 0;
#X connect 23 0 30 0;
#X connect 26 0 6 0;
#X connect 28 0 1 1;
#X connect 28 0 2 0;
#X connect 29 0 11 0;
#X connect 30 0 12 0;
#X connect 31 0 23 0;
#X connect 31 0 29 0;
#X connect 31 0 14 0;
#X restore 302 639 pd nobustut;
#X obj 276 691 outlet~;
#X text 919 119 subdiv dur(ms);
#X text 271 114 sample number;
#X text 31 15 DKNOBU~: sample chopper abstraction;
#X text 449 13 DEREK KWAN \, 2016;
#X obj 858 156 f \$3;
#X obj 764 123 loadbang;
#X msg 97 221 0;
#X obj 373 606 f;
#X obj 243 449 * 44100;
#X obj 245 520 t f b;
#X obj 245 470 t f b;
#X obj 296 554 vline~;
#X msg 319 519 0 3 \, 1 3 3;
#X msg 165 301 0 3;
#X obj 334 305 pipe 3;
#X obj 243 494 pipe 3;
#X text 646 582 in1:sample num;
#X obj 278 218 t f f f;
#X obj 178 237 moses -1;
#X text 132 183 [-1 \, 0): no skip;
#X text 149 204 < -1: mute;
#X obj 528 126 f;
#X obj 550 94 array size \$1;
#X obj 520 47 loadbang;
#X text 646 603 in2: subdiv dur (ms);
#X obj 1100 110 inlet;
#X obj 1143 194 s \$0-nobusym;
#X obj 730 31 r \$0-nobusym;
#X obj 730 56 t b s;
#X obj 75 496 r \$0-nobusym;
#X msg 75 521 set \$1;
#X text 648 624 in3: set array/init;
#X obj 1100 135 route init;
#X obj 1032 203 s \$0-nobusmp;
#X obj 1100 160 bang;
#X obj 607 43 r \$0-nobusmp;
#X obj 143 103 r \$0-nobusmp;
#X msg 143 128 -2;
#X connect 0 0 1 0;
#X connect 1 0 61 0;
#X connect 1 1 60 0;
#X connect 2 0 51 0;
#X connect 3 0 4 0;
#X connect 3 0 10 0;
#X connect 4 0 54 0;
#X connect 5 0 28 0;
#X connect 6 0 8 0;
#X connect 7 0 8 1;
#X connect 8 0 57 0;
#X connect 9 0 10 0;
#X connect 9 1 11 0;
#X connect 10 0 50 0;
#X connect 11 0 12 0;
#X connect 11 1 35 0;
#X connect 12 0 50 0;
#X connect 18 0 2 0;
#X connect 22 0 23 0;
#X connect 22 1 24 1;
#X connect 22 1 26 1;
#X connect 23 0 24 0;
#X connect 24 0 25 0;
#X connect 25 0 26 0;
#X connect 26 0 5 0;
#X connect 27 0 56 0;
#X connect 27 0 10 0;
#X connect 28 0 41 0;
#X connect 29 0 47 0;
#X connect 30 1 31 0;
#X connect 31 0 32 0;
#X connect 31 1 33 1;
#X connect 32 0 33 0;
#X connect 33 0 40 1;
#X connect 35 0 36 0;
#X connect 35 1 37 1;
#X connect 36 0 37 0;
#X connect 37 0 40 0;
#X connect 40 0 41 1;
#X connect 41 0 42 0;
#X connect 47 0 30 0;
#X connect 48 0 47 0;
#X connect 49 0 25 1;
#X connect 50 0 41 2;
#X connect 51 0 53 0;
#X connect 52 0 5 1;
#X connect 52 1 49 0;
#X connect 53 0 58 0;
#X connect 53 1 55 0;
#X connect 54 0 28 1;
#X connect 55 0 54 0;
#X connect 56 0 54 0;
#X connect 57 0 9 0;
#X connect 58 0 52 0;
#X connect 60 0 18 0;
#X connect 60 1 6 0;
#X connect 60 2 7 0;
#X connect 61 0 27 0;
#X connect 64 0 22 0;
#X connect 64 0 51 1;
#X connect 65 0 64 0;
#X connect 66 0 65 0;
#X connect 68 0 75 0;
#X connect 70 0 71 0;
#X connect 71 0 65 0;
#X connect 71 1 65 1;
#X connect 72 0 73 0;
#X connect 73 0 5 0;
#X connect 75 0 77 0;
#X connect 75 1 69 0;
#X connect 77 0 76 0;
#X connect 78 0 65 0;
#X connect 79 0 80 0;
#X connect 80 0 1 0;
