#N canvas 461 197 972 631 12;
#X obj 238 562 soundfiler;
#X obj 382 400 list store;
#X obj 361 146 t a a b;
#X obj 392 210 list prepend append;
#X obj 392 234 list trim;
#X obj 245 187 list length;
#X obj 245 211 dkfor;
#X msg 298 283 get \$1 1;
#X obj 246 255 t f f;
#X obj 237 304 + 0;
#X obj 237 460 pack s s;
#X msg 244 524 read -resize -maxsize 1.0584e+09 \$2 \$1;
#X obj 230 345 moses \$2;
#X obj 237 403 makefilename \$1-%d;
#X obj 360 95 inlet;
#X text 416 92 path list;
#X obj 735 89 inlet;
#X text 786 89 offset;
#X text 31 51 inlets: path-list \, offset;
#X text 34 17 dkbatchsndload - batch-loading sound files;
#X text 848 28 gpl v 3;
#X text 848 54 pdkvabs;
#X text 846 2 derek kwan 2018;
#X text 30 67 args: bind-name \, number of arrays \, init-size (opt)
;
#X obj 548 521 clone dknarray \$2 \$1 \$3;
#X connect 1 0 10 1;
#X connect 2 0 5 0;
#X connect 2 1 3 0;
#X connect 2 2 1 1;
#X connect 3 0 4 0;
#X connect 4 0 1 0;
#X connect 5 0 6 0;
#X connect 6 0 8 0;
#X connect 7 0 1 0;
#X connect 8 0 9 0;
#X connect 8 1 7 0;
#X connect 9 0 12 0;
#X connect 10 0 11 0;
#X connect 11 0 0 0;
#X connect 12 0 13 0;
#X connect 13 0 10 0;
#X connect 14 0 2 0;
#X connect 16 0 9 1;
