#N canvas 432 166 571 514 10;
#X obj 84 18 inlet;
#X obj 133 58 soundfiler;
#X obj 244 -74 inlet;
#X obj 322 -40 \$0;
#X obj 66 265 outlet~;
#N canvas 315 282 792 531 playOnce 0;
#X obj 147 23 inlet;
#X obj 252 28 inlet;
#X obj 205 309 outlet~;
#X obj 137 58 samplerate~;
#X obj 164 194 pack 0 f f;
#X obj 199 146 f;
#X msg 330 35 \$1 \, \$2 \$3;
#X obj 324 83 vline~;
#X msg 148 164 1;
#X obj 159 98 t b b f;
#X obj 298 310 outlet;
#X obj 275 222 delay;
#X obj 197 222 t b l;
#X obj 259 101 /;
#X obj 314 154 * 1000;
#X connect 0 0 3 0;
#X connect 1 0 5 1;
#X connect 1 0 13 1;
#X connect 3 0 9 0;
#X connect 4 0 12 0;
#X connect 5 0 4 1;
#X connect 6 0 7 0;
#X connect 7 0 2 0;
#X connect 8 0 4 0;
#X connect 9 0 8 0;
#X connect 9 1 5 0;
#X connect 9 2 13 0;
#X connect 11 0 10 0;
#X connect 12 0 11 0;
#X connect 12 1 6 0;
#X connect 13 0 14 0;
#X connect 14 0 11 1;
#X connect 14 0 4 2;
#X restore 106 97 pd playOnce;
#X obj 245 -49 t a b;
#X obj 237 -18 pack s f;
#X obj 415 243 outlet;
#X msg 173 27 read -resize \$1 \$2-arrayL \$2-arrayR;
#X obj 399 93 table \$0-arrayL;
#X obj 408 128 table \$0-arrayR;
#X obj 59 185 tabread4~ \$0-arrayL;
#X obj 195 265 outlet~;
#X obj 202 183 tabread4~ \$0-arrayR;
#X connect 0 0 5 0;
#X connect 1 0 5 1;
#X connect 2 0 6 0;
#X connect 3 0 7 1;
#X connect 5 0 12 0;
#X connect 5 0 14 0;
#X connect 5 1 8 0;
#X connect 6 0 7 0;
#X connect 6 1 3 0;
#X connect 7 0 9 0;
#X connect 9 0 1 0;
#X connect 12 0 4 0;
#X connect 14 0 13 0;
