#N canvas 297 297 1241 756 12;
#X obj 507 142 inlet~;
#X obj 401 232 osc~ 3;
#X obj 272 564 *~ 0;
#X obj 407 570 +~;
#X obj 423 654 outlet~;
#X text 1023 17 derek kwan;
#X text 1026 64 gpl v 3 2017;
#X obj 266 326 sel 0 1;
#X msg 266 351 1;
#X msg 314 354 -1;
#X obj 280 391 t b f;
#X obj 222 493 * 1;
#X obj 554 66 inlet;
#X text 613 69 depth;
#X obj 644 139 inlet;
#X text 693 141 rate;
#X obj 775 78 inlet;
#X text 834 75 invert;
#X obj 921 141 inlet;
#X text 974 137 bypass;
#X obj 396 284 *~ 0.5;
#X obj 391 318 +~ 0.5;
#N canvas 1199 111 1019 797 \$0-dkphaser-ap 0;
#X obj 310 262 rzero_rev~;
#X obj 308 289 rpole~;
#X obj 308 314 rzero_rev~;
#X obj 308 339 rpole~;
#X obj 308 364 rzero_rev~;
#X obj 308 389 rpole~;
#X obj 306 420 rzero_rev~;
#X obj 306 445 rpole~;
#X obj 306 470 rzero_rev~;
#X obj 306 495 rpole~;
#X obj 306 520 rzero_rev~;
#X obj 306 545 rpole~;
#X obj 315 226 inlet~;
#X obj 306 570 outlet~;
#X obj 484 219 inlet~;
#X connect 0 0 1 0;
#X connect 1 0 2 0;
#X connect 2 0 3 0;
#X connect 3 0 4 0;
#X connect 4 0 5 0;
#X connect 5 0 6 0;
#X connect 6 0 7 0;
#X connect 7 0 8 0;
#X connect 8 0 9 0;
#X connect 9 0 10 0;
#X connect 10 0 11 0;
#X connect 11 0 13 0;
#X connect 12 0 0 0;
#X connect 14 0 0 1;
#X connect 14 0 1 1;
#X connect 14 0 2 1;
#X connect 14 0 3 1;
#X connect 14 0 4 1;
#X connect 14 0 5 1;
#X connect 14 0 6 1;
#X connect 14 0 7 1;
#X connect 14 0 8 1;
#X connect 14 0 9 1;
#X connect 14 0 10 1;
#X connect 14 0 11 1;
#X restore 387 409 pd \$0-dkphaser-ap;
#X obj 423 629 util/pdkvabs_switcher~;
#X obj 554 91 s \$0-dkphaser_depth;
#X obj 642 173 s \$0-dkphaser_rate;
#X obj 775 103 s \$0-dkphaser_invert;
#X obj 921 171 s \$0-dkphaser_bypass;
#X obj 645 524 r \$0-dkphaser_bypass;
#X obj 216 279 r \$0-dkphaser_invert;
#X obj 34 358 r \$0-dkphaser_depth;
#X obj 213 435 f;
#X obj 306 165 r \$0-dkphaser_rate;
#X obj 811 191 loadbang;
#X obj 813 256 f \$1;
#X text 873 254 depth;
#X msg 813 306 0.5;
#X obj 941 254 f \$2;
#X obj 813 281 moses 1e-20;
#X obj 941 279 moses 1e-20;
#X msg 941 304 1;
#X text 991 254 rate;
#X obj 721 369 pack \$0 f f f, f 29;
#X obj 811 216 t b b;
#X obj 1075 251 f \$3;
#X text 1125 257 invert;
#X msg 721 395 \; \$1-dkphaser_depth \$1 \; \$1-dkphaser_rate \$2 \;
\$1-dkphaser_invert \$3 \;;
#X text 1028 41 pdkvabs;
#X connect 0 0 3 1;
#X connect 0 0 22 0;
#X connect 0 0 23 1;
#X connect 1 0 20 0;
#X connect 2 0 3 0;
#X connect 3 0 23 0;
#X connect 7 0 8 0;
#X connect 7 1 9 0;
#X connect 8 0 10 0;
#X connect 9 0 10 0;
#X connect 10 1 11 1;
#X connect 11 0 2 1;
#X connect 12 0 24 0;
#X connect 14 0 25 0;
#X connect 16 0 26 0;
#X connect 18 0 27 0;
#X connect 20 0 21 0;
#X connect 21 0 22 1;
#X connect 22 0 2 0;
#X connect 23 0 4 0;
#X connect 28 0 23 2;
#X connect 29 0 7 0;
#X connect 30 0 31 0;
#X connect 31 0 11 0;
#X connect 32 0 1 0;
#X connect 33 0 43 0;
#X connect 34 0 38 0;
#X connect 36 0 42 1;
#X connect 37 0 39 0;
#X connect 38 0 36 0;
#X connect 38 1 42 1;
#X connect 39 0 40 0;
#X connect 39 1 42 2;
#X connect 40 0 42 2;
#X connect 42 0 46 0;
#X connect 43 0 42 0;
#X connect 43 1 37 0;
#X connect 43 1 34 0;
#X connect 43 1 44 0;
#X connect 44 0 42 3;
