#N canvas 282 216 879 399 10;
#X obj 320 25 inlet;
#X obj 467 28 inlet;
#X obj 319 141 t b f;
#X obj 245 190 samplerate~;
#X obj 296 218 /;
#X obj 293 297 phasor~;
#X obj 298 263 * 1;
#X obj 369 194 t b f;
#X obj 293 341 outlet~;
#X text 366 24 sample size;
#X text 508 27 rate;
#X obj 577 31 inlet;
#X text 614 32 phase;
#X text 29 114 in3: phase;
#X text 28 154 DEREK KWAN \, 2016;
#X text 42 31 using phasor~;
#X obj 293 319 *~ 1;
#X obj 330 75 f \$1;
#X obj 325 103 moses 0;
#X text 38 11 DKPHSRD~: sample indexer abstraction;
#X text 30 75 in1/arg1: sample size;
#X obj 449 90 f \$2;
#X obj 383 45 loadbang;
#X text 29 94 in2/arg2: rate;
#X obj 469 150 moses 0;
#X obj 510 179 moses 1e-26;
#X msg 510 201 1;
#X obj 471 256 f;
#X connect 0 0 17 0;
#X connect 1 0 7 0;
#X connect 2 0 3 0;
#X connect 2 1 4 1;
#X connect 2 1 16 1;
#X connect 3 0 4 0;
#X connect 4 0 6 0;
#X connect 5 0 16 0;
#X connect 6 0 5 0;
#X connect 7 0 6 0;
#X connect 7 1 6 1;
#X connect 11 0 5 1;
#X connect 16 0 8 0;
#X connect 17 0 18 0;
#X connect 18 1 2 0;
#X connect 21 0 24 0;
#X connect 22 0 17 0;
#X connect 22 0 21 0;
#X connect 24 0 27 0;
#X connect 24 1 25 0;
#X connect 25 0 26 0;
#X connect 25 1 27 0;
#X connect 26 0 27 0;
#X connect 27 0 7 0;
