#N canvas 533 257 1267 669 12;
#X obj 412 17 inlet;
#X obj 276 265 t b f, f 15;
#X obj 278 302 samplerate~;
#X obj 291 359 /, f 7;
#X obj 294 476 phasor~, f 24;
#X obj 284 438 * 1, f 28;
#X obj 402 367 t b f;
#X obj 305 609 outlet~;
#X text 453 16 rate;
#X obj 538 11 inlet;
#X text 575 12 phase;
#X text 42 31 using phasor~;
#X obj 305 546 *~ 1;
#X obj 278 228 moses 0;
#X text 38 11 DKPHSRD~: sample indexer abstraction;
#X obj 454 164 f \$2;
#X obj 302 36 loadbang;
#X obj 456 197 moses 0;
#X obj 497 226 moses 1e-26;
#X msg 497 248 1;
#X obj 458 303 f;
#X obj 282 166 array size \$1, f 20;
#X obj 626 9 inlet;
#X text 674 14 start;
#X obj 738 24 inlet;
#X text 788 26 end;
#X obj 624 301 min, f 9;
#X obj 752 224 t b f;
#X obj 743 261 -, f 11;
#X obj 743 285 abs;
#X obj 281 197 * 1, f 10;
#X obj 305 570 +~ 0, f 26;
#X text 782 296 duration;
#X obj 947 12 inlet;
#X text 11 68 inlets: rate \, phase \, start \, end \, msgs;
#X text 21 219 outlets: sig \, array size;
#X text 25 167 msgs: "set (s)" - array name;
#X text 12 97 args: array \, rate \, start \, end;
#X obj 623 213 f \$3;
#X obj 829 104 f \$4;
#X obj 829 128 moses 1e-30, f 17;
#X msg 829 152 1;
#X obj 302 60 t b b b b, f 81;
#X text 999 16 msgs;
#X obj 947 60 symbol;
#X text 22 194 "reset" - refresh array size;
#X obj 979 99 t b b;
#X msg 1010 145 0;
#X obj 521 612 outlet;
#X text 576 605 array size;
#X obj 947 36 route set reset start end;
#X connect 0 0 6 0;
#X connect 1 0 2 0;
#X connect 1 1 3 1;
#X connect 1 1 12 1;
#X connect 2 0 3 0;
#X connect 3 0 5 0;
#X connect 4 0 12 0;
#X connect 5 0 4 0;
#X connect 6 0 5 0;
#X connect 6 1 5 1;
#X connect 9 0 4 1;
#X connect 12 0 31 0;
#X connect 13 1 1 0;
#X connect 15 0 17 0;
#X connect 16 0 42 0;
#X connect 17 0 20 0;
#X connect 17 1 18 0;
#X connect 18 0 19 0;
#X connect 18 1 20 0;
#X connect 19 0 20 0;
#X connect 20 0 6 0;
#X connect 21 0 30 0;
#X connect 21 0 48 0;
#X connect 22 0 38 0;
#X connect 24 0 27 0;
#X connect 26 0 31 1;
#X connect 27 0 26 0;
#X connect 27 0 28 0;
#X connect 27 1 26 1;
#X connect 27 1 28 1;
#X connect 28 0 29 0;
#X connect 29 0 30 1;
#X connect 30 0 13 0;
#X connect 31 0 7 0;
#X connect 33 0 50 0;
#X connect 38 0 26 0;
#X connect 38 0 28 0;
#X connect 39 0 40 0;
#X connect 40 0 41 0;
#X connect 40 1 27 0;
#X connect 41 0 27 0;
#X connect 42 0 21 0;
#X connect 42 1 15 0;
#X connect 42 2 38 0;
#X connect 42 3 39 0;
#X connect 44 0 21 1;
#X connect 46 0 21 0;
#X connect 46 1 47 0;
#X connect 47 0 4 1;
#X connect 50 0 44 0;
#X connect 50 1 46 0;
#X connect 50 2 38 0;
#X connect 50 3 27 0;
