#N canvas 590 233 748 660 12;
#X obj 173 180 nbx 3 15 -1e+37 1e+37 0 0 \$0-pchwr-npch-s \$0-pchwr-npch-r
npch 0 -8 0 12 -262144 -1 -1 0 256;
#X obj 110 181 nbx 3 15 -1e+37 1e+37 0 0 \$0-pchwr-start-s \$0-pchwr-start-r
start 0 -8 0 12 -262144 -1 -1 0 256;
#N canvas 389 359 528 462 \$0-pchwr-defaults 0;
#X obj 179 50 loadbang;
#X obj 179 75 t b b;
#X obj 171 199 pack f f \$0;
#X obj 179 126 moses 1;
#X msg 179 151 1;
#X obj 283 129 moses 1;
#X msg 283 154 12;
#X msg 171 224 \; \$3-pchwr-start \$1 \; \$3-pchwr-npch \$2 \;;
#X obj 179 101 f \$2;
#X obj 284 104 f \$3;
#X connect 0 0 1 0;
#X connect 1 0 8 0;
#X connect 1 1 9 0;
#X connect 2 0 7 0;
#X connect 3 0 4 0;
#X connect 3 1 2 0;
#X connect 4 0 2 0;
#X connect 5 0 6 0;
#X connect 5 1 2 1;
#X connect 6 0 2 1;
#X connect 8 0 3 0;
#X connect 9 0 5 0;
#X restore 348 42 pd \$0-pchwr-defaults;
#X obj 188 352 sigmund~ -hop 1024 pitch env;
#N canvas 396 156 777 830 \$0-pchwr-gate 1;
#X obj 84 86 float/dkfdectol 0.1;
#X obj 84 151 change;
#X obj 90 117 float/dkfround;
#X obj 81 242 -;
#X obj 165 150 r \$0-pchwr-start;
#X obj 81 42 inlet;
#X obj 81 267 t f f;
#X obj 84 333 spigot;
#X obj 170 297 tabread \$0-pchwr-len;
#X text 213 260 len > 0 if pitch recorded;
#X connect 0 0 2 0;
#X connect 1 0 3 0;
#X connect 2 0 1 0;
#X connect 3 0 6 0;
#X connect 4 0 3 1;
#X connect 5 0 0 0;
#X connect 6 0 7 0;
#X connect 6 1 8 0;
#X connect 8 0 7 1;
#X restore 369 137 pd \$0-pchwr-gate;
#N canvas 855 223 747 492 \$0-pchwr-array 0;
#X obj 391 277 array define \$0-pchwr-loc 12;
#X obj 221 223 array size \$0-pchwr-loc;
#X obj 286 56 r \$0-pchwr-npch;
#X obj 94 55 r \$0-pchwr-start;
#X text 628 179 reset;
#X obj 94 80 t b f;
#X obj 286 81 t b f;
#X obj 94 146 s \$0-pchwr-reset;
#X obj 430 120 r \$0-pchwr-reset;
#X obj 223 187 array size \$0-pchwr-len;
#X obj 393 247 array define \$0-pchwr-len 12;
#X msg 440 163 \; \$1-pchwr-len const -1 \; \$1-pchwr-loc const 0 \;
;
#X connect 2 0 6 0;
#X connect 3 0 5 0;
#X connect 5 0 7 0;
#X connect 6 0 7 0;
#X connect 6 1 1 0;
#X connect 6 1 9 0;
#X connect 8 0 11 0;
#X restore 409 466 pd \$0-pchwr-array;
#X text 73 547 arg1: array to write to;
#X text 75 570 arg2: pitch to start on;
#X text 81 592 arg3: number of pitches;
#N canvas 251 142 838 691 \$0-pchwr-recorder 0;
#X obj 312 267 dkaccum 0;
#X obj 475 95 r \$0-pchwr-reset;
#X text 409 257 accumulate time;
#X text 274 209 get current pos;
#X obj 301 576 tabwrite~ \$1;
#X obj 267 313 f 0;
#X msg 359 311 0;
#X obj 478 517 dkms2smp;
#X obj 445 193 i;
#X text 484 193 current sample;
#X msg 287 453 start \$1;
#X obj 154 60 inlet;
#X text 213 61 sample number;
#X obj 380 63 inlet;
#X text 444 62 env gate;
#X obj 482 479 timer;
#X obj 154 127 t b b b f, f 15;
#X msg 393 513 stop;
#X obj 267 338 t b f b b;
#X obj 115 599 spigot;
#X msg 155 563 1;
#X msg 195 559 0;
#X obj 247 515 pipe 10000;
#X text 172 598 record length/loc or not;
#X connect 0 0 5 1;
#X connect 1 0 0 2;
#X connect 1 0 6 0;
#X connect 5 0 18 0;
#X connect 6 0 5 1;
#X connect 11 0 16 0;
#X connect 15 0 7 0;
#X connect 16 2 5 0;
#X connect 16 3 8 1;
#X connect 17 0 4 0;
#X connect 18 1 10 0;
#X connect 18 1 20 0;
#X connect 18 2 15 0;
#X connect 18 3 17 0;
#X connect 20 0 19 1;
#X restore 336 244 pd \$0-pchwr-recorder;
#X coords 0 -1 1 1 150 150 1 100 100;
