#N canvas 587 199 816 631 10;
#X obj 145 140 >~ 0.5;
#X obj 144 114 phasor~ \$1;
#X text 189 53 freq;
#X obj 261 54 inlet;
#X obj 253 90 clip 0 1;
#X obj 391 80 f \$2;
#X obj 386 116 moses 1e-09;
#X msg 386 138 0.5;
#X obj 387 39 loadbang;
#X text 307 56 duty;
#X msg 263 154 1;
#X obj 263 176 -;
#X obj 267 123 t b f;
#X obj 145 162 outlet~;
#X text 26 15 args: \$1 - freq \, \$2 - duty;
#X obj 484 29 inlet;
#X obj 150 51 inlet~;
#X connect 0 0 13 0;
#X connect 1 0 0 0;
#X connect 3 0 4 0;
#X connect 4 0 12 0;
#X connect 5 0 6 0;
#X connect 6 0 7 0;
#X connect 6 1 4 0;
#X connect 7 0 4 0;
#X connect 8 0 5 0;
#X connect 10 0 11 0;
#X connect 11 0 0 1;
#X connect 12 0 10 0;
#X connect 12 1 11 1;
#X connect 15 0 1 1;
#X connect 16 0 1 0;
