#N canvas 536 282 905 299 12;
#X obj 239 166 random;
#X obj 238 216 +;
#X obj 238 241 outlet;
#X obj 322 11 inlet;
#X obj 319 80 f \$1;
#X obj 408 8 inlet;
#X obj 461 79 f \$2;
#X obj 451 129 min;
#X obj 408 33 t b f;
#X obj 312 111 -;
#X obj 312 136 abs;
#X obj 485 6 loadbang;
#X obj 485 31 t b b;
#X text 11 29 dkrandi - random int within a range;
#X obj 230 72 inlet;
#X text 13 119 inlet:;
#X text 11 139 trig/lo/hi;
#X text 15 60 args:;
#X text 17 85 lo/hi;
#X text 18 167 outlet:;
#X text 18 192 int;
#X text 651 23 derek kwan 2017;
#X text 651 42 gpl v 3;
#X text 651 68 pdkvabs;
#X connect 0 0 1 0;
#X connect 1 0 2 0;
#X connect 3 0 4 0;
#X connect 4 0 7 0;
#X connect 4 0 9 0;
#X connect 5 0 8 0;
#X connect 6 0 7 1;
#X connect 6 0 9 1;
#X connect 7 0 1 1;
#X connect 8 0 4 0;
#X connect 8 1 6 0;
#X connect 9 0 10 0;
#X connect 10 0 0 1;
#X connect 11 0 12 0;
#X connect 12 0 4 0;
#X connect 12 1 6 0;
#X connect 14 0 0 0;
