#N canvas 1003 520 743 598 12;
#X text 4 9 dkroute2~ - route signal to two outputs;
#X obj 134 208 inlet~;
#X obj 122 383 *~;
#X obj 231 389 *~;
#X obj 185 315 line~;
#X obj 292 316 line~;
#X obj 238 230 == 0;
#X msg 238 255 \$1 5;
#X obj 344 180 == 1;
#X msg 330 255 \$1 5;
#X obj 343 144 f \$1;
#X obj 366 97 loadbang;
#X obj 269 104 inlet;
#X text 21 76 arg/in1: init;
#X obj 122 408 outlet~;
#X obj 231 414 outlet~;
#X text 555 27 derek kwan;
#X text 561 55 pdkvabs;
#X text 562 83 gpl v 3 2017;
#X connect 1 0 2 0;
#X connect 1 0 3 0;
#X connect 2 0 14 0;
#X connect 3 0 15 0;
#X connect 4 0 2 1;
#X connect 5 0 3 1;
#X connect 6 0 7 0;
#X connect 7 0 4 0;
#X connect 8 0 9 0;
#X connect 9 0 5 0;
#X connect 10 0 6 0;
#X connect 10 0 8 0;
#X connect 11 0 10 0;
#X connect 12 0 10 0;
