#N canvas 864 217 1065 588 12;
#X obj 124 41 inlet;
#X obj 124 98 route float list symbol;
#X obj 154 501 outlet;
#X obj 115 195 f;
#X obj 124 66 t a b, f 36;
#X obj 348 137 f;
#X obj 472 189 + 1;
#X obj 375 226 moses 1, f 26;
#X obj 375 257 t b f, f 16;
#X obj 389 330 del;
#X obj 402 461 f;
#X msg 590 436 0;
#X msg 633 450 1;
#X msg 691 440 2;
#X obj 371 540 sel 0 1 2;
#X obj 499 64 inlet;
#X obj 389 305 f \$2, f 39;
#X text 177 40 anything;
#X obj 688 62 inlet;
#X text 740 65 repeat delay;
#X obj 688 87 moses 0;
#X obj 514 146 f \$1;
#X obj 568 108 loadbang;
#X obj 514 171 moses 1;
#X msg 514 196 1;
#X obj 170 196 list store;
#X text 67 321 repeat delay (ms);
#X text 8 374 args:;
#X text 58 371 num repeats \, repeat delay;
#X text 877 20 derek kwan;
#X text 879 68 gpl v 3;
#X text 878 40 pdkvabs 2020;
#X msg 419 107 1;
#X obj 123 137 t f b;
#X obj 187 146 t b a b;
#X obj 260 189 symbol;
#X obj 259 135 t s b;
#X obj 116 237 t b a;
#X text 18 14 dkrptr - repeat things;
#X text 13 271 inlet: thing to repeat;
#X text 68 295 number of iterations;
#X text 545 62 num of iterations;
#X connect 0 0 4 0;
#X connect 1 0 33 0;
#X connect 1 1 34 0;
#X connect 1 2 36 0;
#X connect 3 0 37 0;
#X connect 4 0 1 0;
#X connect 4 1 32 0;
#X connect 5 0 7 0;
#X connect 6 0 5 1;
#X connect 7 0 8 0;
#X connect 8 0 16 0;
#X connect 8 1 6 0;
#X connect 9 0 10 0;
#X connect 10 0 14 0;
#X connect 11 0 10 1;
#X connect 12 0 10 1;
#X connect 13 0 10 1;
#X connect 14 0 3 0;
#X connect 14 1 25 0;
#X connect 15 0 21 0;
#X connect 16 0 9 0;
#X connect 18 0 20 0;
#X connect 20 1 16 1;
#X connect 21 0 23 0;
#X connect 22 0 21 0;
#X connect 23 0 24 0;
#X connect 23 1 7 1;
#X connect 24 0 7 1;
#X connect 25 0 37 0;
#X connect 32 0 5 1;
#X connect 33 0 3 0;
#X connect 33 1 11 0;
#X connect 34 0 25 0;
#X connect 34 1 25 1;
#X connect 34 2 12 0;
#X connect 35 0 37 0;
#X connect 36 0 35 0;
#X connect 36 1 13 0;
#X connect 37 0 5 0;
#X connect 37 1 2 0;
