#N canvas 864 217 1065 588 12;
#X obj 124 41 inlet;
#X obj 123 112 route float list symbol;
#X obj 154 501 outlet;
#X obj 126 174 f;
#X obj 124 66 t a b, f 36;
#X obj 244 192 symbol;
#X obj 378 193 f;
#X obj 472 189 + 1;
#X obj 375 226 moses 1, f 26;
#X obj 375 257 t b f, f 16;
#X msg 419 107 1;
#X obj 389 330 del;
#X obj 389 355 t b b, f 24;
#X obj 343 412 f;
#X msg 206 286 0;
#X msg 260 291 1;
#X msg 307 290 2;
#X obj 343 437 sel 0 1 2;
#X obj 219 406 t b f;
#X obj 499 64 inlet;
#X obj 389 305 f \$2, f 39;
#X text 177 40 anything;
#X text 545 62 num repeats;
#X obj 688 62 inlet;
#X text 740 65 repeat delay;
#X obj 688 87 moses 0;
#X obj 514 146 f \$1;
#X obj 568 108 loadbang;
#X obj 514 171 moses 1;
#X msg 514 196 1;
#X obj 182 204 t b l;
#X obj 126 199 t b f;
#X obj 244 217 t b s;
#X obj 179 171 list store;
#X obj 180 142 t b a;
#X text 18 14 dkrptr - repeat things;
#X text 13 271 inlet: thing to repeat;
#X text 68 295 num repeats;
#X text 67 321 repeat delay (ms);
#X text 8 374 args:;
#X text 58 371 num repeats \, repeat delay;
#X text 877 20 derek kwan;
#X text 879 68 gpl v 3;
#X text 878 40 pdkvabs 2020;
#X connect 0 0 4 0;
#X connect 1 0 3 0;
#X connect 1 1 34 0;
#X connect 1 2 5 0;
#X connect 3 0 31 0;
#X connect 4 0 1 0;
#X connect 4 1 10 0;
#X connect 5 0 32 0;
#X connect 6 0 8 0;
#X connect 7 0 6 1;
#X connect 8 0 9 0;
#X connect 9 0 20 0;
#X connect 9 1 7 0;
#X connect 10 0 6 1;
#X connect 11 0 12 0;
#X connect 12 0 6 0;
#X connect 12 1 13 0;
#X connect 13 0 17 0;
#X connect 14 0 18 0;
#X connect 15 0 18 0;
#X connect 16 0 18 0;
#X connect 17 0 3 0;
#X connect 17 1 33 0;
#X connect 17 2 5 0;
#X connect 18 0 6 0;
#X connect 18 1 13 1;
#X connect 19 0 26 0;
#X connect 20 0 11 0;
#X connect 23 0 25 0;
#X connect 25 1 20 1;
#X connect 26 0 28 0;
#X connect 27 0 26 0;
#X connect 28 0 29 0;
#X connect 28 1 8 1;
#X connect 29 0 8 1;
#X connect 30 0 15 0;
#X connect 30 1 2 0;
#X connect 31 0 14 0;
#X connect 31 1 2 0;
#X connect 32 0 16 0;
#X connect 32 1 2 0;
#X connect 33 0 30 0;
#X connect 34 0 33 0;
#X connect 34 1 33 1;
