#N canvas 649 430 1122 524 12;
#X obj 281 198 dkvfbcomb~ 0.805 100;
#X obj 464 197 dkvfbcomb~ 0.827 100;
#X obj 651 194 dkvfbcomb~ 0.783 100;
#X obj 838 200 dkvfbcomb~ 0.764 100;
#X obj 449 274 +~;
#X obj 651 263 +~;
#X obj 452 314 +~;
#X obj 424 36 inlet~;
#X obj 454 350 dkvapcomb~ 0.7 100;
#X obj 454 375 dkvapcomb~ 0.7 100;
#X obj 454 400 dkvapcomb~ 0.7 100;
#X obj 326 474 outlet~;
#X obj 454 425 *~ -1;
#X obj 494 486 outlet~;
#X msg 418 152 samp 901;
#X msg 603 157 samp 778;
#X msg 778 146 samp 1011;
#X msg 988 138 samp 1123;
#X msg 642 314 samp 125;
#X msg 651 352 samp 42;
#X msg 652 397 samp 12;
#X obj 761 53 loadbang;
#X text 14 15 dkschroeder2~;
#X text 13 37 another schroeder reverb (satrev chowning reverb);
#X text 17 59 1-in \, 2-out;
#X text 962 3 derek kwan 2017;
#X text 965 26 gpl v 3;
#X text 961 49 pdkvabs;
#X connect 0 0 4 0;
#X connect 1 0 4 1;
#X connect 2 0 5 0;
#X connect 3 0 5 1;
#X connect 4 0 6 0;
#X connect 5 0 6 1;
#X connect 6 0 8 0;
#X connect 7 0 0 0;
#X connect 7 0 1 0;
#X connect 7 0 2 0;
#X connect 7 0 3 0;
#X connect 8 0 9 0;
#X connect 9 0 10 0;
#X connect 10 0 11 0;
#X connect 10 0 12 0;
#X connect 12 0 13 0;
#X connect 14 0 0 2;
#X connect 15 0 1 2;
#X connect 16 0 2 2;
#X connect 17 0 3 2;
#X connect 18 0 8 2;
#X connect 19 0 9 2;
#X connect 20 0 10 2;
#X connect 21 0 14 0;
#X connect 21 0 15 0;
#X connect 21 0 16 0;
#X connect 21 0 17 0;
#X connect 21 0 18 0;
#X connect 21 0 19 0;
#X connect 21 0 20 0;
