#N canvas 770 186 1173 965 12;
#X obj 215 37 inlet~;
#X obj 219 104 dkvapcomb~ 0.7 100;
#X obj 220 154 dkvapcomb~ 0.7 100;
#X obj 218 209 dkvapcomb~ 0.7 100;
#X msg 377 76 samp 347;
#X msg 379 129 samp 113;
#X msg 383 174 samp 37;
#X obj 469 38 loadbang;
#X obj 176 317 dkvfbcomb~ 0.775 100;
#X msg 332 271 samp 1687;
#X obj 389 325 dkvfbcomb~ 0.802 100;
#X msg 535 272 samp 1601;
#X obj 609 325 dkvfbcomb~ 0.753 100;
#X msg 761 276 samp 2053;
#X obj 833 325 dkvfbcomb~ 0.733 100;
#X msg 981 269 samp 2251;
#X obj 191 430 +~;
#X text 232 432 s1;
#X obj 595 426 +~;
#X text 628 427 s2;
#X obj 201 592 outlet~;
#X obj 195 484 +~;
#X obj 310 600 outlet~;
#X obj 310 555 *~ -1;
#X obj 458 602 outlet~;
#X obj 643 488 -~;
#X obj 645 595 outlet~;
#X obj 454 562 *~ -1;
#X text 167 552 s1 + s2;
#X text 685 541 s1 - s2;
#X text 317 522 -out1;
#X text 463 528 -out4;
#X text 11 14 dkschroeder1~;
#X text 9 38 a schroeder reverberator;
#X text 1021 34 gpl v 3;
#X text 1020 55 pdkvabs;
#X text 1021 10 derek kwan 2017;
#X connect 0 0 1 0;
#X connect 1 0 2 0;
#X connect 2 0 3 0;
#X connect 3 0 8 0;
#X connect 3 0 10 0;
#X connect 3 0 12 0;
#X connect 3 0 14 0;
#X connect 4 0 1 2;
#X connect 5 0 2 2;
#X connect 6 0 3 2;
#X connect 7 0 4 0;
#X connect 7 0 5 0;
#X connect 7 0 6 0;
#X connect 7 0 9 0;
#X connect 7 0 11 0;
#X connect 7 0 13 0;
#X connect 7 0 15 0;
#X connect 8 0 16 0;
#X connect 9 0 8 2;
#X connect 10 0 18 0;
#X connect 11 0 10 2;
#X connect 12 0 16 1;
#X connect 13 0 12 2;
#X connect 14 0 18 1;
#X connect 15 0 14 2;
#X connect 16 0 21 0;
#X connect 16 0 25 0;
#X connect 18 0 21 1;
#X connect 18 0 25 1;
#X connect 21 0 20 0;
#X connect 21 0 23 0;
#X connect 23 0 22 0;
#X connect 25 0 26 0;
#X connect 25 0 27 0;
#X connect 27 0 24 0;
