#N canvas 2 95 1032 640 10;
#X obj 100 101 cnv 15 680 20 empty empty empty 20 12 0 14 -204800 -66577
0;
#X obj 141 100 tgl 20 0 empty empty empty 17 7 0 10 -262144 -1 -1 0
1;
#X obj 121 100 tgl 20 0 empty empty empty 17 7 0 10 -262144 -1 -1 0
1;
#X obj 181 100 tgl 20 0 empty empty empty 17 7 0 10 -262144 -1 -1 0
1;
#X obj 161 100 tgl 20 0 empty empty empty 17 7 0 10 -262144 -1 -1 0
1;
#X obj 221 100 tgl 20 0 empty empty empty 17 7 0 10 -262144 -1 -1 0
1;
#X obj 201 100 tgl 20 0 empty empty empty 17 7 0 10 -262144 -1 -1 0
1;
#X obj 261 100 tgl 20 0 empty empty empty 17 7 0 10 -262144 -1 -1 0
1;
#X obj 241 100 tgl 20 0 empty empty empty 17 7 0 10 -262144 -1 -1 0
1;
#X obj 301 100 tgl 20 0 empty empty empty 17 7 0 10 -262144 -1 -1 0
1;
#X obj 281 100 tgl 20 0 empty empty empty 17 7 0 10 -262144 -1 -1 0
1;
#X obj 341 100 tgl 20 0 empty empty empty 17 7 0 10 -262144 -1 -1 0
1;
#X obj 321 100 tgl 20 0 empty empty empty 17 7 0 10 -262144 -1 -1 0
1;
#X obj 381 100 tgl 20 0 empty empty empty 17 7 0 10 -262144 -1 -1 0
1;
#X obj 361 100 tgl 20 0 empty empty empty 17 7 0 10 -262144 -1 -1 0
1;
#X obj 421 100 tgl 20 0 empty empty empty 17 7 0 10 -262144 -1 -1 0
1;
#X obj 401 100 tgl 20 0 empty empty empty 17 7 0 10 -262144 -1 -1 0
1;
#X obj 461 100 tgl 20 0 empty empty empty 17 7 0 10 -262144 -1 -1 0
1;
#X obj 441 100 tgl 20 0 empty empty empty 17 7 0 10 -262144 -1 -1 0
1;
#X obj 501 100 tgl 20 0 empty empty empty 17 7 0 10 -262144 -1 -1 0
1;
#X obj 481 100 tgl 20 0 empty empty empty 17 7 0 10 -262144 -1 -1 0
1;
#X obj 541 100 tgl 20 0 empty empty empty 17 7 0 10 -262144 -1 -1 0
1;
#X obj 521 100 tgl 20 0 empty empty empty 17 7 0 10 -262144 -1 -1 0
1;
#X obj 581 100 tgl 20 0 empty empty empty 17 7 0 10 -262144 -1 -1 0
1;
#X obj 561 100 tgl 20 0 empty empty empty 17 7 0 10 -262144 -1 -1 0
1;
#X obj 621 100 tgl 20 0 empty empty empty 17 7 0 10 -262144 -1 -1 0
1;
#X obj 601 100 tgl 20 0 empty empty empty 17 7 0 10 -262144 -1 -1 0
1;
#X obj 661 100 tgl 20 0 empty empty empty 17 7 0 10 -262144 -1 -1 0
1;
#X obj 641 100 tgl 20 0 empty empty empty 17 7 0 10 -262144 -1 -1 0
1;
#X obj 701 100 tgl 20 0 empty empty empty 17 7 0 10 -262144 -1 -1 0
1;
#X obj 681 100 tgl 20 0 empty empty empty 17 7 0 10 -262144 -1 -1 0
1;
#X obj 741 100 tgl 20 0 empty empty empty 17 7 0 10 -262144 -1 -1 0
1;
#X obj 721 100 tgl 20 0 empty empty empty 17 7 0 10 -262144 -1 -1 0
1;
#X obj 154 36 route 1 2 3 4 5 6 7 8 9 10 11 12 13 14 15 16 17 18 19
20 21 22 23 24 25 26 27 28 29 30 31 32;
#X obj 197 199 cyclone/funnel 32, f 85;
#X obj 287 253 unpack;
#X obj 294 273 swap;
#X obj 836 234 table \$1 32;
#X obj 230 328 tabwrite \$1;
#X obj 521 287 loadbang;
#X symbolatom 508 347 20 0 0 0 - - -, f 20;
#X obj 518 310 symbol \$1;
#X connect 1 0 34 1;
#X connect 2 0 34 0;
#X connect 3 0 34 3;
#X connect 4 0 34 2;
#X connect 5 0 34 5;
#X connect 6 0 34 4;
#X connect 7 0 34 7;
#X connect 8 0 34 6;
#X connect 9 0 34 9;
#X connect 10 0 34 8;
#X connect 11 0 34 11;
#X connect 12 0 34 10;
#X connect 13 0 34 13;
#X connect 14 0 34 12;
#X connect 15 0 34 15;
#X connect 16 0 34 14;
#X connect 17 0 34 17;
#X connect 18 0 34 16;
#X connect 19 0 34 19;
#X connect 20 0 34 18;
#X connect 21 0 34 21;
#X connect 22 0 34 20;
#X connect 23 0 34 23;
#X connect 24 0 34 22;
#X connect 25 0 34 25;
#X connect 26 0 34 24;
#X connect 27 0 34 27;
#X connect 28 0 34 26;
#X connect 29 0 34 29;
#X connect 30 0 34 28;
#X connect 31 0 34 31;
#X connect 32 0 34 30;
#X connect 33 0 2 0;
#X connect 33 1 1 0;
#X connect 33 2 4 0;
#X connect 33 3 3 0;
#X connect 33 4 6 0;
#X connect 33 5 5 0;
#X connect 33 6 8 0;
#X connect 33 7 7 0;
#X connect 33 8 10 0;
#X connect 33 9 9 0;
#X connect 33 10 12 0;
#X connect 33 11 11 0;
#X connect 33 12 14 0;
#X connect 33 13 13 0;
#X connect 33 14 16 0;
#X connect 33 15 15 0;
#X connect 33 16 18 0;
#X connect 33 17 17 0;
#X connect 33 18 20 0;
#X connect 33 19 19 0;
#X connect 33 20 22 0;
#X connect 33 21 21 0;
#X connect 33 22 24 0;
#X connect 33 23 23 0;
#X connect 33 24 26 0;
#X connect 33 25 25 0;
#X connect 33 26 28 0;
#X connect 33 27 27 0;
#X connect 33 28 30 0;
#X connect 33 29 29 0;
#X connect 33 30 32 0;
#X connect 33 31 31 0;
#X connect 34 0 35 0;
#X connect 35 0 36 0;
#X connect 35 1 36 1;
#X connect 36 0 38 0;
#X connect 36 1 38 1;
#X connect 39 0 41 0;
#X connect 41 0 40 0;
#X coords 0 -1 1 1 680 20 2 100 100;
