#N canvas 517 335 1059 674 12;
#X text 302 185 carrier;
#X obj 353 381 osc~;
#X obj 353 406 *~;
#X obj 241 476 osc~;
#X obj 410 371 *~;
#X obj 241 501 outlet~;
#X obj 515 165 inlet~;
#X text 595 170 mod idx (relative to harmonic);
#X text 424 156 harmonic;
#X obj 233 165 inlet;
#X obj 353 356 *;
#X obj 420 187 inlet;
#X obj 241 451 +~ 0;
#X obj 421 268 t b f;
#X obj 233 190 f \$1;
#X obj 420 212 f \$2;
#X obj 534 216 sig~;
#X text 37 116 inlets: carrier \, harmonic \, mod idx~;
#X text 45 139 argts: carrier \, harmonic;
#X text 827 23 derek kwan;
#X text 33 28 dksfm~ - simple/signal-inlet(for mod idx) frequency modulation
synthesis;
#X text 832 57 pdkvabs;
#X text 841 89 gpl v3;
#X connect 1 0 2 0;
#X connect 2 0 12 0;
#X connect 3 0 5 0;
#X connect 4 0 2 1;
#X connect 6 0 4 1;
#X connect 9 0 14 0;
#X connect 10 0 1 0;
#X connect 10 0 4 0;
#X connect 11 0 15 0;
#X connect 12 0 3 0;
#X connect 13 0 10 0;
#X connect 13 1 10 1;
#X connect 14 0 12 1;
#X connect 14 0 10 0;
#X connect 15 0 13 0;
