#N canvas 885 271 637 543 12;
#X obj 127 63 inlet;
#X obj 127 88 t f b;
#X obj 121 127 * 1000;
#X obj 205 123 samplerate~;
#X obj 121 152 /;
#X obj 157 193 outlet;
#X text 27 12 dksmp2ms: samples to milliseconds;
#X text 27 39 Derek Kwan \, 2016;
#X connect 0 0 1 0;
#X connect 1 0 2 0;
#X connect 1 1 3 0;
#X connect 2 0 4 0;
#X connect 3 0 4 1;
#X connect 4 0 5 0;
