#N canvas 1225 370 1277 732 12;
#X obj 219 674 tabread4~ \$1;
#X obj 164 297 array size \$1;
#X obj 80 109 unpack f f f, f 56;
#X obj 104 613 line~;
#X obj 483 148 t f f;
#X obj 147 330 *;
#X obj 46 365 pack f f;
#X obj 51 334 f;
#X obj 34 410 route 0 1;
#X text 118 393 0: forward \, 1: backward;
#X obj 383 236 samplerate~;
#X obj 383 261 / 1000;
#X obj 317 306 *;
#X obj 449 178 abs;
#X obj 315 265 *;
#X text 476 247 scale samples traversed in ms by speed;
#X obj 509 179 < 0;
#X obj 21 455 t b b f;
#X msg 90 563 0;
#X obj 308 179 t f b f;
#X obj 337 431 pack f f;
#X obj 18 558 list;
#X obj 180 529 -;
#X obj 180 582 pack f f;
#X obj 219 699 outlet~;
#X obj 105 37 inlet;
#X obj 738 28 inlet;
#X text 803 33 array name;
#X obj 738 53 symbol;
#X msg 738 78 set \$1;
#X obj 118 455 t f f b;
#X msg 327 642 0;
#X obj 33 142 t b f;
#X msg 88 207 \$2 \$1;
#X obj 74 233 route 0 1;
#X obj 88 182 pack f 0;
#X obj 109 266 t f b;
#X text 171 265 pick mode;
#X text 139 81 location (abs/rel) \, duration(ms) \, speed;
#X obj 491 8 inlet;
#X text 549 4 mode;
#X obj 491 76 > 0;
#X obj 491 44 f \$2;
#X obj 641 11 loadbang;
#X text 19 3 dksndchop~ - sound chopper;
#X text 592 340 in1: location \, duration \, speed;
#X text 591 381 in3: array name;
#X text 585 455 args: array name \, mode (abs/rel);
#X text 591 363 in2: mode (absolute in samps/relative (0-1));
#X text 1027 9 derek kwan;
#X text 1033 36 pdkvabs;
#X text 1028 62 gpl v 3 2017;
#X connect 0 0 24 0;
#X connect 1 0 5 1;
#X connect 2 0 32 0;
#X connect 2 1 19 0;
#X connect 2 2 4 0;
#X connect 3 0 0 0;
#X connect 4 0 13 0;
#X connect 4 1 16 0;
#X connect 5 0 6 1;
#X connect 6 0 8 0;
#X connect 7 0 6 0;
#X connect 8 0 17 0;
#X connect 8 1 30 0;
#X connect 10 0 11 0;
#X connect 11 0 12 1;
#X connect 12 0 20 0;
#X connect 12 0 22 1;
#X connect 13 0 14 1;
#X connect 14 0 12 0;
#X connect 16 0 7 1;
#X connect 17 0 21 0;
#X connect 17 1 18 0;
#X connect 17 2 0 1;
#X connect 18 0 3 0;
#X connect 19 0 14 0;
#X connect 19 1 10 0;
#X connect 19 2 20 1;
#X connect 19 2 23 1;
#X connect 20 0 21 1;
#X connect 21 0 3 0;
#X connect 22 0 23 0;
#X connect 23 0 3 0;
#X connect 25 0 2 0;
#X connect 26 0 28 0;
#X connect 28 0 29 0;
#X connect 28 0 1 1;
#X connect 29 0 0 0;
#X connect 30 0 22 0;
#X connect 30 1 3 0;
#X connect 30 2 31 0;
#X connect 31 0 0 1;
#X connect 32 0 7 0;
#X connect 32 1 35 0;
#X connect 33 0 34 0;
#X connect 34 0 6 1;
#X connect 34 1 36 0;
#X connect 35 0 33 0;
#X connect 36 0 5 0;
#X connect 36 1 1 0;
#X connect 39 0 42 0;
#X connect 41 0 35 1;
#X connect 42 0 41 0;
#X connect 43 0 42 0;
