#N canvas 499 139 1521 1104 12;
#X obj 109 152 inlet;
#X obj 331 87 inlet;
#X text 443 201 speed;
#X obj 38 915 tabread~ \$1;
#X obj 555 7 loadbang;
#X obj 421 271 sel 0;
#X msg 421 296 1;
#X obj 1090 225 inlet;
#X text 1133 243 array symbol;
#X msg 1067 365 set \$1;
#X text 21 24 dksndtrig~ - trigger playback of a sound;
#X obj 39 1030 outlet~;
#X text 1169 24 derek kwan;
#X text 1167 50 pdkvabs;
#X text 1172 71 gpl v 3 2017;
#X obj 430 230 f \$2;
#X obj 559 250 f \$3;
#X obj 1067 308 symbol \$1;
#X text 165 147 trig/stop;
#X obj 39 992 *~ 0, f 44;
#X obj 368 747 change;
#X msg 399 702 1;
#X msg 355 696 0;
#X msg 244 664 stop;
#X obj 209 751 del;
#X obj 407 1036 outlet;
#X obj 223 566 t b b b, f 24;
#X text 468 1046 done;
#X text 1011 247 loop;
#X obj 210 874 spigot 0, f 94;
#X text 457 632 samp1 \, samp2 \, dur;
#X text 23 50 inlets: trig/stop \, speed/offset/loop/set \, symbol
;
#X obj 208 796 t b b, f 12;
#X obj 107 333 t b b b, f 35;
#X obj 40 884 line~;
#X obj 968 258 f \$5;
#X obj 691 235 f \$4;
#X text 605 255 start;
#X text 740 255 end;
#X obj 693 257 sel 0;
#X msg 691 283 1;
#X obj 691 307 f;
#X obj 427 350 f;
#X obj 68 494 util/dksndtriglist;
#X obj 552 30 t b b b b b, f 71;
#X obj 331 111 route rate start end loop set, f 116;
#X text 35 102 args: array \, rate \, start \, end \, loop;
#X obj 143 1034 outlet;
#X text 195 1037 dur in ms;
#X obj 150 559 t f f;
#X text 28 76 outlets: signal \, dur in ms \, done bang;
#X obj 107 192 route bang stop float, f 25;
#X obj 296 273 t b f;
#X connect 0 0 51 0;
#X connect 1 0 45 0;
#X connect 3 0 19 0;
#X connect 4 0 44 0;
#X connect 5 0 6 0;
#X connect 5 1 42 0;
#X connect 6 0 42 0;
#X connect 7 0 17 0;
#X connect 9 0 3 0;
#X connect 15 0 5 0;
#X connect 16 0 43 1;
#X connect 17 0 9 0;
#X connect 17 0 43 4;
#X connect 19 0 11 0;
#X connect 20 0 19 1;
#X connect 21 0 20 0;
#X connect 22 0 20 0;
#X connect 23 0 24 0;
#X connect 23 0 34 0;
#X connect 24 0 32 0;
#X connect 26 0 22 0;
#X connect 26 1 25 0;
#X connect 26 2 23 0;
#X connect 29 0 51 0;
#X connect 32 0 29 0;
#X connect 32 1 25 0;
#X connect 33 0 43 0;
#X connect 33 1 21 0;
#X connect 33 2 23 0;
#X connect 34 0 3 0;
#X connect 35 0 29 1;
#X connect 36 0 39 0;
#X connect 39 0 40 0;
#X connect 39 1 41 0;
#X connect 40 0 41 0;
#X connect 41 0 43 2;
#X connect 42 0 43 3;
#X connect 43 0 34 0;
#X connect 43 1 49 0;
#X connect 44 0 15 0;
#X connect 44 1 16 0;
#X connect 44 2 36 0;
#X connect 44 3 35 0;
#X connect 44 4 17 0;
#X connect 45 0 42 0;
#X connect 45 1 16 0;
#X connect 45 2 41 0;
#X connect 45 3 35 0;
#X connect 45 4 17 0;
#X connect 49 0 47 0;
#X connect 49 1 24 0;
#X connect 51 0 33 0;
#X connect 51 1 26 0;
#X connect 51 3 52 0;
#X connect 52 0 33 0;
#X connect 52 1 43 1;
