#N canvas 807 248 1220 800 12;
#X obj 109 142 inlet;
#X obj 184 313 array size \$1;
#X obj 723 113 inlet;
#X text 784 119 offset;
#X obj 727 146 clip 0 1;
#X msg 727 196 1;
#X obj 727 221 -;
#X obj 727 171 t b f f, f 11;
#X obj 232 409 *;
#X obj 220 274 t b b;
#X obj 479 123 inlet;
#X text 540 118 speed;
#X obj 480 167 t f f;
#X obj 556 256 >= 0;
#X text 353 285 dur;
#X obj 480 192 t b f;
#X msg 480 217 1;
#X obj 480 242 /;
#X obj 480 267 abs;
#X obj 232 434 *;
#X obj 98 431 *;
#X obj 98 367 array size \$1;
#X obj 98 392 t f f;
#X obj 98 481 list prepend 0;
#X obj 98 456 pack f f f;
#X obj 98 506 route 0 1;
#X msg 109 569 \$1 0 \, \$2 \$3 0;
#X msg 12 538 \$2 0 \, \$1 \$3 0;
#X obj 102 606 vline~;
#X obj 100 637 tabread~ \$1;
#X obj 674 63 loadbang;
#X obj 602 196 sel 0;
#X msg 602 221 1;
#X obj 906 118 inlet;
#X text 964 111 array symbol;
#X msg 906 198 set \$1;
#X text 21 24 dksndtrig~ - trigger playback of a sound;
#X text 28 76 outlets: signal;
#X text 33 102 args: array \, speed \, offset;
#X obj 99 741 outlet~;
#X text 1068 30 derek kwan;
#X text 1066 56 pdkvabs;
#X text 1071 77 gpl v 3 2017;
#X obj 600 169 f \$2;
#X obj 664 170 f \$3;
#X obj 906 143 symbol \$1;
#X obj 232 384 /;
#X obj 308 311 samplerate~;
#X obj 308 336 / 1000;
#X text 23 50 inlets: trig/stop \, speed \, offset \, symbol;
#X text 164 146 trig/stop;
#X obj 109 167 sel 1 0, f 25;
#X obj 100 662 *~ 0, f 26;
#X obj 109 238 t b b b, f 29;
#X obj 335 622 change;
#X msg 366 577 1;
#X obj 228 199 t b b, f 12;
#X msg 322 571 0;
#X msg 200 529 stop;
#X connect 0 0 51 0;
#X connect 1 0 46 0;
#X connect 2 0 4 0;
#X connect 4 0 7 0;
#X connect 5 0 6 0;
#X connect 6 0 8 1;
#X connect 7 0 5 0;
#X connect 7 1 6 1;
#X connect 7 2 20 1;
#X connect 8 0 19 0;
#X connect 9 0 1 0;
#X connect 9 1 47 0;
#X connect 10 0 12 0;
#X connect 12 0 15 0;
#X connect 12 1 13 0;
#X connect 13 0 23 1;
#X connect 15 0 16 0;
#X connect 15 1 17 1;
#X connect 16 0 17 0;
#X connect 17 0 18 0;
#X connect 18 0 19 1;
#X connect 19 0 24 2;
#X connect 20 0 24 0;
#X connect 21 0 22 0;
#X connect 22 0 20 0;
#X connect 22 1 24 1;
#X connect 23 0 25 0;
#X connect 24 0 23 0;
#X connect 25 0 27 0;
#X connect 25 1 26 0;
#X connect 26 0 28 0;
#X connect 27 0 28 0;
#X connect 28 0 29 0;
#X connect 29 0 52 0;
#X connect 30 0 43 0;
#X connect 30 0 44 0;
#X connect 30 0 45 0;
#X connect 31 0 32 0;
#X connect 31 1 12 0;
#X connect 32 0 12 0;
#X connect 33 0 45 0;
#X connect 35 0 29 0;
#X connect 43 0 31 0;
#X connect 44 0 4 0;
#X connect 45 0 35 0;
#X connect 45 0 1 1;
#X connect 45 0 21 1;
#X connect 46 0 8 0;
#X connect 47 0 48 0;
#X connect 48 0 46 1;
#X connect 51 0 53 0;
#X connect 51 1 56 0;
#X connect 52 0 39 0;
#X connect 53 0 21 0;
#X connect 53 1 9 0;
#X connect 53 2 55 0;
#X connect 54 0 52 1;
#X connect 55 0 54 0;
#X connect 56 0 57 0;
#X connect 56 1 58 0;
#X connect 57 0 54 0;
#X connect 58 0 28 0;
