#N canvas 691 297 1180 950 12;
#X obj 188 341 array size \$1;
#X obj 128 657 line~;
#X obj 507 192 t f f;
#X obj 171 374 *;
#X obj 70 409 pack f f;
#X obj 75 378 f;
#X obj 58 454 route 0 1;
#X text 142 437 0: forward \, 1: backward;
#X obj 407 280 samplerate~;
#X obj 407 305 / 1000;
#X obj 341 350 *;
#X obj 473 222 abs;
#X obj 339 309 *;
#X text 500 291 scale samples traversed in ms by speed;
#X obj 533 223 < 0;
#X obj 45 499 t b b f;
#X msg 114 607 0;
#X obj 332 223 t f b f;
#X obj 361 475 pack f f;
#X obj 42 602 list;
#X obj 204 573 -;
#X obj 204 626 pack f f;
#X obj 231 898 outlet~;
#X obj 105 37 inlet;
#X obj 738 28 inlet;
#X text 803 33 array name;
#X obj 738 53 symbol;
#X msg 738 78 set \$1;
#X obj 142 499 t f f b;
#X obj 74 196 t b f;
#X msg 112 251 \$2 \$1;
#X obj 98 277 route 0 1;
#X obj 112 226 pack f 0;
#X obj 133 310 t f b;
#X text 195 309 pick mode;
#X obj 569 8 inlet;
#X text 627 4 mode;
#X obj 569 76 > 0;
#X obj 569 44 f \$2;
#X obj 643 20 loadbang;
#X text 749 396 in3: array name;
#X text 743 470 args: array name \, mode (abs/rel);
#X text 749 378 in2: mode (absolute in samps/relative (0-1));
#X text 1027 9 derek kwan;
#X text 1033 36 pdkvabs;
#X text 1028 62 gpl v 3 2017;
#X text 19 3 dksndchopgrn~ - sound chopper (now granular!);
#X text 94 81 location (abs/rel) \, duration(ms) \, speed \, transpose
(hs);
#X obj 77 101 unpack f f f f, f 62;
#X obj 231 840 dkxgrn~ \$1 4;
#X obj 197 732 +~ 0;
#X msg 317 627 0;
#X obj 12 151 t b f, f 15;
#X obj 274 759 del;
#X msg 274 784 0;
#X obj 333 719 t b f;
#X msg 453 778 transpose \$1;
#X msg 316 781 1;
#X text 750 355 in1: location \, duration \, speed \, transpose;
#X connect 0 0 3 1;
#X connect 1 0 50 0;
#X connect 2 0 11 0;
#X connect 2 1 14 0;
#X connect 3 0 4 1;
#X connect 4 0 6 0;
#X connect 5 0 4 0;
#X connect 6 0 15 0;
#X connect 6 1 28 0;
#X connect 8 0 9 0;
#X connect 9 0 10 1;
#X connect 10 0 18 0;
#X connect 10 0 20 1;
#X connect 11 0 12 1;
#X connect 12 0 10 0;
#X connect 14 0 5 1;
#X connect 15 0 19 0;
#X connect 15 1 16 0;
#X connect 15 2 50 1;
#X connect 16 0 1 0;
#X connect 17 0 12 0;
#X connect 17 1 8 0;
#X connect 17 2 18 1;
#X connect 17 2 21 1;
#X connect 17 2 53 1;
#X connect 18 0 19 1;
#X connect 19 0 1 0;
#X connect 20 0 21 0;
#X connect 21 0 1 0;
#X connect 23 0 48 0;
#X connect 24 0 26 0;
#X connect 26 0 27 0;
#X connect 26 0 0 1;
#X connect 27 0 49 2;
#X connect 28 0 20 0;
#X connect 28 1 1 0;
#X connect 28 2 51 0;
#X connect 29 0 5 0;
#X connect 29 1 32 0;
#X connect 30 0 31 0;
#X connect 31 0 4 1;
#X connect 31 1 33 0;
#X connect 32 0 30 0;
#X connect 33 0 3 0;
#X connect 33 1 0 0;
#X connect 35 0 38 0;
#X connect 37 0 32 1;
#X connect 38 0 37 0;
#X connect 39 0 38 0;
#X connect 48 0 52 0;
#X connect 48 1 17 0;
#X connect 48 2 2 0;
#X connect 48 3 55 0;
#X connect 49 0 22 0;
#X connect 50 0 49 0;
#X connect 51 0 50 1;
#X connect 52 0 53 0;
#X connect 52 1 29 0;
#X connect 53 0 54 0;
#X connect 54 0 49 1;
#X connect 55 0 57 0;
#X connect 55 1 56 0;
#X connect 56 0 49 2;
#X connect 57 0 49 1;
