#N canvas 866 323 1373 989 12;
#X obj 333 372 array size \$1;
#X obj 169 767 line~;
#X obj 603 175 t f f;
#X obj 316 405 *;
#X obj 215 440 pack f f;
#X obj 220 409 f;
#X obj 203 485 route 0 1;
#X text 287 468 0: forward \, 1: backward;
#X obj 617 336 samplerate~;
#X obj 619 373 / 1000;
#X obj 490 434 *, f 13;
#X obj 590 209 abs;
#X obj 484 385 *, f 11;
#X text 635 306 scale samples traversed in ms by speed;
#X obj 660 201 < 0;
#X obj 207 530 t b b f, f 10;
#X msg 220 690 0;
#X obj 477 254 t f b f, f 37;
#X obj 506 506 pack f f;
#X obj 174 692 list;
#X obj 349 604 -;
#X obj 315 682 pack f f;
#X obj 271 941 outlet~;
#X obj 86 28 inlet;
#X obj 1001 16 inlet;
#X text 1066 21 array name;
#X obj 1001 41 symbol;
#X msg 1001 66 set \$1;
#X obj 346 517 t f f b;
#X obj 219 227 t b f;
#X msg 257 282 \$2 \$1;
#X obj 243 308 route 0 1;
#X obj 257 257 pack f 0;
#X obj 278 341 t f b;
#X text 340 340 pick mode;
#X obj 569 8 inlet;
#X text 627 4 mode;
#X obj 569 76 > 0;
#X obj 569 44 f \$2;
#X obj 643 20 loadbang;
#X text 888 501 args: array name \, mode (abs/rel);
#X text 894 409 in2: mode (absolute in samps/relative (0-1));
#X text 1186 7 derek kwan;
#X text 1192 34 pdkvabs;
#X text 1187 60 gpl v 3 2017;
#X text 19 3 dksndchopgrn~ - sound chopper (now granular!);
#X text 350 127 location (abs/rel) \, duration(ms) \, speed \, transpose
(hs);
#X obj 171 144 unpack f f f f, f 74;
#X obj 278 901 dkxgrn~ \$1 4, f 53;
#X obj 207 844 +~ 0, f 8;
#X msg 462 658 0;
#X obj 157 182 t b f, f 15;
#X obj 419 790 del, f 26;
#X msg 419 815 0;
#X msg 799 781 transpose \$1;
#X text 895 386 in1: location \, duration \, speed \, transpose;
#X text 894 457 in4: array name;
#X text 891 436 in3: tempo;
#X obj 86 53 route stop;
#X msg 122 574 stop;
#X obj 70 540 t b b;
#X msg 70 565 0;
#X obj 198 87 t l b b, f 22;
#X msg 532 860 1;
#X connect 0 0 3 1;
#X connect 1 0 49 0;
#X connect 2 0 11 0;
#X connect 2 1 14 0;
#X connect 3 0 4 1;
#X connect 4 0 6 0;
#X connect 5 0 4 0;
#X connect 6 0 15 0;
#X connect 6 1 28 0;
#X connect 8 0 9 0;
#X connect 9 0 10 1;
#X connect 10 0 18 0;
#X connect 10 0 20 1;
#X connect 11 0 12 1;
#X connect 12 0 10 0;
#X connect 14 0 5 1;
#X connect 15 0 19 0;
#X connect 15 1 16 0;
#X connect 15 2 49 1;
#X connect 16 0 1 0;
#X connect 17 0 12 0;
#X connect 17 1 8 0;
#X connect 17 2 18 1;
#X connect 17 2 21 1;
#X connect 17 2 52 1;
#X connect 18 0 19 1;
#X connect 19 0 1 0;
#X connect 20 0 21 0;
#X connect 21 0 1 0;
#X connect 23 0 58 0;
#X connect 24 0 26 0;
#X connect 26 0 27 0;
#X connect 26 0 0 1;
#X connect 27 0 48 2;
#X connect 28 0 20 0;
#X connect 28 1 1 0;
#X connect 28 2 50 0;
#X connect 29 0 5 0;
#X connect 29 1 32 0;
#X connect 30 0 31 0;
#X connect 31 0 4 1;
#X connect 31 1 33 0;
#X connect 32 0 30 0;
#X connect 33 0 3 0;
#X connect 33 1 0 0;
#X connect 35 0 38 0;
#X connect 37 0 32 1;
#X connect 38 0 37 0;
#X connect 39 0 38 0;
#X connect 47 0 51 0;
#X connect 47 1 17 0;
#X connect 47 2 2 0;
#X connect 47 3 54 0;
#X connect 48 0 22 0;
#X connect 49 0 48 0;
#X connect 50 0 49 1;
#X connect 51 0 52 0;
#X connect 51 1 29 0;
#X connect 52 0 53 0;
#X connect 53 0 48 1;
#X connect 54 0 48 2;
#X connect 58 0 60 0;
#X connect 58 1 62 0;
#X connect 59 0 1 0;
#X connect 60 0 61 0;
#X connect 60 1 59 0;
#X connect 61 0 52 0;
#X connect 62 0 47 0;
#X connect 62 1 63 0;
#X connect 62 2 60 0;
#X connect 63 0 48 1;
