#N canvas 724 242 1349 1097 12;
#X obj 198 893 line~;
#X obj 599 150 t f f, f 9;
#X obj 343 354 *;
#X obj 183 383 pack f f, f 16;
#X obj 186 306 f, f 13;
#X obj 183 506 route 0 1, f 37;
#X text 265 486 0: forward \, 1: backward;
#X obj 599 295 samplerate~;
#X obj 604 319 / 1000;
#X obj 505 349 *, f 13;
#X obj 590 192 abs;
#X obj 496 295 *, f 11;
#X text 698 293 scale samples traversed in ms by speed;
#X obj 663 175 < 0;
#X obj 180 543 t b b f, f 16;
#X msg 235 588 0;
#X obj 538 497 pack f f, f 15;
#X obj 183 668 list, f 11;
#X obj 346 615 -, f 23;
#X obj 345 654 pack f f, f 49;
#X obj 271 1042 outlet~;
#X obj 86 28 inlet;
#X obj 1001 16 inlet;
#X text 1066 21 array name;
#X msg 1001 66 set \$1;
#X obj 308 543 t f f b, f 21;
#X obj 187 150 t b f, f 17;
#X msg 292 222 \$2 \$1;
#X obj 290 250 route 0 1, f 18;
#X obj 294 195 pack f 0, f 19;
#X obj 339 293 t f b;
#X text 412 290 pick mode;
#X obj 569 8 inlet;
#X text 627 4 mode;
#X obj 569 76 > 0;
#X obj 643 20 loadbang;
#X text 894 409 in2: mode (absolute in samps/relative (0-1));
#X text 1186 7 derek kwan;
#X text 1192 34 pdkvabs;
#X text 1187 60 gpl v 3 2017;
#X text 19 3 dksndchopgrn~ - sound chopper (now granular!);
#X text 382 94 location (abs/rel) \, duration(ms) \, speed \, transpose
(hs);
#X obj 190 117 unpack f f f f, f 90;
#X obj 207 921 +~ 0, f 26;
#X msg 407 838 0;
#X msg 470 965 0;
#X msg 799 858 transpose \$1;
#X text 895 386 in1: location \, duration \, speed \, transpose;
#X msg 137 842 stop;
#X msg 731 944 1, f 2;
#X obj 278 1002 dkxgrn~ \$1 \$2, f 53;
#X text 888 501 args: array name \, num grains \, mode (abs/rel);
#X obj 569 44 f \$3;
#X obj 234 632 f;
#X obj 182 700 t l l, f 18;
#X obj 352 702 t l l, f 17;
#X msg 435 741 0 \$2;
#X msg 482 738 1 \$2;
#X obj 482 762 unpack f f, f 25;
#X obj 86 53 route stop loop;
#X obj 481 822 t f b, f 26;
#X obj 481 846 spigot 0, f 23;
#X obj 481 798 pipe, f 26;
#X msg 610 731 clear;
#X obj 481 870 t f b, f 33;
#X obj 481 894 sel 0 1, f 26;
#X obj 481 918 t b b;
#X obj 566 920 t b b;
#X obj 489 220 t f b f f, f 28;
#X obj 198 87 t l b, f 25;
#X obj 183 407 t l b, f 37;
#X obj 73 618 t b b, f 14;
#X text 894 457 in3: array name;
#X obj 1001 41 dksymbolcheck \$1;
#X obj 23 499 t b b b;
#X obj 374 321 array size \$1;
#X connect 0 0 43 0;
#X connect 1 0 10 0;
#X connect 1 1 13 0;
#X connect 2 0 3 1;
#X connect 3 0 70 0;
#X connect 4 0 3 0;
#X connect 5 0 14 0;
#X connect 5 1 25 0;
#X connect 7 0 8 0;
#X connect 8 0 9 1;
#X connect 9 0 16 0;
#X connect 9 0 18 1;
#X connect 10 0 11 1;
#X connect 11 0 9 0;
#X connect 13 0 4 1;
#X connect 14 0 17 0;
#X connect 14 1 15 0;
#X connect 14 2 43 1;
#X connect 15 0 53 0;
#X connect 16 0 17 1;
#X connect 17 0 54 0;
#X connect 18 0 19 0;
#X connect 19 0 55 0;
#X connect 21 0 59 0;
#X connect 22 0 73 0;
#X connect 24 0 50 2;
#X connect 25 0 18 0;
#X connect 25 1 53 0;
#X connect 25 2 44 0;
#X connect 26 0 4 0;
#X connect 26 1 29 0;
#X connect 27 0 28 0;
#X connect 28 0 3 1;
#X connect 28 1 30 0;
#X connect 29 0 27 0;
#X connect 30 0 2 0;
#X connect 30 1 75 0;
#X connect 32 0 52 0;
#X connect 34 0 29 1;
#X connect 35 0 52 0;
#X connect 42 0 26 0;
#X connect 42 1 68 0;
#X connect 42 2 1 0;
#X connect 42 3 46 0;
#X connect 43 0 50 0;
#X connect 44 0 43 1;
#X connect 45 0 50 1;
#X connect 46 0 50 2;
#X connect 48 0 0 0;
#X connect 49 0 50 1;
#X connect 50 0 20 0;
#X connect 52 0 34 0;
#X connect 53 0 0 0;
#X connect 54 0 0 0;
#X connect 54 1 56 0;
#X connect 55 0 0 0;
#X connect 55 1 57 0;
#X connect 56 0 58 0;
#X connect 57 0 58 0;
#X connect 58 0 62 0;
#X connect 58 1 62 1;
#X connect 59 0 74 0;
#X connect 59 1 61 1;
#X connect 59 2 69 0;
#X connect 60 0 61 0;
#X connect 60 1 45 0;
#X connect 61 0 64 0;
#X connect 62 0 60 0;
#X connect 63 0 62 0;
#X connect 64 0 65 0;
#X connect 64 1 49 0;
#X connect 65 0 66 0;
#X connect 65 1 67 0;
#X connect 66 0 17 0;
#X connect 66 1 15 0;
#X connect 67 0 19 0;
#X connect 67 1 53 0;
#X connect 68 0 11 0;
#X connect 68 1 7 0;
#X connect 68 2 16 1;
#X connect 68 3 19 1;
#X connect 69 0 42 0;
#X connect 69 1 71 0;
#X connect 70 0 5 0;
#X connect 70 1 49 0;
#X connect 71 0 48 0;
#X connect 71 1 63 0;
#X connect 73 0 24 0;
#X connect 73 0 75 1;
#X connect 74 0 45 0;
#X connect 74 1 48 0;
#X connect 74 2 44 0;
#X connect 75 0 2 1;
