#N canvas 855 166 1308 1092 12;
#X obj 109 201 inlet;
#X obj 126 428 array size \$1;
#X text 750 210 offset;
#X obj 686 214 clip 0 1;
#X msg 686 264 1;
#X obj 686 289 -;
#X obj 686 239 t b f f, f 25;
#X obj 173 533 *, f 36;
#X obj 129 393 t b b, f 15;
#X obj 414 92 inlet;
#X text 575 212 speed;
#X obj 421 241 t f f;
#X obj 497 330 >= 0;
#X text 293 409 dur;
#X obj 421 266 t b f;
#X msg 421 291 1;
#X obj 421 316 /;
#X obj 421 341 abs;
#X obj 170 566 *, f 33;
#X obj 34 549 *, f 6;
#X obj 23 485 array size \$1;
#X obj 34 510 t f f, f 8;
#X obj 34 644 list prepend 0, f 58;
#X obj 34 602 pack f f f, f 15;
#X obj 38 700 route 0 1, f 20;
#X msg 149 784 \$1 0 \, \$2 \$3 0;
#X msg 25 775 \$2 0 \, \$1 \$3 0;
#X obj 40 884 vline~;
#X obj 38 915 tabread~ \$1;
#X obj 555 7 loadbang;
#X obj 553 282 sel 0;
#X msg 553 307 1;
#X obj 1075 250 inlet;
#X text 1133 243 array symbol;
#X msg 1067 365 set \$1;
#X text 21 24 dksndtrig~ - trigger playback of a sound;
#X obj 39 1030 outlet~;
#X text 1169 24 derek kwan;
#X text 1167 50 pdkvabs;
#X text 1172 71 gpl v 3 2017;
#X obj 562 241 f \$2;
#X obj 615 256 f \$3;
#X obj 1067 308 symbol \$1;
#X obj 174 499 /;
#X obj 248 435 samplerate~;
#X obj 248 460 / 1000;
#X text 164 265 trig/stop;
#X obj 39 992 *~ 0, f 44;
#X obj 388 892 change;
#X msg 419 847 1;
#X msg 375 841 0;
#X msg 277 814 stop;
#X obj 173 744 t a a;
#X obj 38 725 t a a;
#X msg 216 839 \$3;
#X obj 256 868 del;
#X obj 318 1030 outlet;
#X obj 234 701 t b b b, f 24;
#X text 28 76 outlets: signal \, done bang;
#X text 379 1040 done;
#X obj 109 357 t b b b b, f 35;
#X text 35 102 args: array \, speed \, offset \, loop;
#X text 962 221 loop;
#X obj 919 232 f \$4;
#X obj 282 931 spigot 0, f 94;
#X text 480 638 if speed >= 0;
#X text 166 610 samp1 \, samp2 \, dur;
#X obj 552 31 t b b b b, f 71;
#X text 23 50 inlets: trig/stop \, speed/offset/loop/set \, symbol
;
#X obj 414 116 route speed offset loop set, f 116;
#X obj 272 894 t b b, f 12;
#X obj 109 286 route bang stop, f 25;
#X connect 0 0 71 0;
#X connect 1 0 43 0;
#X connect 3 0 6 0;
#X connect 4 0 5 0;
#X connect 5 0 7 1;
#X connect 6 0 4 0;
#X connect 6 1 5 1;
#X connect 6 2 19 1;
#X connect 7 0 18 0;
#X connect 8 0 1 0;
#X connect 8 1 44 0;
#X connect 9 0 69 0;
#X connect 11 0 14 0;
#X connect 11 1 12 0;
#X connect 12 0 22 1;
#X connect 14 0 15 0;
#X connect 14 1 16 1;
#X connect 15 0 16 0;
#X connect 16 0 17 0;
#X connect 17 0 18 1;
#X connect 18 0 23 2;
#X connect 19 0 23 0;
#X connect 20 0 21 0;
#X connect 21 0 19 0;
#X connect 21 1 23 1;
#X connect 22 0 24 0;
#X connect 23 0 22 0;
#X connect 24 0 53 0;
#X connect 24 1 52 0;
#X connect 25 0 27 0;
#X connect 26 0 27 0;
#X connect 27 0 28 0;
#X connect 28 0 47 0;
#X connect 29 0 67 0;
#X connect 30 0 31 0;
#X connect 30 1 11 0;
#X connect 31 0 11 0;
#X connect 32 0 42 0;
#X connect 34 0 28 0;
#X connect 40 0 30 0;
#X connect 41 0 3 0;
#X connect 42 0 34 0;
#X connect 42 0 1 1;
#X connect 42 0 20 1;
#X connect 43 0 7 0;
#X connect 44 0 45 0;
#X connect 45 0 43 1;
#X connect 47 0 36 0;
#X connect 48 0 47 1;
#X connect 49 0 48 0;
#X connect 50 0 48 0;
#X connect 51 0 27 0;
#X connect 51 0 55 0;
#X connect 52 0 25 0;
#X connect 52 1 54 0;
#X connect 53 0 26 0;
#X connect 53 1 54 0;
#X connect 54 0 55 0;
#X connect 55 0 70 0;
#X connect 57 0 50 0;
#X connect 57 1 56 0;
#X connect 57 2 51 0;
#X connect 60 0 20 0;
#X connect 60 1 8 0;
#X connect 60 2 49 0;
#X connect 60 3 51 0;
#X connect 63 0 64 1;
#X connect 64 0 71 0;
#X connect 67 0 40 0;
#X connect 67 1 41 0;
#X connect 67 2 63 0;
#X connect 67 3 42 0;
#X connect 69 0 11 0;
#X connect 69 1 41 0;
#X connect 69 2 63 0;
#X connect 69 3 42 0;
#X connect 70 0 64 0;
#X connect 70 1 56 0;
#X connect 71 0 60 0;
#X connect 71 1 57 0;
