#N canvas 782 218 1586 1027 12;
#X obj 109 206 inlet;
#X obj 126 373 array size \$1;
#X text 934 132 offset;
#X obj 877 159 clip 0 1;
#X msg 877 209 1;
#X obj 877 234 -;
#X obj 877 184 t b f f, f 25;
#X obj 173 478 *, f 101;
#X obj 129 338 t b b, f 15;
#X obj 411 78 inlet;
#X text 468 164 speed;
#X obj 421 186 t f f;
#X text 293 354 dur;
#X obj 428 246 t b f;
#X msg 428 271 1;
#X obj 428 296 /;
#X obj 428 321 abs;
#X obj 170 511 *, f 33;
#X obj 34 494 *, f 6;
#X obj 23 430 array size \$1;
#X obj 34 455 t f f, f 8;
#X obj 34 589 list prepend 0, f 65;
#X obj 34 547 pack f f f, f 15;
#X msg 214 716 \$1 0 \, \$2 \$3 0;
#X msg 25 720 \$2 0 \, \$1 \$3 0;
#X obj 40 829 vline~;
#X obj 553 9 loadbang;
#X obj 553 227 sel 0;
#X msg 553 252 1;
#X obj 1243 144 inlet;
#X text 1301 137 array symbol;
#X msg 1235 259 set \$1;
#X obj 39 1005 outlet~;
#X text 1418 8 derek kwan;
#X text 1416 34 pdkvabs;
#X obj 1235 202 symbol \$1;
#X obj 174 444 /;
#X obj 248 380 samplerate~;
#X obj 248 405 / 1000;
#X text 164 210 trig/stop;
#X obj 109 231 sel 1 0, f 42;
#X obj 39 967 *~ 0, f 74;
#X obj 554 809 change;
#X msg 585 764 1;
#X msg 541 758 0;
#X msg 454 716 stop;
#X obj 238 676 t a a;
#X obj 38 670 t a a;
#X msg 340 773 \$3;
#X obj 342 800 del;
#X obj 488 997 outlet;
#X obj 407 646 t b b b, f 24;
#X text 15 76 outlets: signal \, done bang;
#X text 549 1007 done;
#X obj 109 302 t b b b b, f 42;
#X obj 448 863 spigot 0, f 119;
#X msg 448 888 1;
#X obj 499 278 t f f, f 22;
#X obj 499 302 abs;
#X obj 499 326 /;
#X obj 38 645 route -1 0 1, f 44;
#X obj 336 828 t b b, f 15;
#X msg 385 880 0;
#X msg 327 874 1;
#X text 519 593 sign of speed;
#X text 151 552 samp1 \, samp2 \, dur;
#X msg 138 731 \$1;
#X text 686 147 transposition;
#X obj 553 33 t b b b b b, f 97;
#X msg 635 223 transpose \$1;
#X text 21 24 dksndtriggrn~ - trigger playback of a sound (now granular!)
;
#X text 1421 55 gpl v 3 2018;
#X text 1166 154 loop;
#X obj 411 102 route speed transpose offset loop set, f 148;
#X text 23 50 inlets: trig/stop \, speed/transpose/offset/loop/set
\, symbol;
#X text 11 103 args: array \, num grains \, speed \, transpose \, offset
\, loop;
#X obj 38 929 dkxgrn~ \$1 \$2, f 113;
#X obj 551 200 f \$3;
#X obj 636 190 f \$4;
#X obj 806 201 f \$5;
#X obj 1110 177 f \$6;
#X connect 0 0 40 0;
#X connect 1 0 36 0;
#X connect 3 0 6 0;
#X connect 4 0 5 0;
#X connect 5 0 7 1;
#X connect 6 0 4 0;
#X connect 6 1 5 1;
#X connect 6 2 18 1;
#X connect 7 0 17 0;
#X connect 8 0 1 0;
#X connect 8 1 37 0;
#X connect 9 0 73 0;
#X connect 11 0 13 0;
#X connect 11 1 57 0;
#X connect 13 0 14 0;
#X connect 13 1 15 1;
#X connect 14 0 15 0;
#X connect 15 0 16 0;
#X connect 16 0 17 1;
#X connect 17 0 22 2;
#X connect 18 0 22 0;
#X connect 19 0 20 0;
#X connect 20 0 18 0;
#X connect 20 1 22 1;
#X connect 21 0 60 0;
#X connect 22 0 21 0;
#X connect 23 0 25 0;
#X connect 24 0 25 0;
#X connect 25 0 76 0;
#X connect 26 0 68 0;
#X connect 27 0 28 0;
#X connect 27 1 11 0;
#X connect 28 0 11 0;
#X connect 29 0 35 0;
#X connect 31 0 76 2;
#X connect 35 0 31 0;
#X connect 35 0 1 1;
#X connect 35 0 19 1;
#X connect 36 0 7 0;
#X connect 37 0 38 0;
#X connect 38 0 36 1;
#X connect 40 0 54 0;
#X connect 40 1 51 0;
#X connect 41 0 32 0;
#X connect 42 0 41 1;
#X connect 43 0 42 0;
#X connect 44 0 42 0;
#X connect 45 0 25 0;
#X connect 45 0 49 0;
#X connect 46 0 23 0;
#X connect 46 1 48 0;
#X connect 47 0 24 0;
#X connect 47 1 48 0;
#X connect 48 0 49 0;
#X connect 49 0 61 0;
#X connect 51 0 44 0;
#X connect 51 1 50 0;
#X connect 51 2 45 0;
#X connect 54 0 19 0;
#X connect 54 1 8 0;
#X connect 54 2 43 0;
#X connect 54 2 63 0;
#X connect 54 3 45 0;
#X connect 55 0 56 0;
#X connect 56 0 40 0;
#X connect 57 0 58 0;
#X connect 57 1 59 1;
#X connect 58 0 59 0;
#X connect 59 0 21 1;
#X connect 60 0 47 0;
#X connect 60 1 66 0;
#X connect 60 2 46 0;
#X connect 61 0 62 0;
#X connect 61 1 55 0;
#X connect 62 0 76 1;
#X connect 63 0 76 1;
#X connect 66 0 25 0;
#X connect 68 0 77 0;
#X connect 68 1 78 0;
#X connect 68 2 79 0;
#X connect 68 3 80 0;
#X connect 68 4 35 0;
#X connect 69 0 76 2;
#X connect 73 0 11 0;
#X connect 73 1 78 0;
#X connect 73 2 79 0;
#X connect 73 3 80 0;
#X connect 73 4 35 0;
#X connect 73 5 76 2;
#X connect 76 0 41 0;
#X connect 77 0 27 0;
#X connect 78 0 69 0;
#X connect 79 0 3 0;
#X connect 80 0 55 1;
