#N canvas 1225 370 1242 947 12;
#X obj 142 869 tabread4~ \$1, f 58;
#X obj 386 333 array size \$1;
#X obj 272 145 unpack f f f, f 76;
#X obj 232 801 line~;
#X obj 765 181 t f f;
#X obj 328 374 *;
#X obj 238 401 pack f f;
#X obj 229 363 f;
#X obj 226 446 route 0 1, f 29;
#X text 310 429 0: forward \, 1: backward;
#X obj 627 312 samplerate~;
#X obj 627 337 / 1000;
#X obj 537 417 *, f 14;
#X obj 731 211 abs;
#X obj 527 364 *, f 30;
#X text 784 275 scale samples traversed in ms by speed;
#X obj 791 212 < 0;
#X obj 209 540 t b b f, f 38;
#X msg 317 692 0;
#X obj 537 215 t f b f;
#X obj 529 467 pack f f;
#X obj 210 594 list, f 46;
#X obj 350 640 -, f 29;
#X obj 362 699 pack f f, f 31;
#X obj 142 894 outlet~;
#X obj 105 37 inlet;
#X obj 865 21 inlet;
#X text 930 26 array name;
#X obj 865 46 symbol;
#X msg 865 71 set \$1;
#X obj 323 475 t f f b, f 26;
#X msg 501 762 0;
#X obj 225 178 t b f;
#X msg 280 243 \$2 \$1;
#X obj 266 269 route 0 1, f 11;
#X obj 274 213 pack f 0, f 31;
#X obj 301 302 t f b, f 13;
#X text 365 270 pick mode;
#X text 303 105 location (abs/rel) \, duration(ms) \, speed;
#X obj 598 8 inlet;
#X text 656 4 mode;
#X obj 598 76 > 0;
#X obj 598 44 f \$2;
#X obj 748 11 loadbang;
#X text 19 3 dksndchop~ - sound chopper;
#X text 784 376 in1: location \, duration \, speed;
#X text 783 417 in3: array name;
#X text 777 491 args: array name \, mode (abs/rel);
#X text 783 399 in2: mode (absolute in samps/relative (0-1));
#X text 1027 9 derek kwan;
#X text 1033 36 pdkvabs;
#X text 1028 62 gpl v 3 2017;
#X obj 105 61 route stop, f 25;
#X msg 112 633 stop;
#X connect 0 0 24 0;
#X connect 1 0 5 1;
#X connect 2 0 32 0;
#X connect 2 1 19 0;
#X connect 2 2 4 0;
#X connect 3 0 0 0;
#X connect 4 0 13 0;
#X connect 4 1 16 0;
#X connect 5 0 6 1;
#X connect 6 0 8 0;
#X connect 7 0 6 0;
#X connect 8 0 17 0;
#X connect 8 1 30 0;
#X connect 10 0 11 0;
#X connect 11 0 12 1;
#X connect 12 0 20 0;
#X connect 12 0 22 1;
#X connect 13 0 14 1;
#X connect 14 0 12 0;
#X connect 16 0 7 1;
#X connect 17 0 21 0;
#X connect 17 1 18 0;
#X connect 17 2 0 1;
#X connect 18 0 3 0;
#X connect 19 0 14 0;
#X connect 19 1 10 0;
#X connect 19 2 20 1;
#X connect 19 2 23 1;
#X connect 20 0 21 1;
#X connect 21 0 3 0;
#X connect 22 0 23 0;
#X connect 23 0 3 0;
#X connect 25 0 52 0;
#X connect 26 0 28 0;
#X connect 28 0 29 0;
#X connect 28 0 1 1;
#X connect 29 0 0 0;
#X connect 30 0 22 0;
#X connect 30 1 3 0;
#X connect 30 2 31 0;
#X connect 31 0 0 1;
#X connect 32 0 7 0;
#X connect 32 1 35 0;
#X connect 33 0 34 0;
#X connect 34 0 6 1;
#X connect 34 1 36 0;
#X connect 35 0 33 0;
#X connect 36 0 5 0;
#X connect 36 1 1 0;
#X connect 39 0 42 0;
#X connect 41 0 35 1;
#X connect 42 0 41 0;
#X connect 43 0 42 0;
#X connect 52 0 53 0;
#X connect 52 1 2 0;
#X connect 53 0 3 0;
