#N canvas 802 238 904 708 12;
#X obj 211 651 tabread4~ \$1;
#X obj 113 213 array size \$1;
#X obj 112 112 unpack f f f, f 38;
#X obj 54 587 line~;
#X obj 413 142 t f f;
#X text 269 87 location 0-1 \, duration(ms) \, speed;
#X obj 120 275 *;
#X obj 43 172 t b f b;
#X obj 81 314 pack f f;
#X obj 71 274 f;
#X obj 81 339 route 0 1;
#X text 170 343 0: forward \, 1: backward;
#X obj 305 246 samplerate~;
#X obj 305 271 / 1000;
#X obj 239 316 *;
#X obj 412 177 abs;
#X obj 237 275 *;
#X text 407 270 scale samples traversed in ms by speed;
#X obj 476 181 < 0;
#X obj 30 392 t b b f;
#X msg 57 464 0;
#X obj 230 189 t f b f;
#X obj 290 406 pack f f;
#X obj 2 494 list;
#X obj 136 511 -;
#X obj 136 536 pack f f;
#X obj 211 676 outlet~;
#X obj 105 37 inlet;
#X obj 566 24 inlet;
#X text 631 29 array name;
#X obj 566 49 symbol;
#X msg 566 74 set \$1;
#X obj 115 403 t f f b;
#X msg 319 619 0;
#X connect 0 0 26 0;
#X connect 1 0 6 1;
#X connect 2 0 7 0;
#X connect 2 1 21 0;
#X connect 2 2 4 0;
#X connect 3 0 0 0;
#X connect 4 0 15 0;
#X connect 4 1 18 0;
#X connect 6 0 8 1;
#X connect 7 0 9 0;
#X connect 7 1 6 0;
#X connect 7 2 1 0;
#X connect 8 0 10 0;
#X connect 9 0 8 0;
#X connect 10 0 19 0;
#X connect 10 1 32 0;
#X connect 12 0 13 0;
#X connect 13 0 14 1;
#X connect 14 0 22 0;
#X connect 14 0 24 1;
#X connect 15 0 16 1;
#X connect 16 0 14 0;
#X connect 18 0 9 1;
#X connect 19 0 23 0;
#X connect 19 1 20 0;
#X connect 19 2 0 1;
#X connect 20 0 3 0;
#X connect 21 0 16 0;
#X connect 21 1 12 0;
#X connect 21 2 22 1;
#X connect 21 2 25 1;
#X connect 22 0 23 1;
#X connect 23 0 3 0;
#X connect 24 0 25 0;
#X connect 25 0 3 0;
#X connect 27 0 2 0;
#X connect 28 0 30 0;
#X connect 30 0 31 0;
#X connect 30 0 1 1;
#X connect 31 0 0 0;
#X connect 32 0 24 0;
#X connect 32 1 3 0;
#X connect 32 2 33 0;
#X connect 33 0 0 1;
