#N canvas 784 487 1300 707 12;
#X obj 109 142 inlet;
#X text 164 146 trig;
#X obj 184 313 array size \$1;
#X obj 723 113 inlet;
#X text 784 119 offset;
#X obj 727 146 clip 0 1;
#X msg 727 196 1;
#X obj 727 221 -;
#X obj 727 171 t b f f, f 11;
#X obj 232 409 *;
#X obj 268 254 t b b;
#X obj 479 123 inlet;
#X text 540 118 speed;
#X obj 480 167 t f f;
#X obj 556 256 >= 0;
#X text 353 285 dur;
#X obj 480 192 t b f;
#X msg 480 217 1;
#X obj 480 242 /;
#X obj 480 267 abs;
#X obj 232 434 *;
#X obj 98 431 *;
#X obj 98 367 array size \$1;
#X obj 98 392 t f f;
#X obj 98 481 list prepend 0;
#X obj 98 456 pack f f f;
#X obj 98 506 route 0 1;
#X msg 176 549 \$1 0 \, \$2 \$3 0;
#X msg 102 581 \$2 0 \, \$1 \$3 0;
#X obj 102 606 vline~;
#X obj 102 631 tabread~ \$1;
#X obj 109 220 t b b;
#X obj 674 63 loadbang;
#X obj 602 196 sel 0;
#X msg 602 221 1;
#X obj 906 118 inlet;
#X text 964 111 array symbol;
#X msg 906 198 set \$1;
#X text 21 24 dksndtrig~ - trigger playback of a sound;
#X text 23 50 inlets: trig \, speed \, offset \, symbol;
#X text 28 76 outlets: signal;
#X text 33 102 args: array \, speed \, offset;
#X obj 102 656 outlet~;
#X text 1068 30 derek kwan;
#X text 1066 56 pdkvabs;
#X text 1071 77 gpl v 3 2017;
#X obj 600 169 f \$2;
#X obj 664 170 f \$3;
#X obj 906 143 symbol \$1;
#X obj 232 384 /;
#X obj 308 311 samplerate~;
#X obj 308 336 / 1000;
#X connect 0 0 31 0;
#X connect 2 0 49 0;
#X connect 3 0 5 0;
#X connect 5 0 8 0;
#X connect 6 0 7 0;
#X connect 7 0 9 1;
#X connect 8 0 6 0;
#X connect 8 1 7 1;
#X connect 8 2 21 1;
#X connect 9 0 20 0;
#X connect 10 0 2 0;
#X connect 10 1 50 0;
#X connect 11 0 13 0;
#X connect 13 0 16 0;
#X connect 13 1 14 0;
#X connect 14 0 24 1;
#X connect 16 0 17 0;
#X connect 16 1 18 1;
#X connect 17 0 18 0;
#X connect 18 0 19 0;
#X connect 19 0 20 1;
#X connect 20 0 25 2;
#X connect 21 0 25 0;
#X connect 22 0 23 0;
#X connect 23 0 21 0;
#X connect 23 1 25 1;
#X connect 24 0 26 0;
#X connect 25 0 24 0;
#X connect 26 0 28 0;
#X connect 26 1 27 0;
#X connect 27 0 29 0;
#X connect 28 0 29 0;
#X connect 29 0 30 0;
#X connect 30 0 42 0;
#X connect 31 0 22 0;
#X connect 31 1 10 0;
#X connect 32 0 46 0;
#X connect 32 0 47 0;
#X connect 32 0 48 0;
#X connect 33 0 34 0;
#X connect 33 1 13 0;
#X connect 34 0 13 0;
#X connect 35 0 48 0;
#X connect 37 0 30 0;
#X connect 46 0 33 0;
#X connect 47 0 5 0;
#X connect 48 0 37 0;
#X connect 48 0 2 1;
#X connect 48 0 22 1;
#X connect 49 0 9 0;
#X connect 50 0 51 0;
#X connect 51 0 49 1;
