#N canvas 1001 561 669 402 12;
#X obj 284 302 clip~ 0 1;
#X obj 289 266 *~ 1e+20;
#X obj 292 215 inlet~;
#X obj 226 215 inlet~;
#X obj 225 335 *~;
#X obj 225 360 outlet~;
#X text 13 19 dkspigot2~ - audio-rate spigot for audio signals;
#X text 18 58 inlets: signal \, control signal;
#X text 530 5 derek kwan 2017;
#X text 531 29 gpl v 3;
#X text 530 51 pdkvabs;
#X connect 0 0 4 1;
#X connect 1 0 0 0;
#X connect 2 0 1 0;
#X connect 3 0 4 0;
#X connect 4 0 5 0;
