#N canvas 87 149 957 572 12;
#X obj 169 130 inlet~;
#X obj 166 401 *~;
#X obj 167 470 outlet~;
#X obj 277 160 loadbang;
#X obj 277 185 t b b, f 14;
#X obj 264 234 f \$1;
#X obj 381 216 f \$2;
#X obj 381 241 moses 1e-20;
#X msg 380 266 2;
#X obj 286 323 pack f 2, f 27;
#X obj 286 348 line~;
#X obj 439 111 inlet;
#X text 491 110 off/on;
#X obj 621 117 inlet;
#X text 680 119 ramp val;
#X text 235 130 sig~;
#X obj 285 286 > 0;
#X text 30 27 dkspigot~ - control-rate spigot for audio signals;
#X text 26 61 inlets: sig \, off/on/ ramp time in ms;
#X text 29 94 args: off/on \, ramp time;
#X text 760 26 derek kwan;
#X text 766 50 pdkvabs;
#X text 772 78 gpl v 3 2017;
#X connect 0 0 1 0;
#X connect 1 0 2 0;
#X connect 3 0 4 0;
#X connect 4 0 5 0;
#X connect 4 1 6 0;
#X connect 5 0 16 0;
#X connect 6 0 7 0;
#X connect 7 0 8 0;
#X connect 7 1 9 1;
#X connect 8 0 9 1;
#X connect 9 0 10 0;
#X connect 10 0 1 1;
#X connect 11 0 16 0;
#X connect 13 0 9 1;
#X connect 16 0 9 0;
