#N canvas 166 157 912 693 12;
#X obj 92 418 line~;
#X obj 116 447 samphold~;
#X obj 367 393 *~ 0.5;
#X obj 365 448 cos~;
#X obj 367 423 -~ 0.5;
#X obj 183 558 *~;
#X obj 52 93 delwrite~ \$0-stutter \$1;
#X obj 195 657 outlet~;
#X obj 445 109 > 0.5;
#X obj 384 64 inlet;
#X obj 542 394 line~;
#X obj 50 42 inlet~;
#X obj 103 291 sel 1;
#X obj 184 616 *~;
#X obj 589 518 *~;
#X obj 254 27 inlet;
#X obj 177 327 phasor~ \$2;
#X msg 445 77 0;
#X obj 446 38 loadbang;
#X msg 549 343 \$1 2;
#X obj 104 331 f \$1, f 5;
#X obj 118 488 delread4~ \$0-stutter;
#X obj 105 244 t f f, f 55;
#X obj 598 442 *~ -1;
#X obj 598 467 +~ 1;
#X text 666 459 clean;
#X text 404 523 stuttered;
#X text 31 3 dkstutter~ - vanilla stutter effect;
#X text 321 28 stutters/sec;
#X text 518 38 clean/stutter;
#X text 35 198 inlets:sig~ \, stutters/sec \, clean/stutter;
#X text 38 168 args: max stutter time (ms) \, stutters/sec;
#X text 693 30 derek kwan;
#X text 692 54 pdkvabs;
#X text 694 81 gpl v3 2015 (rev. 2017);
#X msg 76 389 \$1 \$1;
#X obj 104 356 t f b;
#X msg 149 387 0;
#X connect 0 0 1 0;
#X connect 1 0 21 0;
#X connect 2 0 4 0;
#X connect 3 0 5 1;
#X connect 4 0 3 0;
#X connect 5 0 13 0;
#X connect 8 0 22 0;
#X connect 9 0 8 0;
#X connect 10 0 13 1;
#X connect 10 0 23 0;
#X connect 11 0 14 0;
#X connect 11 0 6 0;
#X connect 12 0 20 0;
#X connect 13 0 7 0;
#X connect 14 0 7 0;
#X connect 15 0 16 0;
#X connect 16 0 1 1;
#X connect 16 0 2 0;
#X connect 17 0 8 0;
#X connect 18 0 17 0;
#X connect 19 0 10 0;
#X connect 20 0 36 0;
#X connect 21 0 5 0;
#X connect 22 0 12 0;
#X connect 22 1 19 0;
#X connect 23 0 24 0;
#X connect 24 0 14 1;
#X connect 35 0 0 0;
#X connect 36 0 35 0;
#X connect 36 1 37 0;
#X connect 37 0 0 0;
