#N canvas 703 381 646 483 12;
#X obj 67 155 inlet~;
#X obj 139 147 inlet~;
#X obj 80 387 line~;
#X obj 80 364 pack 0 1;
#X obj 194 390 line~;
#X obj 194 367 pack 0 1;
#X obj 76 410 *~;
#X obj 170 404 *~;
#X obj 48 443 outlet~;
#X obj 131 447 outlet~;
#X obj 179 43 inlet;
#X obj 237 252 + 1;
#X obj 226 279 * 0.5;
#X obj 177 321 + 1;
#X obj 176 303 * -1;
#X obj 278 48 loadbang;
#X text 12 5 dkstpan~: stereo-to-stereo panner;
#X text 459 16 derek kwan;
#X text 465 45 pdkvabs;
#X text 469 77 gpl v 3 2017;
#X obj 242 163 clip -1 1;
#X obj 278 73 f \$1;
#X text 12 106 arg1/in1: panning -1 to 1;
#X connect 0 0 6 0;
#X connect 1 0 7 0;
#X connect 2 0 6 1;
#X connect 3 0 2 0;
#X connect 4 0 7 1;
#X connect 5 0 4 0;
#X connect 6 0 8 0;
#X connect 7 0 9 0;
#X connect 10 0 20 0;
#X connect 11 0 12 0;
#X connect 12 0 14 0;
#X connect 12 0 5 0;
#X connect 13 0 3 0;
#X connect 14 0 13 0;
#X connect 15 0 21 0;
#X connect 20 0 11 0;
#X connect 21 0 20 0;
