#N canvas 257 220 703 440 12;
#X obj 109 239 spigot;
#X obj 149 67 inlet;
#X obj 214 66 inlet;
#X obj 169 241 spigot;
#X obj 310 185 > 0;
#X obj 169 265 outlet;
#X obj 109 263 outlet;
#X obj 145 118 poly \$1 \$2;
#X obj 210 156 t f f;
#X obj 237 237 spigot;
#X obj 237 261 outlet;
#X connect 0 0 6 0;
#X connect 1 0 7 0;
#X connect 2 0 7 1;
#X connect 3 0 5 0;
#X connect 4 0 3 1;
#X connect 4 0 0 1;
#X connect 4 0 9 1;
#X connect 7 0 0 0;
#X connect 7 1 3 0;
#X connect 7 2 8 0;
#X connect 8 0 9 0;
#X connect 8 1 4 0;
#X connect 9 0 10 0;
