#N canvas 47 153 1179 835 12;
#X obj 73 136 inlet~;
#X obj 319 105 inlet~;
#X obj 96 411 line~;
#X obj 96 388 pack 0 1;
#X obj 346 420 line~;
#X obj 346 397 pack 0 1;
#X obj 85 453 *~;
#X obj 339 455 *~;
#X obj 76 688 outlet~;
#X obj 319 680 outlet~;
#X obj 488 44 inlet;
#X obj 626 44 loadbang;
#X text 12 5 dkstpan~: stereo-to-stereo panner;
#X text 807 12 derek kwan;
#X text 813 41 pdkvabs;
#X text 817 73 gpl v 3 2017;
#X obj 626 69 f \$1;
#X text 12 106 arg1/in1: panning -1 to 1;
#X obj 626 93 clip -1 1;
#X obj 626 117 moses 0, f 26;
#X obj 218 477 line~;
#X obj 218 454 pack 0 1;
#X obj 207 519 *~;
#X obj 443 465 line~;
#X obj 443 442 pack 0 1;
#X obj 432 507 *~;
#X text 137 348 L-L;
#X text 214 414 L-R;
#X text 369 356 R-R;
#X text 461 389 R-L;
#X obj 234 323 unpack f f f f, f 45;
#X obj 627 144 t f f;
#X obj 626 179 * -1;
#X obj 678 178 + 1;
#X obj 626 203 pack f f;
#X msg 626 227 1 0 \$2 \$1;
#X obj 766 149 sel 0, f 11;
#X msg 753 224 1 0 1 0;
#X obj 858 184 t f f, f 15;
#X msg 857 246 1;
#X obj 858 278 -;
#X obj 858 208 t b f;
#X obj 858 302 pack f f;
#X msg 858 326 \$1 \$2 1 0;
#X connect 0 0 6 0;
#X connect 0 0 22 0;
#X connect 1 0 7 0;
#X connect 1 0 25 0;
#X connect 2 0 6 1;
#X connect 3 0 2 0;
#X connect 4 0 7 1;
#X connect 5 0 4 0;
#X connect 6 0 8 0;
#X connect 7 0 9 0;
#X connect 10 0 18 0;
#X connect 11 0 16 0;
#X connect 16 0 18 0;
#X connect 18 0 19 0;
#X connect 19 0 31 0;
#X connect 19 1 36 0;
#X connect 20 0 22 1;
#X connect 21 0 20 0;
#X connect 22 0 9 0;
#X connect 23 0 25 1;
#X connect 24 0 23 0;
#X connect 25 0 8 0;
#X connect 30 0 3 0;
#X connect 30 1 21 0;
#X connect 30 2 5 0;
#X connect 30 3 24 0;
#X connect 31 0 32 0;
#X connect 31 1 33 0;
#X connect 32 0 34 0;
#X connect 33 0 34 1;
#X connect 34 0 35 0;
#X connect 35 0 30 0;
#X connect 36 0 37 0;
#X connect 36 1 38 0;
#X connect 37 0 30 0;
#X connect 38 0 41 0;
#X connect 38 1 42 1;
#X connect 39 0 40 0;
#X connect 40 0 42 0;
#X connect 41 0 39 0;
#X connect 41 1 40 1;
#X connect 42 0 43 0;
#X connect 43 0 30 0;
