#N canvas 260 225 678 489 12;
#X obj 209 191 > 0;
#X obj 99 263 spigot;
#X obj 174 157 t f f;
#X obj 99 288 pack f f f;
#X obj 145 118 poly \$1 1;
#X obj 149 67 inlet;
#X text 14 10 DKSTRIPPOLY: ignore 0 velocity poly notes;
#X text 491 15 Derek Kwan 2016;
#X text 201 60 usual note/vel(or anything else) input;
#X text 194 279 trick to make make only > 0 vel notes come out;
#X text 160 311 voice \, pitch \, vel list;
#X obj 99 313 outlet;
#X text 163 332 (original poly uses separate inputs \, but i don't
find that useful;
#X obj 125 183 - 1;
#X connect 0 0 1 1;
#X connect 1 0 3 0;
#X connect 2 0 3 2;
#X connect 2 1 0 0;
#X connect 3 0 11 0;
#X connect 4 0 13 0;
#X connect 4 1 3 1;
#X connect 4 2 2 0;
#X connect 5 0 4 0;
#X connect 13 0 1 0;
