#N canvas 413 144 1305 766 12;
#X obj 202 408 f;
#X obj 301 366 + 1;
#X obj 302 400 % 2;
#X obj 304 426 sel 0;
#X msg 277 501 0;
#X obj 295 560 t b f;
#X msg 236 347 0;
#X obj 451 326 timer;
#X obj 509 386 * 2;
#X obj 455 360 t f f;
#X obj 462 475 -;
#X text 527 316 get tempo of incoming bangs;
#X text 550 427 divide by the desired swing val;
#X text 507 474 subtract by bang tempo to get how much time to delay
by;
#X text 57 436 bang counter;
#X obj 606 158 max 2;
#X obj 619 108 f \$2;
#X obj 606 183 t b f;
#X text 684 98 number of bangs to swing over;
#X text 543 376 since the calc is over 2 bangs \, mult by 2;
#X obj 384 95 f \$1;
#X obj 384 120 max 2;
#X obj 384 145 t b f;
#X obj 438 10 loadbang;
#X obj 441 44 t b b;
#X text 473 205 reset;
#X text 432 86 swing val;
#X text 438 105 < 2 - no swing;
#X text 437 126 3 - triplet swing;
#X text 435 150 4 - 16th swing \, etc;
#X obj 368 30 inlet;
#X obj 622 35 inlet;
#X obj 948 26 inlet;
#X obj 948 51 bang;
#X text 991 54 reset;
#X obj 209 117 inlet;
#X text 59 116 incoming bangs;
#X obj 292 598 outlet;
#X text 353 593 outgoing bangs;
#X text 40 685 in1: in bangs \, in2: swing val \, in3: swing over x
bangs;
#X text 41 706 in4: reset;
#X text 41 732 out: outgoing bangs;
#X text 39 660 arg1:swing val \, arg2: swing over x bangs;
#X text 27 16 DKSWING: bang swinger;
#X text 25 50 Derek Kwan \, 2016;
#X text 26 68 gpl v3;
#X obj 508 422 / 3;
#X obj 465 554 spigot 0;
#X obj 378 202 t b b b b;
#X msg 525 513 0;
#X obj 204 207 t b b b b;
#X msg 578 514 1;
#X text 33 182 allow setting of delay after 1st bang;
#X text 545 559 close spigot on reset to not allow setting delay;
#X obj 279 463 delay 250;
#X msg 252 412 stop;
#X connect 0 0 1 0;
#X connect 1 0 2 0;
#X connect 2 0 3 0;
#X connect 3 0 54 0;
#X connect 3 1 5 0;
#X connect 4 0 5 0;
#X connect 5 0 37 0;
#X connect 5 1 0 1;
#X connect 6 0 0 1;
#X connect 7 0 9 0;
#X connect 8 0 46 0;
#X connect 9 0 10 0;
#X connect 9 1 8 0;
#X connect 10 0 47 0;
#X connect 15 0 17 0;
#X connect 16 0 15 0;
#X connect 17 0 48 0;
#X connect 17 1 2 1;
#X connect 20 0 21 0;
#X connect 21 0 22 0;
#X connect 22 0 48 0;
#X connect 22 1 46 1;
#X connect 23 0 24 0;
#X connect 24 0 16 0;
#X connect 24 1 20 0;
#X connect 30 0 20 0;
#X connect 31 0 16 0;
#X connect 32 0 33 0;
#X connect 33 0 48 0;
#X connect 35 0 50 0;
#X connect 46 0 10 1;
#X connect 47 0 54 1;
#X connect 48 0 7 0;
#X connect 48 1 55 0;
#X connect 48 2 49 0;
#X connect 48 3 6 0;
#X connect 49 0 47 1;
#X connect 50 0 51 0;
#X connect 50 1 0 0;
#X connect 50 2 7 0;
#X connect 50 3 7 1;
#X connect 51 0 47 1;
#X connect 54 0 4 0;
#X connect 55 0 54 0;
