#N canvas 786 497 896 659 12;
#X obj 198 115 inlet~;
#X obj 197 288 *~;
#X obj 371 113 inlet~;
#X obj 370 288 *~;
#X obj 532 121 inlet;
#X obj 532 146 f \$1;
#X obj 251 205 == 0;
#X msg 251 230 \$1 1;
#X obj 251 255 line~;
#X obj 322 241 *~ -1;
#X obj 251 280 -~ 1;
#X obj 197 373 outlet~;
#X text 596 117 signal select;
#X text 25 27 dkswitch2~ - select between 2 signals;
#X text 696 30 derek kwan;
#X text 695 59 pdkvabs;
#X text 692 86 gpl v 3 2017;
#X obj 477 74 loadbang;
#X connect 0 0 1 0;
#X connect 1 0 11 0;
#X connect 2 0 3 0;
#X connect 3 0 11 0;
#X connect 4 0 5 0;
#X connect 5 0 6 0;
#X connect 6 0 7 0;
#X connect 7 0 8 0;
#X connect 8 0 1 1;
#X connect 8 0 10 0;
#X connect 9 0 3 1;
#X connect 10 0 9 0;
#X connect 17 0 5 0;
