#N canvas 171 447 450 300 10;
#X obj 166 193 spigot;
#X obj 252 85 inlet;
#X obj 308 94 loadbang;
#X obj 105 83 inlet;
#X obj 166 215 outlet;
#X msg 120 111 1;
#X obj 160 124 t b b;
#X msg 212 162 0;
#X text 22 11 DKSYNCB - synchronized bangs;
#X text 256 56 in 2: sync;
#X text 86 56 in 1: incoming bang;
#X text 320 16 Derek Kwan - 2016;
#X text 227 221 out 1: synced bang;
#X connect 0 0 4 0;
#X connect 1 0 6 0;
#X connect 2 0 7 0;
#X connect 3 0 5 0;
#X connect 5 0 0 1;
#X connect 6 0 7 0;
#X connect 6 1 0 0;
#X connect 7 0 0 1;
