#N canvas 459 96 1376 643 12;
#X obj 311 53 inlet~;
#X text 376 51 position in samples;
#X obj 303 147 snapshot~;
#X obj 920 38 inlet;
#X msg 597 304 all set \$1;
#X obj 333 214 + 1;
#X obj 268 212 f 0;
#X obj 303 172 t b f, f 10;
#X obj 268 261 pack f f, f 16;
#X obj 309 554 *~;
#X obj 399 437 line~;
#X msg 404 405 \$1 5;
#X obj 712 96 loadbang;
#X msg 714 154 0;
#X obj 544 88 inlet;
#X text 605 82 on/off;
#X obj 544 113 == 1;
#X obj 774 362 f \$2;
#X obj 774 387 moses 1e-20;
#X msg 773 420 1;
#X obj 773 445 t b f;
#X msg 773 470 1;
#X obj 773 495 /;
#X text 819 349 number of grains;
#N canvas 693 221 1136 367 \$0-dkvgcld-init 0;
#X obj 301 261 v \$0-samplelen;
#X obj 515 214 v \$0-grainms;
#X obj 642 310 v \$0-grainsamp;
#X obj 305 225 array size \$1;
#X obj 688 232 samplerate~;
#X obj 688 257 / 1000;
#X obj 588 133 t f f b;
#X obj 633 271 *;
#X obj 812 280 v \$0-randsamp;
#X obj 878 216 / 1000;
#X obj 878 191 samplerate~;
#X obj 830 243 *;
#X obj 839 163 t f b;
#X text 893 165 randomized in ms;
#X text 651 76 grain length in ms;
#X obj 643 25 inlet;
#X obj 921 25 inlet;
#X obj 758 11 loadbang;
#X obj 325 161 t b s;
#X obj 331 76 inlet;
#X text 389 96 array name;
#X msg 805 104 3;
#X msg 583 77 50;
#X connect 3 0 0 0;
#X connect 4 0 5 0;
#X connect 5 0 7 1;
#X connect 6 0 1 0;
#X connect 6 1 7 0;
#X connect 6 2 4 0;
#X connect 7 0 2 0;
#X connect 9 0 11 1;
#X connect 10 0 9 0;
#X connect 11 0 8 0;
#X connect 12 0 11 0;
#X connect 12 1 10 0;
#X connect 15 0 6 0;
#X connect 16 0 12 0;
#X connect 17 0 21 0;
#X connect 17 0 22 0;
#X connect 17 0 3 0;
#X connect 18 0 3 0;
#X connect 18 1 3 1;
#X connect 19 0 18 0;
#X connect 21 0 12 0;
#X connect 22 0 6 0;
#X restore 808 184 pd \$0-dkvgcld-init;
#N canvas 68 442 1384 508 \$0-dkvgcld-trig 0;
#X obj 407 258 metro;
#X obj 483 208 f;
#X obj 527 149 del 1;
#X obj 504 174 v \$0-grainms;
#X obj 378 74 inlet;
#X text 429 80 on/off;
#X obj 525 72 inlet;
#X text 577 74 grainms;
#X obj 610 114 loadbang;
#X obj 389 436 outlet;
#X text 477 435 trigger;
#X obj 772 65 inlet;
#X obj 398 347 / 100;
#X obj 407 381 *;
#X obj 407 406 del;
#X obj 939 68 inlet;
#X obj 938 102 clip 0 1;
#X obj 938 131 * 100;
#X obj 938 156 + 1;
#X text 988 59 random trig (proportion of grainms);
#X obj 398 322 random 11;
#X text 831 71 overlap;
#X obj 772 90 moses 1;
#X obj 490 242 / 8;
#X connect 0 0 20 0;
#X connect 1 0 13 1;
#X connect 1 0 23 0;
#X connect 2 0 3 0;
#X connect 3 0 1 0;
#X connect 4 0 0 0;
#X connect 6 0 1 0;
#X connect 8 0 2 0;
#X connect 11 0 22 0;
#X connect 12 0 13 0;
#X connect 13 0 14 0;
#X connect 14 0 9 0;
#X connect 15 0 16 0;
#X connect 16 0 17 0;
#X connect 17 0 18 0;
#X connect 18 0 20 1;
#X connect 20 0 12 0;
#X connect 22 1 23 1;
#X connect 23 0 0 1;
#X restore 483 206 pd \$0-dkvgcld-trig;
#X obj 309 581 outlet~;
#X text 1 113 INLETS:;
#X text 0 146 position in samples/;
#X text 2 173 tgl/messages;
#X text 9 315 ARGS:;
#X text 7 342 array name \, number of grains;
#X text 8 238 OUTLETS:;
#X text 9 261 signal~;
#X text 1131 28 derek kwan 2017;
#X text 1131 50 gpl v 3;
#X obj 232 236 % \$2;
#X obj 300 374 *~ 1;
#X text 10 19 dksyncgrn~ - synchronous granular synth;
#X msg 990 226 all randamp \$1;
#X obj 871 105 route set grainms randms randtrig randamp overlap;
#X text 1134 74 pdkvabs;
#X obj 828 141 symbol;
#X obj 300 349 clone -x util/dksyncgrn-grain~ \$2 \$0 \$1;
#X connect 0 0 2 0;
#X connect 2 0 7 0;
#X connect 3 0 40 0;
#X connect 4 0 43 1;
#X connect 5 0 6 1;
#X connect 6 0 36 0;
#X connect 7 0 6 0;
#X connect 7 1 8 1;
#X connect 8 0 43 0;
#X connect 9 0 26 0;
#X connect 10 0 9 1;
#X connect 11 0 10 0;
#X connect 12 0 13 0;
#X connect 12 0 40 0;
#X connect 12 0 17 0;
#X connect 13 0 10 0;
#X connect 14 0 16 0;
#X connect 16 0 11 0;
#X connect 16 0 25 0;
#X connect 17 0 18 0;
#X connect 18 0 19 0;
#X connect 19 0 20 0;
#X connect 20 0 21 0;
#X connect 20 1 22 1;
#X connect 20 1 36 1;
#X connect 21 0 22 0;
#X connect 22 0 37 1;
#X connect 25 0 2 0;
#X connect 36 0 5 0;
#X connect 36 0 8 0;
#X connect 37 0 9 0;
#X connect 39 0 43 1;
#X connect 40 0 42 0;
#X connect 40 1 24 1;
#X connect 40 1 25 1;
#X connect 40 2 24 2;
#X connect 40 3 25 3;
#X connect 40 4 39 0;
#X connect 40 5 25 2;
#X connect 42 0 24 0;
#X connect 42 0 4 0;
#X connect 43 0 37 0;
