#N canvas 438 109 1411 945 10;
#X obj 100 105 cnv 15 200 80 empty empty empty 20 12 0 14 -233017 -66577
0;
#X msg 471 391 start;
#X msg 545 392 stop;
#X obj 422 417 timer;
#X obj 414 366 t b b;
#X floatatom 429 446 5 0 0 0 - - -, f 5;
#X floatatom 961 319 5 0 0 0 - - -, f 5;
#X obj 656 179 t b f;
#X msg 669 219 1;
#X obj 727 234 /;
#X obj 636 276 phasor~ 1;
#X obj 809 226 * 44100;
#X obj 730 303 *~ 0;
#X obj 449 471 / 1000;
#X obj 402 308 t b b;
#X obj 106 125 bng 50 250 50 0 empty empty empty 17 7 0 10 -262144
-1 -1;
#X obj 165 124 bng 50 250 50 0 empty empty empty 17 7 0 10 -262144
-1 -1;
#X text 115 108 Start;
#X text 172 107 Stop;
#X obj 227 124 tgl 50 0 empty empty empty 17 7 0 10 -262144 -1 -1 0
1;
#X obj 519 93 inlet;
#X text 565 95 tempo;
#X obj 404 76 inlet~;
#X text 456 75 Signal;
#X text 230 106 Sync;
#X text 108 174 SyncLoop;
#X obj 620 105 inlet;
#X text 657 102 Start;
#X obj 708 110 inlet;
#X text 745 107 Stop;
#X obj 793 117 inlet;
#X text 839 114 Sync;
#X obj 776 524 outlet~;
#X text 831 523 Signal;
#X obj 919 527 outlet;
#X text 968 526 beat monitoring;
#X obj 538 528 tabwrite~ \$0-array1;
#X obj 675 327 tabread4~ \$0-array1;
#X obj 226 294 t b b;
#X obj 933 196 sel 0;
#X obj 961 103 metro 5;
#X obj 866 277 snapshot~;
#X obj 208 431 \$0;
#X msg 206 491 \; \$1-array1 const 0;
#X obj 198 209 change;
#X msg 102 224 0;
#X msg 146 229 1;
#X obj 259 251 sel 0 1;
#X obj 341 435 bng 15 250 50 0 empty empty empty 17 7 0 10 -262144
-1 -1;
#X obj 367 500 bng 15 250 50 0 empty empty empty 17 7 0 10 -262144
-1 -1;
#X msg 607 319 0;
#X obj 1074 273 table \$0-array1 1.323e+06;
#N canvas 115 348 535 400 bangsync 0;
#X obj 143 236 spigot;
#X obj 214 205 tgl 15 0 empty empty empty 17 7 0 10 -262144 -1 -1 0
1;
#X msg 180 197 0;
#X obj 93 281 bng 15 250 50 0 empty empty empty 17 7 0 10 -262144 -1
-1;
#X obj 230 286 bng 15 250 50 0 empty empty empty 17 7 0 10 -262144
-1 -1;
#X obj 342 40 inlet;
#X obj 340 80 bng 15 250 50 0 empty empty empty 17 7 0 10 -262144 -1
-1;
#X obj 204 157 loadbang;
#X obj 107 36 inlet;
#X obj 214 350 outlet;
#X obj 101 322 outlet;
#X obj 195 35 inlet;
#X text 333 320 bangsync by Derek X. Kwan;
#X text 231 328 beat monitoring;
#X text 118 282 synced bang;
#X text 384 46 bang to be synced;
#X text 45 37 tgl on/off;
#X text 208 53 change tempo (m/s);
#X obj 138 149 metro 500;
#X connect 0 0 3 0;
#X connect 1 0 0 1;
#X connect 2 0 1 0;
#X connect 3 0 10 0;
#X connect 4 0 9 0;
#X connect 5 0 6 0;
#X connect 6 0 1 0;
#X connect 7 0 2 0;
#X connect 8 0 18 0;
#X connect 11 0 18 1;
#X connect 18 0 0 0;
#X connect 18 0 2 0;
#X connect 18 0 4 0;
#X restore 378 234 pd bangsync;
#N canvas 113 351 535 400 bangsync 0;
#X obj 143 236 spigot;
#X obj 214 205 tgl 15 0 empty empty empty 17 7 0 10 -262144 -1 -1 0
1;
#X msg 180 197 0;
#X obj 93 281 bng 15 250 50 0 empty empty empty 17 7 0 10 -262144 -1
-1;
#X obj 230 286 bng 15 250 50 0 empty empty empty 17 7 0 10 -262144
-1 -1;
#X obj 342 40 inlet;
#X obj 340 80 bng 15 250 50 0 empty empty empty 17 7 0 10 -262144 -1
-1;
#X obj 204 157 loadbang;
#X obj 107 36 inlet;
#X obj 214 350 outlet;
#X obj 101 322 outlet;
#X obj 195 35 inlet;
#X text 333 320 bangsync by Derek X. Kwan;
#X text 231 328 beat monitoring;
#X text 118 282 synced bang;
#X text 384 46 bang to be synced;
#X text 45 37 tgl on/off;
#X text 208 53 change tempo (m/s);
#X obj 138 149 metro 500;
#X connect 0 0 3 0;
#X connect 1 0 0 1;
#X connect 2 0 1 0;
#X connect 3 0 10 0;
#X connect 4 0 9 0;
#X connect 5 0 6 0;
#X connect 6 0 1 0;
#X connect 7 0 2 0;
#X connect 8 0 18 0;
#X connect 11 0 18 1;
#X connect 18 0 0 0;
#X connect 18 0 2 0;
#X connect 18 0 4 0;
#X restore 474 235 pd bangsync;
#X connect 1 0 36 0;
#X connect 2 0 36 0;
#X connect 3 0 5 0;
#X connect 4 0 3 1;
#X connect 4 1 3 0;
#X connect 5 0 13 0;
#X connect 7 0 8 0;
#X connect 7 1 9 1;
#X connect 7 1 11 0;
#X connect 8 0 9 0;
#X connect 9 0 10 0;
#X connect 10 0 12 0;
#X connect 11 0 6 0;
#X connect 11 0 12 1;
#X connect 12 0 37 0;
#X connect 13 0 7 0;
#X connect 14 1 4 0;
#X connect 14 1 1 0;
#X connect 15 0 45 0;
#X connect 16 0 46 0;
#X connect 19 0 40 0;
#X connect 19 0 52 0;
#X connect 19 0 53 0;
#X connect 20 0 52 1;
#X connect 20 0 53 1;
#X connect 22 0 36 0;
#X connect 26 0 15 0;
#X connect 28 0 16 0;
#X connect 30 0 19 0;
#X connect 37 0 32 0;
#X connect 38 0 42 0;
#X connect 38 1 52 2;
#X connect 40 0 41 0;
#X connect 42 0 43 0;
#X connect 44 0 47 0;
#X connect 45 0 44 0;
#X connect 46 0 44 0;
#X connect 47 0 38 0;
#X connect 47 1 53 2;
#X connect 50 0 10 1;
#X connect 52 0 14 0;
#X connect 52 0 50 0;
#X connect 52 1 48 0;
#X connect 52 1 34 0;
#X connect 53 0 3 1;
#X connect 53 0 50 0;
#X connect 53 0 2 0;
#X connect 53 1 49 0;
#X coords 0 -1 1 1 200 90 2 100 100;
