#N canvas 496 501 733 541 12;
#X obj 146 188 t s s, f 9;
#X obj 205 217 list fromsymbol;
#X obj 206 241 list length;
#X obj 205 265 > 0;
#X obj 205 289 t f f;
#X obj 169 387 outlet;
#X obj 235 340 sel 0;
#X obj 138 261 spigot 0;
#X obj 148 115 inlet;
#X text 32 10 dksymbolcheck;
#X text 41 56 for blank symbols \, output bang;
#X text 41 77 else pass symbol;
#X text 616 17 derek kwan;
#X text 621 40 pdkvabs 2018;
#X text 623 71 gpl v 3;
#X obj 148 139 symbol \$1;
#X obj 276 75 loadbang;
#X text 48 35 args: default symbol;
#X connect 0 0 7 0;
#X connect 0 1 1 0;
#X connect 1 0 2 0;
#X connect 2 0 3 0;
#X connect 3 0 4 0;
#X connect 4 0 7 1;
#X connect 4 1 6 0;
#X connect 6 0 5 0;
#X connect 7 0 5 0;
#X connect 8 0 15 0;
#X connect 15 0 0 0;
#X connect 16 0 15 0;
