#N canvas 959 478 818 406 12;
#X obj 246 128 timer, f 13;
#X obj 241 60 inlet;
#X obj 241 84 t b b, f 14;
#X obj 246 152 t f f, f 15;
#X obj 247 306 outlet;
#X text 310 310 ms;
#X obj 359 310 outlet;
#X text 415 311 bpm;
#X obj 354 189 t b f, f 17;
#X msg 354 213 60000;
#X obj 354 237 /, f 15;
#X text 15 34 dktaptempo - get tempo of incoming bangs;
#X text 689 92 derek kwan;
#X text 693 121 pdkvabs 2018;
#X text 698 149 gpl v 3;
#X connect 0 0 3 0;
#X connect 1 0 2 0;
#X connect 2 0 0 0;
#X connect 2 1 0 1;
#X connect 3 0 4 0;
#X connect 3 1 8 0;
#X connect 8 0 9 0;
#X connect 8 1 10 1;
#X connect 9 0 10 0;
#X connect 10 0 6 0;
