#N canvas 1024 288 739 616 12;
#X obj 187 256 t a b b, f 15;
#X obj 185 477 outlet;
#X obj 268 410 del, f 16;
#X obj 322 130 inlet;
#X obj 445 136 inlet;
#X obj 312 166 route float;
#X obj 445 160 t b b;
#X msg 470 244 stop;
#X msg 354 465 1;
#X obj 184 204 spigot 1;
#X msg 404 214 1;
#X msg 333 266 0;
#X obj 177 130 inlet;
#X text 326 91 f - deltime/a - del msgs;
#X text 507 135 reset/open;
#X text 232 131 input;
#X text 19 25 dktimegate - only let input through every x time units
;
#X obj 543 249 loadbang;
#X obj 389 338 f \$1;
#X obj 388 369 max 0;
#X text 21 54 inlets: input \, deltime or del msgs \, reset;
#X text 25 81 args: time units to wait (default ms);
#X text 570 17 derek kwan;
#X text 569 44 gpl v 3 2018;
#X text 570 69 pdkvabs;
#X obj 268 434 t b b;
#X obj 270 480 outlet;
#X text 26 112 outlet: input \, open indicator;
#X connect 0 0 1 0;
#X connect 0 1 2 0;
#X connect 0 2 11 0;
#X connect 2 0 25 0;
#X connect 3 0 5 0;
#X connect 4 0 6 0;
#X connect 5 0 18 0;
#X connect 5 1 2 0;
#X connect 6 0 10 0;
#X connect 6 1 7 0;
#X connect 7 0 2 0;
#X connect 8 0 9 1;
#X connect 9 0 0 0;
#X connect 10 0 9 1;
#X connect 11 0 9 1;
#X connect 12 0 9 0;
#X connect 17 0 18 0;
#X connect 18 0 19 0;
#X connect 19 0 2 1;
#X connect 25 0 26 0;
#X connect 25 1 8 0;
