#N canvas 790 361 1145 415 12;
#X obj 254 153 inlet;
#X text 314 160 start/stop;
#X obj 251 249 metro;
#X obj 590 151 inlet;
#X text 643 152 reset;
#X obj 420 153 inlet;
#X text 471 155 time resolution;
#X obj 640 369 max 1;
#X obj 251 320 timer;
#X obj 308 390 outlet;
#X obj 746 222 loadbang;
#X obj 736 268 f \$1;
#X text 28 44 dktimer: wrapper around timer;
#X text 21 110 args: time resolution in ms;
#X text 18 150 inlets: f(start/stop);
#X text 76 172 time res;
#X text 80 192 reset;
#X text 867 28 derek kwan;
#X text 877 47 pdkvabs;
#X text 877 69 gpl v 3 2018;
#X obj 736 292 moses 1e-20;
#X msg 736 316 10;
#X obj 254 195 == 1;
#X obj 590 175 t b b;
#X msg 573 226 0;
#X connect 0 0 22 0;
#X connect 2 0 8 1;
#X connect 3 0 23 0;
#X connect 5 0 7 0;
#X connect 7 0 2 1;
#X connect 8 0 9 0;
#X connect 10 0 11 0;
#X connect 10 0 8 0;
#X connect 11 0 20 0;
#X connect 20 0 21 0;
#X connect 20 1 7 1;
#X connect 21 0 7 1;
#X connect 22 0 2 0;
#X connect 23 0 8 0;
#X connect 23 1 24 0;
#X connect 24 0 9 0;
