#N canvas 351 281 1627 945 12;
#X obj 116 89 inlet;
#X text 165 89 trig;
#X obj 429 88 inlet;
#X text 482 86 rate;
#X obj 599 84 inlet;
#X text 634 84 start;
#X obj 749 87 inlet;
#X text 799 88 end;
#X obj 110 159 array size \$1;
#X obj 591 276 min, f 11;
#X obj 758 209 t b f;
#X obj 756 293 -;
#X obj 593 245 f \$3;
#X obj 756 317 abs;
#X obj 251 261 * 1, f 9;
#X text 799 318 length;
#X obj 90 552 pack f f f, f 29;
#X obj 382 360 samplerate~;
#X obj 380 386 / 1000;
#X obj 479 208 f \$2;
#X obj 488 421 f;
#X obj 480 240 t f f, f 11;
#X obj 479 270 == 0;
#X obj 483 348 route 0 1;
#X obj 482 310 pack f f, f 12;
#X msg 524 383 1;
#X obj 95 227 * 0, f 15;
#X obj 383 446 * 1, f 9;
#X obj 95 251 t f f, f 14;
#X text 416 491 dur in ms;
#X obj 197 429 +;
#X text 230 504 end;
#X text 95 506 start;
#X msg 168 630 \$1;
#X obj 94 705 line~;
#X obj 477 704 del;
#X msg 88 617 \$2 \$3;
#X obj 870 220 f \$4;
#X obj 870 244 moses 1e-30, f 12;
#X msg 870 268 1;
#X obj 469 22 loadbang;
#X obj 1111 26 inlet;
#X obj 1111 106 symbol;
#X text 20 9 dktrigrd~ - triggered array reader;
#X obj 90 795 outlet~;
#X obj 339 800 outlet;
#X obj 579 785 outlet;
#X text 629 785 done;
#X text 1352 21 derek kwan;
#X text 1361 49 pdkvabs 2018;
#X text 1368 66 gpl v 3;
#X obj 296 492 /, f 14;
#X obj 254 315 t f f b, f 19;
#X obj 101 188 t f f, f 22;
#X text 405 796 dur in ms;
#X text 17 67 outlets: sig~ \, dur in ms \, done;
#X text 12 47 inlets: trig \, rate \, start \, end \, msgs (set/start/end/loop)
;
#X obj 116 113 t b b, f 59;
#X msg 116 137;
#X msg 528 661 stop;
#X obj 477 728 t b b, f 16;
#X obj 478 759 spigot 0;
#X obj 984 98 inlet;
#X text 15 28 args: array \, rate \, start \, end \, loop;
#X obj 472 59 t b b b b, f 87;
#X text 1042 106 loop;
#X obj 984 200 f \$5;
#X obj 1111 50 route set start end loop;
#X text 1160 29 msgs;
#X obj 88 593 t l l l, f 36;
#X msg 343 636 \$3;
#X obj 343 660 t f f, f 19;
#X connect 0 0 57 0;
#X connect 2 0 27 1;
#X connect 4 0 12 0;
#X connect 6 0 10 0;
#X connect 8 0 53 0;
#X connect 9 0 26 1;
#X connect 10 0 9 0;
#X connect 10 0 11 0;
#X connect 10 1 11 1;
#X connect 10 1 9 1;
#X connect 11 0 13 0;
#X connect 12 0 11 0;
#X connect 12 0 9 0;
#X connect 13 0 14 1;
#X connect 14 0 52 0;
#X connect 16 0 69 0;
#X connect 17 0 18 0;
#X connect 18 0 27 0;
#X connect 19 0 21 0;
#X connect 20 0 27 1;
#X connect 21 0 22 0;
#X connect 21 1 24 1;
#X connect 22 0 24 0;
#X connect 23 0 20 0;
#X connect 23 1 25 0;
#X connect 24 0 23 0;
#X connect 25 0 20 0;
#X connect 26 0 28 0;
#X connect 27 0 51 1;
#X connect 28 0 16 0;
#X connect 28 1 30 0;
#X connect 30 0 16 1;
#X connect 33 0 34 0;
#X connect 34 0 44 0;
#X connect 35 0 60 0;
#X connect 36 0 34 0;
#X connect 37 0 38 0;
#X connect 38 0 39 0;
#X connect 38 1 10 0;
#X connect 39 0 10 0;
#X connect 40 0 64 0;
#X connect 41 0 67 0;
#X connect 42 0 8 1;
#X connect 51 0 16 2;
#X connect 52 0 30 1;
#X connect 52 1 51 0;
#X connect 52 2 17 0;
#X connect 53 0 26 0;
#X connect 53 1 14 0;
#X connect 57 0 8 0;
#X connect 57 0 58 0;
#X connect 57 1 59 0;
#X connect 59 0 35 0;
#X connect 60 0 61 0;
#X connect 60 1 46 0;
#X connect 61 0 16 0;
#X connect 62 0 66 0;
#X connect 64 0 19 0;
#X connect 64 1 12 0;
#X connect 64 2 37 0;
#X connect 64 3 66 0;
#X connect 66 0 61 1;
#X connect 67 0 42 0;
#X connect 67 1 12 0;
#X connect 67 2 10 0;
#X connect 67 3 66 0;
#X connect 69 0 36 0;
#X connect 69 1 33 0;
#X connect 69 2 70 0;
#X connect 70 0 71 0;
#X connect 71 0 45 0;
#X connect 71 1 35 0;
