#N canvas 351 281 1627 945 12;
#X obj 116 89 inlet;
#X text 165 89 trig;
#X obj 429 88 inlet;
#X text 482 86 rate;
#X obj 599 84 inlet;
#X text 634 84 start;
#X obj 749 87 inlet;
#X text 799 88 end;
#X obj 110 159 array size \$1;
#X obj 631 292 min, f 11;
#X obj 765 247 t b f;
#X obj 763 331 -;
#X obj 633 261 f \$3;
#X obj 763 355 abs;
#X obj 251 261 * 1, f 9;
#X text 806 356 length;
#X obj 90 552 pack f f f, f 32;
#X obj 382 360 samplerate~;
#X obj 380 386 / 1000;
#X obj 479 208 f \$2;
#X obj 488 421 f;
#X obj 480 240 t f f, f 11;
#X obj 479 270 == 0;
#X obj 483 348 route 0 1;
#X obj 482 310 pack f f, f 12;
#X msg 524 383 1;
#X obj 95 227 * 0, f 15;
#X obj 383 446 * 1, f 9;
#X obj 95 251 t f f, f 14;
#X text 416 491 dur in ms;
#X obj 197 429 +;
#X text 230 504 end;
#X text 95 506 start;
#X msg 168 630 \$1;
#X obj 94 705 line~;
#X msg 563 680 \$3;
#X obj 563 704 del;
#X msg 88 617 \$2 \$3;
#X obj 893 176 f \$4;
#X obj 893 200 moses 1e-30, f 17;
#X msg 893 224 1;
#X obj 469 22 loadbang;
#X obj 472 59 t b b b, f 62;
#X obj 1050 79 inlet;
#X obj 1050 159 symbol;
#X obj 1050 103 route set start end;
#X msg 120 119 bang;
#X text 20 9 dktrigrd~ - triggered array reader;
#X text 15 28 args: array \, rate \, start \, end;
#X text 12 47 inlets: trig \, rate \, start \, end \, msgs (set/start/end)
;
#X obj 90 795 outlet~;
#X obj 380 784 outlet;
#X obj 585 785 outlet;
#X text 635 785 done;
#X text 1352 21 derek kwan;
#X text 1361 49 pdkvabs 2018;
#X text 1368 66 gpl v 3;
#X obj 296 492 /, f 14;
#X obj 254 315 t f f b, f 19;
#X obj 88 593 t l l l, f 67;
#X obj 101 188 t f f, f 22;
#X obj 296 516 t f f, f 14;
#X text 446 780 dur in ms;
#X text 17 67 outlets: sig~ \, dur in ms \, done;
#X connect 0 0 46 0;
#X connect 2 0 27 1;
#X connect 4 0 12 0;
#X connect 6 0 10 0;
#X connect 8 0 60 0;
#X connect 9 0 26 1;
#X connect 10 0 9 0;
#X connect 10 0 11 0;
#X connect 10 1 11 1;
#X connect 10 1 9 1;
#X connect 11 0 13 0;
#X connect 12 0 11 0;
#X connect 12 0 9 0;
#X connect 13 0 14 1;
#X connect 14 0 58 0;
#X connect 16 0 59 0;
#X connect 17 0 18 0;
#X connect 18 0 27 0;
#X connect 19 0 21 0;
#X connect 20 0 27 1;
#X connect 21 0 22 0;
#X connect 21 1 24 1;
#X connect 22 0 24 0;
#X connect 23 0 20 0;
#X connect 23 1 25 0;
#X connect 24 0 23 0;
#X connect 25 0 20 0;
#X connect 26 0 28 0;
#X connect 27 0 57 1;
#X connect 28 0 16 0;
#X connect 28 1 30 0;
#X connect 30 0 16 1;
#X connect 33 0 34 0;
#X connect 34 0 50 0;
#X connect 35 0 36 0;
#X connect 36 0 52 0;
#X connect 37 0 34 0;
#X connect 38 0 39 0;
#X connect 39 0 40 0;
#X connect 39 1 10 0;
#X connect 40 0 10 0;
#X connect 41 0 42 0;
#X connect 42 0 19 0;
#X connect 42 1 12 0;
#X connect 42 2 38 0;
#X connect 43 0 45 0;
#X connect 44 0 8 1;
#X connect 45 0 44 0;
#X connect 45 1 12 0;
#X connect 45 2 10 0;
#X connect 46 0 8 0;
#X connect 57 0 61 0;
#X connect 58 0 30 1;
#X connect 58 1 57 0;
#X connect 58 2 17 0;
#X connect 59 0 37 0;
#X connect 59 1 33 0;
#X connect 59 2 35 0;
#X connect 60 0 26 0;
#X connect 60 1 14 0;
#X connect 61 0 16 2;
#X connect 61 1 51 0;
