#N canvas 513 128 1458 748 12;
#X obj 1 370 array define \$0-grnstr 1.323e+06;
#X obj 715 374 tabwrite~ \$0-grnstr;
#X obj 748 18 inlet;
#X text 803 12 trig;
#X text 357 18 signal;
#X msg 713 80 0;
#X obj 297 18 inlet~;
#X obj 275 447 outlet~;
#X text 1098 58 pdkvabs;
#X text 1088 30 derek kwan \, 2017;
#X text 1101 86 gpl v 3;
#X text 22 313 args: number of grains;
#X text 24 79 in1: signal;
#X obj 446 21 inlet;
#X text 493 16 rate;
#X msg 505 66 0.01;
#X obj 544 20 loadbang;
#X obj 608 54 inlet;
#X text 663 51 on/off;
#X text 21 103 in2: rate (0.01*);
#X text 25 130 in3: on/off;
#X text 22 158 in4: trigger (record/playback);
#X obj 866 20 inlet;
#X text 929 23 msgs;
#X text 21 184 in5: msgs;
#X text 46 232 -infade (f) changes fade time of input sig;
#X obj 866 70 > 0;
#X obj 846 184 line~;
#X obj 703 279 *~;
#X text 43 209 - input (f) fades in/out input sig (default is on);
#X obj 846 159 pack f 1.5;
#X msg 561 65 1;
#X obj 866 45 route input infade rate;
#X obj 748 43 t b b;
#X obj 273 358 dkxgrn~ \$0-grnstr \$1;
#X text 8 22 dktrgrnstr~ live granular stretcher;
#X obj 297 306 dkphsrd~ \$0-grnstr 0.01;
#X connect 2 0 33 0;
#X connect 5 0 36 1;
#X connect 6 0 28 0;
#X connect 13 0 36 0;
#X connect 15 0 36 0;
#X connect 16 0 15 0;
#X connect 16 0 31 0;
#X connect 17 0 34 1;
#X connect 22 0 32 0;
#X connect 26 0 30 0;
#X connect 27 0 28 1;
#X connect 28 0 1 0;
#X connect 30 0 27 0;
#X connect 31 0 27 0;
#X connect 32 0 26 0;
#X connect 32 1 30 1;
#X connect 32 2 36 0;
#X connect 32 3 34 2;
#X connect 33 0 5 0;
#X connect 33 1 1 0;
#X connect 34 0 7 0;
#X connect 36 0 34 0;
