#N canvas 411 331 831 482 12;
#X obj 202 298 outlet~;
#X obj 129 174 *~ -1;
#X obj 119 200 +~ 1;
#X obj 208 192 min~;
#X obj 211 154 *~ 0.5;
#X obj 139 256 *~ 0.5;
#X obj 84 78 f \$1;
#X obj 153 29 loadbang;
#X obj 133 128 phasor~ 330;
#X obj 208 216 *~ 4;
#X obj 267 26 inlet~;
#X connect 1 0 2 0;
#X connect 2 0 5 0;
#X connect 3 0 9 0;
#X connect 4 0 3 0;
#X connect 5 0 3 1;
#X connect 6 0 8 0;
#X connect 7 0 6 0;
#X connect 8 0 1 0;
#X connect 8 0 4 0;
#X connect 9 0 0 0;
#X connect 10 0 8 0;
