#N canvas 488 146 1627 945 12;
#X obj 106 46 inlet;
#X text 155 46 trig;
#X text 521 171 rate;
#X text 636 214 start;
#X obj 110 159 array size \$1;
#X obj 591 276 min, f 11;
#X obj 758 209 t b f;
#X obj 756 293 -;
#X obj 593 215 f \$3;
#X obj 756 317 abs;
#X obj 251 261 * 1, f 9;
#X text 786 323 length;
#X obj 90 552 pack f f f, f 29;
#X obj 382 360 samplerate~;
#X obj 380 386 / 1000;
#X obj 471 177 f \$2;
#X obj 480 390 f;
#X obj 472 209 t f f, f 11;
#X obj 471 239 == 0;
#X obj 469 317 route 0 1;
#X obj 474 279 pack f f, f 12;
#X msg 516 352 1;
#X obj 106 235 * 0, f 15;
#X obj 391 453 * 1, f 9;
#X obj 94 380 t f f, f 14;
#X text 416 491 dur in ms;
#X obj 197 429 +;
#X text 230 504 end;
#X text 95 506 start;
#X msg 242 772 \$1;
#X obj 164 815 line~;
#X obj 547 814 del;
#X msg 133 756 \$2 \$3;
#X obj 870 220 f \$4;
#X obj 870 244 moses 1e-30, f 12;
#X msg 870 268 1;
#X obj 509 16 loadbang;
#X obj 340 26 inlet;
#X obj 238 162 symbol;
#X text 20 9 dktrigrd~ - triggered array reader;
#X obj 160 905 outlet~;
#X obj 409 910 outlet;
#X obj 649 907 outlet;
#X text 699 907 done;
#X text 1352 21 derek kwan;
#X text 1361 49 pdkvabs 2018;
#X text 1368 66 gpl v 3;
#X obj 296 492 /, f 14;
#X obj 254 315 t f f b, f 19;
#X obj 108 196 t f f, f 22;
#X text 475 906 dur in ms;
#X text 812 526 outlets: sig~ \, dur in ms \, done;
#X obj 108 124 t b b, f 59;
#X msg 598 771 stop;
#X obj 547 838 t b b, f 16;
#X obj 548 869 spigot 0, f 63;
#X text 810 487 args: array \, rate \, start \, end \, loop;
#X obj 506 95 t b b b b, f 87;
#X text 1030 194 loop;
#X obj 984 200 f \$5;
#X obj 150 712 t l l l, f 31;
#X msg 418 746 \$3;
#X obj 413 770 t f f, f 19;
#X obj 106 70 route bang stop;
#X text 759 175 end;
#X text 807 506 inlets: trig \, (set/rate/start/end/loop) \, array
symbol;
#X text 400 32 msgs;
#X obj 603 26 inlet;
#X msg 156 99 stop;
#X text 657 28 symbol inlet;
#X obj 341 56 route set rate start end loop, f 98;
#X obj 480 414 t f f, f 18;
#X obj 480 438 abs;
#X obj 94 588 list prepend, f 69;
#X obj 94 612 route 0 1, f 17;
#X obj 594 497 >= 0;
#X obj 104 656 t l l l, f 46;
#X msg 75 757 \$1 \$3;
#X msg 205 772 \$2;
#X text 226 611 0: backwards \, 1: forwards;
#X connect 0 0 63 0;
#X connect 4 0 49 0;
#X connect 5 0 22 1;
#X connect 6 0 5 0;
#X connect 6 0 7 0;
#X connect 6 1 7 1;
#X connect 6 1 5 1;
#X connect 7 0 9 0;
#X connect 8 0 7 0;
#X connect 8 0 5 0;
#X connect 9 0 10 1;
#X connect 10 0 48 0;
#X connect 12 0 73 0;
#X connect 13 0 14 0;
#X connect 14 0 23 0;
#X connect 15 0 17 0;
#X connect 16 0 71 0;
#X connect 17 0 18 0;
#X connect 17 1 20 1;
#X connect 18 0 20 0;
#X connect 19 0 16 0;
#X connect 19 1 21 0;
#X connect 20 0 19 0;
#X connect 21 0 16 0;
#X connect 22 0 24 0;
#X connect 23 0 47 1;
#X connect 24 0 12 0;
#X connect 24 1 26 0;
#X connect 26 0 12 1;
#X connect 29 0 30 0;
#X connect 30 0 40 0;
#X connect 31 0 54 0;
#X connect 32 0 30 0;
#X connect 33 0 34 0;
#X connect 34 0 35 0;
#X connect 34 1 6 0;
#X connect 35 0 6 0;
#X connect 36 0 57 0;
#X connect 37 0 70 0;
#X connect 38 0 4 1;
#X connect 47 0 12 2;
#X connect 48 0 26 1;
#X connect 48 1 47 0;
#X connect 48 2 13 0;
#X connect 49 0 22 0;
#X connect 49 1 10 0;
#X connect 52 0 4 0;
#X connect 52 1 53 0;
#X connect 53 0 31 0;
#X connect 54 0 55 0;
#X connect 54 1 42 0;
#X connect 55 0 12 0;
#X connect 57 0 15 0;
#X connect 57 1 8 0;
#X connect 57 2 33 0;
#X connect 57 3 59 0;
#X connect 59 0 55 1;
#X connect 60 0 32 0;
#X connect 60 1 29 0;
#X connect 60 2 61 0;
#X connect 61 0 62 0;
#X connect 62 0 41 0;
#X connect 62 1 31 0;
#X connect 63 0 52 0;
#X connect 63 1 68 0;
#X connect 67 0 38 0;
#X connect 68 0 30 0;
#X connect 68 0 53 0;
#X connect 70 0 38 0;
#X connect 70 1 16 0;
#X connect 70 2 8 0;
#X connect 70 3 6 0;
#X connect 70 4 59 0;
#X connect 71 0 72 0;
#X connect 71 1 75 0;
#X connect 72 0 23 1;
#X connect 73 0 74 0;
#X connect 74 0 76 0;
#X connect 74 1 60 0;
#X connect 75 0 73 1;
#X connect 76 0 77 0;
#X connect 76 1 78 0;
#X connect 76 2 61 0;
#X connect 77 0 30 0;
#X connect 78 0 30 0;
