#N canvas 579 141 1043 642 12;
#X obj 403 58 inlet;
#X obj 403 83 unpack f s;
#X obj 397 167 list prepend;
#X obj 397 192 list trim;
#X obj 658 386 t b f;
#X msg 646 414 60000;
#X obj 646 439 /;
#X obj 727 394 t b f;
#X msg 727 419 1000;
#X obj 727 444 /;
#X obj 226 513 *;
#X msg 338 356 1;
#X msg 373 385 1000;
#X obj 320 320 route msec ms sec min samp permin persec;
#X msg 428 391 60000;
#X msg 498 408 1;
#X obj 498 433 /;
#X obj 490 371 t b b;
#X obj 536 404 samplerate~;
#X obj 199 67 inlet;
#X obj 226 604 outlet;
#X text 220 100 query amt;
#X text 13 23 dkunit2ms;
#X text 6 62 ms calculator;
#X text 7 206 INLETS:;
#X text 2 232 query amt/tempo msg;
#X text 18 298 OUTLETS:;
#X text 18 326 result;
#X text 867 13 derek kwan 2017;
#X text 875 30 pdkm;
#X text 874 53 gpl v 3;
#X connect 0 0 1 0;
#X connect 1 0 2 0;
#X connect 1 1 2 1;
#X connect 2 0 3 0;
#X connect 3 0 13 0;
#X connect 4 0 5 0;
#X connect 4 1 6 1;
#X connect 5 0 6 0;
#X connect 6 0 10 1;
#X connect 7 0 8 0;
#X connect 7 1 9 1;
#X connect 8 0 9 0;
#X connect 9 0 10 1;
#X connect 10 0 20 0;
#X connect 11 0 10 1;
#X connect 12 0 10 1;
#X connect 13 0 11 0;
#X connect 13 1 11 0;
#X connect 13 2 12 0;
#X connect 13 3 14 0;
#X connect 13 4 17 0;
#X connect 13 5 4 0;
#X connect 13 6 7 0;
#X connect 14 0 10 1;
#X connect 15 0 16 0;
#X connect 16 0 10 1;
#X connect 17 0 15 0;
#X connect 17 1 18 0;
#X connect 18 0 16 1;
#X connect 19 0 10 0;
