#N canvas 568 165 789 754 10;
#X obj 226 212 random 2;
#X obj 271 276 random 2;
#X obj 271 298 * 2;
#X obj 265 326 - 1;
#X obj 213 341 * 1;
#X obj 265 348 spigot 1;
#X obj 141 537 t b b;
#X msg 178 571 0;
#X msg 141 559 1;
#X obj 223 234 t b f b;
#X msg 186 277 1;
#X obj 283 546 t b b;
#X msg 320 580 0;
#X msg 281 578 -1;
#X obj 155 395 f;
#X obj 186 366 t b f;
#X obj 45 650 outlet;
#X obj 460 208 f \$2;
#X obj 388 166 inlet;
#X obj 388 188 moses 0;
#X obj 421 208 + 1;
#X obj 460 233 moses 1;
#X obj 506 263 + 1;
#X msg 461 256 2;
#X text 460 174 in3/arg2 - stepsize max;
#X obj 165 261 + 1;
#X obj 119 231 moses 0;
#X obj 111 302 random 1;
#X obj 303 122 inlet;
#X obj 161 87 loadbang;
#X obj 157 127 t b b;
#X obj 130 449 + 0;
#X text 22 177 pick random value for init;
#X text 347 111 in2/arg1 - max value;
#X obj 236 105 inlet;
#X text 267 84 in1 - bang for output;
#X text 26 48 Derek Kwan 2016;
#X text 28 23 DKVANDRUNK - vanilla drunk random object;
#X obj 59 598 clip 0 1;
#X obj 120 208 f \$1;
#X obj 140 490 <= 0;
#X obj 144 516 sel 1;
#X obj 281 489 >= 1;
#X obj 285 524 sel 1;
#X connect 0 0 9 0;
#X connect 1 0 2 0;
#X connect 2 0 3 0;
#X connect 3 0 5 0;
#X connect 4 0 15 0;
#X connect 5 0 4 1;
#X connect 6 0 8 0;
#X connect 6 1 7 0;
#X connect 7 0 5 1;
#X connect 8 0 4 1;
#X connect 9 0 10 0;
#X connect 9 1 4 0;
#X connect 9 2 1 0;
#X connect 10 0 5 1;
#X connect 11 0 13 0;
#X connect 11 1 12 0;
#X connect 12 0 5 1;
#X connect 13 0 4 1;
#X connect 14 0 31 0;
#X connect 15 0 14 0;
#X connect 15 1 31 1;
#X connect 17 0 21 0;
#X connect 18 0 19 0;
#X connect 19 1 20 0;
#X connect 20 0 0 1;
#X connect 21 0 23 0;
#X connect 21 1 22 0;
#X connect 22 0 0 1;
#X connect 23 0 0 1;
#X connect 25 0 27 1;
#X connect 26 1 25 0;
#X connect 26 1 38 2;
#X connect 26 1 42 1;
#X connect 27 0 14 0;
#X connect 28 0 39 0;
#X connect 29 0 17 0;
#X connect 29 0 30 0;
#X connect 30 0 27 0;
#X connect 30 1 39 0;
#X connect 31 0 14 1;
#X connect 31 0 38 0;
#X connect 31 0 40 0;
#X connect 31 0 42 0;
#X connect 34 0 0 0;
#X connect 38 0 16 0;
#X connect 39 0 26 0;
#X connect 40 0 41 0;
#X connect 41 0 6 0;
#X connect 42 0 43 0;
#X connect 43 0 11 0;
