#N canvas 204 138 1271 863 12;
#X obj 153 472 * 0.001;
#X obj 153 447 samplerate~;
#X obj 98 494 /;
#X obj 80 400 t b b;
#X obj 255 163 env~ \$1;
#X obj 133 355 loadbang;
#X obj 102 106 inlet~;
#X obj 31 203 delwrite~ \$0-dkvancmp 500;
#X obj 85 442 f \$1;
#X obj 314 218 moses 100;
#X obj 256 188 moses 5;
#X msg 318 256 1;
#X obj 317 379 pack f 5;
#N canvas 525 312 690 501 complim 0;
#X obj 76 31 inlet indb;
#X text 172 29 incoming signal's db;
#X obj 95 99 -;
#X text 132 102 dist from ref point;
#X obj 95 124 t f f;
#X obj 96 164 /;
#X obj 540 31 inlet reference;
#X obj 385 33 inlet factor;
#X text 360 74 compression/limiter factor;
#X obj 102 209 -;
#X text 134 164 scale by factor;
#X text 161 192 amt to increase/dec (dist of scaled from diff from
reference);
#X obj 102 234 + 100;
#X text 163 240 add to full scale db;
#X obj 96 269 dbtorms;
#X obj 96 315 outlet;
#X text 162 296 convert to rms for mult amt;
#X connect 0 0 2 0;
#X connect 2 0 4 0;
#X connect 4 0 5 0;
#X connect 4 1 9 1;
#X connect 5 0 9 0;
#X connect 6 0 2 1;
#X connect 7 0 5 1;
#X connect 9 0 12 0;
#X connect 12 0 14 0;
#X connect 14 0 15 0;
#X restore 397 300 pd complim;
#X text 282 351 release time;
#X text 356 481 attack time;
#X obj 334 506 pack f 5;
#N canvas 525 312 690 501 complim 0;
#X obj 76 31 inlet indb;
#X text 172 29 incoming signal's db;
#X obj 95 99 -;
#X text 132 102 dist from ref point;
#X obj 95 124 t f f;
#X obj 96 164 /;
#X obj 540 31 inlet reference;
#X obj 385 33 inlet factor;
#X text 360 74 compression/limiter factor;
#X obj 102 209 -;
#X text 134 164 scale by factor;
#X text 161 192 amt to increase/dec (dist of scaled from diff from
reference);
#X obj 102 234 + 100;
#X text 163 240 add to full scale db;
#X obj 96 269 dbtorms;
#X obj 96 315 outlet;
#X text 162 296 convert to rms for mult amt;
#X connect 0 0 2 0;
#X connect 2 0 4 0;
#X connect 4 0 5 0;
#X connect 4 1 9 1;
#X connect 5 0 9 0;
#X connect 6 0 2 1;
#X connect 7 0 5 1;
#X connect 9 0 12 0;
#X connect 12 0 14 0;
#X connect 14 0 15 0;
#X restore 225 257 pd complim;
#X text 89 302 below thresh/compress up;
#X text 433 367 above thresh/limit down;
#X obj 270 538 line~;
#X obj 216 665 *~;
#X text 59 560 delay read time;
#X obj 65 590 delread4~ \$0-dkvancmp;
#X obj 216 690 outlet~;
#X msg 365 134 5;
#X obj 512 44 inlet hithresh;
#X msg 517 137 100;
#X obj 365 159 f;
#X obj 517 162 f;
#X obj 654 51 inlet lofactor;
#X obj 659 119 moses 1;
#X msg 659 144 2;
#X obj 659 169 f;
#X obj 794 115 moses 1;
#X msg 794 140 2;
#X obj 794 165 f;
#X obj 789 47 inlet hifactor;
#X obj 947 47 inlet attms;
#X obj 952 115 moses 1;
#X msg 952 140 5;
#X obj 953 171 f;
#X obj 1060 51 inlet relms;
#X obj 1065 119 moses 1;
#X msg 1065 144 5;
#X obj 1065 169 f;
#X text 790 412 based on pd-tutorial's 3.9.1.2;
#X text 791 389 DKVANCOMP~ - vanilla compressor/limiter;
#X obj 374 444 sqrt;
#X obj 270 563 *~;
#X text 319 577 squared amp adjustment;
#X obj 409 4 loadbang;
#X obj 360 42 inlet lowthresh;
#X obj 360 67 f \$2;
#X obj 512 69 f \$3;
#X obj 654 76 f \$4;
#X obj 789 72 f \$5;
#X obj 365 111 moses 1e-20;
#X obj 517 112 moses 1e-20;
#X obj 947 72 f \$6;
#X obj 1060 76 f \$7;
#X text 802 533 a1/(i none): analysis size in samps (required);
#X text 804 488 args/inlets (* defaults):;
#X text 803 562 a2/i2: low threshold in db (*5);
#X text 802 589 a3/i3: hi threshold in db (*100);
#X text 799 615 a4/i4: compression/upscaling factor (*2);
#X text 798 644 a5/i5: limiter/downscaling factor (*2);
#X text 799 678 a6/i6: attack time in ms (*5);
#X text 800 711 a7/i7: release time in ms (*5);
#X text 801 511 (a none)/i1: signal~ input;
#X text 803 767 outlet~: wet signal;
#X connect 0 0 2 1;
#X connect 1 0 0 0;
#X connect 2 0 23 0;
#X connect 3 0 8 0;
#X connect 3 1 1 0;
#X connect 4 0 10 0;
#X connect 5 0 3 0;
#X connect 6 0 4 0;
#X connect 6 0 7 0;
#X connect 8 0 2 0;
#X connect 9 0 11 0;
#X connect 9 1 13 0;
#X connect 10 0 17 0;
#X connect 10 1 9 0;
#X connect 11 0 12 0;
#X connect 12 0 20 0;
#X connect 13 0 48 0;
#X connect 16 0 20 0;
#X connect 17 0 48 0;
#X connect 20 0 49 0;
#X connect 20 0 49 1;
#X connect 21 0 24 0;
#X connect 23 0 21 0;
#X connect 25 0 28 0;
#X connect 26 0 54 0;
#X connect 27 0 29 0;
#X connect 28 0 10 1;
#X connect 28 0 17 2;
#X connect 29 0 9 1;
#X connect 29 0 13 2;
#X connect 30 0 55 0;
#X connect 31 0 32 0;
#X connect 31 1 33 0;
#X connect 32 0 33 0;
#X connect 33 0 17 1;
#X connect 34 0 35 0;
#X connect 34 1 36 0;
#X connect 35 0 36 0;
#X connect 36 0 13 1;
#X connect 37 0 56 0;
#X connect 38 0 59 0;
#X connect 39 0 40 0;
#X connect 39 1 41 0;
#X connect 40 0 41 0;
#X connect 41 0 16 1;
#X connect 42 0 60 0;
#X connect 43 0 44 0;
#X connect 43 1 45 0;
#X connect 44 0 45 0;
#X connect 45 0 12 1;
#X connect 48 0 16 0;
#X connect 49 0 21 1;
#X connect 51 0 53 0;
#X connect 51 0 54 0;
#X connect 51 0 55 0;
#X connect 51 0 56 0;
#X connect 51 0 59 0;
#X connect 51 0 60 0;
#X connect 51 0 11 0;
#X connect 52 0 53 0;
#X connect 53 0 57 0;
#X connect 54 0 58 0;
#X connect 55 0 31 0;
#X connect 56 0 34 0;
#X connect 57 0 25 0;
#X connect 57 1 28 0;
#X connect 58 0 27 0;
#X connect 58 1 29 0;
#X connect 59 0 39 0;
#X connect 60 0 43 0;
