#N canvas 468 181 554 331 12;
#X obj 159 95 inlet;
#X obj 274 196 + 1;
#X obj 219 256 /;
#X obj 232 196 f 0;
#X obj 173 195 + 1;
#X obj 159 120 t b f b;
#X obj 133 192 f 0;
#X obj 301 96 inlet;
#X obj 301 121 bang;
#X msg 293 148 0;
#X text 356 101 reset;
#X text 104 111 input;
#X obj 219 281 outlet;
#X text 7 8 DKVAVG: vanilla averager;
#X text 396 9 Derek Kwan \, 2016;
#X text 310 198 counter;
#X text 36 191 accumulator;
#X connect 0 0 5 0;
#X connect 1 0 2 1;
#X connect 1 0 3 1;
#X connect 2 0 12 0;
#X connect 3 0 1 0;
#X connect 4 0 6 1;
#X connect 4 0 2 0;
#X connect 5 0 6 0;
#X connect 5 1 4 1;
#X connect 5 2 3 0;
#X connect 6 0 4 0;
#X connect 7 0 8 0;
#X connect 8 0 9 0;
#X connect 9 0 3 1;
#X connect 9 0 6 1;
#X connect 9 0 12 0;
