#N canvas 270 267 1045 542 12;
#X obj 160 123 inlet;
#X obj 247 191 delay 25;
#X obj 280 215 t b b;
#X obj 302 309 f;
#X obj 344 311 + 1;
#X msg 305 362 0;
#X msg 347 362 1;
#X obj 312 385 change;
#X obj 312 407 sel 1;
#X obj 334 115 moses 0;
#X obj 341 87 f \$2;
#X obj 253 101 f \$1;
#X obj 243 124 moses 0;
#X obj 329 169 f;
#X obj 329 202 / 4;
#X obj 333 142 t b f;
#X obj 159 191 t b b;
#X obj 408 122 - 1;
#X msg 316 277 0;
#X obj 158 147 t b b;
#X obj 441 241 spigot;
#X msg 466 209 0;
#X msg 515 208 1;
#X obj 312 341 moses 3;
#X obj 177 287 bang;
#X obj 132 333 outlet;
#X obj 271 155 t b f;
#X obj 259 47 inlet;
#X obj 381 36 inlet;
#X obj 187 44 loadbang;
#X text 35 32 DEREK X KWAN \, 2016;
#X text 458 9 gives multiple evenly-spaced bangs at a given tempo;
#X text 466 65 args: 1 tempo of larger bang to subdivide \, 2 bang
multiplier;
#X text 458 116 inlets: 1 incoming bang \, 2 tempo of larger bang \,
3 bang multiplier;
#X text 468 157 outlet: bang;
#X text 27 9 DKVANMBANG: bang multiplier;
#X connect 0 0 19 0;
#X connect 1 0 2 0;
#X connect 2 0 3 0;
#X connect 2 1 20 0;
#X connect 3 0 4 0;
#X connect 3 0 23 0;
#X connect 4 0 3 1;
#X connect 5 0 7 0;
#X connect 6 0 7 0;
#X connect 7 0 8 0;
#X connect 8 0 21 0;
#X connect 9 1 17 0;
#X connect 9 1 15 0;
#X connect 10 0 9 0;
#X connect 11 0 12 0;
#X connect 12 1 26 0;
#X connect 13 0 14 0;
#X connect 14 0 1 1;
#X connect 15 0 13 0;
#X connect 15 1 14 1;
#X connect 16 0 1 0;
#X connect 16 0 24 0;
#X connect 16 1 3 0;
#X connect 17 0 23 1;
#X connect 18 0 3 1;
#X connect 19 0 16 0;
#X connect 19 1 18 0;
#X connect 19 1 5 0;
#X connect 19 1 22 0;
#X connect 20 0 1 0;
#X connect 20 0 24 0;
#X connect 21 0 20 1;
#X connect 22 0 20 1;
#X connect 23 0 5 0;
#X connect 23 1 6 0;
#X connect 24 0 25 0;
#X connect 26 0 10 0;
#X connect 26 1 13 1;
#X connect 27 0 11 0;
#X connect 28 0 10 0;
#X connect 29 0 11 0;
