#N canvas 237 177 1057 583 10;
#X obj 250 108 inlet~;
#X obj 263 226 delwrite~ \$0-voice2 1000;
#X obj 224 297 delwrite~ \$0-voice3 1000;
#X obj 290 175 delwrite~ \$0-voice1 1000;
#X obj 581 272 +~ 0.33;
#X obj 656 273 +~ 0.66;
#X obj 522 314 cos~;
#X obj 522 336 *~ 0.5;
#X obj 522 358 +~ 0.5;
#X obj 581 294 wrap~;
#X obj 657 304 wrap~;
#X obj 585 320 cos~;
#X obj 585 342 *~ 0.5;
#X obj 585 364 +~ 0.5;
#X obj 659 330 cos~;
#X obj 659 352 *~ 0.5;
#X obj 659 374 +~ 0.5;
#X obj 484 425 vd~ \$0-voice1;
#X obj 607 432 vd~ \$0-voice2;
#X obj 696 139 moses 0;
#X obj 699 106 f \$2;
#X obj 713 435 vd~ \$0-voice3;
#X obj 824 236 f \$3;
#X obj 805 292 clip 0 1;
#X obj 484 447 *~ 0.5;
#X obj 607 454 *~ 0.5;
#X obj 713 457 *~ 0.5;
#X obj 570 104 inlet;
#X obj 705 73 inlet;
#X obj 837 173 inlet;
#X obj 561 224 phasor~ \$1;
#X obj 491 503 *~ 0.5;
#X obj 892 246 inlet;
#X obj 390 496 *~ 1;
#X obj 447 552 outlet~;
#X text 278 91 signal;
#X text 584 82 speed;
#X text 733 56 depth;
#X text 852 153 fb;
#X text 900 224 dry;
#X text 979 242 wet;
#X text 37 36 DEREK KWAN 2016;
#X text 44 137 in3/ arg2 - depth;
#X text 43 118 in2/arg1 - speed;
#X text 43 92 in1 - signal;
#X text 49 158 in4/ arg3 - fb;
#X obj 841 49 loadbang;
#X text 34 9 DKVANPHS~ - vanilla phaser/chorus;
#X obj 891 307 f \$4;
#X obj 891 329 sel 0;
#X msg 891 351 1;
#X obj 892 268 clip 0 1;
#X obj 970 328 f \$4;
#X obj 970 350 sel 0;
#X msg 970 372 1;
#X obj 971 291 clip 0 1;
#X obj 980 261 inlet;
#X text 56 178 in5/arg4 - dry;
#X text 61 197 in6/arg5 - wet;
#X connect 0 0 1 0;
#X connect 0 0 2 0;
#X connect 0 0 3 0;
#X connect 0 0 33 0;
#X connect 4 0 9 0;
#X connect 5 0 10 0;
#X connect 6 0 7 0;
#X connect 7 0 8 0;
#X connect 8 0 17 0;
#X connect 9 0 11 0;
#X connect 10 0 14 0;
#X connect 11 0 12 0;
#X connect 12 0 13 0;
#X connect 13 0 18 0;
#X connect 14 0 15 0;
#X connect 15 0 16 0;
#X connect 16 0 21 0;
#X connect 17 0 24 0;
#X connect 18 0 25 0;
#X connect 19 1 7 1;
#X connect 19 1 8 1;
#X connect 19 1 12 1;
#X connect 19 1 13 1;
#X connect 19 1 15 1;
#X connect 19 1 16 1;
#X connect 20 0 19 0;
#X connect 21 0 26 0;
#X connect 22 0 23 0;
#X connect 23 0 24 1;
#X connect 23 0 25 1;
#X connect 23 0 26 1;
#X connect 24 0 3 0;
#X connect 24 0 31 0;
#X connect 25 0 1 0;
#X connect 25 0 31 0;
#X connect 26 0 2 0;
#X connect 26 0 31 0;
#X connect 27 0 30 0;
#X connect 28 0 20 0;
#X connect 29 0 22 0;
#X connect 30 0 4 0;
#X connect 30 0 5 0;
#X connect 30 0 6 0;
#X connect 31 0 34 0;
#X connect 32 0 51 0;
#X connect 33 0 34 0;
#X connect 46 0 20 0;
#X connect 46 0 22 0;
#X connect 46 0 48 0;
#X connect 46 0 52 0;
#X connect 48 0 49 0;
#X connect 49 0 50 0;
#X connect 50 0 33 1;
#X connect 51 0 33 1;
#X connect 52 0 53 0;
#X connect 53 0 54 0;
#X connect 54 0 31 1;
#X connect 55 0 31 1;
#X connect 56 0 55 0;
