#N canvas 336 384 1033 522 10;
#X obj 460 59 loadbang;
#X msg 239 130 0;
#X obj 367 60 inlet;
#X obj 179 58 inlet;
#X obj 182 154 f;
#X obj 180 109 bang;
#X obj 255 181 + 1;
#X obj 328 184 moses 0;
#X obj 331 143 moses 1e-05;
#X obj 552 153 moses 1e-06;
#X obj 277 63 inlet;
#X obj 184 181 t f f;
#X obj 162 393 outlet;
#X text 266 40 2 count up to;
#X text 123 32 1 incoming bangs;
#X text 384 41 3 stepsize;
#X text 653 53 in 1: incoming bangs;
#X text 653 71 in2/arg1: count up to;
#X obj 338 117 f \$2;
#X obj 551 115 f \$1;
#X obj 551 179 moses 0;
#X text 422 150 filter out zero;
#X text 347 261 figure out sign;
#X text 21 15 DKVANCTR - DXK vanilla counter;
#X text 534 12 Derek Kwan - 2016;
#X text 661 87 in3/arg2: stepsize;
#X text 672 106 in4: reset;
#X obj 540 60 inlet;
#X text 536 38 4 reset;
#X obj 308 404 outlet;
#X text 671 182 out1: count;
#X text 164 411 count;
#X text 308 426 count end;
#N canvas 37 86 682 535 sign 0;
#X text 144 285 lim;
#X text 267 333 pos spigot;
#X obj 146 261 outlet;
#X obj 284 300 outlet;
#X obj 396 289 outlet;
#X text 393 328 neg spigot;
#X obj 260 10 inlet;
#X obj 242 36 moses 0;
#X obj 206 149 + 1;
#X obj 141 132 - 1;
#X text 249 155 if lim > 0 \, need one step below lim to reset to 0
;
#X text 256 175 else need one step above lim to reset to 0;
#X msg 260 243 1;
#X msg 392 260 0;
#X obj 216 57 t f b;
#X obj 291 68 t f b;
#X msg 346 226 0;
#X msg 418 230 1;
#X connect 6 0 7 0;
#X connect 7 0 14 0;
#X connect 7 1 15 0;
#X connect 8 0 2 0;
#X connect 9 0 2 0;
#X connect 12 0 3 0;
#X connect 13 0 4 0;
#X connect 14 0 8 0;
#X connect 14 1 16 0;
#X connect 14 1 17 0;
#X connect 15 0 9 0;
#X connect 15 1 12 0;
#X connect 15 1 13 0;
#X connect 16 0 3 0;
#X connect 17 0 4 0;
#X restore 284 262 pd sign;
#N canvas 99 614 450 300 lim 0;
#X obj 118 128 spigot;
#X obj 193 128 spigot;
#X obj 101 46 >= 15;
#X obj 166 47 <= 15;
#X obj 142 9 inlet;
#X obj 165 163 outlet;
#X obj 291 20 inlet;
#X obj 350 24 inlet;
#X obj 216 9 inlet;
#X text 99 219 resets counter back to 0 upon reaching limit;
#X obj 101 68 sel 1;
#X obj 166 69 sel 1;
#X connect 0 0 5 0;
#X connect 1 0 5 0;
#X connect 2 0 10 0;
#X connect 3 0 11 0;
#X connect 4 0 2 0;
#X connect 4 0 3 0;
#X connect 6 0 0 1;
#X connect 7 0 1 1;
#X connect 8 0 3 1;
#X connect 8 0 2 1;
#X connect 10 0 0 0;
#X connect 11 0 1 0;
#X restore 248 327 pd lim;
#X obj 231 359 sel 0;
#X obj 228 396 outlet;
#X text 221 420 count beg;
#X text 673 225 out3: count finished;
#X text 674 202 out2: count started;
#X connect 0 0 1 0;
#X connect 0 0 18 0;
#X connect 0 0 19 0;
#X connect 1 0 4 1;
#X connect 2 0 1 0;
#X connect 3 0 5 0;
#X connect 4 0 6 0;
#X connect 4 0 11 0;
#X connect 5 0 4 0;
#X connect 6 0 4 1;
#X connect 7 0 6 1;
#X connect 8 0 7 0;
#X connect 8 1 6 1;
#X connect 9 0 20 0;
#X connect 9 1 33 0;
#X connect 10 0 33 0;
#X connect 11 0 34 0;
#X connect 11 1 12 0;
#X connect 11 1 35 0;
#X connect 18 0 8 0;
#X connect 19 0 9 0;
#X connect 20 0 33 0;
#X connect 27 0 1 0;
#X connect 33 0 34 1;
#X connect 33 1 34 2;
#X connect 33 2 34 3;
#X connect 34 0 29 0;
#X connect 34 0 1 0;
#X connect 35 0 36 0;
