#N canvas 363 128 1481 898 12;
#X obj 144 81 inlet;
#X obj 292 79 inlet;
#X obj 433 81 inlet;
#X obj 677 89 inlet;
#X text 201 79 attack(ms);
#X text 342 82 decay(ms);
#X text 719 85 release (ms);
#X obj 820 87 inlet;
#X text 867 86 dur;
#N canvas 426 269 1406 946 dkadsr-env 0;
#X obj 135 280 moses 1e-20;
#X obj 254 333 pack f f;
#X text 324 322 attack;
#X obj 254 357 t l l;
#X obj 391 469 del;
#X obj 388 506 f;
#X text 423 496 decay;
#X obj 280 415 unpack f f, f 17;
#X obj 296 503 * 1;
#X text 308 475 sustain;
#X obj 355 607 f;
#X text 392 604 release;
#X msg 135 304 bang;
#X obj 129 225 inlet;
#X text 187 224 note level/on (> 0) \, off (<= 0);
#X obj 474 207 inlet;
#X obj 559 207 inlet;
#X obj 643 208 inlet;
#X obj 718 211 inlet;
#X obj 262 736 outlet~;
#X msg 357 630 0 \$1;
#X obj 262 712 line~;
#X obj 294 563 pack f f;
#X connect 0 0 12 0;
#X connect 0 1 1 0;
#X connect 1 0 3 0;
#X connect 3 0 21 0;
#X connect 3 1 7 0;
#X connect 4 0 5 0;
#X connect 5 0 22 1;
#X connect 7 0 8 0;
#X connect 7 1 4 0;
#X connect 8 0 22 0;
#X connect 10 0 20 0;
#X connect 12 0 10 0;
#X connect 13 0 0 0;
#X connect 15 0 1 1;
#X connect 16 0 5 1;
#X connect 17 0 8 1;
#X connect 18 0 10 1;
#X connect 20 0 21 0;
#X connect 21 0 19 0;
#X connect 22 0 21 0;
#X restore 154 630 pd dkadsr-env;
#X obj 18 84 inlet;
#X obj 162 339 t f f;
#X obj 226 384 t f f;
#X obj 162 315 max 1e-30;
#X obj 226 360 max 1e-30;
#X obj 331 463 max 1e-30;
#X obj 808 133 s \$0-dkadsr-dur;
#X obj 965 144 s \$0-dkadsr-lvl;
#X obj 940 89 inlet;
#X text 994 86 level;
#N canvas 906 236 911 520 dkadsr-msgparse 0;
#X obj 30 28 inlet;
#X obj 458 421 s \$0-dkadsr-dur;
#X obj 605 416 s \$0-dkadsr-lvl;
#X obj 312 285 outlet;
#X text 366 288 attack;
#X obj 438 295 outlet;
#X text 494 297 decay;
#X obj 552 299 outlet;
#X text 614 297 sustain;
#X obj 688 290 outlet;
#X text 749 293 release;
#X obj 418 208 unpack f f f f f f, f 62;
#X obj 26 448 outlet;
#X obj 231 437 outlet;
#X text 290 439 note on/off;
#X text 40 421 autotrig;
#X msg 17 201 1;
#X msg 90 339 0;
#X obj 15 117 route bang float dur level lvl attack att decay dec sustain
sus release rel list stop trig, f 112;
#X obj 701 157 t b f;
#X connect 0 0 18 0;
#X connect 11 0 3 0;
#X connect 11 1 5 0;
#X connect 11 2 7 0;
#X connect 11 3 9 0;
#X connect 11 4 1 0;
#X connect 11 5 2 0;
#X connect 16 0 12 0;
#X connect 17 0 12 0;
#X connect 18 0 16 0;
#X connect 18 1 13 0;
#X connect 18 2 1 0;
#X connect 18 3 2 0;
#X connect 18 4 2 0;
#X connect 18 5 3 0;
#X connect 18 6 3 0;
#X connect 18 7 5 0;
#X connect 18 8 5 0;
#X connect 18 9 7 0;
#X connect 18 10 7 0;
#X connect 18 11 9 0;
#X connect 18 12 9 0;
#X connect 18 13 11 0;
#X connect 18 14 17 0;
#X connect 18 15 19 0;
#X connect 19 0 16 0;
#X connect 19 1 1 0;
#X restore 26 217 pd dkadsr-msgparse;
#N canvas 617 360 1032 617 dkadsr-args 0;
#X obj 104 67 loadbang;
#X obj 104 91 t b b b b b b, f 107;
#X obj 105 237 moses 1e-30;
#X msg 105 261 5;
#X obj 105 364 pack f f f f f f, f 103;
#X text 186 55 attack decay sustain release dur level;
#X obj 106 206 f \$1;
#X obj 247 193 f \$2;
#X obj 247 217 moses 1e-30;
#X msg 247 241 5;
#X obj 391 195 f \$3;
#X obj 391 219 moses 1e-30;
#X msg 391 243 1;
#X obj 534 192 f \$4;
#X obj 534 216 moses 1e-30;
#X msg 534 240 5;
#X obj 689 197 f \$5;
#X obj 689 221 moses 1e-30;
#X obj 811 188 f \$6;
#X obj 811 212 moses 1e-30;
#X msg 811 236 1;
#X obj 105 388 outlet;
#X msg 689 245 125;
#X connect 0 0 1 0;
#X connect 1 0 6 0;
#X connect 1 1 7 0;
#X connect 1 2 10 0;
#X connect 1 3 13 0;
#X connect 1 4 16 0;
#X connect 1 5 18 0;
#X connect 2 0 3 0;
#X connect 2 1 4 0;
#X connect 3 0 4 0;
#X connect 4 0 21 0;
#X connect 6 0 2 0;
#X connect 7 0 8 0;
#X connect 8 0 9 0;
#X connect 8 1 4 1;
#X connect 9 0 4 1;
#X connect 10 0 11 0;
#X connect 11 0 12 0;
#X connect 11 1 4 2;
#X connect 12 0 4 2;
#X connect 13 0 14 0;
#X connect 14 0 15 0;
#X connect 14 1 4 3;
#X connect 15 0 4 3;
#X connect 16 0 17 0;
#X connect 17 0 22 0;
#X connect 17 1 4 4;
#X connect 18 0 19 0;
#X connect 19 0 20 0;
#X connect 19 1 4 5;
#X connect 20 0 4 5;
#X connect 22 0 4 4;
#X restore 52 163 pd dkadsr-args;
#N canvas 1328 240 1055 690 dkadsr-autotrig 0;
#X obj 285 92 inlet;
#X text 340 92 attack;
#X obj 437 85 inlet;
#X text 491 82 decay;
#X obj 640 89 inlet;
#X text 693 86 release;
#X obj 32 95 inlet;
#X text 94 83 autotrig;
#X text 130 184 dur;
#X obj 32 266 max;
#X text 100 411 level;
#X obj 32 290 t f b;
#X obj 31 432 del;
#X msg 31 456 0;
#X obj 96 478 max 1e-30;
#X obj 26 201 v \$0-dkadsr-dur;
#X obj 83 435 v \$0-dkadsr-lvl;
#X obj 261 159 pack f f f, f 41;
#X obj 437 109 t b f;
#X obj 640 113 t b f f;
#X obj 29 569 outlet;
#X obj 29 356 - 0;
#X obj 292 191 unpack f f f;
#X obj 291 250 +;
#X obj 291 274 +;
#X obj 32 119 route 1 0, f 26;
#X connect 0 0 17 0;
#X connect 2 0 18 0;
#X connect 4 0 19 0;
#X connect 6 0 25 0;
#X connect 9 0 11 0;
#X connect 11 0 21 0;
#X connect 11 1 16 0;
#X connect 12 0 13 0;
#X connect 13 0 20 0;
#X connect 14 0 20 0;
#X connect 15 0 9 0;
#X connect 16 0 14 0;
#X connect 17 0 22 0;
#X connect 18 0 17 0;
#X connect 18 1 17 1;
#X connect 19 0 17 0;
#X connect 19 1 17 2;
#X connect 19 2 21 1;
#X connect 21 0 12 0;
#X connect 22 0 23 0;
#X connect 22 1 23 1;
#X connect 22 2 24 1;
#X connect 23 0 24 0;
#X connect 24 0 9 1;
#X connect 25 0 15 0;
#X connect 25 1 13 0;
#X restore 102 584 pd dkadsr-autotrig;
#X obj 331 487 t f f;
#X obj 154 654 outlet~;
#X text 627 260 in1:;
#X text 683 257 bang - autotrig;
#X text 686 274 dur (f) - length of autotrig;
#X text 686 299 level/lvl (f) - level of autotrig;
#X text 677 319 attack/att \, decay/dec \, sustain/sus \, release/rel
(f);
#X text 1045 319 - env params;
#X text 955 343 (sustain is * input level);
#X text 485 86 sustain (* input level);
#X text 682 372 float - > 0 - trigger env with level \, <= 0 trigger
release;
#X text 682 393 list - adsr + dur + level;
#X text 679 414 stop - stop autotrig;
#X text 624 449 rest of inlets: attack \, decay \, sustain \, release
\, dur \, level;
#X text 627 238 INLETS:;
#X text 630 527 ARGS: (defaults in paren):;
#X text 1147 39 derek kwan;
#X text 632 547 attack(5) \, decay(5) \, sustain(1) \, release(5) \,
dur(125) \, level(1);
#X text 1150 62 pdkvabs 2018;
#X text 1151 84 gpl v 3;
#X text 35 29 dkvanadsr~ - vanilla adsr envelope;
#X obj 293 422 max 0;
#X connect 0 0 13 0;
#X connect 1 0 14 0;
#X connect 2 0 44 0;
#X connect 3 0 15 0;
#X connect 7 0 16 0;
#X connect 9 0 24 0;
#X connect 10 0 20 0;
#X connect 11 0 22 1;
#X connect 11 1 9 1;
#X connect 12 0 22 2;
#X connect 12 1 9 2;
#X connect 13 0 11 0;
#X connect 14 0 12 0;
#X connect 15 0 23 0;
#X connect 18 0 17 0;
#X connect 20 0 22 0;
#X connect 20 1 9 0;
#X connect 20 2 13 0;
#X connect 20 3 14 0;
#X connect 20 4 44 0;
#X connect 20 5 15 0;
#X connect 21 0 20 0;
#X connect 22 0 9 0;
#X connect 23 0 22 3;
#X connect 23 1 9 4;
#X connect 44 0 9 3;
