#N canvas 470 496 1189 459 12;
#X obj 348 58 inlet~;
#X obj 516 308 *~ 0.9;
#X obj 383 375 +~;
#X obj 347 259 *~ -0.9;
#X obj 383 416 outlet~;
#X text 15 139 outlets: signal;
#X obj 558 25 inlet;
#X text 15 109 inlet: sig~ \, gain coeff \, other;
#X obj 557 124 * -1;
#X text 565 89 gain coeff;
#X obj 712 18 inlet;
#X obj 712 83 route ms samp coeff;
#X obj 824 162 samplerate~;
#X obj 824 187 / 1000;
#X text 922 190 samp to ms;
#X obj 764 130 t f b;
#X text 16 171 args: gain/maxdelaytime(ms)/delaytime(ms);
#X obj 354 126 delwrite~ \$0-dkvap \$2;
#X obj 520 209 delread~ \$0-dkvap \$3;
#X text 781 32 other;
#X obj 426 39 loadbang;
#X obj 426 64 f \$1;
#X text 11 37 y[n] = b0*x[n]+x[n-M]-am*y[n-M];
#X text 12 60 b0 = -am;
#X text 985 8 derek kwan 2017;
#X text 986 37 gpl v 3;
#X text 985 64 pdkvabs;
#X text 13 15 dkvapcomb~ - vanilla allpass from two combs;
#X obj 776 213 /;
#X connect 0 0 1 0;
#X connect 0 0 17 0;
#X connect 1 0 2 1;
#X connect 2 0 4 0;
#X connect 3 0 2 0;
#X connect 3 0 17 0;
#X connect 6 0 8 0;
#X connect 8 0 1 1;
#X connect 8 0 3 1;
#X connect 10 0 11 0;
#X connect 11 0 18 0;
#X connect 11 1 15 0;
#X connect 11 2 8 0;
#X connect 12 0 13 0;
#X connect 13 0 28 1;
#X connect 15 0 28 0;
#X connect 15 1 12 0;
#X connect 18 0 2 1;
#X connect 18 0 3 0;
#X connect 20 0 21 0;
#X connect 21 0 8 0;
#X connect 28 0 18 0;
