#N canvas 591 178 1066 712 12;
#X obj 138 165 inlet~;
#X obj 138 231 cpole~;
#X obj 138 298 cpole~;
#X obj 138 351 czero~;
#X obj 138 406 czero~;
#X obj 137 464 outlet~;
#X text 588 153 H(z) = (b0 + b1*z^-1 + b2*z^-2)/(1 + a1*z^-1 + a2*z^-2)
;
#X text 586 181 y[n] = b0*x[n] + b1*x[n-1] + b2*x[n-2] - a1*y[n-1]
- a2*y[n-2];
#X obj 251 31 inlet~;
#X obj 371 429 biquad~;
#X obj 384 27 inlet;
#X text 311 28 a1;
#X text 436 26 a2;
#X obj 508 31 inlet;
#X text 566 34 b0;
#X obj 669 28 inlet;
#X text 718 24 b1;
#X obj 794 27 inlet;
#X text 843 24 b2;
#N canvas 66 346 932 548 \$0-polecalc 0;
#X text 163 23 a1;
#X text 483 26 a2;
#X text 592 39 from the JOS filter book;
#X text 573 88 z = -a1/2 +- sqrt( (a1/2)^2 - a2 );
#X text 551 120 quad eq: (-b +- sqrt (b^2 - 4ac))/2*a;
#X text 552 147 a0 = a = 1 \, a1 = b \, a2 = c;
#X obj 104 23 inlet~;
#X obj 429 26 inlet~;
#X obj 102 90 *~ -0.5;
#X obj 101 162 *~;
#X text 135 144 (-a1/2)^2 = (a1/2)^2;
#X obj 396 222 -~;
#X text 429 225 discriminant so if < 0 \, imaginary \, else real;
#X connect 6 0 8 0;
#X connect 7 0 11 1;
#X connect 8 0 9 0;
#X connect 8 0 9 1;
#X connect 9 0 11 0;
#X restore 298 246 pd \$0-polecalc;
#X text 11 13 dkvbqar~;
#X text 6 34 vanilla biquad at audio rate;
#X connect 0 0 1 0;
#X connect 1 0 2 0;
#X connect 2 0 3 0;
#X connect 3 0 4 0;
#X connect 4 0 5 0;
