#N canvas 578 272 1209 462 12;
#X obj 413 53 inlet~;
#X obj 383 375 +~;
#X obj 383 416 outlet~;
#X text 15 139 outlets: signal;
#X obj 558 25 inlet;
#X text 15 109 inlet: sig~ \, gain coeff \, other;
#X obj 712 18 inlet;
#X obj 712 83 route ms samp coeff;
#X obj 776 213 *;
#X obj 824 162 samplerate~;
#X obj 824 187 / 1000;
#X text 922 190 samp to ms;
#X obj 764 130 t f b;
#X text 16 171 args: gain/maxdelaytime(ms)/delaytime(ms);
#X text 781 32 other;
#X text 985 8 derek kwan 2017;
#X text 986 37 gpl v 3;
#X text 985 64 pdkvabs;
#X text 11 37 y[n] = x[n]+fb*y[n-M];
#X obj 354 126 delwrite~ \$0-dkfbc \$2;
#X obj 520 209 delread~ \$0-dkfbc \$3;
#X obj 516 308 *~ \$1;
#X text 572 63 gain coeff;
#X text 13 15 dkvfbcomb~ - vanilla feedbacm comb filter;
#X connect 0 0 19 0;
#X connect 0 0 1 0;
#X connect 1 0 2 0;
#X connect 4 0 21 1;
#X connect 6 0 7 0;
#X connect 7 0 20 0;
#X connect 7 1 12 0;
#X connect 7 2 21 1;
#X connect 8 0 20 0;
#X connect 9 0 10 0;
#X connect 10 0 8 1;
#X connect 12 0 8 0;
#X connect 12 1 9 0;
#X connect 20 0 21 0;
#X connect 21 0 19 0;
#X connect 21 0 1 1;
