#N canvas 519 96 1376 643 12;
#X obj 311 53 inlet~;
#X text 376 51 position in samples;
#X obj 303 147 snapshot~;
#X obj 300 349 clone -x util/dkvgcld-grain~ \$2 \$0 \$1;
#X obj 920 38 inlet;
#X msg 597 304 all set \$1;
#X obj 333 214 + 1;
#X obj 268 236 % 2;
#X obj 268 212 f 0;
#X obj 303 172 t b f, f 10;
#X obj 268 261 pack f f, f 16;
#X obj 309 554 *~;
#X obj 399 437 line~;
#X msg 404 405 \$1 5;
#X obj 712 96 loadbang;
#X msg 714 154 0;
#X obj 544 88 inlet;
#X text 605 82 on/off;
#X obj 544 113 == 1;
#X obj 871 105 route set grainms randms density;
#X obj 774 362 f \$2;
#X obj 774 387 moses 1e-20;
#X msg 773 420 1;
#X obj 773 445 t b f;
#X msg 773 470 1;
#X obj 773 495 /;
#X text 819 349 number of grains;
#X obj 300 374 *~ 1;
#N canvas 707 221 1136 367 \$0-dkvgcld-init 0;
#X obj 301 261 v \$0-samplelen;
#X obj 515 214 v \$0-grainms;
#X obj 642 310 v \$0-grainsamp;
#X obj 305 225 array size \$1;
#X obj 688 232 samplerate~;
#X obj 688 257 / 1000;
#X obj 588 133 t f f b;
#X obj 633 271 *;
#X obj 812 280 v \$0-randsamp;
#X obj 878 216 / 1000;
#X obj 878 191 samplerate~;
#X obj 830 243 *;
#X obj 839 163 t f b;
#X text 893 165 randomized in ms;
#X msg 805 104 5;
#X msg 583 77 50;
#X text 651 76 grain length in ms;
#X obj 643 25 inlet;
#X obj 921 25 inlet;
#X obj 758 11 loadbang;
#X obj 325 161 t b s;
#X obj 331 76 inlet;
#X text 389 96 array name;
#X connect 3 0 0 0;
#X connect 4 0 5 0;
#X connect 5 0 7 1;
#X connect 6 0 1 0;
#X connect 6 1 7 0;
#X connect 6 2 4 0;
#X connect 7 0 2 0;
#X connect 9 0 11 1;
#X connect 10 0 9 0;
#X connect 11 0 8 0;
#X connect 12 0 11 0;
#X connect 12 1 10 0;
#X connect 14 0 12 0;
#X connect 15 0 6 0;
#X connect 17 0 6 0;
#X connect 18 0 12 0;
#X connect 19 0 14 0;
#X connect 19 0 15 0;
#X connect 20 0 3 0;
#X connect 20 1 3 1;
#X connect 21 0 20 0;
#X restore 808 184 pd \$0-dkvgcld-init;
#N canvas 418 235 1109 526 \$0-dkvgcld-trig 0;
#X obj 407 258 metro;
#X obj 483 208 f;
#X obj 483 233 /;
#X obj 527 149 del 1;
#X obj 504 174 v \$0-grainms;
#X obj 378 74 inlet;
#X text 429 80 on/off;
#X obj 525 72 inlet;
#X text 577 74 grainms;
#X obj 610 114 loadbang;
#X obj 764 65 inlet;
#X text 818 57 density;
#X obj 407 283 random 101;
#X obj 407 308 / 100;
#X obj 407 333 > 0.5;
#X obj 764 90 clip 0 1;
#X obj 389 399 outlet;
#X obj 407 358 sel 1;
#X text 466 386 trigger;
#X connect 0 0 12 0;
#X connect 1 0 2 0;
#X connect 2 0 0 1;
#X connect 3 0 4 0;
#X connect 4 0 1 0;
#X connect 5 0 0 0;
#X connect 7 0 1 0;
#X connect 9 0 3 0;
#X connect 10 0 15 0;
#X connect 12 0 13 0;
#X connect 13 0 14 0;
#X connect 14 0 17 0;
#X connect 15 0 14 1;
#X connect 17 0 16 0;
#X restore 483 206 pd \$0-dkvgcld-trig;
#X obj 309 581 outlet~;
#X text 18 36 dkvgcld~ - grain cloud;
#X text 1 113 INLETS:;
#X text 0 146 position in samples/;
#X text 2 173 tgl/messages;
#X text 9 315 ARGS:;
#X text 7 342 array name \, number of grains;
#X text 8 238 OUTLETS:;
#X text 9 261 signal~;
#X text 1131 28 derek kwan 2017;
#X text 1131 50 gpl v 3;
#X text 1134 74 pdkm;
#X connect 0 0 2 0;
#X connect 2 0 9 0;
#X connect 3 0 27 0;
#X connect 4 0 19 0;
#X connect 5 0 3 1;
#X connect 6 0 8 1;
#X connect 7 0 6 0;
#X connect 7 0 10 0;
#X connect 8 0 7 0;
#X connect 9 0 8 0;
#X connect 9 1 10 1;
#X connect 10 0 3 0;
#X connect 11 0 30 0;
#X connect 12 0 11 1;
#X connect 13 0 12 0;
#X connect 14 0 15 0;
#X connect 14 0 20 0;
#X connect 15 0 12 0;
#X connect 16 0 18 0;
#X connect 18 0 13 0;
#X connect 18 0 29 0;
#X connect 19 0 28 0;
#X connect 19 0 5 0;
#X connect 19 1 28 1;
#X connect 19 1 29 1;
#X connect 19 2 28 2;
#X connect 19 3 29 2;
#X connect 20 0 21 0;
#X connect 21 0 22 0;
#X connect 22 0 23 0;
#X connect 23 0 24 0;
#X connect 23 1 25 1;
#X connect 23 1 7 1;
#X connect 24 0 25 0;
#X connect 25 0 27 1;
#X connect 27 0 11 0;
#X connect 29 0 2 0;
