#N canvas 397 144 956 607 12;
#X obj 102 103 cnv 15 226 84 empty empty empty 20 12 0 14 -228856 -66577
0;
#X obj 144 152 nbx 3 30 -1e+37 1e+37 0 0 empty empty min 0 -12 0 30
-45076 -257985 -45076 0 256;
#X obj 245 152 nbx 2 30 -1e+37 1e+37 0 0 empty empty sec 0 -12 0 30
-45076 -257985 -1 0 256;
#X obj 108 119 tgl 30 0 empty empty on/off 0 -7 0 15 -262144 -1 -1
0 1;
#X obj 240 344 metro 1000;
#X obj 289 406 + 1;
#X obj 392 466 % 60;
#X obj 240 457 / 60;
#X obj 240 482 i;
#X obj 99 28 inlet;
#X text 154 29 on/off;
#X obj 467 36 inlet;
#X text 520 41 set time;
#X obj 467 61 route sec min minsec;
#X obj 208 118 bng 30 250 50 0 empty empty reset 0 -7 0 15 -262144
-1 -1;
#X obj 461 123 * 60;
#X obj 242 406 i;
#X obj 519 143 unpack f f;
#X obj 519 168 * 60;
#X obj 519 193 +;
#X text 2 44 visual clock;
#X msg 333 247 0;
#X obj 385 170 loadbang;
#X text 2 256 ARGS:;
#X text 7 316 INLETS:;
#X text 5 340 onoff/set time;
#X text 1 358 (sec f \, min f \, minsec f f);
#X text 7 429 OUTLETS:;
#X obj 238 567 outlet;
#X obj 242 431 t f f;
#X obj 239 522 pack f f;
#X text 1 455 time list (min sec);
#X text 812 17 derek kwan 2017;
#X text 814 36 pdkm;
#X text 813 56 gpl v 3;
#X text 4 12 dkvisclock;
#X connect 3 0 4 0;
#X connect 4 0 16 0;
#X connect 5 0 16 1;
#X connect 6 0 2 0;
#X connect 6 0 30 1;
#X connect 7 0 8 0;
#X connect 8 0 1 0;
#X connect 8 0 30 0;
#X connect 9 0 3 0;
#X connect 11 0 13 0;
#X connect 13 0 16 1;
#X connect 13 1 15 0;
#X connect 13 2 17 0;
#X connect 14 0 21 0;
#X connect 15 0 16 1;
#X connect 16 0 5 0;
#X connect 16 0 29 0;
#X connect 17 0 18 0;
#X connect 17 1 19 1;
#X connect 18 0 19 0;
#X connect 19 0 16 1;
#X connect 21 0 16 1;
#X connect 22 0 21 0;
#X connect 29 0 7 0;
#X connect 29 1 6 0;
#X connect 30 0 28 0;
#X coords 0 -1 1 1 230 90 1 100 100;
