#N canvas 875 394 955 660 12;
#X text 373 134 tempo;
#X obj 620 143 inlet;
#X text 672 148 send symbol;
#X obj 107 151 inlet;
#X obj 496 144 loadbang;
#X obj 630 381 makefilename;
#X msg 674 301 set \$1_%db;
#X obj 612 311 + 1;
#X obj 630 442 list prepend;
#X obj 630 467 list trim;
#X obj 612 336 t f f;
#X obj 619 186 symbol \$1;
#X msg 761 416 \$1 symbol;
#X obj 94 525 s, f 4;
#X obj 107 176 route float enable, f 42;
#X obj 72 458 spigot 1, f 23;
#X text 28 25 dkvmetrox - a vanilla metro divider;
#X text 31 62 inlets: on/off/enable msg \, tempo \, send symbol;
#X text 70 86 (enable f(subdiv) f(on/off));
#X text 42 120 outlets: subdivs;
#X obj 78 618 outlet;
#X obj 162 622 outlet;
#X obj 234 620 outlet;
#X obj 300 624 outlet;
#X obj 370 626 outlet;
#X obj 437 627 outlet;
#X obj 504 627 outlet;
#N canvas 853 308 1454 843 \$0-vmetrox_subdiv 0;
#X obj 308 59 inlet;
#X obj 37 336 s;
#X msg 37 276 2;
#X obj 36 243 spigot 1;
#X obj 24 395 spigot 1;
#X msg 25 428 3;
#X obj 25 478 s;
#X obj 27 532 spigot 1;
#X obj 28 615 s;
#X msg 28 565 4;
#X obj 225 334 s;
#X obj 224 241 spigot 1;
#X obj 221 394 spigot 1;
#X obj 222 477 s;
#X obj 215 530 spigot 1;
#X obj 216 613 s;
#X msg 225 274 5;
#X msg 222 427 6;
#X msg 216 563 7;
#X obj 480 125 route 2 3 4 5 6 7;
#X obj 661 122 route 2 3 4 5 6 7;
#X text 203 90 bangs;
#X text 373 64 tempo;
#X obj 472 83 inlet;
#X text 534 84 enable;
#X obj 647 75 inlet;
#X text 700 78 send symbol;
#X obj 384 727 outlet;
#X obj 468 731 outlet;
#X obj 540 729 outlet;
#X obj 606 733 outlet;
#X obj 676 735 outlet;
#X obj 743 736 outlet;
#X obj 126 89 inlet, f 6;
#X obj 37 301 dkmbang 1000 0.5;
#X obj 25 453 dkmbang 1000 0.333333;
#X obj 28 590 dkmbang 1000 0.25;
#X obj 225 299 dkmbang 1000 0.2;
#X obj 222 452 dkmbang 1000 0.166667;
#X obj 216 588 dkmbang 1000 0.142857;
#X connect 0 0 34 1;
#X connect 0 0 35 1;
#X connect 0 0 36 1;
#X connect 0 0 37 1;
#X connect 0 0 38 1;
#X connect 0 0 39 1;
#X connect 2 0 34 0;
#X connect 3 0 2 0;
#X connect 4 0 5 0;
#X connect 5 0 35 0;
#X connect 7 0 9 0;
#X connect 9 0 36 0;
#X connect 11 0 16 0;
#X connect 12 0 17 0;
#X connect 14 0 18 0;
#X connect 16 0 37 0;
#X connect 17 0 38 0;
#X connect 18 0 39 0;
#X connect 19 0 3 1;
#X connect 19 1 4 1;
#X connect 19 2 7 1;
#X connect 19 3 11 1;
#X connect 19 4 12 1;
#X connect 19 5 14 1;
#X connect 20 0 1 1;
#X connect 20 1 6 1;
#X connect 20 2 8 1;
#X connect 20 3 10 1;
#X connect 20 4 13 1;
#X connect 20 5 15 1;
#X connect 23 0 19 0;
#X connect 25 0 20 0;
#X connect 33 0 3 0;
#X connect 33 0 4 0;
#X connect 33 0 7 0;
#X connect 33 0 12 0;
#X connect 33 0 14 0;
#X connect 33 0 11 0;
#X connect 34 0 1 0;
#X connect 34 0 27 0;
#X connect 35 0 6 0;
#X connect 35 0 28 0;
#X connect 36 0 8 0;
#X connect 36 0 29 0;
#X connect 37 0 10 0;
#X connect 37 0 30 0;
#X connect 38 0 13 0;
#X connect 38 0 31 0;
#X connect 39 0 15 0;
#X connect 39 0 32 0;
#X restore 140 547 pd \$0-vmetrox_subdiv;
#X obj 321 136 inlet;
#X obj 244 383 route 1, f 19;
#X obj 630 492 route 1;
#X obj 75 399 t b b, f 17;
#X text 421 64 args: send sym/tempo in ms;
#X text 733 15 derek kwan;
#X text 736 35 pdkvabs;
#X text 739 62 gpl v 3 2017;
#X obj 77 344 metro \$2;
#X obj 219 293 t a b, f 29;
#X msg 423 321 1;
#X text 323 115 where x is the integer subdiv up to 7 ));
#X text 319 94 (( subdivs are sent out wiith [s] bound to symbol_xb
;
#X obj 614 280 dkfor;
#X msg 623 253 7;
#X obj 496 168 f \$2;
#X obj 318 213 route float, f 20;
#X msg 318 237 tempo \$1 msec;
#X obj 139 288 s;
#X obj 475 255 makefilename %s_tb;
#X obj 620 218 t s b s;
#X obj 107 200 t f f;
#X text 621 114 (( on/off sent on symbol_tb ));
#X connect 1 0 11 0;
#X connect 3 0 14 0;
#X connect 4 0 11 0;
#X connect 4 0 43 0;
#X connect 5 0 8 0;
#X connect 6 0 5 0;
#X connect 7 0 10 0;
#X connect 8 0 9 0;
#X connect 9 0 30 0;
#X connect 10 0 5 0;
#X connect 10 1 12 0;
#X connect 11 0 48 0;
#X connect 12 0 8 1;
#X connect 14 0 49 0;
#X connect 14 1 29 0;
#X connect 15 0 13 0;
#X connect 15 0 20 0;
#X connect 27 0 21 0;
#X connect 27 1 22 0;
#X connect 27 2 23 0;
#X connect 27 3 24 0;
#X connect 27 4 25 0;
#X connect 27 5 26 0;
#X connect 28 0 37 0;
#X connect 28 0 44 0;
#X connect 29 0 15 1;
#X connect 29 1 27 2;
#X connect 30 0 13 1;
#X connect 30 1 27 3;
#X connect 31 0 27 0;
#X connect 31 1 15 0;
#X connect 36 0 31 0;
#X connect 37 0 36 0;
#X connect 37 1 38 0;
#X connect 38 0 36 1;
#X connect 41 0 7 0;
#X connect 42 0 41 0;
#X connect 43 0 44 0;
#X connect 44 0 45 0;
#X connect 44 1 27 1;
#X connect 45 0 27 1;
#X connect 47 0 46 1;
#X connect 48 0 47 0;
#X connect 48 1 42 0;
#X connect 48 2 6 0;
#X connect 49 0 36 0;
#X connect 49 1 46 0;
