#N canvas 485 468 832 690 12;
#X obj 208 277 dkvmux7, f 64;
#X obj 272 168 r \$1_1b;
#X obj 334 200 r \$1_2b;
#X obj 393 158 r \$1_3b;
#X obj 456 181 r \$1_4b;
#X obj 513 149 r \$1_5b;
#X obj 587 187 r \$1_6b;
#X obj 650 146 r \$1_7b;
#X obj 212 116 inlet;
#X obj 208 301 outlet;
#X text 11 15 dkvmetrox_rcv - receiver for dkvmetrox bangs;
#X text 20 51 args: receive symbol \, input select;
#X text 19 79 inlets: input select;
#X text 23 103 outlets: selected input;
#X text 668 11 derek kwan;
#X text 668 31 pdkvabs 2018;
#X text 674 52 gpl v 3;
#X obj 216 157 f \$2;
#X connect 0 0 9 0;
#X connect 1 0 0 1;
#X connect 2 0 0 2;
#X connect 3 0 0 3;
#X connect 4 0 0 4;
#X connect 5 0 0 5;
#X connect 6 0 0 6;
#X connect 7 0 0 7;
#X connect 8 0 17 0;
#X connect 17 0 0 0;
