#N canvas 887 125 1003 754 12;
#X obj 314 165 inlet;
#X text 42 120 outlets: subdivs;
#X obj 78 618 outlet;
#X obj 162 622 outlet;
#X obj 234 620 outlet;
#X obj 300 624 outlet;
#X obj 370 626 outlet;
#X obj 437 627 outlet;
#X obj 504 627 outlet;
#X text 733 15 derek kwan;
#X text 736 35 pdkvabs;
#X text 739 62 gpl v 3 2018;
#X text 421 64 args: vmetrox sym/grouping;
#X obj 428 163 inlet;
#X text 470 160 grouping;
#N canvas 356 500 985 697 dkvmetrox_grouper_subdiv 0;
#X obj 86 86 util/dkvmetrox_grp-unit \$1 1 \$2;
#X obj 87 117 outlet;
#X obj 142 171 outlet;
#X obj 216 222 outlet;
#X obj 271 276 outlet;
#X obj 357 328 outlet;
#X obj 412 382 outlet;
#X obj 486 433 outlet;
#X obj 87 25 r \$1_tb;
#X obj 87 49 t b b b b b b b, f 50;
#X obj 505 26 inlet;
#X text 570 26 grouping;
#X obj 141 140 util/dkvmetrox_grp-unit \$1 2 \$2;
#X obj 215 191 util/dkvmetrox_grp-unit \$1 3 \$2;
#X obj 270 245 util/dkvmetrox_grp-unit \$1 4 \$2;
#X obj 356 297 util/dkvmetrox_grp-unit \$1 5 \$2;
#X obj 411 351 util/dkvmetrox_grp-unit \$1 6 \$2;
#X obj 485 402 util/dkvmetrox_grp-unit \$1 7 \$2;
#X obj 675 39 inlet;
#X text 724 36 on/off;
#X connect 0 0 1 0;
#X connect 8 0 9 0;
#X connect 9 0 0 0;
#X connect 9 1 12 0;
#X connect 9 2 13 0;
#X connect 9 3 14 0;
#X connect 9 4 15 0;
#X connect 9 5 16 0;
#X connect 9 6 17 0;
#X connect 10 0 0 1;
#X connect 10 0 12 1;
#X connect 10 0 13 1;
#X connect 10 0 14 1;
#X connect 10 0 15 1;
#X connect 10 0 16 1;
#X connect 10 0 17 1;
#X connect 12 0 2 0;
#X connect 13 0 3 0;
#X connect 14 0 4 0;
#X connect 15 0 5 0;
#X connect 16 0 6 0;
#X connect 17 0 7 0;
#X connect 18 0 0 2;
#X connect 18 0 12 2;
#X connect 18 0 13 2;
#X connect 18 0 14 2;
#X connect 18 0 15 2;
#X connect 18 0 16 2;
#X connect 18 0 17 2;
#X restore 148 362 pd dkvmetrox_grouper_subdiv;
#X text 28 25 dkvmetrox_grp - vmetrox grouper;
#X text 365 170 on/off;
#X obj 428 187 f \$2;
#X obj 428 211 max 1;
#X text 31 62 inlets: on/off/enable msg \, grouping;
#X text 319 94 (( subdivs are sent out wiith [s] bound to symbol_xby
;
#X text 323 115 where x is the integer subdiv up to 7 and grouping
is y));
#X connect 0 0 15 1;
#X connect 13 0 18 0;
#X connect 15 0 2 0;
#X connect 15 1 3 0;
#X connect 15 2 4 0;
#X connect 15 3 5 0;
#X connect 15 4 6 0;
#X connect 15 5 7 0;
#X connect 15 6 8 0;
#X connect 18 0 19 0;
#X connect 19 0 15 0;
