#N canvas 1406 528 975 568 12;
#X text 480 152 tempo;
#X obj 620 143 inlet;
#X text 672 148 send symbol;
#X obj 175 174 inlet;
#X obj 808 128 loadbang;
#X obj 630 381 makefilename;
#X msg 778 287 set \$1_%db;
#X obj 620 218 t b s;
#X obj 612 311 + 1;
#X obj 630 442 list prepend;
#X obj 630 467 list trim;
#X obj 612 336 t f f;
#X obj 619 186 symbol \$1;
#X msg 761 416 \$1 symbol;
#X obj 251 375 s;
#X obj 175 199 route float enable;
#X obj 266 333 spigot 1;
#X text 28 25 dkvmetrox - a vanilla metro divider;
#X text 31 62 inlets: on/off/enable msg \, tempo \, send symbol;
#X text 70 86 (enable f(subdiv) f(on/off));
#X text 42 120 outlets: subdivs;
#X obj 68 508 outlet;
#X obj 152 512 outlet;
#X obj 224 510 outlet;
#X obj 290 514 outlet;
#X obj 360 516 outlet;
#X obj 427 517 outlet;
#X obj 494 517 outlet;
#N canvas 853 308 1454 843 \$0-vmetrox_subdiv 0;
#X obj 308 59 inlet;
#X obj 37 336 s;
#X msg 37 276 2;
#X obj 37 301 dkmbang 1000 0.5;
#X obj 36 243 spigot 1;
#X obj 24 395 spigot 1;
#X msg 25 428 3;
#X obj 25 453 dkmbang 1000 0.333333;
#X obj 25 478 s;
#X obj 27 532 spigot 1;
#X obj 28 615 s;
#X msg 28 565 4;
#X obj 28 590 dkmbang 1000 0.25;
#X obj 225 334 s;
#X obj 224 241 spigot 1;
#X obj 221 394 spigot 1;
#X obj 222 477 s;
#X obj 215 530 spigot 1;
#X obj 216 613 s;
#X msg 225 274 5;
#X msg 222 427 6;
#X msg 216 563 7;
#X obj 225 299 dkmbang 1000 0.2;
#X obj 222 452 dkmbang 1000 0.166667;
#X obj 216 588 dkmbang 1000 0.142857;
#X obj 480 125 route 2 3 4 5 6 7;
#X obj 661 122 route 2 3 4 5 6 7;
#X text 203 90 bangs;
#X text 373 64 tempo;
#X obj 472 83 inlet;
#X text 534 84 enable;
#X obj 647 75 inlet;
#X text 700 78 send symbol;
#X obj 384 727 outlet;
#X obj 468 731 outlet;
#X obj 540 729 outlet;
#X obj 606 733 outlet;
#X obj 676 735 outlet;
#X obj 743 736 outlet;
#X obj 126 89 inlet, f 7;
#X connect 0 0 3 2;
#X connect 0 0 7 2;
#X connect 0 0 12 2;
#X connect 0 0 22 2;
#X connect 0 0 23 2;
#X connect 0 0 24 2;
#X connect 2 0 3 0;
#X connect 3 0 1 0;
#X connect 3 0 33 0;
#X connect 4 0 2 0;
#X connect 5 0 6 0;
#X connect 6 0 7 0;
#X connect 7 0 8 0;
#X connect 7 0 34 0;
#X connect 9 0 11 0;
#X connect 11 0 12 0;
#X connect 12 0 10 0;
#X connect 12 0 35 0;
#X connect 14 0 19 0;
#X connect 15 0 20 0;
#X connect 17 0 21 0;
#X connect 19 0 22 0;
#X connect 20 0 23 0;
#X connect 21 0 24 0;
#X connect 22 0 13 0;
#X connect 22 0 36 0;
#X connect 23 0 16 0;
#X connect 23 0 37 0;
#X connect 24 0 18 0;
#X connect 24 0 38 0;
#X connect 25 0 4 1;
#X connect 25 1 5 1;
#X connect 25 2 9 1;
#X connect 25 3 14 1;
#X connect 25 4 15 1;
#X connect 25 5 17 1;
#X connect 26 0 1 1;
#X connect 26 1 8 1;
#X connect 26 2 10 1;
#X connect 26 3 13 1;
#X connect 26 4 16 1;
#X connect 26 5 18 1;
#X connect 29 0 25 0;
#X connect 31 0 26 0;
#X connect 39 0 4 0;
#X connect 39 0 5 0;
#X connect 39 0 9 0;
#X connect 39 0 15 0;
#X connect 39 0 17 0;
#X connect 39 0 14 0;
#X restore 88 433 pd \$0-vmetrox_subdiv;
#X obj 428 154 inlet;
#X obj 249 240 route 1;
#X obj 630 492 route 1;
#X obj 156 324 t b b;
#X text 421 64 args: send sym/tempo in ms;
#X text 733 15 derek kwan;
#X text 736 35 pdkvabs;
#X text 739 62 gpl v 3 2017;
#X obj 156 299 metro \$2;
#X obj 358 201 t a b;
#X msg 384 233 1;
#X text 362 117 where x is the integer subdiv up to 7 ));
#X text 358 96 (( subdivs are sent out wiith [s] bound to symbol_xb
;
#X obj 614 280 dkfor;
#X msg 623 253 7;
#X connect 1 0 12 0;
#X connect 3 0 15 0;
#X connect 4 0 12 0;
#X connect 5 0 9 0;
#X connect 6 0 5 0;
#X connect 7 0 43 0;
#X connect 7 1 6 0;
#X connect 8 0 11 0;
#X connect 9 0 10 0;
#X connect 10 0 31 0;
#X connect 11 0 5 0;
#X connect 11 1 13 0;
#X connect 12 0 7 0;
#X connect 13 0 9 1;
#X connect 15 0 37 0;
#X connect 15 1 30 0;
#X connect 16 0 14 0;
#X connect 16 0 21 0;
#X connect 28 0 22 0;
#X connect 28 1 23 0;
#X connect 28 2 24 0;
#X connect 28 3 25 0;
#X connect 28 4 26 0;
#X connect 28 5 27 0;
#X connect 29 0 28 1;
#X connect 29 0 38 0;
#X connect 30 0 16 1;
#X connect 30 1 28 2;
#X connect 31 0 14 1;
#X connect 31 1 28 3;
#X connect 32 0 28 0;
#X connect 32 1 16 0;
#X connect 37 0 32 0;
#X connect 38 0 37 0;
#X connect 38 1 39 0;
#X connect 39 0 37 1;
#X connect 42 0 8 0;
#X connect 43 0 42 0;
