#N canvas 1083 279 1177 657 12;
#X obj 212 116 inlet;
#X obj 208 301 outlet;
#X text 19 79 inlets: input select;
#X text 23 103 outlets: selected input;
#X text 668 11 derek kwan;
#X text 668 31 pdkvabs 2018;
#X text 674 52 gpl v 3;
#X obj 208 277 dkvmux8, f 64;
#X text 11 15 dkvmetrox_grprcv - receiver for dkvmetrox_grp bangs;
#X text 20 51 args: receive symbol \, grouping \, input select;
#X obj 216 157 f \$3;
#X obj 272 168 r \$1_1b\$2;
#X obj 334 200 r \$1_2b\$2;
#X obj 393 158 r \$1_3b\$2;
#X obj 456 181 r \$1_4b\$2;
#X obj 513 149 r \$1_5b\$2;
#X obj 587 187 r \$1_6b\$2;
#X obj 650 146 r \$1_7b\$2;
#X obj 737 148 r \$1_8b\$2;
#X connect 0 0 10 0;
#X connect 7 0 1 0;
#X connect 10 0 7 0;
#X connect 11 0 7 1;
#X connect 12 0 7 2;
#X connect 13 0 7 3;
#X connect 14 0 7 4;
#X connect 15 0 7 5;
#X connect 16 0 7 6;
#X connect 17 0 7 7;
#X connect 18 0 7 8;
