#N canvas 562 322 758 533 12;
#X obj 242 75 inlet;
#X obj 234 254 f;
#X obj 276 238 + 1;
#X obj 391 257 mod 1;
#X obj 389 292 sel 0;
#X obj 216 146 t b b;
#X msg 288 160 0;
#X obj 226 215 until;
#X obj 191 328 outlet;
#X obj 376 93 loadbang;
#X obj 370 132 \$1;
#X obj 372 166 moses 1;
#X msg 373 208 0;
#X text 19 10 dkvuzi: vanilla uzi/multiple banger;
#X obj 359 69 inlet;
#X text 15 87 in2/ arg1: number of bangs;
#X text 11 65 in1: bang trigger;
#X text 28 266 DEREK KWAN 2016;
#X obj 272 338 outlet;
#X text 24 107 out: bangs \, count;
#X connect 0 0 5 0;
#X connect 1 0 2 0;
#X connect 1 0 18 0;
#X connect 2 0 3 0;
#X connect 2 0 1 1;
#X connect 3 0 4 0;
#X connect 4 0 7 1;
#X connect 5 0 7 0;
#X connect 5 1 6 0;
#X connect 6 0 1 1;
#X connect 7 0 1 0;
#X connect 7 0 8 0;
#X connect 9 0 10 0;
#X connect 10 0 11 0;
#X connect 11 0 12 0;
#X connect 11 1 3 1;
#X connect 12 0 3 1;
#X connect 14 0 10 0;
