#N canvas 584 386 1376 643 12;
#X obj 311 53 inlet~;
#X text 376 51 position in samples;
#X obj 303 147 snapshot~;
#X obj 920 38 inlet;
#X msg 516 357 all set \$1;
#X obj 333 214 + 1;
#X obj 268 212 f 0;
#X obj 303 172 t b f, f 10;
#X obj 268 261 pack f f, f 16;
#X obj 309 554 *~;
#X obj 398 525 line~;
#X obj 723 24 loadbang;
#X msg 725 82 0;
#X obj 551 15 inlet;
#X text 613 14 on/off;
#X obj 432 95 == 1;
#X obj 774 362 f \$2;
#X obj 774 387 moses 1e-20;
#X msg 773 420 1;
#X obj 773 445 t b f;
#X msg 773 470 1;
#X obj 773 495 /;
#X text 819 349 number of grains;
#X obj 309 581 outlet~;
#X text 1 113 INLETS:;
#X text 0 146 position in samples/;
#X text 2 173 tgl/messages;
#X text 9 315 ARGS:;
#X text 7 342 array name \, number of grains;
#X text 8 238 OUTLETS:;
#X text 9 261 signal~;
#X text 1131 28 derek kwan 2017;
#X text 1131 50 gpl v 3;
#X obj 232 236 % \$2;
#X obj 280 469 *~ 1;
#X msg 616 400 all randamp \$1;
#X text 1134 74 pdkvabs;
#X obj 571 203 switch~;
#X obj 573 65 sel 1 0, f 13;
#X msg 552 135 1;
#X msg 619 175 0;
#X obj 542 42 t f f;
#X obj 478 165 sel 1;
#X text 494 299 grainms \, overlap \, randtrig;
#X text 981 300 set \, grainms \, transposition \, randms;
#X obj 871 105 route set grainms transpose randms randamp overlap randlen
;
#X msg 618 352 all randlen \$1;
#X msg 446 396 all reset;
#X text 12 9 dkxgrn~ - granular stretcher;
#X text 7 28 (not quite synchronous \, async \, or quasi \, so x!)
;
#N canvas 183 488 1326 501 \$0-dkxgrn-init 0;
#X obj 301 261 v \$0-samplelen;
#X obj 498 207 v \$0-grainms;
#X obj 630 454 v \$0-grainsamp;
#X obj 637 160 samplerate~;
#X obj 639 205 / 1000;
#X obj 588 133 t f f b;
#X obj 608 243 *;
#X obj 972 297 v \$0-randsamp;
#X obj 1038 233 / 1000;
#X obj 1038 208 samplerate~;
#X obj 990 260 *;
#X obj 999 180 t f b;
#X text 1053 182 randomized in ms;
#X text 651 76 grain length in ms;
#X obj 643 25 inlet;
#X obj 1164 39 inlet;
#X obj 758 11 loadbang;
#X obj 325 161 t b s;
#X obj 331 76 inlet;
#X text 389 96 array name;
#X obj 706 396 exp;
#X obj 868 22 inlet;
#X obj 640 420 *;
#X text 930 16 transposition (hsteps);
#X obj 705 337 f 0;
#X obj 829 178 t b f;
#X obj 634 303 t f b;
#X obj 647 367 f;
#X obj 706 370 * 0.05776;
#X msg 583 77 50;
#X msg 965 121 10;
#X obj 305 225 array size;
#X connect 3 0 4 0;
#X connect 4 0 6 1;
#X connect 5 0 1 0;
#X connect 5 1 6 0;
#X connect 5 2 3 0;
#X connect 6 0 26 0;
#X connect 8 0 10 1;
#X connect 9 0 8 0;
#X connect 10 0 7 0;
#X connect 11 0 10 0;
#X connect 11 1 9 0;
#X connect 14 0 5 0;
#X connect 15 0 11 0;
#X connect 16 0 30 0;
#X connect 16 0 29 0;
#X connect 17 0 31 0;
#X connect 17 1 31 1;
#X connect 18 0 17 0;
#X connect 20 0 22 1;
#X connect 21 0 25 0;
#X connect 22 0 2 0;
#X connect 24 0 28 0;
#X connect 25 0 27 0;
#X connect 25 1 24 0;
#X connect 26 0 27 0;
#X connect 26 1 24 0;
#X connect 27 0 22 0;
#X connect 28 0 20 0;
#X connect 29 0 5 0;
#X connect 30 0 11 0;
#X connect 31 0 0 0;
#X restore 819 296 pd \$0-dkxgrn-init;
#N canvas 68 442 1384 508 \$0-dkxgrn-trig 0;
#X obj 407 258 metro;
#X obj 483 208 f;
#X obj 527 149 del 1;
#X obj 504 174 v \$0-grainms;
#X obj 378 74 inlet;
#X text 429 80 on/off;
#X obj 525 72 inlet;
#X text 577 74 grainms;
#X obj 610 114 loadbang;
#X obj 389 436 outlet;
#X text 477 435 trigger;
#X obj 772 65 inlet;
#X obj 407 381 *;
#X obj 407 406 del;
#X text 831 71 overlap;
#X obj 490 242 / 4;
#X obj 772 90 max 1;
#X connect 0 0 12 0;
#X connect 1 0 12 1;
#X connect 1 0 15 0;
#X connect 2 0 3 0;
#X connect 3 0 1 0;
#X connect 4 0 0 0;
#X connect 6 0 1 0;
#X connect 8 0 2 0;
#X connect 11 0 16 0;
#X connect 12 0 13 0;
#X connect 13 0 9 0;
#X connect 15 0 0 1;
#X connect 16 0 15 1;
#X restore 517 276 pd \$0-dkxgrn-trig;
#X obj 556 94 t b b;
#X msg 643 111 stop;
#X msg 403 493 \$1 1;
#X obj 619 150 del 2;
#X obj 280 444 clone -x util/dkxgrn-grain~ \$2 \$0 \$1;
#X obj 807 218 dksymbolcheck \$1;
#X obj 477 213 t b b;
#X obj 421 126 t f f f;
#X obj 767 249 t s s;
#X connect 0 0 2 0;
#X connect 2 0 7 0;
#X connect 3 0 45 0;
#X connect 4 0 56 1;
#X connect 5 0 6 1;
#X connect 6 0 33 0;
#X connect 7 0 6 0;
#X connect 7 1 8 1;
#X connect 8 0 56 0;
#X connect 9 0 23 0;
#X connect 10 0 9 1;
#X connect 11 0 12 0;
#X connect 11 0 16 0;
#X connect 11 0 45 0;
#X connect 12 0 10 0;
#X connect 13 0 41 0;
#X connect 15 0 59 0;
#X connect 16 0 17 0;
#X connect 17 0 18 0;
#X connect 18 0 19 0;
#X connect 19 0 20 0;
#X connect 19 1 21 1;
#X connect 19 1 33 1;
#X connect 20 0 21 0;
#X connect 21 0 34 1;
#X connect 33 0 5 0;
#X connect 33 0 8 0;
#X connect 34 0 9 0;
#X connect 35 0 56 1;
#X connect 38 0 52 0;
#X connect 38 1 55 0;
#X connect 39 0 37 0;
#X connect 40 0 37 0;
#X connect 41 0 15 0;
#X connect 41 1 38 0;
#X connect 42 0 58 0;
#X connect 45 0 57 0;
#X connect 45 1 50 1;
#X connect 45 1 51 1;
#X connect 45 2 50 2;
#X connect 45 3 50 3;
#X connect 45 4 35 0;
#X connect 45 5 51 2;
#X connect 45 6 46 0;
#X connect 46 0 56 1;
#X connect 47 0 56 1;
#X connect 51 0 2 0;
#X connect 52 0 39 0;
#X connect 52 1 53 0;
#X connect 53 0 55 0;
#X connect 54 0 10 0;
#X connect 55 0 40 0;
#X connect 56 0 34 0;
#X connect 57 0 60 0;
#X connect 58 0 47 0;
#X connect 58 1 57 0;
#X connect 59 0 54 0;
#X connect 59 1 51 0;
#X connect 59 2 42 0;
#X connect 60 0 4 0;
#X connect 60 1 50 0;
