#N canvas 988 187 795 543 12;
#X obj 322 140 inlet;
#X obj 147 140 inlet;
#X obj 285 248 * -1;
#X obj 289 281 - 1;
#X obj 147 165 t f f;
#X obj 248 329 &;
#X obj 248 354 outlet;
#X text 447 202 p xor q = p or q and not (p and q);
#X text 321 265 not = * -1 - 1;
#X text 336 188 p and q;
#X text 114 207 p or q;
#X text 7 33 Derek Kwan \, 2016;
#X text 9 60 gpl v3;
#X obj 205 222 | \$1;
#X obj 285 223 & \$1;
#X text 322 285 (in two's complement);
#X text 6 12 DKXOR: control-rate bitwise xor;
#X connect 0 0 13 1;
#X connect 0 0 14 1;
#X connect 1 0 4 0;
#X connect 2 0 3 0;
#X connect 3 0 5 1;
#X connect 4 0 13 0;
#X connect 4 1 14 0;
#X connect 5 0 6 0;
#X connect 13 0 5 0;
#X connect 14 0 2 0;
