#N canvas 639 214 940 620 10;
#X obj 155 124 inlet~;
#X obj 163 180 samphold~;
#X obj 314 319 phasor~;
#X obj 306 233 samplerate~;
#X obj 327 200 t b f;
#X obj 334 129 moses 0.5;
#X msg 334 151 1;
#X obj 314 253 /;
#X obj 355 270 t f b;
#X msg 375 291 0;
#X obj 330 50 inlet;
#X obj 157 298 outlet~;
#X obj 92 221 *~ 1;
#X obj 181 235 *~ 1;
#X obj 332 176 f;
#X obj 276 182 >= 2;
#X obj 238 183 < 2;
#X obj 334 105 f \$1;
#X obj 389 67 loadbang;
#X text 35 58 args: \$1 - downsample divider (samplerate/arg);
#X text 40 37 Derek X. Kwan;
#X connect 0 0 1 0;
#X connect 0 0 12 0;
#X connect 1 0 13 0;
#X connect 2 0 1 1;
#X connect 3 0 7 0;
#X connect 4 0 3 0;
#X connect 4 1 7 1;
#X connect 5 0 6 0;
#X connect 5 1 14 0;
#X connect 6 0 14 0;
#X connect 7 0 8 0;
#X connect 8 0 2 0;
#X connect 8 1 9 0;
#X connect 9 0 2 1;
#X connect 10 0 17 0;
#X connect 12 0 11 0;
#X connect 13 0 11 0;
#X connect 14 0 4 0;
#X connect 14 0 15 0;
#X connect 14 0 16 0;
#X connect 15 0 13 1;
#X connect 16 0 12 1;
#X connect 17 0 5 0;
#X connect 18 0 17 0;
