#N canvas 143 288 983 558 12;
#X obj 64 30 inlet;
#X text 83 52 fundamental;
#X obj 210 44 inlet;
#X text 251 46 carrier harm;
#X obj 50 72 f \$1;
#X obj 206 69 f \$2;
#X obj 172 11 loadbang;
#X obj 52 174 phasor~;
#X obj 64 214 +~;
#X obj 175 238 osc~;
#X obj 175 271 *~;
#X obj 249 161 inlet;
#X obj 251 226 / 100;
#X obj 67 270 hip~, f 6;
#X obj 69 298 outlet~;
#X text 279 183 mod idx (percent);
#X obj 64 241 cos~;
#X obj 238 292 line~;
#X obj 111 148 line~;
#X obj 52 143 *~;
#X obj 116 126 pack 0 5;
#X obj 241 261 pack 0 5;
#X obj 53 111 line~ 5;
#X obj 179 197 *~;
#X obj 189 124 inlet;
#X obj 187 161 f \$3;
#X obj 252 202 f \$4;
#X text 241 127 mod harm;
#X obj 221 413 osc~;
#X obj 221 446 *~;
#X obj 371 307 inlet;
#X obj 350 379 / 100;
#X obj 337 445 line~;
#X obj 340 414 pack 0 5;
#X obj 225 372 *~;
#X obj 290 301 inlet;
#X text 273 324 mod2 harm;
#X text 385 324 mod2 idx (percent);
#X obj 233 336 f \$5;
#X obj 351 355 f \$6;
#X obj 394 239 osc~;
#X obj 394 272 *~;
#X obj 544 133 inlet;
#X obj 523 205 / 100;
#X obj 510 271 line~;
#X obj 513 240 pack 0 5;
#X obj 398 198 *~;
#X obj 463 127 inlet;
#X text 445 148 mod3 harm;
#X text 559 151 mod3 idx (percent);
#X obj 406 162 f \$7;
#X obj 525 181 f \$8;
#X obj 531 411 osc~;
#X obj 531 444 *~;
#X obj 681 305 inlet;
#X obj 660 377 / 100;
#X obj 647 443 line~;
#X obj 650 412 pack 0 5;
#X obj 535 370 *~;
#X obj 600 299 inlet;
#X text 583 320 mod4 harm;
#X text 696 323 mod4 idx (percent);
#X obj 543 334 f \$9;
#X obj 662 353 f \$10;
#X connect 0 0 4 0;
#X connect 2 0 5 0;
#X connect 4 0 9 0;
#X connect 4 0 22 0;
#X connect 4 0 46 0;
#X connect 5 0 20 0;
#X connect 6 0 4 0;
#X connect 6 0 5 0;
#X connect 6 0 26 0;
#X connect 6 0 38 0;
#X connect 6 0 39 0;
#X connect 6 0 50 0;
#X connect 6 0 51 0;
#X connect 6 0 62 0;
#X connect 6 0 63 0;
#X connect 7 0 8 0;
#X connect 8 0 16 0;
#X connect 9 0 10 0;
#X connect 10 0 8 1;
#X connect 11 0 26 0;
#X connect 12 0 21 0;
#X connect 13 0 14 0;
#X connect 16 0 13 0;
#X connect 17 0 10 1;
#X connect 18 0 19 1;
#X connect 19 0 7 0;
#X connect 20 0 18 0;
#X connect 21 0 17 0;
#X connect 22 0 19 0;
#X connect 22 0 23 0;
#X connect 22 0 34 0;
#X connect 22 0 58 0;
#X connect 23 0 9 0;
#X connect 24 0 25 0;
#X connect 25 0 23 1;
#X connect 26 0 12 0;
#X connect 28 0 29 0;
#X connect 29 0 8 1;
#X connect 30 0 39 0;
#X connect 31 0 33 0;
#X connect 32 0 29 1;
#X connect 33 0 32 0;
#X connect 34 0 28 0;
#X connect 35 0 38 0;
#X connect 38 0 34 1;
#X connect 39 0 31 0;
#X connect 40 0 41 0;
#X connect 41 0 8 1;
#X connect 42 0 51 0;
#X connect 43 0 45 0;
#X connect 44 0 41 1;
#X connect 45 0 44 0;
#X connect 46 0 40 0;
#X connect 47 0 50 0;
#X connect 50 0 46 1;
#X connect 51 0 43 0;
#X connect 52 0 53 0;
#X connect 54 0 63 0;
#X connect 55 0 57 0;
#X connect 56 0 53 1;
#X connect 57 0 56 0;
#X connect 58 0 52 0;
#X connect 59 0 62 0;
#X connect 62 0 58 1;
#X connect 63 0 55 0;
