#N canvas 672 162 1172 758 10;
#X obj 156 79 inlet~;
#X obj 158 116 vsnapshot~;
#X text 158 46 pos (samps);
#X obj 127 246 t f b;
#X obj 146 314 +;
#X obj 189 250 random 882;
#X obj 188 281 - 441;
#X obj 282 253 / 2;
#X obj 357 75 inlet;
#X text 426 45 grain dur (ms);
#X obj 431 74 inlet;
#X obj 431 96 / 1000;
#X obj 428 147 *;
#X obj 456 139 samplerate~;
#X text 335 43 randpos (ms);
#X obj 357 97 / 1000;
#X obj 430 118 t f b;
#X obj 326 171 *;
#X obj 354 163 samplerate~;
#X obj 317 195 i;
#X obj 328 142 t f b;
#X obj 146 341 t f f;
#X obj 729 81 inlet;
#X obj 213 319 + 132;
#X text 725 52 transposition (hs);
#X obj 542 398 t b f;
#X obj 532 494 pow;
#X obj 589 439 / 12;
#X msg 520 439 2;
#X obj 428 169 t f f;
#X obj 428 191 i;
#X obj 389 468 f 1;
#X text 1005 51 amp;
#X obj 1021 95 inlet;
#X obj 1082 93 inlet;
#X obj 212 345 t f b;
#X text 556 48 dur rand (ms);
#X obj 568 84 inlet;
#X obj 212 374 + 0;
#X obj 551 305 f 0;
#X text 853 54 transposition rand (c);
#X obj 858 87 inlet;
#X obj 596 362 / 100;
#X obj 635 314 random 0;
#X obj 561 117 i;
#X obj 830 161 i;
#X obj 540 366 +;
#X obj 549 328 t f b;
#X obj 172 565 pack 0 0 0 0 0;
#X obj 649 570 / 100;
#X text 1060 55 amp rand (%);
#X obj 587 569 t f b;
#X obj 587 591 +;
#X obj 986 371 outlet~;
#X obj 990 349 catch~ \$0-out;
#X text 256 23 grain rate;
#X obj 263 52 inlet;
#X msg 232 102 1;
#X obj 544 150 / 1000;
#X obj 541 201 *;
#X obj 569 193 samplerate~;
#X obj 543 172 t f b;
#X obj 541 223 t f f;
#X obj 541 245 i;
#X obj 259 361 random 882;
#X obj 476 528 * 132;
#X obj 262 418 samplerate~;
#X obj 273 462 * 1000;
#X obj 216 429 /;
#X obj 211 396 t f f b;
#X obj 402 379 t b b b f;
#X obj 587 547 f 1;
#X msg 261 105 0, f 2;
#X obj 251 78 t b b f;
#X obj 139 188 t f b;
#X obj 149 217 pipe;
#X obj 649 548 random 1;
#N canvas 268 112 1324 921 graindist 0;
#X obj 85 39 inlet;
#X obj -45 152 grain \$1 \$0-out;
#X obj -35 181 grain \$1 \$0-out;
#X obj 123 145 grain \$1 \$0-out;
#X obj 115 177 grain \$1 \$0-out;
#X obj 267 153 grain \$1 \$0-out;
#X obj 277 182 grain \$1 \$0-out;
#X obj 435 146 grain \$1 \$0-out;
#X obj 427 178 grain \$1 \$0-out;
#X obj 186 56 route 1 2 3 4 5 6 7 8 9 10 11 12 13 14 15 16;
#X obj 520 202 grain \$1 \$0-out;
#X obj 530 231 grain \$1 \$0-out;
#X obj 688 195 grain \$1 \$0-out;
#X obj 680 227 grain \$1 \$0-out;
#X obj 832 203 grain \$1 \$0-out;
#X obj 842 232 grain \$1 \$0-out;
#X obj 1000 196 grain \$1 \$0-out;
#X obj 992 228 grain \$1 \$0-out;
#X obj -29 360 grain \$1 \$0-out;
#X obj -19 389 grain \$1 \$0-out;
#X obj 139 353 grain \$1 \$0-out;
#X obj 131 385 grain \$1 \$0-out;
#X obj 283 361 grain \$1 \$0-out;
#X obj 293 390 grain \$1 \$0-out;
#X obj 451 354 grain \$1 \$0-out;
#X obj 443 386 grain \$1 \$0-out;
#X obj 536 410 grain \$1 \$0-out;
#X obj 546 439 grain \$1 \$0-out;
#X obj 704 403 grain \$1 \$0-out;
#X obj 696 435 grain \$1 \$0-out;
#X obj 848 411 grain \$1 \$0-out;
#X obj 858 440 grain \$1 \$0-out;
#X obj 1016 404 grain \$1 \$0-out;
#X obj 1008 436 grain \$1 \$0-out;
#X obj 202 264 route 17 18 19 20 21 22 23 24 25 26 27 28 29 30 31 32
;
#X obj -23 550 grain \$1 \$0-out;
#X obj -13 579 grain \$1 \$0-out;
#X obj 145 543 grain \$1 \$0-out;
#X obj 137 575 grain \$1 \$0-out;
#X obj 289 551 grain \$1 \$0-out;
#X obj 299 580 grain \$1 \$0-out;
#X obj 457 544 grain \$1 \$0-out;
#X obj 449 576 grain \$1 \$0-out;
#X obj 542 600 grain \$1 \$0-out;
#X obj 552 629 grain \$1 \$0-out;
#X obj 710 593 grain \$1 \$0-out;
#X obj 702 625 grain \$1 \$0-out;
#X obj 854 601 grain \$1 \$0-out;
#X obj 864 630 grain \$1 \$0-out;
#X obj 1022 594 grain \$1 \$0-out;
#X obj 1014 626 grain \$1 \$0-out;
#X obj 208 454 route 33 34 35 36 37 38 39 40 41 42 43 44 45 46 47 48
;
#X obj -6 746 grain \$1 \$0-out;
#X obj 4 775 grain \$1 \$0-out;
#X obj 162 739 grain \$1 \$0-out;
#X obj 154 771 grain \$1 \$0-out;
#X obj 306 747 grain \$1 \$0-out;
#X obj 316 776 grain \$1 \$0-out;
#X obj 474 740 grain \$1 \$0-out;
#X obj 466 772 grain \$1 \$0-out;
#X obj 559 796 grain \$1 \$0-out;
#X obj 569 825 grain \$1 \$0-out;
#X obj 727 789 grain \$1 \$0-out;
#X obj 719 821 grain \$1 \$0-out;
#X obj 871 797 grain \$1 \$0-out;
#X obj 881 826 grain \$1 \$0-out;
#X obj 1039 790 grain \$1 \$0-out;
#X obj 1031 822 grain \$1 \$0-out;
#X obj 225 650 route 49 50 51 52 53 54 55 56 57 58 59 60 61 62 63 64
;
#X connect 0 0 9 0;
#X connect 9 0 1 0;
#X connect 9 1 2 0;
#X connect 9 2 4 0;
#X connect 9 3 3 0;
#X connect 9 4 5 0;
#X connect 9 5 6 0;
#X connect 9 6 7 0;
#X connect 9 7 8 0;
#X connect 9 8 10 0;
#X connect 9 9 11 0;
#X connect 9 10 12 0;
#X connect 9 11 14 0;
#X connect 9 12 15 0;
#X connect 9 13 16 0;
#X connect 9 14 17 0;
#X connect 9 15 13 0;
#X connect 9 16 34 0;
#X connect 34 0 18 0;
#X connect 34 1 19 0;
#X connect 34 2 21 0;
#X connect 34 3 20 0;
#X connect 34 4 22 0;
#X connect 34 5 23 0;
#X connect 34 6 24 0;
#X connect 34 7 25 0;
#X connect 34 8 26 0;
#X connect 34 9 27 0;
#X connect 34 10 28 0;
#X connect 34 11 30 0;
#X connect 34 12 31 0;
#X connect 34 13 32 0;
#X connect 34 14 33 0;
#X connect 34 15 29 0;
#X connect 34 16 51 0;
#X connect 51 0 35 0;
#X connect 51 1 36 0;
#X connect 51 2 38 0;
#X connect 51 3 37 0;
#X connect 51 4 39 0;
#X connect 51 5 40 0;
#X connect 51 6 41 0;
#X connect 51 7 42 0;
#X connect 51 8 43 0;
#X connect 51 9 44 0;
#X connect 51 10 45 0;
#X connect 51 11 47 0;
#X connect 51 12 48 0;
#X connect 51 13 49 0;
#X connect 51 14 50 0;
#X connect 51 15 46 0;
#X connect 51 16 68 0;
#X connect 68 0 52 0;
#X connect 68 1 53 0;
#X connect 68 2 55 0;
#X connect 68 3 54 0;
#X connect 68 4 56 0;
#X connect 68 5 57 0;
#X connect 68 6 58 0;
#X connect 68 7 59 0;
#X connect 68 8 60 0;
#X connect 68 9 61 0;
#X connect 68 10 62 0;
#X connect 68 11 64 0;
#X connect 68 12 65 0;
#X connect 68 13 66 0;
#X connect 68 14 67 0;
#X connect 68 15 63 0;
#X restore 173 614 pd graindist;
#X obj 186 520 stripnote;
#X obj 121 526 f;
#X obj 156 536 t b f;
#X obj 131 482 poly 64 1, f 27;
#X obj 200 194 random 3;
#X obj 242 140 metro 50;
#X obj 32 39 loadbang;
#X obj 204 10 r \$0-gr;
#X obj 393 16 r \$0-gd;
#X obj 3 246 s \$0-gr;
#X obj 59 364 s \$0-gd;
#X obj 14 200 moses 5;
#X msg 14 222 5;
#X obj 31 166 f \$2;
#X obj 51 313 moses 0.5;
#X msg 51 335 3;
#X obj 51 291 f \$3;
#X connect 0 0 1 0;
#X connect 1 0 74 0;
#X connect 3 0 4 0;
#X connect 3 1 5 0;
#X connect 4 0 21 0;
#X connect 5 0 6 0;
#X connect 6 0 4 1;
#X connect 7 0 6 1;
#X connect 8 0 15 0;
#X connect 10 0 11 0;
#X connect 11 0 16 0;
#X connect 12 0 29 0;
#X connect 13 0 12 1;
#X connect 15 0 20 0;
#X connect 16 0 12 0;
#X connect 16 1 13 0;
#X connect 17 0 19 0;
#X connect 18 0 17 1;
#X connect 19 0 7 0;
#X connect 19 0 5 1;
#X connect 20 0 17 0;
#X connect 20 1 18 0;
#X connect 21 0 81 0;
#X connect 21 1 23 0;
#X connect 22 0 39 1;
#X connect 23 0 35 0;
#X connect 25 0 28 0;
#X connect 25 1 27 0;
#X connect 26 0 65 0;
#X connect 27 0 26 1;
#X connect 28 0 26 0;
#X connect 29 0 30 0;
#X connect 30 0 23 1;
#X connect 31 0 48 3;
#X connect 33 0 71 1;
#X connect 34 0 76 1;
#X connect 35 0 38 0;
#X connect 35 1 64 0;
#X connect 37 0 44 0;
#X connect 38 0 69 0;
#X connect 39 0 47 0;
#X connect 41 0 45 0;
#X connect 42 0 46 1;
#X connect 43 0 42 0;
#X connect 44 0 58 0;
#X connect 45 0 43 1;
#X connect 46 0 25 0;
#X connect 47 0 46 0;
#X connect 47 1 43 0;
#X connect 48 0 77 0;
#X connect 49 0 52 1;
#X connect 51 0 52 0;
#X connect 51 1 76 0;
#X connect 52 0 48 4;
#X connect 54 0 53 0;
#X connect 56 0 73 0;
#X connect 57 0 83 0;
#X connect 58 0 61 0;
#X connect 59 0 62 0;
#X connect 60 0 59 1;
#X connect 61 0 59 0;
#X connect 61 1 60 0;
#X connect 62 0 63 0;
#X connect 63 0 64 1;
#X connect 64 0 38 1;
#X connect 65 0 31 1;
#X connect 66 0 68 1;
#X connect 66 0 68 1;
#X connect 67 0 70 0;
#X connect 68 0 67 0;
#X connect 68 0 67 0;
#X connect 69 0 81 1;
#X connect 69 1 68 0;
#X connect 69 2 66 0;
#X connect 70 0 31 0;
#X connect 70 1 39 0;
#X connect 70 2 71 0;
#X connect 70 3 65 1;
#X connect 71 0 51 0;
#X connect 72 0 83 0;
#X connect 73 0 57 0;
#X connect 73 1 72 0;
#X connect 73 2 83 1;
#X connect 74 0 75 0;
#X connect 74 1 82 0;
#X connect 75 0 3 0;
#X connect 76 0 49 0;
#X connect 78 0 80 0;
#X connect 78 1 48 2;
#X connect 79 0 48 0;
#X connect 80 0 79 0;
#X connect 80 1 48 1;
#X connect 81 0 79 1;
#X connect 81 1 78 0;
#X connect 81 2 78 1;
#X connect 82 0 75 1;
#X connect 83 0 1 0;
#X connect 84 0 91 0;
#X connect 84 0 94 0;
#X connect 85 0 73 0;
#X connect 86 0 11 0;
#X connect 89 0 90 0;
#X connect 89 1 87 0;
#X connect 90 0 87 0;
#X connect 91 0 89 0;
#X connect 92 0 93 0;
#X connect 92 1 88 0;
#X connect 93 0 88 0;
#X connect 94 0 92 0;
