#N canvas 888 338 665 463 10;
#X obj 143 75 inlet~;
#X obj 232 238 / 0.375;
#X msg 228 208 1;
#X obj 224 270 / 4;
#X obj 230 305 /;
#X obj 232 171 t b f;
#X text 324 264 normalization for hann:;
#X text 332 282 (1/0.375)*(1/overlap)*(1/windowsize);
#X obj 143 326 *~;
#X obj 231 82 f \$2;
#X obj 231 104 moses 0.1;
#X msg 231 126 512;
#X obj 356 72 f \$3;
#X obj 356 94 moses 0.1;
#X msg 356 116 4;
#X obj 357 40 t b f;
#X obj 194 17 loadbang;
#X obj 365 15 inlet;
#X obj 194 39 t b b;
#X obj 257 37 inlet;
#X text 420 17 args: \$1 - windowsize \, \$2 - overlap;
#X text 410 44 inlets: 1 - sig \, 2-windowsize \, 3-overlap;
#X obj 143 348 outlet~;
#X text 20 17 HANN NORMALIZATION;
#X connect 0 0 8 0;
#X connect 1 0 3 0;
#X connect 2 0 1 0;
#X connect 3 0 4 0;
#X connect 4 0 8 1;
#X connect 5 0 2 0;
#X connect 5 1 4 1;
#X connect 8 0 22 0;
#X connect 9 0 10 0;
#X connect 10 0 11 0;
#X connect 10 1 5 0;
#X connect 11 0 5 0;
#X connect 12 0 13 0;
#X connect 13 0 14 0;
#X connect 13 1 3 1;
#X connect 14 0 3 1;
#X connect 15 0 9 0;
#X connect 15 1 12 0;
#X connect 16 0 18 0;
#X connect 17 0 15 0;
#X connect 18 0 9 0;
#X connect 18 1 12 0;
#X connect 19 0 9 0;
