#N canvas 169 77 893 702 10;
#X obj 117 79 timer;
#X obj 116 103 < 3500;
#X obj 110 47 inlet;
#X obj 49 46 inlet~;
#X obj 48 312 *~ 0;
#X msg 75 81 1;
#X obj 131 195 f;
#X obj 175 138 sel 0;
#X obj 131 217 change;
#X msg 143 159 0;
#X obj 131 239 t f f;
#X obj 84 286 pack 0 5;
#X obj 211 253 sel 1 0;
#X obj 203 311 timer;
#X obj 84 308 line;
#X obj 145 354 samplerate~;
#X obj 203 385 *;
#X obj 203 332 t b f;
#X obj 207 468 + 1;
#X obj 200 433 f;
#X msg 343 366 0;
#X obj 205 407 t b f;
#X obj 247 282 t b b;
#X msg 273 483 stop;
#X obj 172 495 % 882000;
#X msg 90 568 start \$1;
#X obj 126 521 f;
#X obj 162 276 t b b;
#X obj 111 625 tabwrite~ \$1;
#X obj 615 47 inlet;
#X obj 694 123 moses 5;
#X msg 666 145 75;
#X obj 340 19 loadbang;
#X obj 600 79 metro;
#X obj 374 102 f \$2;
#X obj 374 124 moses 1;
#X msg 374 146 882000;
#X obj 679 93 f \$4;
#X obj 239 106 f \$3;
#X obj 239 128 moses 1;
#X msg 239 150 3500;
#X text 639 27 start/stop;
#X text 156 44 incoming bangs;
#X obj 472 29 inlet;
#X msg 480 245 set \$1;
#X obj 451 190 route thresh setarray setlen rate;
#X text 526 326 arg1: array to write to;
#X text 524 343 arg2: array length;
#X text 523 364 arg3: time threshold (ms);
#X text 521 382 arg4: rate to check thresh (ms);
#X text 514 432 in1: sig~;
#X text 511 453 in2: incominbg bangs;
#X text 512 470 in3: thresh (time thresh) \, setarray (array to write
to) \, setlen(array len) \, rate (rate to check thresh);
#X text 510 508 in4: on off;
#X text 516 577 defaults: array len: 88200 \, time thresh: 3500 \,
rate: 75;
#X text 39 6 INCWRITE~: incremental tabwriter;
#X text 519 643 DEREK KWAN \, 2016;
#X connect 0 0 1 0;
#X connect 1 0 7 0;
#X connect 2 0 5 0;
#X connect 3 0 4 0;
#X connect 4 0 28 0;
#X connect 5 0 6 0;
#X connect 6 0 8 0;
#X connect 7 0 9 0;
#X connect 8 0 10 0;
#X connect 9 0 6 0;
#X connect 10 0 12 0;
#X connect 10 1 11 0;
#X connect 11 0 14 0;
#X connect 12 0 27 0;
#X connect 12 1 22 0;
#X connect 13 0 17 0;
#X connect 14 0 4 1;
#X connect 15 0 16 0;
#X connect 16 0 21 0;
#X connect 17 0 15 0;
#X connect 17 1 16 1;
#X connect 18 0 24 0;
#X connect 19 0 18 0;
#X connect 20 0 19 1;
#X connect 21 0 19 0;
#X connect 21 1 18 1;
#X connect 22 0 13 1;
#X connect 22 1 23 0;
#X connect 23 0 28 0;
#X connect 24 0 19 1;
#X connect 24 0 26 1;
#X connect 25 0 28 0;
#X connect 26 0 25 0;
#X connect 27 0 13 0;
#X connect 27 1 26 0;
#X connect 29 0 33 0;
#X connect 29 0 20 0;
#X connect 30 0 31 0;
#X connect 30 1 33 1;
#X connect 31 0 33 1;
#X connect 32 0 34 0;
#X connect 32 0 37 0;
#X connect 32 0 38 0;
#X connect 33 0 0 1;
#X connect 34 0 35 0;
#X connect 35 0 36 0;
#X connect 35 1 24 1;
#X connect 36 0 24 1;
#X connect 37 0 30 0;
#X connect 38 0 39 0;
#X connect 39 0 40 0;
#X connect 39 1 1 1;
#X connect 40 0 1 1;
#X connect 43 0 45 0;
#X connect 44 0 28 0;
#X connect 45 0 38 0;
#X connect 45 1 44 0;
#X connect 45 2 34 0;
#X connect 45 3 37 0;
