#N canvas 401 140 1251 814 10;
#X obj 281 132 inlet;
#X obj 355 188 moses 0;
#X obj 404 130 loadbang;
#X msg 453 174 0;
#X obj 423 244 f;
#X obj 448 245 i;
#X obj 438 276 -;
#X obj 456 344 moses 0.1;
#X msg 457 375 0;
#X obj 527 379 t b f;
#X msg 526 404 1;
#X text 536 335 >= 0.1: stutter according to decimal (0.5 = stutter
twice/beat);
#X text 461 427 turn on stutter;
#X text 399 599 stutter val;
#X text 491 238 integer part: select sample pos \, decimal part: stutter
speed;
#X obj 396 241 i;
#X text 145 406 location table;
#X text 512 526 ramp before changing location;
#X obj 616 124 inlet;
#X text 666 126 sample len of array;
#X obj 152 170 t b f;
#X obj 121 198 samplerate~;
#X obj 139 226 /;
#X obj 127 296 phasor~;
#X obj 135 337 *~ 44100;
#X obj 353 269 bang;
#X text 207 192 <0: mute;
#X obj 239 586 *~;
#X obj 854 122 inlet;
#X obj 852 191 moses 0;
#X obj 889 220 t b f;
#X msg 889 242 1000;
#X obj 889 264 /;
#X text 943 243 freq of subdiv;
#X obj 561 406 t b f;
#X msg 564 438 1;
#X obj 602 461 /;
#X text 610 416 freq multiplier;
#X obj 602 483 * 8;
#N canvas 1121 242 670 413 nobustut 0;
#X obj 23 106 line~;
#X obj 29 157 samphold~;
#X obj 149 159 *~ 0.5;
#X obj 147 214 cos~;
#X obj 149 189 -~ 0.5;
#X obj 39 229 *~;
#X msg 29 84 0 \, \$1 \$1;
#X obj 29 184 vd~ \$0-stutter;
#X obj 255 346 outlet~;
#X obj 364 65 > 0.5;
#X obj 268 15 inlet;
#X obj 268 199 line~;
#X obj 330 252 line~;
#X obj 152 19 inlet~;
#X obj 48 28 sel 1;
#X obj 243 248 *~;
#X obj 326 293 *~;
#X obj 214 12 inlet;
#X text 374 310 in 1: sig;
#X text 379 326 in 2: stutters/sec;
#X text 381 344 in 3: 0 = clean \, 1 = stutter;
#X text 375 277 arg 1: max stutter time (ms);
#X text 372 294 arg 2: stutters/sec;
#X obj 369 149 == 0;
#X obj 354 95 change;
#X text 31 3 STUTTER~;
#X text 49 305 DEREK KWAN \, 2015;
#X obj 40 56 f 10000;
#X obj 154 70 delwrite~ \$0-stutter 10000;
#X obj 95 114 phasor~ 2;
#X msg 271 170 \$1 5;
#X msg 336 223 \$1 5;
#X connect 0 0 1 0;
#X connect 1 0 7 0;
#X connect 2 0 4 0;
#X connect 3 0 5 1;
#X connect 4 0 3 0;
#X connect 5 0 15 0;
#X connect 6 0 0 0;
#X connect 7 0 5 0;
#X connect 9 0 24 0;
#X connect 10 0 9 0;
#X connect 11 0 15 1;
#X connect 12 0 16 1;
#X connect 13 0 16 0;
#X connect 13 0 28 0;
#X connect 14 0 27 0;
#X connect 15 0 8 0;
#X connect 16 0 8 0;
#X connect 17 0 29 0;
#X connect 23 0 31 0;
#X connect 24 0 23 0;
#X connect 24 0 30 0;
#X connect 24 0 14 0;
#X connect 27 0 6 0;
#X connect 29 0 1 1;
#X connect 29 0 2 0;
#X connect 30 0 11 0;
#X connect 31 0 12 0;
#X restore 302 639 pd nobustut;
#X obj 276 691 outlet~;
#X text 893 120 subdiv dur(ms);
#X text 271 114 sample number;
#X text 449 13 DEREK KWAN \, 2016;
#X obj 767 153 loadbang;
#X msg 184 300 0;
#X obj 373 606 f;
#X obj 357 439 * 44100;
#X obj 342 462 t f b;
#X obj 406 547 vline~;
#X msg 429 512 0 3 \, 1 3 3;
#X msg 353 291 0 3;
#X obj 444 298 pipe 3;
#X obj 341 485 pipe 3;
#X text 33 46 args: 1 sample to read \, 2 window size \, 3.location
table(0-1) \, 4.subdiv dur(ms);
#X obj 155 539 phasevoc~ \$1 \$2;
#X obj 858 156 f \$4;
#X obj 356 415 tabread \$3;
#X obj 341 508 t b f;
#X obj 149 368 +~ 0;
#X obj 292 255 abs;
#X obj 293 308 f;
#X obj 332 314 i;
#X obj 292 331 -;
#X obj 388 211 t f f f;
#X obj 271 280 t f f f;
#X obj 259 305 i;
#X obj 136 264 * 1;
#X obj 179 234 t b f;
#X obj 292 353 pipe 3;
#X text 535 311 > -1 or < 0.1 : no stutter (make sure to turn off)
;
#X text 32 118 int part: sample no.;
#X text 33 138 decimal part: tempo;
#X text 857 468 in1:sample num;
#X text 855 487 in2: sample len of array;
#X text 856 502 in3: subdiv dur (ms);
#X obj 951 171 inlet;
#X obj 951 193 s \$0-transpose;
#X obj 198 503 r \$0-transpose;
#X text 956 152 transposition in cents;
#X obj 1115 173 inlet;
#X text 1115 152 phaselocking;
#X obj 1114 195 s \$0-phaselock;
#X text 855 521 in4: transposition in cents;
#X text 856 542 in5: phaselocking;
#X text 29 99 <= -1: take abs;
#X text 31 15 NOBUPVOC~: sample chopper with phase vocoder abstraction
;
#X obj 295 225 moses -0.99999;
#X connect 0 0 1 0;
#X connect 1 0 87 0;
#X connect 1 1 64 0;
#X connect 2 0 3 0;
#X connect 3 0 49 0;
#X connect 4 0 6 0;
#X connect 5 0 6 1;
#X connect 6 0 52 0;
#X connect 7 0 8 0;
#X connect 7 1 9 0;
#X connect 8 0 46 0;
#X connect 9 0 10 0;
#X connect 9 1 34 0;
#X connect 10 0 46 0;
#X connect 15 0 57 0;
#X connect 18 0 20 0;
#X connect 18 0 47 1;
#X connect 20 0 21 0;
#X connect 20 1 22 1;
#X connect 20 1 24 1;
#X connect 21 0 22 0;
#X connect 22 0 67 0;
#X connect 23 0 24 0;
#X connect 24 0 59 0;
#X connect 25 0 51 0;
#X connect 27 0 39 0;
#X connect 28 0 56 0;
#X connect 29 1 30 0;
#X connect 30 0 31 0;
#X connect 30 1 32 1;
#X connect 31 0 32 0;
#X connect 32 0 38 1;
#X connect 34 0 35 0;
#X connect 34 1 36 1;
#X connect 35 0 36 0;
#X connect 36 0 38 0;
#X connect 38 0 39 1;
#X connect 39 0 40 0;
#X connect 44 0 56 0;
#X connect 45 0 23 1;
#X connect 46 0 39 2;
#X connect 47 0 48 0;
#X connect 48 0 53 0;
#X connect 48 1 50 0;
#X connect 49 0 27 1;
#X connect 50 0 49 0;
#X connect 51 0 49 0;
#X connect 52 0 7 0;
#X connect 53 0 58 0;
#X connect 55 0 27 0;
#X connect 56 0 29 0;
#X connect 57 0 47 0;
#X connect 58 0 45 0;
#X connect 58 1 59 1;
#X connect 59 0 55 0;
#X connect 60 0 65 0;
#X connect 61 0 63 0;
#X connect 62 0 63 1;
#X connect 63 0 69 0;
#X connect 64 0 15 0;
#X connect 64 1 4 0;
#X connect 64 2 5 0;
#X connect 65 0 66 0;
#X connect 65 1 61 0;
#X connect 65 2 62 0;
#X connect 66 0 57 0;
#X connect 67 0 23 0;
#X connect 68 0 67 0;
#X connect 68 1 67 1;
#X connect 69 0 68 0;
#X connect 76 0 77 0;
#X connect 78 0 55 1;
#X connect 80 0 82 0;
#X connect 87 0 60 0;
#X connect 87 1 25 0;
