#N canvas 711 392 966 502 12;
#X obj 322 298 symbol \$1;
#X msg 322 323 traverse \$1;
#X obj 212 333 dkfor 1;
#X msg 212 358 next;
#X obj 208 420 pointer;
#X obj 208 445 outlet;
#X obj 252 164 t f f;
#X obj 237 218 spigot;
#X obj 237 243 t b b f;
#X obj 253 122 inlet;
#X text 303 124 nth;
#X obj 253 296 + 1;
#X text 8 38 get pointer to the nth scalar of a struct;
#X text 18 148 INLET:;
#X obj 422 132 inlet;
#X text 479 138 symbol of struct;
#X text 18 176 nth/symbol of struct;
#X text 7 282 OUTLET:;
#X text 9 306 pointer to nth scalar;
#X text 13 83 ARGS:;
#X text 12 107 index of scalar;
#X text 807 14 derek kwan 2017;
#X text 806 38 gpl v 3;
#X text 805 62 pdkvabs;
#X text 8 15 pdkst-nth;
#X obj 313 202 >= 0;
#X connect 0 0 1 0;
#X connect 1 0 4 0;
#X connect 2 0 3 0;
#X connect 3 0 4 0;
#X connect 4 0 5 0;
#X connect 6 0 7 0;
#X connect 6 1 25 0;
#X connect 7 0 8 0;
#X connect 8 0 2 0;
#X connect 8 1 0 0;
#X connect 8 2 11 0;
#X connect 9 0 6 0;
#X connect 11 0 2 1;
#X connect 14 0 0 1;
#X connect 25 0 7 1;
