#N canvas 1081 345 450 300 10;
#X obj 180 214 spigot;
#X obj 256 148 + 1;
#X obj 178 55 inlet;
#X obj 170 112 t a b;
#X obj 256 126 random 100;
#X obj 260 177 <= \$1;
#X obj 180 236 outlet;
#X text 21 32 args: \$1 - percent of time to let stuff through;
#X text 32 7 RANDGATE by Derek X. Kwan;
#X obj 354 81 inlet;
#X connect 0 0 6 0;
#X connect 1 0 5 0;
#X connect 2 0 3 0;
#X connect 3 0 0 0;
#X connect 3 1 4 0;
#X connect 4 0 1 0;
#X connect 5 0 0 1;
#X connect 9 0 5 1;
