#N canvas 169 638 450 300 10;
#X obj 80 42 inlet;
#X obj 89 137 min;
#X obj 77 176 outlet;
#X obj 84 93 t f b;
#X obj 123 122 f;
#X obj 163 61 bng 15 250 50 0 empty empty empty 17 7 0 10 -262144 -1
-1;
#X obj 158 35 inlet;
#X text 207 35 reset;
#X text 30 43 input;
#X obj 278 49 loadbang;
#X obj 153 86 1e+38;
#X connect 0 0 3 0;
#X connect 1 0 2 0;
#X connect 1 0 4 1;
#X connect 3 0 1 0;
#X connect 3 1 4 0;
#X connect 4 0 1 1;
#X connect 5 0 10 0;
#X connect 6 0 5 0;
#X connect 9 0 5 0;
#X connect 10 0 4 1;
