#N canvas 645 266 450 300 10;
#X obj 156 74 bng 15 250 50 0 empty empty empty 17 7 0 10 -262144 -1
-1;
#X obj 94 179 max;
#X obj 126 135 f;
#X obj 74 91 t f b;
#X obj 82 42 inlet;
#X obj 155 44 inlet;
#X obj 86 216 outlet;
#X text 182 74 reset;
#X text 34 50 input;
#X obj 273 43 loadbang;
#X obj 145 101 -1e+38;
#X connect 0 0 10 0;
#X connect 1 0 2 1;
#X connect 1 0 6 0;
#X connect 2 0 1 1;
#X connect 3 0 1 0;
#X connect 3 1 2 0;
#X connect 4 0 3 0;
#X connect 5 0 0 0;
#X connect 9 0 0 0;
#X connect 10 0 2 1;
