#N canvas 468 260 1256 699 10;
#X obj 119 42 inlet~;
#X obj 119 64 *~;
#X obj 119 86 rfft~;
#X obj 184 237 clip~ 1 1;
#X obj 268 17 inlet;
#X obj 114 294 rifft~;
#X obj 114 316 *~;
#X text 317 23 0.01 - orig \, 1 - compressed;
#X obj 196 75 loadbang;
#X obj 268 43 f \$3;
#N canvas 243 200 925 646 hannnorm 0;
#X obj 143 75 inlet~;
#X obj 232 238 / 0.375;
#X msg 228 208 1;
#X obj 224 270 / 4;
#X obj 230 305 /;
#X obj 232 171 t b f;
#X text 324 264 normalization for hann:;
#X text 332 282 (1/0.375)*(1/overlap)*(1/windowsize);
#X obj 143 326 *~;
#X obj 231 104 moses 0.1;
#X msg 231 126 512;
#X obj 194 17 loadbang;
#X obj 194 39 t b b;
#X obj 257 37 inlet;
#X obj 143 348 outlet~;
#X text 20 17 HANN NORMALIZATION;
#X obj 234 72 f;
#X connect 0 0 8 0;
#X connect 1 0 3 0;
#X connect 2 0 1 0;
#X connect 3 0 4 0;
#X connect 4 0 8 1;
#X connect 5 0 2 0;
#X connect 5 1 4 1;
#X connect 8 0 14 0;
#X connect 9 0 10 0;
#X connect 9 1 5 0;
#X connect 10 0 5 0;
#X connect 11 0 12 0;
#X connect 12 0 16 0;
#X connect 13 0 16 0;
#X connect 16 0 9 0;
#X restore 101 378 pd hannnorm;
#X obj 334 314 f \$1;
#X obj 424 307 f \$2;
#X obj 109 422 outlet~;
#X obj 215 107 t b b;
#X msg 407 415 4;
#X obj 377 348 moses 0.1;
#X obj 323 479 pack 0 0;
#X obj 295 354 moses 0.1;
#X msg 328 431 512;
#X obj 407 128 table \$0-hann;
#X text 108 13 sig~;
#X text 381 85 args: \$1-window size (samps) \, \$2-overlap \, \$3-compression
factor;
#X text 568 119 based on 5.Spectral Compressor by;
#X text 567 136 Alexander Porres Torres;
#X text 588 28 DEREK KWAN;
#N canvas 1 56 450 300 nearpow 0;
#X obj 144 26 log;
#X obj 125 105 /;
#X obj 156 138 log 2;
#X msg 167 92 2;
#X obj 140 72 t f b;
#X obj 131 207 pow 2;
#X msg 112 194 2;
#X obj 145 2 inlet;
#X obj 117 238 outlet;
#X obj 133 168 t b f;
#X obj 115 138 int;
#X connect 0 0 4 0;
#X connect 1 0 10 0;
#X connect 2 0 1 1;
#X connect 3 0 2 0;
#X connect 4 0 1 0;
#X connect 4 1 3 0;
#X connect 5 0 8 0;
#X connect 6 0 5 0;
#X connect 7 0 0 0;
#X connect 9 0 6 0;
#X connect 9 1 5 1;
#X connect 10 0 9 0;
#X restore 388 254 pd nearpow;
#X obj 142 5 tabreceive~ \$0-hann;
#X obj 114 272 /~;
#X obj 156 269 /~;
#X obj 200 288 tabreceive~ \$0-hann;
#X msg 324 513 set \$1 \$2;
#N canvas 1 56 450 300 nearpow 0;
#X obj 144 26 log;
#X obj 125 105 /;
#X obj 156 138 log 2;
#X msg 167 92 2;
#X obj 140 72 t f b;
#X obj 131 207 pow 2;
#X msg 112 194 2;
#X obj 145 2 inlet;
#X obj 117 238 outlet;
#X obj 133 168 t b f;
#X obj 115 138 int;
#X connect 0 0 4 0;
#X connect 1 0 10 0;
#X connect 2 0 1 1;
#X connect 3 0 2 0;
#X connect 4 0 1 0;
#X connect 4 1 3 0;
#X connect 5 0 8 0;
#X connect 6 0 5 0;
#X connect 7 0 0 0;
#X connect 9 0 6 0;
#X connect 9 1 5 1;
#X connect 10 0 9 0;
#X restore 454 424 pd nearpow;
#X obj 322 549 block~ \$1 \$2;
#X obj 353 158 t f f;
#X obj 355 182 *;
#X obj 296 178 + 1;
#X obj 295 89 clip 0.01 1;
#X obj 296 150 * -1;
#X obj 127 163 *~;
#X obj 172 150 *~;
#X obj 127 185 +~;
#X obj 127 207 q8_sqrt~;
#X obj 295 111 t f f;
#X obj 355 204 * 10000;
#N canvas 379 271 636 436 makehann 0;
#X obj 146 169 pack f s;
#X msg 146 191 \; \$2 resize \$1;
#X obj 58 162 samplerate~;
#X obj 58 184 / 2048;
#X obj 66 207 t f b;
#X msg 119 227 0;
#X obj 69 234 osc~;
#X obj 66 124 t b b f;
#X obj 69 256 *~ -0.5;
#X obj 69 278 +~ 0.5;
#X obj 73 31 t f f b;
#X obj 87 72 symbol \$0-hann;
#X obj 68 300 tabwrite~ \$0-hann;
#X obj 25 77 /;
#X obj 237 35 inlet;
#X obj 55 6 inlet;
#X connect 0 0 1 0;
#X connect 2 0 3 0;
#X connect 3 0 4 0;
#X connect 4 0 6 0;
#X connect 4 1 5 0;
#X connect 5 0 6 1;
#X connect 6 0 8 0;
#X connect 7 0 12 0;
#X connect 7 1 2 0;
#X connect 7 2 3 1;
#X connect 8 0 9 0;
#X connect 9 0 12 0;
#X connect 10 0 13 0;
#X connect 10 1 0 0;
#X connect 10 2 11 0;
#X connect 11 0 0 1;
#X connect 13 0 7 0;
#X connect 14 0 13 1;
#X connect 15 0 10 0;
#X restore 594 337 pd makehann;
#X connect 0 0 1 0;
#X connect 1 0 2 0;
#X connect 2 0 28 0;
#X connect 2 0 39 0;
#X connect 2 0 39 1;
#X connect 2 1 29 0;
#X connect 2 1 40 1;
#X connect 2 1 40 0;
#X connect 3 0 28 1;
#X connect 3 0 29 1;
#X connect 4 0 9 0;
#X connect 5 0 6 0;
#X connect 6 0 10 0;
#X connect 8 0 9 0;
#X connect 8 0 14 0;
#X connect 9 0 37 0;
#X connect 10 0 13 0;
#X connect 11 0 10 1;
#X connect 11 0 18 0;
#X connect 12 0 16 0;
#X connect 14 0 11 0;
#X connect 14 1 12 0;
#X connect 15 0 17 1;
#X connect 15 0 45 1;
#X connect 16 0 15 0;
#X connect 16 1 32 0;
#X connect 17 0 31 0;
#X connect 18 0 19 0;
#X connect 18 1 26 0;
#X connect 19 0 17 0;
#X connect 19 0 45 0;
#X connect 26 0 45 0;
#X connect 27 0 1 1;
#X connect 28 0 5 0;
#X connect 29 0 5 1;
#X connect 30 0 6 1;
#X connect 31 0 33 0;
#X connect 32 0 17 1;
#X connect 32 0 45 1;
#X connect 34 0 35 0;
#X connect 34 1 35 1;
#X connect 35 0 44 0;
#X connect 36 0 3 1;
#X connect 37 0 43 0;
#X connect 38 0 36 0;
#X connect 39 0 41 0;
#X connect 40 0 41 1;
#X connect 41 0 42 0;
#X connect 42 0 3 0;
#X connect 43 0 38 0;
#X connect 43 1 34 0;
#X connect 44 0 3 2;
