#N canvas 881 200 998 667 10;
#X obj 119 42 inlet~;
#X obj 119 64 *~;
#X obj 119 86 rfft~;
#X obj 268 17 inlet;
#X obj 92 323 rifft~;
#X obj 94 352 *~;
#X obj 194 32 loadbang;
#X obj 293 57 f \$3;
#N canvas 243 200 925 646 hannnorm 0;
#X obj 143 75 inlet~;
#X obj 232 238 / 0.375;
#X msg 228 208 1;
#X obj 224 270 / 4;
#X obj 230 305 /;
#X obj 232 171 t b f;
#X text 324 264 normalization for hann:;
#X text 332 282 (1/0.375)*(1/overlap)*(1/windowsize);
#X obj 143 326 *~;
#X obj 231 104 moses 0.1;
#X msg 231 126 512;
#X obj 194 17 loadbang;
#X obj 194 39 t b b;
#X obj 257 37 inlet;
#X obj 143 348 outlet~;
#X text 20 17 HANN NORMALIZATION;
#X obj 234 72 f;
#X connect 0 0 8 0;
#X connect 1 0 3 0;
#X connect 2 0 1 0;
#X connect 3 0 4 0;
#X connect 4 0 8 1;
#X connect 5 0 2 0;
#X connect 5 1 4 1;
#X connect 8 0 14 0;
#X connect 9 0 10 0;
#X connect 9 1 5 0;
#X connect 10 0 5 0;
#X connect 11 0 12 0;
#X connect 12 0 16 0;
#X connect 13 0 16 0;
#X connect 16 0 9 0;
#X restore 101 378 pd hannnorm;
#X obj 195 390 f \$1;
#X obj 287 365 f \$2;
#X obj 109 422 outlet~;
#X obj 212 352 t b b;
#X msg 296 469 4;
#X obj 333 399 moses 0.1;
#X obj 223 515 pack 0 0;
#X obj 210 436 moses 0.1;
#X msg 223 478 512;
#X text 108 13 sig~;
#X text 80 502 DEREK KWAN;
#N canvas 1 56 450 300 nearpow 0;
#X obj 144 26 log;
#X obj 125 105 /;
#X obj 156 138 log 2;
#X msg 167 92 2;
#X obj 140 72 t f b;
#X obj 131 207 pow 2;
#X msg 112 194 2;
#X obj 145 2 inlet;
#X obj 117 238 outlet;
#X obj 133 168 t b f;
#X obj 115 138 int;
#X connect 0 0 4 0;
#X connect 1 0 10 0;
#X connect 2 0 1 1;
#X connect 3 0 2 0;
#X connect 4 0 1 0;
#X connect 4 1 3 0;
#X connect 5 0 8 0;
#X connect 6 0 5 0;
#X connect 7 0 0 0;
#X connect 9 0 6 0;
#X connect 9 1 5 1;
#X connect 10 0 9 0;
#X restore 337 430 pd nearpow;
#X obj 142 5 tabreceive~ \$0-hann;
#X obj 276 322 tabreceive~ \$0-hann;
#X msg 223 548 set \$1 \$2;
#N canvas 1 56 450 300 nearpow 0;
#X obj 144 26 log;
#X obj 125 105 /;
#X obj 156 138 log 2;
#X msg 167 92 2;
#X obj 140 72 t f b;
#X obj 131 207 pow 2;
#X msg 112 194 2;
#X obj 145 2 inlet;
#X obj 117 238 outlet;
#X obj 133 168 t b f;
#X obj 115 138 int;
#X connect 0 0 4 0;
#X connect 1 0 10 0;
#X connect 2 0 1 1;
#X connect 3 0 2 0;
#X connect 4 0 1 0;
#X connect 4 1 3 0;
#X connect 5 0 8 0;
#X connect 6 0 5 0;
#X connect 7 0 0 0;
#X connect 9 0 6 0;
#X connect 9 1 5 1;
#X connect 10 0 9 0;
#X restore 342 468 pd nearpow;
#X obj 219 577 block~ \$1 \$2;
#X obj 127 163 *~;
#X obj 178 164 *~;
#X obj 157 190 +~;
#N canvas 379 271 636 436 makehann 0;
#X obj 146 169 pack f s;
#X msg 146 191 \; \$2 resize \$1;
#X obj 58 162 samplerate~;
#X obj 58 184 / 2048;
#X obj 66 207 t f b;
#X msg 119 227 0;
#X obj 69 234 osc~;
#X obj 66 124 t b b f;
#X obj 69 256 *~ -0.5;
#X obj 69 278 +~ 0.5;
#X obj 73 31 t f f b;
#X obj 87 72 symbol \$0-hann;
#X obj 68 300 tabwrite~ \$0-hann;
#X obj 25 77 /;
#X obj 237 35 inlet;
#X obj 55 6 inlet;
#X connect 0 0 1 0;
#X connect 2 0 3 0;
#X connect 3 0 4 0;
#X connect 4 0 6 0;
#X connect 4 1 5 0;
#X connect 5 0 6 1;
#X connect 6 0 8 0;
#X connect 7 0 12 0;
#X connect 7 1 2 0;
#X connect 7 2 3 1;
#X connect 8 0 9 0;
#X connect 9 0 12 0;
#X connect 10 0 13 0;
#X connect 10 1 0 0;
#X connect 10 2 11 0;
#X connect 11 0 0 1;
#X connect 13 0 7 0;
#X connect 14 0 13 1;
#X connect 15 0 10 0;
#X restore 321 520 pd makehann;
#X obj 84 251 *~;
#X obj 133 257 *~;
#X obj 427 281 table \$0-hann;
#X obj 157 221 >~ 0;
#X text 83 527 SPECTRAL GATE;
#X text 325 17 accept/reject values above this value;
#X obj 415 128 f \$4;
#X obj 407 50 inlet;
#X obj 73 285 *~ 1;
#X obj 116 284 *~ 1;
#X obj 184 253 *~;
#X obj 233 259 *~;
#X obj 173 287 *~ 0;
#X obj 216 287 *~ 0;
#X obj 257 223 <~ 0;
#X obj 410 162 > 0.5;
#X obj 322 164 <= 0.5;
#X text 448 120 0 - pass values above \$3;
#X text 454 146 1 - pass values below \$3;
#X text 443 215 INLETS: sig \, threshold val \, pass above/ pass below
;
#X text 447 238 args: window size \, oversamp \, pass above/ pass below
;
#X obj 441 341 import zexy;
#X connect 0 0 1 0;
#X connect 1 0 2 0;
#X connect 2 0 26 0;
#X connect 2 0 26 1;
#X connect 2 0 30 0;
#X connect 2 0 40 0;
#X connect 2 1 27 1;
#X connect 2 1 27 0;
#X connect 2 1 31 0;
#X connect 2 1 41 0;
#X connect 3 0 7 0;
#X connect 4 0 5 0;
#X connect 5 0 8 0;
#X connect 6 0 7 0;
#X connect 6 0 12 0;
#X connect 6 0 36 0;
#X connect 7 0 33 1;
#X connect 7 0 44 1;
#X connect 8 0 11 0;
#X connect 9 0 8 1;
#X connect 9 0 16 0;
#X connect 10 0 14 0;
#X connect 12 0 9 0;
#X connect 12 1 10 0;
#X connect 13 0 15 1;
#X connect 13 0 29 1;
#X connect 14 0 13 0;
#X connect 14 1 24 0;
#X connect 15 0 23 0;
#X connect 16 0 17 0;
#X connect 16 1 20 0;
#X connect 17 0 15 0;
#X connect 17 0 29 0;
#X connect 20 0 29 0;
#X connect 21 0 1 1;
#X connect 22 0 5 1;
#X connect 23 0 25 0;
#X connect 24 0 15 1;
#X connect 24 0 29 1;
#X connect 26 0 28 0;
#X connect 27 0 28 1;
#X connect 28 0 33 0;
#X connect 28 0 44 0;
#X connect 30 0 38 0;
#X connect 31 0 39 0;
#X connect 33 0 31 1;
#X connect 33 0 30 1;
#X connect 36 0 45 0;
#X connect 36 0 46 0;
#X connect 37 0 36 0;
#X connect 38 0 4 0;
#X connect 39 0 4 1;
#X connect 40 0 42 0;
#X connect 41 0 43 0;
#X connect 42 0 4 0;
#X connect 43 0 4 1;
#X connect 44 0 41 1;
#X connect 44 0 40 1;
#X connect 45 0 42 1;
#X connect 45 0 43 1;
#X connect 46 0 38 1;
#X connect 46 0 39 1;
