#N canvas 585 392 450 300 10;
#X obj 45 88 inlet~;
#X obj 121 89 inlet~;
#X obj 55 196 line~;
#X obj 55 173 pack 0 1;
#X obj 169 199 line~;
#X obj 169 176 pack 0 1;
#X obj 51 219 *~;
#X obj 145 213 *~;
#X obj 23 252 outlet~;
#X obj 106 256 outlet~;
#X obj 208 24 inlet;
#X obj 212 61 + 1;
#X obj 201 88 * 0.5;
#X obj 152 130 + 1;
#X obj 151 112 * -1;
#X obj 267 14 loadbang;
#X msg 259 36 0;
#X connect 0 0 6 0;
#X connect 1 0 7 0;
#X connect 2 0 6 1;
#X connect 3 0 2 0;
#X connect 4 0 7 1;
#X connect 5 0 4 0;
#X connect 6 0 8 0;
#X connect 7 0 9 0;
#X connect 10 0 11 0;
#X connect 11 0 12 0;
#X connect 12 0 14 0;
#X connect 12 0 5 0;
#X connect 13 0 3 0;
#X connect 14 0 13 0;
#X connect 15 0 16 0;
#X connect 16 0 11 0;
