#N canvas 455 522 450 300 10;
#X obj 260 179 spigot;
#X obj 236 104 t f f;
#X obj 178 201 f;
#X obj 157 239 outlet;
#X obj 209 237 outlet;
#X obj 261 237 outlet;
#X obj 260 201 t b b f;
#X obj 217 199 f;
#X obj 190 67 poly \$1 \$2;
#X obj 192 27 inlet;
#X obj 257 24 inlet;
#X obj 265 134 > 0;
#X text 20 5 STRIPPOLY: a poly without noteoff messages;
#X text 17 157 Derek Kwan \, 2016;
#X text 16 52 args and inlets same as poly;
#X connect 0 0 6 0;
#X connect 1 0 0 0;
#X connect 1 1 11 0;
#X connect 2 0 3 0;
#X connect 6 0 2 0;
#X connect 6 1 7 0;
#X connect 6 2 5 0;
#X connect 7 0 4 0;
#X connect 8 0 2 1;
#X connect 8 1 7 1;
#X connect 8 2 1 0;
#X connect 9 0 8 0;
#X connect 10 0 8 1;
#X connect 11 0 0 1;
