#N canvas 174 145 796 556 10;
#X obj 23 106 line~;
#X obj 29 157 samphold~;
#X obj 149 159 *~ 0.5;
#X obj 147 214 cos~;
#X obj 149 189 -~ 0.5;
#X obj 39 229 *~;
#X msg 29 84 0 \, \$1 \$1;
#X obj 154 70 delwrite~ \$0-stutter \$1;
#X obj 29 184 vd~ \$0-stutter;
#X obj 255 346 outlet~;
#X obj 364 65 > 0.5;
#X obj 268 15 inlet;
#X obj 268 199 line~;
#X obj 330 252 line~;
#X obj 152 19 inlet~;
#X obj 48 28 sel 1;
#X obj 243 248 *~;
#X obj 326 293 *~;
#X obj 214 12 inlet;
#X text 374 310 in 1: sig;
#X text 379 326 in 2: stutters/sec;
#X text 381 344 in 3: 0 = clean \, 1 = stutter;
#X text 375 277 arg 1: max stutter time (ms);
#X text 372 294 arg 2: stutters/sec;
#X obj 95 114 phasor~ \$2;
#X obj 369 149 == 0;
#X obj 354 95 change;
#X msg 373 46 0;
#X obj 357 12 loadbang;
#X msg 334 223 \$1 2;
#X msg 271 170 \$1 2;
#X obj 40 56 f \$1;
#X text 31 3 STUTTER~;
#X text 49 305 DEREK KWAN \, 2015;
#X connect 0 0 1 0;
#X connect 1 0 8 0;
#X connect 2 0 4 0;
#X connect 3 0 5 1;
#X connect 4 0 3 0;
#X connect 5 0 16 0;
#X connect 6 0 0 0;
#X connect 8 0 5 0;
#X connect 10 0 26 0;
#X connect 11 0 10 0;
#X connect 12 0 16 1;
#X connect 13 0 17 1;
#X connect 14 0 17 0;
#X connect 14 0 7 0;
#X connect 15 0 31 0;
#X connect 16 0 9 0;
#X connect 17 0 9 0;
#X connect 18 0 24 0;
#X connect 24 0 1 1;
#X connect 24 0 2 0;
#X connect 25 0 29 0;
#X connect 26 0 25 0;
#X connect 26 0 30 0;
#X connect 26 0 15 0;
#X connect 27 0 10 0;
#X connect 28 0 27 0;
#X connect 29 0 13 0;
#X connect 30 0 12 0;
#X connect 31 0 6 0;
