#N canvas 299 341 450 396 10;
#X obj 23 106 line~;
#X obj 29 157 samphold~;
#X obj 16 221 *~ 0.5;
#X obj 64 290 cos~;
#X obj 57 259 -~ 0.5;
#X obj 138 273 *~;
#X obj 84 41 \$1, f 4;
#X msg 60 66 0 \, \$1 \$1;
#X obj 156 141 delay \$1;
#X obj 236 107 tgl 15 0 empty empty empty 17 7 0 10 -262144 -1 -1 1
1;
#X obj 302 55 loadbang 0;
#X obj 273 125 delwrite~ \$0-stutter \$1;
#X obj 117 216 vd~ \$0-stutter;
#X obj 94 364 outlet~;
#X obj 223 61 > 0.5;
#X obj 276 26 inlet;
#X obj 201 167 < 0.5;
#X obj 182 195 tgl 15 0 empty empty empty 17 7 0 10 -262144 -1 -1 0
1;
#X obj 171 296 line~;
#X msg 219 264 \$1 5;
#X obj 237 316 line~;
#X msg 257 245 \$1 5;
#X obj 152 19 inlet~;
#X obj 162 71 sel 1;
#X obj 173 99 bng 15 250 50 0 empty empty empty 17 7 0 10 -262144 -1
-1;
#X obj 128 320 *~;
#X obj 61 328 *~;
#X obj 214 12 inlet;
#X text 259 187 in 1: sig;
#X text 264 203 in 2: stutters/sec;
#X text 266 221 in 3: 0 = clean \, 1 = stutter;
#X text 260 154 arg 1: max stutter time (ms);
#X text 257 171 arg 2: stutters/sec;
#X obj 95 114 phasor~ \$2;
#X connect 0 0 1 0;
#X connect 1 0 12 0;
#X connect 2 0 4 0;
#X connect 3 0 5 1;
#X connect 4 0 3 0;
#X connect 5 0 25 0;
#X connect 6 0 7 0;
#X connect 7 0 0 0;
#X connect 9 0 16 0;
#X connect 9 0 23 0;
#X connect 9 0 19 0;
#X connect 10 0 9 0;
#X connect 12 0 5 0;
#X connect 14 0 9 0;
#X connect 15 0 14 0;
#X connect 16 0 17 0;
#X connect 16 0 21 0;
#X connect 18 0 25 1;
#X connect 19 0 18 0;
#X connect 20 0 26 1;
#X connect 21 0 20 0;
#X connect 22 0 26 0;
#X connect 22 0 11 0;
#X connect 23 0 6 0;
#X connect 23 0 24 0;
#X connect 25 0 13 0;
#X connect 26 0 13 0;
#X connect 27 0 33 0;
#X connect 33 0 1 1;
#X connect 33 0 2 0;
