#N canvas 440 138 1411 945 10;
#X obj 100 105 cnv 15 200 80 empty empty empty 20 12 0 14 -233017 -66577
0;
#X msg 471 391 start;
#X msg 545 392 stop;
#X obj 422 417 timer;
#X obj 414 366 t b b;
#X floatatom 429 446 5 0 0 0 - - -;
#X floatatom 961 319 5 0 0 0 - - -;
#X obj 656 179 t b f;
#X msg 669 219 1;
#X obj 727 234 /;
#X obj 636 276 phasor~ 1;
#X obj 809 226 * 44100;
#X obj 730 303 *~ 0;
#X obj 449 471 / 1000;
#X obj 402 308 t b b;
#X obj 379 274 bangsync 500;
#X obj 490 236 bangsync 500;
#X obj 106 125 bng 50 250 50 0 empty empty empty 17 7 0 10 -262144
-1 -1;
#X obj 165 124 bng 50 250 50 0 empty empty empty 17 7 0 10 -262144
-1 -1;
#X text 115 108 Start;
#X text 172 107 Stop;
#X obj 227 124 tgl 50 0 empty empty empty 17 7 0 10 -262144 -1 -1 0
1;
#X obj 519 93 inlet;
#X text 565 95 tempo;
#X obj 404 76 inlet~;
#X text 456 75 Signal;
#X text 230 106 Sync;
#X text 108 174 SyncLoop;
#X obj 620 105 inlet;
#X text 657 102 Start;
#X obj 708 110 inlet;
#X text 745 107 Stop;
#X obj 793 117 inlet;
#X text 839 114 Sync;
#X obj 776 524 outlet~;
#X text 831 523 Signal;
#X obj 919 527 outlet;
#X text 968 526 beat monitoring;
#X obj 538 528 tabwrite~ \$0-array1;
#X obj 675 327 tabread4~ \$0-array1;
#X obj 226 294 t b b;
#X obj 933 196 sel 0;
#X obj 961 103 metro 5;
#X obj 866 277 snapshot~;
#X obj 208 431 \$0;
#X msg 206 491 \; \$1-array1 const 0;
#X obj 198 209 change;
#X msg 102 224 0;
#X msg 146 229 1;
#X obj 259 251 sel 0 1;
#X obj 341 435 bng 15 250 50 0 empty empty empty 17 7 0 10 -262144
-1 -1;
#X obj 367 500 bng 15 250 50 0 empty empty empty 17 7 0 10 -262144
-1 -1;
#X msg 607 319 0;
#X obj 1074 273 table \$0-array1 1.323e+06;
#X connect 1 0 38 0;
#X connect 2 0 38 0;
#X connect 3 0 5 0;
#X connect 4 0 3 1;
#X connect 4 1 3 0;
#X connect 5 0 13 0;
#X connect 7 0 8 0;
#X connect 7 1 9 1;
#X connect 7 1 11 0;
#X connect 8 0 9 0;
#X connect 9 0 10 0;
#X connect 10 0 12 0;
#X connect 11 0 6 0;
#X connect 11 0 12 1;
#X connect 12 0 39 0;
#X connect 13 0 7 0;
#X connect 14 1 4 0;
#X connect 14 1 1 0;
#X connect 15 0 14 0;
#X connect 15 0 52 0;
#X connect 15 1 36 0;
#X connect 15 1 50 0;
#X connect 16 0 2 0;
#X connect 16 0 3 1;
#X connect 16 0 52 0;
#X connect 16 1 51 0;
#X connect 17 0 47 0;
#X connect 18 0 48 0;
#X connect 21 0 15 0;
#X connect 21 0 42 0;
#X connect 21 0 16 0;
#X connect 22 0 15 1;
#X connect 22 0 16 1;
#X connect 24 0 38 0;
#X connect 28 0 17 0;
#X connect 30 0 18 0;
#X connect 32 0 21 0;
#X connect 39 0 34 0;
#X connect 40 0 44 0;
#X connect 40 1 15 2;
#X connect 42 0 43 0;
#X connect 44 0 45 0;
#X connect 46 0 49 0;
#X connect 47 0 46 0;
#X connect 48 0 46 0;
#X connect 49 0 40 0;
#X connect 49 1 16 2;
#X connect 52 0 10 1;
#X coords 0 -1 1 1 200 90 2 100 100;
