#N canvas 310 123 1289 567 10;
#X obj 123 314 + 1;
#X msg 124 279 0;
#X obj 85 311 f 0;
#X obj 112 215 inlet;
#X obj 38 206 bng 15 250 50 0 empty empty empty 17 7 0 10 -262144 -1
-1;
#X text 40 382 subdiv;
#X text 261 483 beat;
#X obj 351 511 spigot;
#X msg 420 482 1;
#X obj 362 442 t b b;
#X msg 382 484 0;
#X obj 629 355 f 0;
#X obj 675 361 + 1;
#X msg 645 324 0, f 2;
#X obj 758 236 inlet;
#X obj 747 341 f;
#X obj 791 358 spigot;
#X msg 870 331 1;
#X msg 832 333 0;
#X obj 708 260 t b b;
#X obj 808 303 t f b;
#X obj 280 327 / 4;
#X obj 260 365 i;
#X obj 382 277 t b f;
#X obj 390 344 / 2;
#X obj 377 223 moses 0;
#X obj 392 192 f \$2;
#X obj 413 158 inlet;
#X obj 331 396 sel 1 0;
#X obj 413 383 moses 3;
#X msg 413 405 0;
#X msg 448 404 1;
#X obj 413 427 change;
#X obj 369 303 f 4;
#X obj 475 225 - 1;
#X obj 188 103 inlet;
#X obj 188 125 f \$1;
#X obj 163 160 moses 0;
#X msg 180 432 0;
#X msg 215 431 1;
#X obj 180 454 change;
#X obj 146 183 - 1;
#X obj 180 476 sel 1;
#X obj 303 174 t b f;
#X obj 166 235 r \$0-reset, f 11;
#X obj 1084 121 loadbang;
#X obj 1039 196 s \$0-reset;
#X obj 1181 122 inlet;
#X obj 65 144 inlet;
#X text 54 115 #1: bangs;
#X text 206 144 \$1/#2: number of subdivs;
#X text 467 162 \$2/#3: subdivs per beat;
#X obj 939 120 inlet;
#X obj 113 242 % 16;
#X obj 180 410 moses 15;
#X obj 940 179 s \$0-beatnum;
#X obj 103 380 r \$0-setchange;
#X obj 475 342 r \$0-setchange;
#X obj 1137 196 s \$0-setchange;
#X obj 915 152 t b f;
#X obj 810 181 s \$0-setchange;
#X obj 163 278 r \$0-beatnum;
#X text 875 81 #5: set subdiv on next bang;
#X text 1093 79 #6: reset;
#X obj 45 424 outlet;
#X obj 267 450 outlet;
#X obj 625 450 outlet;
#X obj 659 299 r \$0-reset;
#X obj 463 435 r \$0-reset;
#X obj 1078 151 bang;
#X text 632 414 measure;
#X text 866 254 #4: set measure on next bang;
#X text 41 23 TPORT: FANCY COUNTER;
#X text 299 66 inlets: 1 bangs \, 2 num of subdivs \, 3 subdivs/beat
\, 4 set measure \, 5 set subdiv \, 6 reset;
#X text 305 104 outlets: 1 subdiv \, 2 beat \, 3 measure;
#X text 304 45 args: 1 number of subdivs \, 2 subdivs per beat;
#X text 49 59 DEREK X KWAN \, 2016;
#X obj 82 183 t b b;
#X obj 185 202 s \$0-measbang;
#X obj 708 218 r \$0-measbang;
#X connect 0 0 2 1;
#X connect 1 0 2 1;
#X connect 2 0 0 0;
#X connect 2 0 21 0;
#X connect 2 0 54 0;
#X connect 2 0 64 0;
#X connect 3 0 53 0;
#X connect 4 0 77 0;
#X connect 7 0 11 0;
#X connect 8 0 7 1;
#X connect 9 0 10 0;
#X connect 9 1 7 0;
#X connect 10 0 7 1;
#X connect 11 0 12 0;
#X connect 11 0 66 0;
#X connect 12 0 11 1;
#X connect 13 0 11 1;
#X connect 14 0 20 0;
#X connect 15 0 16 0;
#X connect 16 0 11 0;
#X connect 17 0 16 1;
#X connect 18 0 16 1;
#X connect 19 0 18 0;
#X connect 19 1 15 0;
#X connect 20 0 15 1;
#X connect 20 1 17 0;
#X connect 21 0 22 0;
#X connect 21 0 29 0;
#X connect 22 0 65 0;
#X connect 23 0 33 0;
#X connect 23 1 24 1;
#X connect 24 0 21 1;
#X connect 25 1 23 0;
#X connect 25 1 34 0;
#X connect 26 0 25 0;
#X connect 27 0 26 0;
#X connect 28 0 8 0;
#X connect 28 1 9 0;
#X connect 29 0 30 0;
#X connect 29 1 31 0;
#X connect 30 0 32 0;
#X connect 31 0 32 0;
#X connect 32 0 28 0;
#X connect 33 0 24 0;
#X connect 34 0 29 1;
#X connect 35 0 36 0;
#X connect 36 0 37 0;
#X connect 37 1 41 0;
#X connect 37 1 43 0;
#X connect 37 1 53 1;
#X connect 38 0 40 0;
#X connect 39 0 40 0;
#X connect 40 0 42 0;
#X connect 41 0 54 1;
#X connect 42 0 1 0;
#X connect 43 0 26 0;
#X connect 43 1 33 1;
#X connect 44 0 1 0;
#X connect 45 0 69 0;
#X connect 47 0 69 0;
#X connect 48 0 77 0;
#X connect 52 0 59 0;
#X connect 53 0 2 1;
#X connect 54 0 38 0;
#X connect 54 1 39 0;
#X connect 56 0 38 0;
#X connect 57 0 30 0;
#X connect 59 0 60 0;
#X connect 59 1 55 0;
#X connect 61 0 2 1;
#X connect 67 0 13 0;
#X connect 68 0 8 0;
#X connect 69 0 46 0;
#X connect 69 0 58 0;
#X connect 77 0 2 0;
#X connect 77 1 78 0;
#X connect 79 0 19 0;
