#N canvas 590 327 831 482 12;
#X obj 73 22 inlet;
#X obj 202 257 outlet~;
#X obj 133 128 phasor~;
#X obj 129 174 *~ -1;
#X obj 119 200 +~ 1;
#X obj 214 205 min~;
#X obj 211 154 *~ 0.5;
#X obj 272 175 *~ 0.5;
#X obj 84 78 f \$1;
#X obj 153 29 loadbang;
#X connect 0 0 8 0;
#X connect 2 0 3 0;
#X connect 2 0 6 0;
#X connect 3 0 4 0;
#X connect 4 0 7 0;
#X connect 5 0 1 0;
#X connect 6 0 5 0;
#X connect 7 0 5 1;
#X connect 8 0 2 0;
#X connect 9 0 8 0;
