#N canvas 761 344 617 533 12;
#X obj 209 90 inlet;
#X obj 271 90 inlet;
#X obj 333 90 inlet;
#X obj 527 93 inlet;
#X obj 128 492 outlet~;
#X text 13 2 ADSR ENVELOPE;
#X text 205 68 attack;
#X text 272 67 decay;
#X text 524 72 release;
#X obj 128 467 vline~;
#X obj 25 241 v \$0-v;
#X obj 222 193 v \$0-a;
#X obj 274 165 v \$0-d;
#X obj 263 283 v \$0-s;
#X obj 521 184 v \$0-r;
#X obj 146 194 s \$0-nuv;
#X obj 115 88 inlet;
#X obj 385 96 r \$0-nuv;
#N canvas 854 244 522 544 release 0;
#X obj 77 187 timer;
#X obj 82 152 t b b;
#X floatatom 48 221 5 0 0 0 - - -, f 5;
#X obj 345 199 v \$0-a;
#X obj 407 202 v \$0-d;
#X obj 246 184 t f b b;
#X obj 198 293 sel 1 0;
#X obj 145 16 r \$0-nuv;
#X obj 146 47 v \$0-v;
#X obj 141 96 > 0;
#X obj 144 127 sel 0 1;
#X obj 150 164 bng 15 250 50 0 empty empty empty 17 7 0 10 -262144
-1 -1;
#X obj 199 319 v \$0-r;
#X obj 200 368 pack 0 f;
#X obj 199 343 t b f;
#X obj 205 465 s \$0-envgen;
#X obj 233 213 expr $f2+$f3-$f1;
#X obj 208 265 > 0;
#X obj 234 237 t f f;
#X obj 278 266 t f b b;
#X obj 275 329 expr min($f1 \, min($f2 \, $f3));
#X obj 428 291 v \$0-d;
#X obj 350 294 v \$0-r;
#X obj 311 388 v \$0-vs;
#X obj 383 390 v \$0-r;
#X obj 283 356 t f b b;
#X obj 286 414 pack 0 0 0;
#X msg 285 438 \$2 \$1 \, 0 \$3 \$1;
#X obj 146 71 change;
#X connect 0 0 2 0;
#X connect 0 0 5 0;
#X connect 1 0 0 0;
#X connect 1 1 0 1;
#X connect 3 0 16 1;
#X connect 4 0 16 2;
#X connect 5 0 16 0;
#X connect 5 1 3 0;
#X connect 5 2 4 0;
#X connect 6 0 12 0;
#X connect 7 0 8 0;
#X connect 8 0 28 0;
#X connect 9 0 10 0;
#X connect 10 0 1 0;
#X connect 10 0 11 0;
#X connect 12 0 14 0;
#X connect 13 0 15 0;
#X connect 14 0 13 0;
#X connect 14 1 13 1;
#X connect 16 0 18 0;
#X connect 17 0 6 0;
#X connect 18 0 17 0;
#X connect 18 1 19 0;
#X connect 19 0 20 0;
#X connect 19 1 22 0;
#X connect 19 2 21 0;
#X connect 20 0 25 0;
#X connect 21 0 20 2;
#X connect 22 0 20 1;
#X connect 23 0 26 1;
#X connect 24 0 26 2;
#X connect 25 0 26 0;
#X connect 25 1 23 0;
#X connect 25 2 24 0;
#X connect 26 0 27 0;
#X connect 27 0 15 0;
#X connect 28 0 9 0;
#X restore 349 417 pd release;
#N canvas 118 505 450 300 attack 0;
#X obj 90 24 r \$0-nuv;
#X obj 88 51 v \$0-v;
#X obj 145 191 v \$0-v;
#X obj 213 191 v \$0-a;
#X obj 275 193 v \$0-d;
#X obj 137 219 pack 0 0 0 0;
#X msg 137 243 \$1 \$2 \, \$4 \$3 \$2;
#X obj 137 267 s \$0-envgen;
#X obj 88 75 change;
#X obj 84 101 > 0;
#X obj 84 125 sel 0 1;
#X obj 138 157 t b b b b;
#X obj 331 194 v \$0-sv;
#X connect 0 0 1 0;
#X connect 1 0 8 0;
#X connect 2 0 5 0;
#X connect 3 0 5 1;
#X connect 4 0 5 2;
#X connect 5 0 6 0;
#X connect 6 0 7 0;
#X connect 8 0 9 0;
#X connect 9 0 10 0;
#X connect 10 1 11 0;
#X connect 11 0 2 0;
#X connect 11 1 3 0;
#X connect 11 2 4 0;
#X connect 11 3 12 0;
#X connect 12 0 5 3;
#X restore 352 390 pd attack;
#X text 119 66 peak level;
#X obj 123 117 f \$1;
#X obj 121 155 t b f;
#X obj 120 439 r \$0-envgen;
#X obj 216 152 f \$2;
#X obj 281 137 f \$3;
#X obj 334 135 f \$4;
#X obj 333 166 t f b;
#X obj 521 144 f \$5;
#X text 141 223 new level trig;
#X text 323 67 sustain (percent of level);
#X obj 43 78 loadbang;
#X text 13 25 based off diy-adsr~ by matt davey;
#X obj 298 226 * 0.01;
#X obj 79 234 > 0;
#X obj 92 285 f;
#X obj 79 254 sel 0 1;
#X obj 79 376 v \$0-sv;
#X obj 66 200 t f f;
#X obj 124 343 *;
#X obj 52 335 v \$0-s;
#X obj 82 307 t b f;
#X text 170 343 sustain scaled by level;
#X connect 0 0 24 0;
#X connect 1 0 25 0;
#X connect 2 0 26 0;
#X connect 3 0 28 0;
#X connect 9 0 4 0;
#X connect 16 0 21 0;
#X connect 17 0 26 0;
#X connect 21 0 22 0;
#X connect 22 0 15 0;
#X connect 22 1 38 0;
#X connect 23 0 9 0;
#X connect 24 0 11 0;
#X connect 25 0 12 0;
#X connect 26 0 27 0;
#X connect 27 0 33 0;
#X connect 28 0 14 0;
#X connect 31 0 21 0;
#X connect 31 0 24 0;
#X connect 31 0 25 0;
#X connect 31 0 26 0;
#X connect 31 0 28 0;
#X connect 33 0 13 0;
#X connect 34 0 36 0;
#X connect 35 0 41 0;
#X connect 36 1 35 0;
#X connect 38 0 34 0;
#X connect 38 1 10 0;
#X connect 38 1 35 1;
#X connect 39 0 37 0;
#X connect 40 0 39 0;
#X connect 41 0 40 0;
#X connect 41 1 39 1;
