#N canvas 164 122 832 685 10;
#X obj 349 393 line~;
#X obj 407 24 inlet;
#X obj 407 46 unpack f f f;
#X obj 588 25 inlet;
#X obj 499 82 f \$1;
#X text 23 96 arg1/in2: sample size;
#X obj 348 82 *;
#X obj 351 337 pack f f f;
#X msg 351 359 \$1 \, \$2 \$3;
#X obj 349 415 outlet~;
#X text 16 33 using line~;
#X text 21 196 DEREK KWAN \, 2016;
#X obj 455 366 delay;
#X obj 455 388 outlet;
#X text 15 145 out1: sig;
#X text 13 161 out2: line finished (bang);
#X text 15 13 LINEREADPCT2~: sample indexer abstraction;
#X text 23 66 in1: list of start pct \, rate \, and duration (ms);
#X obj 424 198 samplerate~;
#X obj 395 148 / 1000;
#X obj 384 214 *;
#X obj 395 170 t f b;
#X text 440 148 to s;
#X text 497 212 to samples;
#X obj 354 279 +, f 5;
#X obj 456 101 t f f f;
#X obj 369 239 *;
#X text 399 235 multiply by rate;
#X obj 320 170 t b f f;
#X connect 0 0 9 0;
#X connect 1 0 2 0;
#X connect 2 0 6 0;
#X connect 2 1 26 0;
#X connect 2 2 25 0;
#X connect 3 0 4 0;
#X connect 4 0 6 1;
#X connect 6 0 28 0;
#X connect 7 0 8 0;
#X connect 8 0 0 0;
#X connect 12 0 13 0;
#X connect 18 0 20 1;
#X connect 19 0 21 0;
#X connect 20 0 26 1;
#X connect 21 0 20 0;
#X connect 21 1 18 0;
#X connect 24 0 7 1;
#X connect 25 0 12 1;
#X connect 25 1 7 2;
#X connect 25 2 19 0;
#X connect 26 0 24 1;
#X connect 28 0 12 0;
#X connect 28 1 7 0;
#X connect 28 2 24 0;
