#N canvas 844 256 804 468 10;
#X obj 349 393 line~;
#X text 15 13 LINEREADPCT~: sample indexer abstraction;
#X obj 407 24 inlet;
#X text 23 66 in1: list of start pct \, end pct \, rate;
#X obj 407 46 unpack f f f;
#X obj 588 25 inlet;
#X obj 499 82 f \$1;
#X text 23 96 arg1/in2: sample size;
#X obj 411 83 *;
#X obj 348 82 *;
#X obj 413 239 samplerate~;
#X obj 386 152 -;
#X obj 384 259 /;
#X obj 380 199 t f b;
#X obj 395 284 * 1;
#X obj 336 121 t f f;
#X obj 351 337 pack f f f;
#X obj 401 127 t f f;
#X msg 351 359 \$1 \, \$2 \$3;
#X obj 349 415 outlet~;
#X text 16 33 using line~;
#X text 21 196 DEREK KWAN \, 2016;
#X obj 468 144 t b f;
#X msg 468 166 1;
#X obj 468 188 /;
#X obj 380 177 * -1000;
#X obj 455 366 delay;
#X obj 409 309 t b f;
#X obj 455 388 outlet;
#X text 15 145 out1: sig;
#X text 13 161 out2: line finished (bang);
#X connect 0 0 19 0;
#X connect 2 0 4 0;
#X connect 4 0 9 0;
#X connect 4 1 8 0;
#X connect 4 2 22 0;
#X connect 5 0 6 0;
#X connect 6 0 8 1;
#X connect 6 0 9 1;
#X connect 8 0 17 0;
#X connect 9 0 15 0;
#X connect 10 0 12 1;
#X connect 11 0 25 0;
#X connect 12 0 14 0;
#X connect 13 0 12 0;
#X connect 13 1 10 0;
#X connect 14 0 27 0;
#X connect 15 0 16 0;
#X connect 15 1 11 0;
#X connect 16 0 18 0;
#X connect 17 0 16 1;
#X connect 17 1 11 1;
#X connect 18 0 0 0;
#X connect 22 0 23 0;
#X connect 22 1 24 1;
#X connect 23 0 24 0;
#X connect 24 0 14 1;
#X connect 25 0 13 0;
#X connect 26 0 28 0;
#X connect 27 0 26 0;
#X connect 27 1 16 2;
#X connect 27 1 26 1;
