#N canvas 294 203 879 399 10;
#X obj 336 28 inlet;
#X obj 467 28 inlet;
#X obj 336 50 t b f;
#X obj 312 97 samplerate~;
#X obj 296 187 /;
#X obj 293 297 phasor~;
#X obj 293 319 *~;
#X obj 296 228 * 1;
#X obj 350 172 t b f;
#X obj 293 341 outlet~;
#X text 385 28 sample size;
#X text 508 27 rate;
#X text 34 17 PHASREAD~: sample indexer abstraction;
#X obj 577 31 inlet;
#X text 614 32 phase;
#X text 30 75 in1: sample size;
#X text 28 94 in2: rate;
#X text 29 114 in3: phase;
#X text 28 154 DEREK KWAN \, 2016;
#X text 36 35 using phasor~;
#X connect 0 0 2 0;
#X connect 1 0 8 0;
#X connect 2 0 3 0;
#X connect 2 1 4 1;
#X connect 2 1 6 1;
#X connect 3 0 4 0;
#X connect 4 0 7 0;
#X connect 5 0 6 0;
#X connect 6 0 9 0;
#X connect 7 0 5 0;
#X connect 8 0 7 0;
#X connect 8 1 7 1;
#X connect 13 0 5 1;
