#N canvas 938 359 656 615 12;
#X text 4 13 dkge~: >=~;
#X obj 252 211 min~;
#X obj 252 236 -~;
#X obj 254 286 /~;
#X obj 254 311 -~ 1;
#X obj 254 336 *~ -1;
#X obj 326 159 inlet~;
#X obj 219 162 inlet~;
#X obj 254 361 outlet~;
#X text 238 416 NOTE: like dkeq~ \, suffers from -0;
#X text 488 4 derek kwan 2017;
#X text 492 23 gpl v 3;
#X text 490 48 pdkvabs;
#X connect 1 0 2 0;
#X connect 2 0 3 0;
#X connect 2 0 3 1;
#X connect 3 0 4 0;
#X connect 4 0 5 0;
#X connect 5 0 8 0;
#X connect 6 0 1 1;
#X connect 6 0 2 1;
#X connect 7 0 1 0;
