#N canvas 966 524 1148 379 12;
#X obj 444 240 spigot 0;
#X obj 560 243 spigot 0;
#X obj 500 181 == 0;
#X obj 620 180 == 1;
#X obj 416 94 inlet;
#X obj 558 106 inlet;
#X obj 444 265 outlet;
#X obj 560 268 outlet;
#X obj 290 101 f \$1;
#X obj 283 63 inlet;
#X obj 353 64 loadbang;
#X text 40 161 args: default selection;
#X text 35 197 inlets: selector (0-indexed) \, choices;
#X text 994 22 derek kwan;
#X text 1002 66 pdkvabs;
#X text 1000 95 gpl v 3 2017;
#X obj 683 221 spigot 0;
#X obj 681 84 inlet;
#X obj 683 246 outlet;
#X obj 743 158 == 2;
#X text 21 13 dkvmux4 - vanilla multiplexer (control);
#X obj 833 221 spigot 0;
#X obj 831 84 inlet;
#X obj 833 246 outlet;
#X obj 893 158 == 3;
#X connect 0 0 6 0;
#X connect 1 0 7 0;
#X connect 2 0 0 1;
#X connect 3 0 1 1;
#X connect 4 0 0 0;
#X connect 5 0 1 0;
#X connect 8 0 2 0;
#X connect 8 0 3 0;
#X connect 8 0 19 0;
#X connect 8 0 24 0;
#X connect 9 0 8 0;
#X connect 10 0 8 0;
#X connect 16 0 18 0;
#X connect 17 0 16 0;
#X connect 19 0 16 1;
#X connect 21 0 23 0;
#X connect 22 0 21 0;
#X connect 24 0 21 1;
