#N canvas 959 443 1417 584 12;
#X obj 436 327 spigot 0;
#X obj 552 330 spigot 0;
#X obj 408 181 inlet;
#X obj 550 193 inlet;
#X obj 696 490 outlet;
#X obj 290 101 f \$1;
#X obj 283 63 inlet;
#X obj 353 64 loadbang;
#X text 40 161 args: default selection;
#X text 35 197 inlets: selector (0-indexed) \, choices;
#X text 971 47 derek kwan;
#X text 969 66 pdkvabs;
#X text 965 97 gpl v 3 2017;
#X obj 675 308 spigot 0;
#X obj 673 171 inlet;
#X obj 825 308 spigot 0;
#X obj 823 171 inlet;
#X obj 925 311 spigot 0;
#X obj 923 174 inlet;
#X obj 492 268 == 1;
#X obj 612 267 == 2;
#X obj 735 259 == 3;
#X obj 885 259 == 4;
#X obj 985 257 == 5;
#X obj 1031 312 spigot 0;
#X obj 1029 175 inlet;
#X obj 1091 258 == 6;
#X obj 1140 310 spigot 0;
#X obj 1138 173 inlet;
#X text 21 13 dkvmux7 - vanilla multiplexer (control);
#X obj 280 128 min 7;
#X obj 1200 256 == 7;
#X connect 0 0 4 0;
#X connect 1 0 4 0;
#X connect 2 0 0 0;
#X connect 3 0 1 0;
#X connect 5 0 30 0;
#X connect 6 0 5 0;
#X connect 7 0 5 0;
#X connect 13 0 4 0;
#X connect 14 0 13 0;
#X connect 15 0 4 0;
#X connect 16 0 15 0;
#X connect 17 0 4 0;
#X connect 18 0 17 0;
#X connect 19 0 0 1;
#X connect 20 0 1 1;
#X connect 21 0 13 1;
#X connect 22 0 15 1;
#X connect 23 0 17 1;
#X connect 24 0 4 0;
#X connect 25 0 24 0;
#X connect 26 0 24 1;
#X connect 27 0 4 0;
#X connect 28 0 27 0;
#X connect 30 0 19 0;
#X connect 30 0 20 0;
#X connect 30 0 21 0;
#X connect 30 0 22 0;
#X connect 30 0 23 0;
#X connect 30 0 26 0;
#X connect 30 0 31 0;
#X connect 31 0 27 1;
