#N canvas 416 171 1170 344 12;
#X obj 444 240 spigot 0;
#X obj 560 243 spigot 0;
#X obj 416 94 inlet;
#X obj 558 106 inlet;
#X obj 444 296 outlet;
#X obj 290 101 f \$1;
#X obj 283 63 inlet;
#X obj 353 64 loadbang;
#X text 21 13 dkvmux2 - vanilla multiplexer (control);
#X text 40 161 args: default selection;
#X text 35 197 inlets: selector (0-indexed) \, choices;
#X text 894 25 derek kwan;
#X text 902 69 pdkvabs;
#X text 900 98 gpl v 3 2017;
#X obj 500 181 == 1;
#X obj 620 180 == 2;
#X obj 290 126 min 2;
#X connect 0 0 4 0;
#X connect 1 0 4 0;
#X connect 2 0 0 0;
#X connect 3 0 1 0;
#X connect 5 0 16 0;
#X connect 6 0 5 0;
#X connect 7 0 5 0;
#X connect 14 0 0 1;
#X connect 15 0 1 1;
#X connect 16 0 14 0;
#X connect 16 0 15 0;
