#N canvas 472 307 1569 370 12;
#X obj 444 240 spigot 0;
#X obj 560 243 spigot 0;
#X obj 500 181 == 0;
#X obj 620 180 == 1;
#X obj 416 94 inlet;
#X obj 558 106 inlet;
#X obj 452 316 outlet;
#X obj 290 101 f \$1;
#X obj 283 63 inlet;
#X obj 353 64 loadbang;
#X text 40 161 args: default selection;
#X text 35 197 inlets: selector (0-indexed) \, choices;
#X text 1175 25 derek kwan;
#X text 1183 69 pdkvabs;
#X text 1181 98 gpl v 3 2017;
#X obj 683 221 spigot 0;
#X obj 681 84 inlet;
#X obj 743 158 == 2;
#X obj 833 221 spigot 0;
#X obj 831 84 inlet;
#X obj 893 158 == 3;
#X text 21 13 dkvmux5 - vanilla multiplexer (control);
#X obj 933 224 spigot 0;
#X obj 931 87 inlet;
#X obj 993 161 == 4;
#X connect 0 0 6 0;
#X connect 1 0 6 0;
#X connect 2 0 0 1;
#X connect 3 0 1 1;
#X connect 4 0 0 0;
#X connect 5 0 1 0;
#X connect 7 0 2 0;
#X connect 7 0 3 0;
#X connect 7 0 17 0;
#X connect 7 0 20 0;
#X connect 7 0 24 0;
#X connect 8 0 7 0;
#X connect 9 0 7 0;
#X connect 15 0 6 0;
#X connect 16 0 15 0;
#X connect 17 0 15 1;
#X connect 18 0 6 0;
#X connect 19 0 18 0;
#X connect 20 0 18 1;
#X connect 22 0 6 0;
#X connect 23 0 22 0;
#X connect 24 0 22 1;
