#N canvas 1300 397 1069 850 12;
#X obj 50 197 inlet;
#X obj 151 285 max 1;
#X obj 183 255 f \$1;
#X obj 161 193 loadbang;
#X obj 42 326 dkfor, f 18;
#X obj 161 218 t b b;
#X obj 51 240 f \$2;
#X obj 54 783 namecanvas \$0-dkvmux;
#X obj 177 434 + 350;
#X obj 63 591 t a a;
#X obj 177 459 t f f;
#X obj 148 513 - 50;
#X obj 39 434 t f f f;
#X obj 73 479 + 1;
#X obj 119 484 + 2;
#X obj 76 561 pack f f f f f f \$0;
#X obj 42 351 t f f f, f 24;
#X obj 241 467 + 1;
#X msg 30 619 \; \$7-dkvmux obj \$5 140 == \$6 \, obj \$4 100 inlet
\, obj \$4 175 spigot 0;
#X obj 177 409 * 100;
#X obj 42 376 * 3;
#X text 26 45 args: number of inlets \, default inlet open (1-idx)
;
#X text 30 82 inlet1: inlet selector (1-idx);
#X text 471 4 derek kwan \, pdkvabs \, gpl v3 2017;
#X obj 35 409 + 29;
#X msg 57 682 \; \$7-dkvmux connect 27 0 \$1 0 \, connect \$1 0 \$3
1 \, connect \$2 0 \$3 0 \, connect \$3 0 28 0;
#X text 34 18 dkvmux - dynamic patched input multiplexer (control)
;
#X obj 51 265 min 1;
#X obj 279 592 outlet;
#X connect 0 0 6 0;
#X connect 1 0 4 0;
#X connect 1 0 27 1;
#X connect 2 0 1 0;
#X connect 3 0 5 0;
#X connect 4 0 16 0;
#X connect 5 0 6 0;
#X connect 5 1 2 0;
#X connect 6 0 27 0;
#X connect 8 0 10 0;
#X connect 9 0 25 0;
#X connect 9 1 18 0;
#X connect 10 0 11 0;
#X connect 10 1 15 4;
#X connect 11 0 15 3;
#X connect 12 0 15 0;
#X connect 12 1 13 0;
#X connect 12 2 14 0;
#X connect 13 0 15 1;
#X connect 14 0 15 2;
#X connect 15 0 9 0;
#X connect 16 0 20 0;
#X connect 16 1 19 0;
#X connect 16 2 17 0;
#X connect 17 0 15 5;
#X connect 19 0 8 0;
#X connect 20 0 24 0;
#X connect 24 0 12 0;
#X connect 27 0 20 0;
