#N canvas 559 148 1107 676 10;
#X obj 278 156 inlet~;
#X obj 343 562 outlet~;
#X msg 391 191 1;
#X msg 420 194 0, f 2;
#X obj 410 167 t b b f;
#X obj 401 229 metro 50;
#X obj 923 199 loadbang;
#X obj 363 99 r \$0-gr;
#X obj 924 299 moses 0.5;
#X msg 927 334 5;
#X obj 947 352 s \$0-gr;
#N canvas 619 173 986 773 grain1 0;
#X obj 286 335 t f b;
#X obj 305 403 +;
#X obj 333 345 random 882;
#X obj 372 391 - 441;
#X obj 709 161 inlet;
#X text 705 132 transposition (hs);
#X obj 701 487 t b f;
#X obj 691 583 pow;
#X obj 748 528 / 12;
#X msg 679 528 2;
#X obj 548 557 f 1;
#X text 848 125 amp;
#X obj 864 169 inlet;
#X obj 377 434 t f b;
#X obj 371 463 + 0;
#X obj 711 381 f 0;
#X obj 755 451 / 100;
#X obj 794 403 random 0;
#X obj 699 455 +;
#X obj 706 423 t f b;
#X obj 333 654 pack 0 0 0 0 0;
#X obj 808 659 / 100;
#X obj 746 658 t f b;
#X obj 746 680 +;
#X obj 635 617 * 132;
#X obj 424 510 samplerate~;
#X obj 481 540 * 1000;
#X obj 387 529 /;
#X obj 375 487 t f f b;
#X obj 561 468 t b b b f;
#X obj 746 636 f 1;
#X obj 298 277 t f b;
#X obj 308 306 pipe;
#N canvas 393 209 895 237 graindist 0;
#X obj 578 11 catch~ \$0-out;
#X obj 590 47 outlet~;
#X obj 230 2 inlet;
#X obj 352 28 loadbang;
#X obj 352 50 tukeymaker \$0-tukey 1024 0.25;
#X obj 338 102 table \$0-tukey 1024;
#N canvas 22 204 886 498 grains1-16 0;
#X obj -4 91 throw~ \$0-out;
#X obj 8 150 throw~ \$0-out;
#X obj 169 26 route 1 2 3 4 5 6 7 8 9 10 11 12 13 14 15 16;
#X obj 23 209 throw~ \$0-out;
#X obj 38 268 throw~ \$0-out;
#X obj 167 100 throw~ \$0-out;
#X obj 179 159 throw~ \$0-out;
#X obj 191 217 throw~ \$0-out;
#X obj 206 276 throw~ \$0-out;
#X obj 317 95 throw~ \$0-out;
#X obj 329 154 throw~ \$0-out;
#X obj 344 213 throw~ \$0-out;
#X obj 359 272 throw~ \$0-out;
#X obj 488 104 throw~ \$0-out;
#X obj 500 163 throw~ \$0-out;
#X obj 512 221 throw~ \$0-out;
#X obj 527 280 throw~ \$0-out;
#X obj -8 62 fgrain \$1 \$0-tukey 1024;
#X obj -4 125 fgrain \$1 \$0-tukey 1024;
#X obj 19 180 fgrain \$1 \$0-tukey 1024;
#X obj 26 243 fgrain \$1 \$0-tukey 1024;
#X obj 163 71 fgrain \$1 \$0-tukey 1024;
#X obj 167 134 fgrain \$1 \$0-tukey 1024;
#X obj 187 188 fgrain \$1 \$0-tukey 1024;
#X obj 194 251 fgrain \$1 \$0-tukey 1024;
#X obj 313 66 fgrain \$1 \$0-tukey 1024;
#X obj 317 129 fgrain \$1 \$0-tukey 1024;
#X obj 340 184 fgrain \$1 \$0-tukey 1024;
#X obj 347 247 fgrain \$1 \$0-tukey 1024;
#X obj 484 75 fgrain \$1 \$0-tukey 1024;
#X obj 488 138 fgrain \$1 \$0-tukey 1024;
#X obj 508 192 fgrain \$1 \$0-tukey 1024;
#X obj 515 255 fgrain \$1 \$0-tukey 1024;
#X obj 180 -2 inlet;
#X obj 505 33 outlet;
#X connect 2 0 17 0;
#X connect 2 1 18 0;
#X connect 2 2 19 0;
#X connect 2 3 20 0;
#X connect 2 4 21 0;
#X connect 2 5 22 0;
#X connect 2 6 23 0;
#X connect 2 7 24 0;
#X connect 2 8 25 0;
#X connect 2 9 26 0;
#X connect 2 10 27 0;
#X connect 2 11 28 0;
#X connect 2 12 29 0;
#X connect 2 13 30 0;
#X connect 2 14 31 0;
#X connect 2 15 32 0;
#X connect 2 16 34 0;
#X connect 17 0 0 0;
#X connect 18 0 1 0;
#X connect 19 0 3 0;
#X connect 20 0 4 0;
#X connect 21 0 5 0;
#X connect 22 0 6 0;
#X connect 23 0 7 0;
#X connect 24 0 8 0;
#X connect 25 0 9 0;
#X connect 26 0 10 0;
#X connect 27 0 11 0;
#X connect 28 0 12 0;
#X connect 29 0 13 0;
#X connect 30 0 14 0;
#X connect 31 0 15 0;
#X connect 32 0 16 0;
#X connect 33 0 2 0;
#X restore 227 45 pd grains1-16;
#N canvas 1 59 1017 633 grains17-32 0;
#X obj 111 380 throw~ \$0-out;
#X obj 123 439 throw~ \$0-out;
#X obj 138 498 throw~ \$0-out;
#X obj 153 557 throw~ \$0-out;
#X obj 282 389 throw~ \$0-out;
#X obj 294 448 throw~ \$0-out;
#X obj 306 506 throw~ \$0-out;
#X obj 321 565 throw~ \$0-out;
#X obj 432 384 throw~ \$0-out;
#X obj 444 443 throw~ \$0-out;
#X obj 459 502 throw~ \$0-out;
#X obj 474 561 throw~ \$0-out;
#X obj 603 393 throw~ \$0-out;
#X obj 615 452 throw~ \$0-out;
#X obj 627 510 throw~ \$0-out;
#X obj 642 569 throw~ \$0-out;
#X obj 285 317 route 17 18 19 20 21 22 23 24 25 26 27 28 29 30 31 32
;
#X obj 107 351 fgrain \$1 \$0-tukey 1024;
#X obj 111 414 fgrain \$1 \$0-tukey 1024;
#X obj 134 469 fgrain \$1 \$0-tukey 1024;
#X obj 141 532 fgrain \$1 \$0-tukey 1024;
#X obj 278 360 fgrain \$1 \$0-tukey 1024;
#X obj 282 423 fgrain \$1 \$0-tukey 1024;
#X obj 302 477 fgrain \$1 \$0-tukey 1024;
#X obj 309 540 fgrain \$1 \$0-tukey 1024;
#X obj 428 355 fgrain \$1 \$0-tukey 1024;
#X obj 432 418 fgrain \$1 \$0-tukey 1024;
#X obj 455 473 fgrain \$1 \$0-tukey 1024;
#X obj 462 536 fgrain \$1 \$0-tukey 1024;
#X obj 599 364 fgrain \$1 \$0-tukey 1024;
#X obj 603 427 fgrain \$1 \$0-tukey 1024;
#X obj 623 481 fgrain \$1 \$0-tukey 1024;
#X obj 630 544 fgrain \$1 \$0-tukey 1024;
#X obj 338 257 inlet;
#X obj 684 303 outlet;
#X connect 16 0 17 0;
#X connect 16 1 18 0;
#X connect 16 2 19 0;
#X connect 16 3 20 0;
#X connect 16 4 21 0;
#X connect 16 5 22 0;
#X connect 16 6 23 0;
#X connect 16 7 24 0;
#X connect 16 8 25 0;
#X connect 16 9 26 0;
#X connect 16 10 27 0;
#X connect 16 11 28 0;
#X connect 16 12 29 0;
#X connect 16 13 30 0;
#X connect 16 14 31 0;
#X connect 16 15 32 0;
#X connect 16 16 34 0;
#X connect 17 0 0 0;
#X connect 18 0 1 0;
#X connect 19 0 2 0;
#X connect 20 0 3 0;
#X connect 21 0 4 0;
#X connect 22 0 5 0;
#X connect 23 0 6 0;
#X connect 24 0 7 0;
#X connect 25 0 8 0;
#X connect 26 0 9 0;
#X connect 27 0 10 0;
#X connect 28 0 11 0;
#X connect 29 0 12 0;
#X connect 30 0 13 0;
#X connect 31 0 14 0;
#X connect 32 0 15 0;
#X connect 33 0 16 0;
#X restore 217 73 pd grains17-32;
#X connect 0 0 1 0;
#X connect 2 0 6 0;
#X connect 3 0 4 0;
#X connect 6 0 7 0;
#X restore 332 703 pd graindist;
#X obj 349 598 stripnote;
#X obj 280 615 f;
#X obj 315 625 t b f;
#X obj 359 283 random 3;
#X obj 436 281 / 1000;
#X obj 462 302 t b f;
#X obj 417 324 samplerate~;
#X obj 459 356 *;
#X obj 418 450 random 441;
#X obj 248 730 print;
#X obj 249 690 spigot;
#X obj 281 656 tgl 15 0 empty empty empty 17 7 0 10 -262144 -1 -1 0
1;
#X obj 429 398 f;
#X obj 305 431 t f b;
#X obj 711 403 * -1;
#X text 494 430 rand pos;
#X text 380 251 rand dur;
#X obj 808 637 random 6;
#X text 855 656 amp rand;
#X text 802 448 transposition rand;
#X obj 350 251 * 3;
#X obj 317 205 vsnapshot~;
#X obj 429 420 * 16;
#X obj 289 570 poly 32 1, f 27;
#X obj 486 195 inlet;
#X text 533 190 grain rate;
#X obj 337 156 inlet~;
#X text 349 133 sig;
#X text 392 137 bangs;
#X obj 390 154 inlet;
#X obj 354 737 outlet~;
#X obj 426 172 inlet;
#X text 459 147 offset;
#X obj 317 227 + 0;
#X connect 0 0 1 0;
#X connect 0 1 2 0;
#X connect 1 0 47 0;
#X connect 2 0 3 0;
#X connect 3 0 1 1;
#X connect 4 0 15 1;
#X connect 6 0 9 0;
#X connect 6 1 8 0;
#X connect 7 0 24 0;
#X connect 8 0 7 1;
#X connect 9 0 7 0;
#X connect 10 0 20 3;
#X connect 12 0 30 1;
#X connect 13 0 14 0;
#X connect 13 1 42 0;
#X connect 14 0 28 0;
#X connect 15 0 48 0;
#X connect 16 0 18 1;
#X connect 17 0 16 0;
#X connect 18 0 6 0;
#X connect 19 0 18 0;
#X connect 19 1 17 0;
#X connect 20 0 44 0;
#X connect 20 0 33 0;
#X connect 21 0 23 1;
#X connect 22 0 23 0;
#X connect 22 1 51 0;
#X connect 23 0 20 4;
#X connect 24 0 10 1;
#X connect 25 0 27 1;
#X connect 25 0 27 1;
#X connect 26 0 29 0;
#X connect 27 0 26 0;
#X connect 27 0 26 0;
#X connect 28 0 57 1;
#X connect 28 1 27 0;
#X connect 28 2 25 0;
#X connect 29 0 10 0;
#X connect 29 1 15 0;
#X connect 29 2 30 0;
#X connect 29 3 24 1;
#X connect 30 0 22 0;
#X connect 31 0 32 0;
#X connect 31 1 37 0;
#X connect 32 0 0 0;
#X connect 33 0 64 0;
#X connect 34 0 36 0;
#X connect 34 1 20 2;
#X connect 35 0 20 0;
#X connect 36 0 35 0;
#X connect 36 1 20 1;
#X connect 37 0 32 1;
#X connect 38 0 39 0;
#X connect 39 0 40 0;
#X connect 39 1 41 1;
#X connect 40 0 41 0;
#X connect 41 0 46 1;
#X connect 42 0 14 1;
#X connect 44 0 43 0;
#X connect 45 0 44 1;
#X connect 46 0 56 0;
#X connect 47 0 57 0;
#X connect 47 1 46 0;
#X connect 48 0 19 0;
#X connect 51 0 21 0;
#X connect 54 0 37 1;
#X connect 55 0 67 0;
#X connect 56 0 13 0;
#X connect 57 0 35 1;
#X connect 57 1 34 0;
#X connect 57 2 34 1;
#X connect 58 0 54 0;
#X connect 58 0 38 0;
#X connect 60 0 55 0;
#X connect 63 0 55 0;
#X connect 65 0 67 1;
#X connect 67 0 31 0;
#X restore 308 417 pd grain1;
#X text 1004 161 grain rate;
#X obj 478 136 inlet;
#X text 511 115 transposition(sig1);
#X text 283 128 pos 1(samps);
#X obj 535 163 inlet~;
#N canvas 751 218 986 773 grain2 0;
#X obj 286 335 t f b;
#X obj 305 403 +;
#X obj 333 345 random 882;
#X obj 372 391 - 441;
#X obj 709 161 inlet;
#X text 705 132 transposition (hs);
#X obj 701 487 t b f;
#X obj 691 583 pow;
#X obj 748 528 / 12;
#X msg 679 528 2;
#X obj 548 557 f 1;
#X text 848 125 amp;
#X obj 864 169 inlet;
#X obj 377 434 t f b;
#X obj 371 463 + 0;
#X obj 711 381 f 0;
#X obj 755 451 / 100;
#X obj 794 403 random 0;
#X obj 699 455 +;
#X obj 706 423 t f b;
#X obj 333 654 pack 0 0 0 0 0;
#X obj 808 659 / 100;
#X obj 746 658 t f b;
#X obj 746 680 +;
#X obj 635 617 * 132;
#X obj 424 510 samplerate~;
#X obj 481 540 * 1000;
#X obj 387 529 /;
#X obj 375 487 t f f b;
#X obj 561 468 t b b b f;
#X obj 746 636 f 1;
#X obj 298 277 t f b;
#X obj 308 306 pipe;
#N canvas 639 187 895 237 graindist 0;
#X obj 590 47 outlet~;
#X obj 230 2 inlet;
#X obj 578 11 catch~ \$0-out2;
#N canvas 20 207 886 498 grains2_1-16 0;
#X obj 169 26 route 1 2 3 4 5 6 7 8 9 10 11 12 13 14 15 16;
#X obj 180 -2 inlet;
#X obj 505 33 outlet;
#X obj -8 62 fgrain \$2 \$0-tukey 1024;
#X obj -4 125 fgrain \$2 \$0-tukey 1024;
#X obj 19 180 fgrain \$2 \$0-tukey 1024;
#X obj 26 243 fgrain \$2 \$0-tukey 1024;
#X obj 8 150 throw~ \$0-out2;
#X obj 23 209 throw~ \$0-out2;
#X obj 38 268 throw~ \$0-out2;
#X obj 181 75 fgrain \$2 \$0-tukey 1024;
#X obj 185 138 fgrain \$2 \$0-tukey 1024;
#X obj 208 193 fgrain \$2 \$0-tukey 1024;
#X obj 215 256 fgrain \$2 \$0-tukey 1024;
#X obj 197 163 throw~ \$0-out2;
#X obj 212 222 throw~ \$0-out2;
#X obj 227 281 throw~ \$0-out2;
#X obj 340 75 fgrain \$2 \$0-tukey 1024;
#X obj 344 138 fgrain \$2 \$0-tukey 1024;
#X obj 367 193 fgrain \$2 \$0-tukey 1024;
#X obj 374 256 fgrain \$2 \$0-tukey 1024;
#X obj 356 163 throw~ \$0-out2;
#X obj 371 222 throw~ \$0-out2;
#X obj 386 281 throw~ \$0-out2;
#X obj 509 89 fgrain \$2 \$0-tukey 1024;
#X obj 513 152 fgrain \$2 \$0-tukey 1024;
#X obj 536 207 fgrain \$2 \$0-tukey 1024;
#X obj 543 270 fgrain \$2 \$0-tukey 1024;
#X obj 525 177 throw~ \$0-out2;
#X obj 540 236 throw~ \$0-out2;
#X obj 555 295 throw~ \$0-out2;
#X obj 513 118 throw~ \$0-out2;
#X obj 344 104 throw~ \$0-out2;
#X obj 185 104 throw~ \$0-out2;
#X obj -4 91 throw~ \$0-out2;
#X connect 0 0 3 0;
#X connect 0 1 4 0;
#X connect 0 2 5 0;
#X connect 0 3 6 0;
#X connect 0 4 10 0;
#X connect 0 5 11 0;
#X connect 0 6 12 0;
#X connect 0 7 13 0;
#X connect 0 8 17 0;
#X connect 0 9 18 0;
#X connect 0 10 19 0;
#X connect 0 11 20 0;
#X connect 0 12 24 0;
#X connect 0 13 25 0;
#X connect 0 14 26 0;
#X connect 0 15 27 0;
#X connect 0 16 2 0;
#X connect 1 0 0 0;
#X connect 3 0 34 0;
#X connect 4 0 7 0;
#X connect 5 0 8 0;
#X connect 6 0 9 0;
#X connect 10 0 33 0;
#X connect 11 0 14 0;
#X connect 12 0 15 0;
#X connect 13 0 16 0;
#X connect 17 0 32 0;
#X connect 18 0 21 0;
#X connect 19 0 22 0;
#X connect 20 0 23 0;
#X connect 24 0 31 0;
#X connect 25 0 28 0;
#X connect 26 0 29 0;
#X connect 27 0 30 0;
#X restore 170 55 pd grains2_1-16;
#N canvas 390 204 886 498 grains2_17-32 0;
#X obj 180 -2 inlet;
#X obj 505 33 outlet;
#X obj -8 62 fgrain \$2 \$0-tukey 1024;
#X obj -4 125 fgrain \$2 \$0-tukey 1024;
#X obj 19 180 fgrain \$2 \$0-tukey 1024;
#X obj 26 243 fgrain \$2 \$0-tukey 1024;
#X obj 8 150 throw~ \$0-out2;
#X obj 23 209 throw~ \$0-out2;
#X obj 38 268 throw~ \$0-out2;
#X obj 181 75 fgrain \$2 \$0-tukey 1024;
#X obj 185 138 fgrain \$2 \$0-tukey 1024;
#X obj 208 193 fgrain \$2 \$0-tukey 1024;
#X obj 215 256 fgrain \$2 \$0-tukey 1024;
#X obj 197 163 throw~ \$0-out2;
#X obj 212 222 throw~ \$0-out2;
#X obj 227 281 throw~ \$0-out2;
#X obj 340 75 fgrain \$2 \$0-tukey 1024;
#X obj 344 138 fgrain \$2 \$0-tukey 1024;
#X obj 367 193 fgrain \$2 \$0-tukey 1024;
#X obj 374 256 fgrain \$2 \$0-tukey 1024;
#X obj 356 163 throw~ \$0-out2;
#X obj 371 222 throw~ \$0-out2;
#X obj 386 281 throw~ \$0-out2;
#X obj 509 89 fgrain \$2 \$0-tukey 1024;
#X obj 513 152 fgrain \$2 \$0-tukey 1024;
#X obj 536 207 fgrain \$2 \$0-tukey 1024;
#X obj 543 270 fgrain \$2 \$0-tukey 1024;
#X obj 525 177 throw~ \$0-out2;
#X obj 540 236 throw~ \$0-out2;
#X obj 555 295 throw~ \$0-out2;
#X obj 169 26 route 17 18 19 20 21 22 23 24 25 26 27 28 29 30 31 32
;
#X obj -4 91 throw~ \$0-out2;
#X obj 185 104 throw~ \$0-out2;
#X obj 344 104 throw~ \$0-out2;
#X obj 513 118 throw~ \$0-out2;
#X connect 0 0 30 0;
#X connect 2 0 31 0;
#X connect 3 0 6 0;
#X connect 4 0 7 0;
#X connect 5 0 8 0;
#X connect 9 0 32 0;
#X connect 10 0 13 0;
#X connect 11 0 14 0;
#X connect 12 0 15 0;
#X connect 16 0 33 0;
#X connect 17 0 20 0;
#X connect 18 0 21 0;
#X connect 19 0 22 0;
#X connect 23 0 34 0;
#X connect 24 0 27 0;
#X connect 25 0 28 0;
#X connect 26 0 29 0;
#X connect 30 0 2 0;
#X connect 30 1 3 0;
#X connect 30 2 4 0;
#X connect 30 3 5 0;
#X connect 30 4 9 0;
#X connect 30 5 10 0;
#X connect 30 6 11 0;
#X connect 30 7 12 0;
#X connect 30 8 16 0;
#X connect 30 9 17 0;
#X connect 30 10 18 0;
#X connect 30 11 19 0;
#X connect 30 12 23 0;
#X connect 30 13 24 0;
#X connect 30 14 25 0;
#X connect 30 15 26 0;
#X connect 30 16 1 0;
#X restore 173 92 pd grains2_17-32;
#X connect 1 0 3 0;
#X connect 2 0 0 0;
#X connect 3 0 4 0;
#X restore 332 703 pd graindist;
#X obj 349 598 stripnote;
#X obj 280 615 f;
#X obj 315 625 t b f;
#X obj 359 283 random 3;
#X obj 436 281 / 1000;
#X obj 462 302 t b f;
#X obj 417 324 samplerate~;
#X obj 459 356 *;
#X obj 418 450 random 441;
#X obj 248 730 print;
#X obj 249 690 spigot;
#X obj 281 656 tgl 15 0 empty empty empty 17 7 0 10 -262144 -1 -1 0
1;
#X obj 429 398 f;
#X obj 305 431 t f b;
#X obj 711 403 * -1;
#X text 494 430 rand pos;
#X text 380 251 rand dur;
#X obj 808 637 random 6;
#X text 855 656 amp rand;
#X text 802 448 transposition rand;
#X obj 350 251 * 3;
#X obj 317 205 vsnapshot~;
#X obj 429 420 * 16;
#X obj 289 570 poly 32 1, f 27;
#X obj 486 195 inlet;
#X text 533 190 grain rate;
#X obj 337 156 inlet~;
#X text 349 133 sig;
#X text 393 151 bangs;
#X obj 391 168 inlet;
#X obj 354 737 outlet~;
#X obj 451 158 inlet;
#X text 457 133 offset;
#X obj 317 227 + 0;
#X connect 0 0 1 0;
#X connect 0 1 2 0;
#X connect 1 0 47 0;
#X connect 2 0 3 0;
#X connect 3 0 1 1;
#X connect 4 0 15 1;
#X connect 6 0 9 0;
#X connect 6 1 8 0;
#X connect 7 0 24 0;
#X connect 8 0 7 1;
#X connect 9 0 7 0;
#X connect 10 0 20 3;
#X connect 12 0 30 1;
#X connect 13 0 14 0;
#X connect 13 1 42 0;
#X connect 14 0 28 0;
#X connect 15 0 48 0;
#X connect 16 0 18 1;
#X connect 17 0 16 0;
#X connect 18 0 6 0;
#X connect 19 0 18 0;
#X connect 19 1 17 0;
#X connect 20 0 44 0;
#X connect 20 0 33 0;
#X connect 21 0 23 1;
#X connect 22 0 23 0;
#X connect 22 1 51 0;
#X connect 23 0 20 4;
#X connect 24 0 10 1;
#X connect 25 0 27 1;
#X connect 25 0 27 1;
#X connect 26 0 29 0;
#X connect 27 0 26 0;
#X connect 27 0 26 0;
#X connect 28 0 57 1;
#X connect 28 1 27 0;
#X connect 28 2 25 0;
#X connect 29 0 10 0;
#X connect 29 1 15 0;
#X connect 29 2 30 0;
#X connect 29 3 24 1;
#X connect 30 0 22 0;
#X connect 31 0 32 0;
#X connect 31 1 37 0;
#X connect 32 0 0 0;
#X connect 33 0 64 0;
#X connect 34 0 36 0;
#X connect 34 1 20 2;
#X connect 35 0 20 0;
#X connect 36 0 35 0;
#X connect 36 1 20 1;
#X connect 37 0 32 1;
#X connect 38 0 39 0;
#X connect 39 0 40 0;
#X connect 39 1 41 1;
#X connect 40 0 41 0;
#X connect 41 0 46 1;
#X connect 42 0 14 1;
#X connect 44 0 43 0;
#X connect 45 0 44 1;
#X connect 46 0 56 0;
#X connect 47 0 57 0;
#X connect 47 1 46 0;
#X connect 48 0 19 0;
#X connect 51 0 21 0;
#X connect 54 0 37 1;
#X connect 55 0 67 0;
#X connect 56 0 13 0;
#X connect 57 0 35 1;
#X connect 57 1 34 0;
#X connect 57 2 34 1;
#X connect 58 0 54 0;
#X connect 58 0 38 0;
#X connect 60 0 55 0;
#X connect 63 0 55 0;
#X connect 65 0 67 1;
#X connect 67 0 31 0;
#X restore 572 422 pd grain2;
#X obj 436 305 t b b;
#X obj 336 352 spigot;
#X obj 587 338 spigot;
#X obj 445 375 / 500;
#X obj 444 399 - 1;
#X obj 993 205 inlet;
#X obj 444 435 >= -1;
#X obj 487 460 == 0;
#X obj 446 349 random 1000;
#X obj 733 154 inlet;
#X text 766 133 transposition(sig2);
#X obj 833 176 inlet;
#X obj 924 277 f \$4;
#X obj 827 243 clip -1 1;
#X obj 846 222 f \$3;
#X text 823 270 -1: all sig 1;
#X text 825 290 0: mixed;
#X text 821 310 1: all sig 2;
#X text 33 23 FGRAINXFADE~: granular stretcher-xfader;
#X text 43 97 in1: position of sig 1 (samps);
#X text 892 171 xfade;
#X text 44 283 arg1:soundtable 1;
#X text 45 313 arg2: soundtable 2;
#X text 43 333 arg3: xfade var;
#X text 44 363 arg4: grain rate (ms);
#X text 584 150 pos 2;
#X obj 424 121 inlet;
#X text 435 92 offset;
#X text 45 176 in6: transposition of sig 2;
#X text 47 203 in7: xfade var;
#X text 48 226 in8: grainrate;
#X text 41 132 in3: transposition of sig 1;
#X text 44 147 in4: position of sig 2 (samps);
#X text 42 117 in2: offset of pos 1;
#X text 46 162 in5: offset of pos 2;
#X obj 632 180 inlet;
#X text 633 162 offset;
#X connect 0 0 11 0;
#X connect 2 0 5 0;
#X connect 3 0 5 0;
#X connect 4 0 2 0;
#X connect 4 1 3 0;
#X connect 4 2 5 1;
#X connect 4 2 11 3;
#X connect 4 2 17 3;
#X connect 5 0 18 0;
#X connect 6 0 30 0;
#X connect 6 0 32 0;
#X connect 7 0 4 0;
#X connect 8 0 9 0;
#X connect 8 1 10 0;
#X connect 9 0 10 0;
#X connect 11 0 1 0;
#X connect 13 0 11 4;
#X connect 16 0 17 0;
#X connect 17 0 1 0;
#X connect 18 0 19 0;
#X connect 18 0 20 0;
#X connect 18 1 26 0;
#X connect 19 0 11 1;
#X connect 20 0 17 1;
#X connect 21 0 22 0;
#X connect 22 0 24 0;
#X connect 23 0 30 0;
#X connect 24 0 25 0;
#X connect 24 0 19 1;
#X connect 25 0 20 1;
#X connect 26 0 21 0;
#X connect 27 0 17 4;
#X connect 29 0 32 0;
#X connect 30 0 8 0;
#X connect 31 0 24 1;
#X connect 32 0 31 0;
#X connect 44 0 11 2;
#X connect 53 0 17 2;
