#N canvas 776 400 498 451 10;
#X obj 158 53 inlet;
#X obj 122 239 tabread~ \$1;
#X obj 163 261 *~;
#X text 29 17 inlet: pos (samps) \, grain size (samps) \, dur (ms)
\, amp;
#X obj 58 62 unpack f f f f;
#X obj 159 330 *~ 1;
#X obj 199 370 outlet~;
#X obj 107 140 +;
#X obj 82 182 pack 0 0 0;
#X msg 82 205 \$1 \, \$2 \$3;
#X obj 55 241 line~;
#X obj 37 119 t f f f;
#X obj 50 274 -~ 1;
#X obj 61 327 /~ 1;
#X obj 51 296 *~ \$3;
#X obj 63 358 tabread~ \$2;
#X text 229 48 args: \$1-array to read \, \$2-window name;
#X text 264 68 \$3 - window size;
#X connect 0 0 4 0;
#X connect 1 0 2 0;
#X connect 2 0 5 0;
#X connect 4 0 11 0;
#X connect 4 1 7 1;
#X connect 4 1 13 1;
#X connect 4 2 8 2;
#X connect 4 3 5 1;
#X connect 5 0 6 0;
#X connect 7 0 8 1;
#X connect 8 0 9 0;
#X connect 9 0 10 0;
#X connect 10 0 1 0;
#X connect 10 0 12 0;
#X connect 11 0 8 0;
#X connect 11 1 7 0;
#X connect 11 1 12 1;
#X connect 12 0 14 0;
#X connect 13 0 15 0;
#X connect 14 0 13 0;
#X connect 15 0 2 1;
