#N canvas 146 266 1073 622 10;
#X obj 170 298 bonk~;
#X obj 124 46 loadbang;
#X obj 168 439 outlet~;
#X obj 184 127 inlet~;
#X obj 175 400 clip~ -1 1;
#X obj 279 447 outlet;
#X obj 371 253 fgrainstr~ \$0-stretch 15;
#X obj 51 267 tabwrite~ \$0-stretch;
#X obj 829 11 inlet;
#X obj 564 30 f \$2;
#X obj 547 210 t f b;
#X obj 572 239 \$0;
#X obj 547 264 pack f f;
#X msg 547 286 \; \$2-stretch resize \$1;
#X obj 625 139 samplerate~;
#X obj 564 146 / 1000;
#X obj 565 181 *;
#X obj 569 119 t f b;
#X obj 369 36 f \$1;
#X obj 561 66 moses 500;
#X msg 566 97 220500;
#X obj 354 8 inlet;
#X obj 560 7 inlet;
#X text 824 286 in1: sig;
#X text 818 323 in3: buflen (ms);
#X text 828 413 out2: bonk trig;
#X text 828 398 out1: stretched sig;
#X text 794 500 DEREK KWAN \, 2016;
#X text 821 362 in5: bonk settings;
#X text 825 341 in4: grain rate(ms);
#X obj 700 18 inlet;
#X obj 700 40 f \$3;
#X obj 700 62 moses 1;
#X msg 700 84 15;
#X obj 371 220 vline~;
#X obj 373 155 pack f f;
#X obj 170 346 t b b;
#X obj 383 126 * 5000;
#X text 822 303 in2: stretch factor (x times orig len);
#X msg 367 83 4;
#X text 519 360 args: stretch factor \, buf len \, grain rate;
#X obj 379 60 moses 1;
#X obj 376 292 table \$0-stretch \$2;
#X msg 371 187 0 0 \, \$2 \$1 0;
#X msg 188 214 thresh 50 100;
#X text 62 9 fgraintrig~: triggered granular stretcher;
#X connect 0 0 5 0;
#X connect 0 0 36 0;
#X connect 1 0 44 0;
#X connect 1 0 9 0;
#X connect 1 0 31 0;
#X connect 3 0 0 0;
#X connect 3 0 7 0;
#X connect 4 0 2 0;
#X connect 6 0 4 0;
#X connect 8 0 0 0;
#X connect 9 0 19 0;
#X connect 10 0 12 0;
#X connect 10 0 35 1;
#X connect 10 1 11 0;
#X connect 11 0 12 1;
#X connect 12 0 13 0;
#X connect 14 0 16 1;
#X connect 15 0 16 0;
#X connect 16 0 10 0;
#X connect 17 0 37 1;
#X connect 17 0 15 0;
#X connect 17 1 14 0;
#X connect 18 0 41 0;
#X connect 19 0 20 0;
#X connect 19 1 17 0;
#X connect 20 0 17 0;
#X connect 21 0 18 0;
#X connect 22 0 9 0;
#X connect 30 0 31 0;
#X connect 31 0 32 0;
#X connect 32 0 33 0;
#X connect 32 1 6 1;
#X connect 33 0 6 1;
#X connect 34 0 6 0;
#X connect 35 0 43 0;
#X connect 36 0 18 0;
#X connect 36 1 7 0;
#X connect 37 0 35 0;
#X connect 39 0 37 0;
#X connect 41 0 39 0;
#X connect 41 1 37 0;
#X connect 43 0 34 0;
#X connect 44 0 0 0;
