#N canvas 776 400 498 451 10;
#X obj 158 53 inlet;
#X text 29 17 inlet: pos (samps) \, grain size (samps) \, dur (ms)
\, amp;
#X obj 135 86 unpack f f f f;
#X obj 199 370 outlet~;
#X obj 127 193 tabplay~ \$1;
#X obj 137 158 pack 0 0;
#X obj 218 238 tabread~ \$2;
#X obj 219 218 line~;
#X msg 223 185 0 \, \$1 \$2;
#X obj 243 121 f \$3;
#X obj 238 147 pack 0 0;
#X obj 266 92 t b f;
#X obj 163 278 *~;
#X obj 171 317 *~ 1;
#X text 229 48 args: \$1-array to read \, \$2-window array;
#X text 341 69 \$3-window size;
#X connect 0 0 2 0;
#X connect 2 0 5 0;
#X connect 2 1 5 1;
#X connect 2 2 11 0;
#X connect 2 3 13 1;
#X connect 4 0 12 0;
#X connect 5 0 4 0;
#X connect 6 0 12 1;
#X connect 7 0 6 0;
#X connect 8 0 7 0;
#X connect 9 0 10 0;
#X connect 10 0 8 0;
#X connect 11 0 9 0;
#X connect 11 1 10 1;
#X connect 12 0 13 0;
#X connect 13 0 3 0;
