#N canvas 387 122 798 476 12;
#X obj 492 116 f \$1;
#X text 416 208 lower;
#X text 518 203 upper;
#X obj 279 404 outlet;
#X obj 376 206 - 0;
#X obj 480 207 + 0;
#X obj 492 141 clip 0 1;
#X obj 500 72 loadbang;
#X obj 283 65 inlet;
#X obj 410 72 inlet;
#X text 413 92 tolerance;
#X text 302 87 float;
#X text 11 75 in1: float;
#X text 14 103 in2: tolerance;
#X text 20 135 arg1: tolerance;
#X text 635 21 pdkvabs;
#X text 643 71 gpl v 3 2017;
#X text 633 47 derek x kwan;
#X obj 387 161 i;
#X obj 435 157 i;
#X obj 284 116 t f f f f f, f 20;
#X obj 365 271 >=;
#X obj 418 273 <=;
#X obj 365 296 &&;
#X obj 274 354 spigot;
#X text 18 8 dkfdectol - passes float if within decimal tolerance of
int;
#X connect 0 0 6 0;
#X connect 4 0 21 1;
#X connect 5 0 22 1;
#X connect 6 0 4 1;
#X connect 6 0 5 1;
#X connect 7 0 0 0;
#X connect 8 0 20 0;
#X connect 9 0 6 0;
#X connect 18 0 4 0;
#X connect 19 0 5 0;
#X connect 20 0 24 0;
#X connect 20 1 21 0;
#X connect 20 2 22 0;
#X connect 20 3 18 0;
#X connect 20 4 19 0;
#X connect 21 0 23 0;
#X connect 22 0 23 1;
#X connect 23 0 24 1;
#X connect 24 0 3 0;
