#N canvas 481 501 415 293 10;
#X obj 48 61 inlet~;
#X obj 124 63 inlet~;
#X text 53 35 a;
#X text 133 36 ib;
#X text 97 33 +;
#X obj 198 63 inlet~;
#X obj 274 65 inlet~;
#X text 247 35 +;
#X text 203 37 c;
#X text 284 38 id;
#X obj 63 126 *~;
#X obj 124 120 *~;
#X obj 63 177 -~;
#X obj 288 125 *~;
#X obj 206 120 *~;
#X text 18 126 ac;
#X text 116 147 bd;
#X text 206 151 bc;
#X text 303 145 ad;
#X obj 252 188 +~;
#X obj 225 243 outlet~;
#X obj 103 242 outlet~;
#X connect 0 0 10 0;
#X connect 0 0 13 0;
#X connect 1 0 11 0;
#X connect 1 0 14 0;
#X connect 5 0 10 1;
#X connect 5 0 14 1;
#X connect 6 0 11 1;
#X connect 6 0 13 1;
#X connect 10 0 12 0;
#X connect 11 0 12 1;
#X connect 12 0 21 0;
#X connect 13 0 19 1;
#X connect 14 0 19 0;
#X connect 19 0 20 0;
