#N canvas 977 450 739 308 12;
#X obj 162 111 inlet~;
#X text 225 112 real;
#X obj 362 113 inlet~;
#X text 422 114 imag;
#X obj 156 186 *~;
#X obj 358 199 *~;
#X obj 156 211 +~;
#X obj 156 236 q8_sqrt~;
#X obj 156 261 outlet~;
#X text 555 23 derek kwan;
#X text 561 47 pdkvabs;
#X text 565 73 gpl v 3 2017;
#X text 22 13 dkcmag~ - complex magnitude;
#X connect 0 0 4 0;
#X connect 0 0 4 1;
#X connect 2 0 5 0;
#X connect 2 0 5 1;
#X connect 4 0 6 0;
#X connect 5 0 6 1;
#X connect 6 0 7 0;
#X connect 7 0 8 0;
