#N canvas 841 458 643 517 12;
#X obj 204 164 -~;
#X obj 204 194 /~;
#X obj 204 232 -~ 1;
#X obj 204 257 *~ -1;
#X obj 204 282 outlet~;
#X obj 164 96 inlet~;
#X obj 352 93 inlet~;
#X text 4 18 dkeq~: ==~;
#X text 487 10 derek kwan 2017;
#X text 486 31 gpl v 3;
#X text 482 51 pdkvabs;
#X text 180 354 NOTE: we get -0 instead of 0 \, think about this...
;
#X connect 0 0 1 0;
#X connect 0 0 1 1;
#X connect 1 0 2 0;
#X connect 2 0 3 0;
#X connect 3 0 4 0;
#X connect 5 0 0 0;
#X connect 6 0 0 1;
