#N canvas 712 277 906 499 12;
#X obj 264 208 max~;
#X obj 264 233 -~;
#X obj 262 271 /~;
#X obj 262 296 -~ 1;
#X obj 262 321 *~ -1;
#X text 17 20 dkle~: <=~;
#X obj 262 346 outlet~;
#X text 250 390 NOTE: like dkeq~ \, suffers from -0;
#X text 673 12 derek kwan 2017;
#X text 670 38 gpl v 3;
#X text 666 64 pdkvabs;
#X obj 245 146 inlet~;
#X obj 356 144 inlet~;
#X connect 0 0 1 0;
#X connect 1 0 2 0;
#X connect 1 0 2 1;
#X connect 2 0 3 0;
#X connect 3 0 4 0;
#X connect 4 0 6 0;
#X connect 11 0 0 0;
#X connect 12 0 0 1;
#X connect 12 0 1 1;
