#N canvas 1025 223 565 518 12;
#X obj 233 250 min~;
#X obj 235 322 -~;
#X obj 233 378 /~;
#X obj 292 153 inlet~;
#X obj 141 154 inlet~;
#X obj 233 403 outlet~;
#X text 11 16 dklt~: <~;
#X text 428 15 derek kwan 2017;
#X text 431 34 gpl v 3;
#X text 429 57 pdkvabs;
#X connect 0 0 1 0;
#X connect 1 0 2 0;
#X connect 1 0 2 1;
#X connect 2 0 5 0;
#X connect 3 0 0 1;
#X connect 3 0 1 1;
#X connect 4 0 0 0;
