#N canvas 592 483 738 514 12;
#X obj 215 81 inlet~;
#X obj 532 81 inlet;
#X text 288 76 sig~;
#X text 585 81 on/off;
#X obj 371 82 inlet;
#X obj 198 356 snapshot~;
#X obj 90 320 metro;
#X obj 198 381 outlet;
#X text 419 84 rate (ms);
#X obj 384 130 loadbang;
#X obj 386 213 moses 1e-20, f 21;
#X msg 386 238 50;
#X obj 386 167 f \$1;
#X text 578 128 derek kwan;
#X text 585 176 gpl v 3 2017;
#X text 24 25 dknum~ - signal to float;
#X obj 456 166 f \$2;
#X text 36 61 arg: rate (ms) on/off;
#X text 582 144 pdkvabs;
#X connect 0 0 5 0;
#X connect 1 0 6 0;
#X connect 4 0 6 1;
#X connect 5 0 7 0;
#X connect 6 0 5 0;
#X connect 9 0 12 0;
#X connect 9 0 16 0;
#X connect 10 0 11 0;
#X connect 10 1 6 1;
#X connect 11 0 6 1;
#X connect 12 0 10 0;
#X connect 16 0 6 0;
