#N canvas 889 255 908 499 12;
#X obj 292 135 inlet;
#X obj 421 138 inlet;
#X obj 545 136 inlet;
#X obj 629 138 inlet;
#X text 433 111 in-hi;
#X text 341 118 in-lo;
#X text 541 114 out-lo;
#X text 650 118 out-hi;
#X obj 306 235 -;
#X obj 292 168 f \$1;
#X obj 421 166 f \$2;
#X obj 545 163 f \$3;
#X obj 629 168 f \$4;
#X obj 292 193 t b f;
#X obj 545 188 t b f;
#X obj 559 233 -;
#X text 762 26 derek kwan;
#X text 763 50 pdkvabs;
#X text 765 73 gpl v 3 2017;
#X obj 408 8 loadbang;
#X text 26 28 dkrange~ - range mapping (signal);
#X text 206 100 sig~;
#X obj 147 99 inlet~;
#X obj 148 265 -~;
#X obj 147 300 *~;
#X obj 147 325 +~;
#X obj 147 350 outlet~;
#X obj 470 355 /;
#X obj 400 297 t b f;
#X obj 408 33 t b b b b;
#X connect 0 0 9 0;
#X connect 1 0 10 0;
#X connect 2 0 11 0;
#X connect 3 0 12 0;
#X connect 8 0 28 0;
#X connect 9 0 13 0;
#X connect 10 0 8 0;
#X connect 11 0 14 0;
#X connect 12 0 15 0;
#X connect 13 0 10 0;
#X connect 13 1 8 1;
#X connect 13 1 23 1;
#X connect 14 0 12 0;
#X connect 14 1 15 1;
#X connect 14 1 25 1;
#X connect 15 0 27 0;
#X connect 19 0 29 0;
#X connect 22 0 23 0;
#X connect 23 0 24 0;
#X connect 24 0 25 0;
#X connect 25 0 26 0;
#X connect 27 0 24 1;
#X connect 28 0 15 0;
#X connect 28 1 27 1;
#X connect 29 0 9 0;
#X connect 29 1 10 0;
#X connect 29 2 11 0;
#X connect 29 3 12 0;
