#N canvas 769 458 630 374 12;
#X obj 222 109 inlet~;
#X obj 222 133 -~ 0.25;
#X obj 222 157 cos~;
#X obj 222 181 outlet~;
#X text 25 35 dksin~ - signal-rate sine (input range 0-1);
#X text 432 45 derek kwan;
#X text 436 73 gpl v 3 2018;
#X text 439 100 pdkvabs;
#X connect 0 0 1 0;
#X connect 1 0 2 0;
#X connect 2 0 3 0;
