#N canvas 264 248 1387 812 12;
#X obj 420 256 inlet;
#X obj 460 577 ggee/shell;
#X obj 420 281 route query controls set;
#X msg 585 509 amixer set \$1 \$2;
#X obj 601 335 list split 1;
#X obj 601 360 list prepend symbol;
#X obj 601 385 list trim;
#X obj 596 472 pack s f;
#X obj 422 615 print amixer;
#X obj 573 615 print amixer-done;
#X obj 862 243 inlet;
#X obj 680 442 clip 0 100;
#X obj 688 411 i;
#X obj 862 268 clip 0 100;
#X msg 862 327 list Master \$1;
#X text 915 244 Master;
#X msg 439 382 amixer scontrols;
#X obj 1021 243 inlet;
#X obj 1021 268 clip 0 100;
#X obj 1171 240 inlet;
#X obj 1171 265 clip 0 100;
#X text 1074 244 Headphone;
#X text 1224 241 Speaker;
#X obj 1021 293 i;
#X obj 862 293 i;
#X obj 1173 294 i;
#X msg 1021 327 list Headphone \$1;
#X msg 1171 324 list Speaker \$1;
#X text 20 46 abstraction over ggee/shell to set volume with amixer
;
#X text 1234 12 Derek Kwan;
#X text 1240 57 gpl v 3;
#X text 1235 31 pdkvabs;
#X obj 114 143 vsl 15 128 0 100 0 0 \$0-dkamixer-Master empty Master
0 -9 0 12 -262144 -1 -1 0 1;
#X floatatom 114 279 5 0 0 0 - - -, f 5;
#X obj 166 142 vsl 15 128 0 100 0 0 \$0-dkamixer-Headphone empty Headphone
0 -9 0 12 -262144 -1 -1 0 1;
#X floatatom 166 278 5 0 0 0 - - -, f 5;
#X obj 238 143 vsl 15 128 0 100 0 0 \$0-dkamixer-Speaker empty Speaker
0 -9 0 12 -262144 -1 -1 0 1;
#X floatatom 238 279 5 0 0 0 - - -, f 5;
#X obj 796 187 r \$0-dkamixer-Master;
#X obj 991 180 r \$0-dkamixer-Headphone;
#X obj 1200 177 r \$0-dkamixer-Speaker;
#X text 21 22 dkamixer~:;
#X connect 0 0 2 0;
#X connect 1 0 8 0;
#X connect 1 1 9 0;
#X connect 2 1 16 0;
#X connect 2 2 4 0;
#X connect 3 0 1 0;
#X connect 4 0 5 0;
#X connect 4 1 12 0;
#X connect 5 0 6 0;
#X connect 6 0 7 0;
#X connect 7 0 3 0;
#X connect 10 0 13 0;
#X connect 11 0 7 1;
#X connect 12 0 11 0;
#X connect 13 0 24 0;
#X connect 14 0 3 0;
#X connect 16 0 1 0;
#X connect 17 0 18 0;
#X connect 18 0 23 0;
#X connect 19 0 20 0;
#X connect 20 0 25 0;
#X connect 23 0 26 0;
#X connect 24 0 14 0;
#X connect 25 0 27 0;
#X connect 26 0 3 0;
#X connect 27 0 3 0;
#X connect 32 0 33 0;
#X connect 34 0 35 0;
#X connect 36 0 37 0;
#X connect 38 0 13 0;
#X connect 39 0 18 0;
#X connect 40 0 20 0;
#X coords 0 -1 1 1 200 200 1 100 100;
