#N canvas 1331 465 822 753 12;
#X obj 171 280 ggee/shell, f 20;
#X obj 246 613 list store;
#X obj 223 94 inlet;
#X text 278 97 directory;
#X obj 246 637 outlet;
#X text 25 20 dkls: list of contents of directory;
#X text 9 82 inlet: path;
#X text 6 107 outlet: contents of path;
#X text 300 39 deps: ggee/shell;
#X text 500 43 gpl v 3;
#X text 500 69 pdkvabs;
#X text 498 17 derek kwan 2018;
#X obj 214 168 list prepend ls;
#X obj 214 192 list trim;
#X obj 186 517 list prepend append;
#X obj 186 541 list trim;
#X obj 413 107 inlet;
#X text 465 178 relative/full path;
#X text 11 58 args: relative or full path;
#X obj 413 199 f \$1;
#X obj 413 223 > 0;
#X obj 510 114 loadbang;
#X obj 171 304 list prepend;
#X obj 166 353 route 0 1, f 24;
#X obj 214 144 t a b a, f 25;
#X obj 412 304 symbol;
#X msg 412 328 set \$1/%s;
#X obj 312 420 makefilename;
#X obj 303 385 symbol;
#X msg 244 458 bang;
#X connect 0 0 22 0;
#X connect 0 1 29 0;
#X connect 1 0 4 0;
#X connect 2 0 24 0;
#X connect 12 0 13 0;
#X connect 13 0 0 0;
#X connect 14 0 15 0;
#X connect 15 0 1 0;
#X connect 16 0 19 0;
#X connect 19 0 20 0;
#X connect 20 0 22 1;
#X connect 21 0 19 0;
#X connect 22 0 23 0;
#X connect 23 0 14 0;
#X connect 23 1 28 0;
#X connect 24 0 12 0;
#X connect 24 1 1 1;
#X connect 24 2 25 0;
#X connect 25 0 26 0;
#X connect 26 0 27 0;
#X connect 27 0 14 0;
#X connect 28 0 27 0;
#X connect 29 0 1 0;
