#N canvas 539 385 1053 428 12;
#X obj 457 151 text fromlist -s \$1 \$2;
#X obj 412 345 text tolist -s \$1 \$2;
#X obj 107 143 bng 30 250 50 0 empty empty edit 0 -7 0 12 -262144 -1
-1;
#X obj 145 143 bng 30 250 50 0 empty empty send 0 -7 0 12 -262144 -1
-1;
#X obj 181 142 bng 30 250 50 0 empty empty read 0 -7 0 12 -262144 -1
-1;
#X obj 218 142 bng 30 250 50 0 empty empty write 0 -7 0 12 -262144
-1 -1;
#X obj 188 1 inlet;
#X msg 232 269 click;
#X obj 247 213 t b b;
#X obj 438 266 openpanel;
#X msg 438 291 read \$1;
#X obj 532 271 savepanel;
#X msg 532 296 write \$1;
#X msg 446 214 symbol \$1;
#X msg 548 214 symbol \$1;
#X obj 188 26 route edit send read write, f 58;
#X obj 676 25 inlet;
#X text 247 2 methods;
#X text 727 27 pointer;
#X text 6 17 pdkst-textdefine;
#X text 6 46 wrapper emulating [text define];
#X text 3 70 methods for a text struct member;
#X text 7 210 INLETS:;
#X text -2 230 (edit/send/read s/write s)/;
#X text 3 252 pointer to scalar in struct;
#X text 11 171 ARGS:;
#X text 8 192 structname/text member;
#X text 879 27 derek kwan 2017;
#X text 883 50 gpl v 3;
#X text 885 69 pdkvabs;
#X msg 295 294 close;
#X obj 300 255 t b b;
#X obj 167 354 text define \$0-proxytextst;
#X obj 456 105 text tolist \$0-proxytextst;
#X obj 412 370 text fromlist \$0-proxytextst;
#X connect 1 0 34 0;
#X connect 2 0 8 0;
#X connect 3 0 31 0;
#X connect 4 0 9 0;
#X connect 5 0 11 0;
#X connect 6 0 15 0;
#X connect 7 0 32 0;
#X connect 8 0 7 0;
#X connect 8 1 1 0;
#X connect 9 0 10 0;
#X connect 10 0 32 0;
#X connect 11 0 12 0;
#X connect 12 0 32 0;
#X connect 13 0 10 0;
#X connect 14 0 12 0;
#X connect 15 0 2 0;
#X connect 15 1 3 0;
#X connect 15 2 13 0;
#X connect 15 3 14 0;
#X connect 16 0 0 1;
#X connect 16 0 1 1;
#X connect 30 0 32 0;
#X connect 31 0 33 0;
#X connect 31 1 30 0;
#X connect 33 0 0 0;
#X coords 0 -1 1 1 160 80 1 100 100;
