#N canvas 622 185 1154 374 12;
#X obj 518 223 pointer;
#X obj 401 238 dkfor 1;
#X obj 553 103 symbol \$2;
#X obj 518 173 symbol \$2;
#X obj 447 277 append \$1 \$3;
#X obj 683 28 inlet;
#X msg 683 53 symbol \$1;
#X obj 395 143 spigot;
#X obj 437 110 > 0;
#X obj 383 53 t f f b b, f 18;
#X obj 381 22 inlet;
#X text 439 21 number of scalars to append;
#X text 738 31 name of data subpatch;
#X msg 553 128 \; pd-\$1 clear;
#X msg 518 198 traverse pd-\$1 \, bang;
#X text 18 14 pdkst-init;
#X text 14 40 init scalars of a struct by clearing out;
#X text 19 64 old contents and indexing by given element;
#X text 16 186 INLETS:;
#X text 13 214 number of scalars to append/;
#X text 15 237 name of data subpatch;
#X text 30 104 ARGS:;
#X text 31 127 struct name/data subpatch name/;
#X text 30 147 element to init;
#X connect 0 0 4 1;
#X connect 1 0 4 0;
#X connect 2 0 13 0;
#X connect 3 0 14 0;
#X connect 5 0 6 0;
#X connect 6 0 2 1;
#X connect 6 0 3 1;
#X connect 7 0 1 0;
#X connect 8 0 7 1;
#X connect 9 0 7 0;
#X connect 9 1 8 0;
#X connect 9 2 3 0;
#X connect 9 3 2 0;
#X connect 10 0 9 0;
#X connect 14 0 0 0;
