#N canvas 715 204 1119 868 12;
#X obj 146 281 line~;
#X msg 218 239 0;
#X msg 149 242 1 \$1;
#X obj 147 158 t b b;
#X obj 174 358 *~ 1;
#X obj 170 417 +~ 1;
#X obj 113 606 cos~;
#X obj 120 543 *~ 0.5;
#X obj 120 568 -~ 0.25;
#X obj 121 703 *~;
#X obj 195 533 clip~ 0 1;
#X obj 285 393 random 201;
#X obj 285 418 / 100;
#X obj 285 443 - 1;
#X obj 290 488 *;
#X obj 246 345 t f b b;
#X obj 238 457 +;
#X text 232 20 input:position in samples;
#X text 459 406 randomize position;
#X obj 152 130 t b b b f;
#X text 307 222 grainlength in samples;
#X obj 140 809 outlet~;
#X text 24 512 cosine window;
#X obj 151 15 inlet;
#X obj 389 354 v \$1-randsamp;
#X obj 379 489 v \$1-samplelen;
#X obj 257 271 v \$1-grainsamp;
#X obj 141 206 v \$1-grainms;
#X text 478 23 args: doll0 \, array name;
#X obj 755 6 inlet;
#X obj 213 610 tabread~ \$2;
#X obj 121 728 *~ 1;
#X obj 842 91 clip 0 1;
#X obj 301 695 / 100;
#X obj 826 177 + 1;
#X text 375 730 randomize amplitude;
#X obj 113 656 clip~ 0 1;
#X obj 113 631 *~ 2;
#N canvas 502 302 872 686 dkasg-deltrig 0;
#X obj 123 73 inlet;
#X obj 121 184 t b f, f 14;
#X obj 143 408 f;
#X obj 460 69 inlet;
#X text 154 47 position in samples;
#X obj 197 79 inlet;
#X text 244 75 trigivl in ms;
#X obj 132 218 random 1;
#X obj 139 368 del;
#X text 513 70 stop;
#X msg 455 128 stop;
#X obj 151 463 outlet;
#X obj 460 94 t b b;
#X obj 141 251 spigot 1;
#X msg 248 325 0;
#X msg 399 135 1;
#X text 290 361 don't override existing delays;
#X obj 143 433 t f b;
#X msg 255 397 1;
#X obj 131 304 t f b;
#X connect 0 0 1 0;
#X connect 1 0 7 0;
#X connect 1 1 2 1;
#X connect 2 0 17 0;
#X connect 3 0 12 0;
#X connect 5 0 7 1;
#X connect 7 0 13 0;
#X connect 8 0 2 0;
#X connect 10 0 8 0;
#X connect 12 0 15 0;
#X connect 12 1 10 0;
#X connect 13 0 19 0;
#X connect 14 0 13 1;
#X connect 15 0 13 1;
#X connect 17 0 11 0;
#X connect 17 1 18 0;
#X connect 18 0 13 1;
#X connect 19 0 8 0;
#X connect 19 1 14 0;
#X restore 157 99 pd dkasg-deltrig;
#X msg 925 72 bang;
#X msg 709 134 set \$1;
#X obj 755 33 route set randamp trigivl stop;
#X obj 743 68 symbol;
#X obj 301 670 random 31;
#X obj 826 152 * 100;
#X obj 302 720 t b f;
#X msg 301 745 1;
#X obj 301 770 -;
#X connect 0 0 4 0;
#X connect 0 0 7 0;
#X connect 1 0 0 0;
#X connect 2 0 0 0;
#X connect 3 0 27 0;
#X connect 3 1 1 0;
#X connect 4 0 5 0;
#X connect 5 0 10 0;
#X connect 6 0 37 0;
#X connect 7 0 8 0;
#X connect 8 0 6 0;
#X connect 9 0 31 0;
#X connect 10 0 30 0;
#X connect 11 0 12 0;
#X connect 12 0 13 0;
#X connect 13 0 14 0;
#X connect 14 0 16 1;
#X connect 15 0 16 0;
#X connect 15 1 11 0;
#X connect 15 2 24 0;
#X connect 16 0 5 1;
#X connect 19 0 3 0;
#X connect 19 1 26 0;
#X connect 19 2 25 0;
#X connect 19 2 43 0;
#X connect 19 3 15 0;
#X connect 23 0 38 0;
#X connect 24 0 14 1;
#X connect 25 0 10 2;
#X connect 26 0 4 1;
#X connect 27 0 2 0;
#X connect 29 0 41 0;
#X connect 30 0 9 1;
#X connect 31 0 21 0;
#X connect 32 0 44 0;
#X connect 33 0 45 0;
#X connect 34 0 43 1;
#X connect 36 0 9 0;
#X connect 37 0 36 0;
#X connect 38 0 19 0;
#X connect 39 0 38 2;
#X connect 40 0 30 0;
#X connect 41 0 42 0;
#X connect 41 1 32 0;
#X connect 41 2 38 1;
#X connect 41 3 39 0;
#X connect 42 0 40 0;
#X connect 43 0 33 0;
#X connect 44 0 34 0;
#X connect 45 0 46 0;
#X connect 45 1 47 1;
#X connect 46 0 47 0;
#X connect 47 0 31 1;
