#N canvas 838 199 1194 625 12;
#X text 31 25 dkbankinlet - a helper for inlets for banks;
#X obj 147 117 inlet;
#X obj 147 141 route all idx, f 34;
#X text 19 83 args: argname \, offset \, arg size \, map (no/yes);
#X text 17 45 inlets: input \, args list \, argname \, offset \, arg
size \, map? \, map input;
#X obj 316 466 outlet;
#X obj 841 98 inlet;
#X text 891 92 map;
#X obj 529 100 inlet;
#X text 583 94 offset;
#X obj 671 100 inlet;
#X text 722 99 arg size;
#X obj 433 96 inlet;
#X text 479 74 argname;
#X text 1030 30 derek kwan;
#X text 1034 54 pdkvabs 2018;
#X text 1032 73 gpl v 3;
#X obj 951 97 inlet;
#X text 982 131 map input;
#X obj 958 468 outlet;
#X text 1005 465 mapper;
#X obj 392 397 dklisttoclone \$1 \$2 \$3 \$4, f 80;
#X obj 137 206 list prepend all;
#X obj 296 363 list trim;
#X obj 433 120 t a a;
#X text 200 115 input;
#X obj 352 227 dksymbolcheck \$1;
#X obj 332 109 loadbang;
#X obj 296 339 list append;
#X connect 1 0 2 0;
#X connect 2 0 22 0;
#X connect 2 1 28 0;
#X connect 2 2 21 0;
#X connect 6 0 21 4;
#X connect 8 0 21 2;
#X connect 10 0 21 3;
#X connect 12 0 24 0;
#X connect 17 0 21 5;
#X connect 21 0 5 0;
#X connect 21 1 19 0;
#X connect 22 0 28 0;
#X connect 23 0 5 0;
#X connect 24 0 26 0;
#X connect 24 1 21 1;
#X connect 26 0 28 1;
#X connect 27 0 26 0;
#X connect 28 0 23 0;
