#N canvas 998 532 811 638 12;
#X obj 192 156 delread~ \$1;
#X obj 86 240 *~ 0;
#X obj 193 232 *~ 1;
#X obj 194 293 outlet~;
#X obj 86 294 throw~ \$1-fb;
#X obj 197 27 inlet;
#X text 253 21 deltime;
#X obj 374 25 inlet;
#X text 421 24 fb;
#X obj 614 24 inlet;
#X text 658 25 wet;
#X text 65 339 args: delay line name \, number of delay lines;
#X obj 86 264 /~ \$2;
#X obj 462 30 inlet;
#X text 511 29 lop;
#X obj 192 180 lop~ 5000;
#X connect 0 0 15 0;
#X connect 1 0 12 0;
#X connect 2 0 3 0;
#X connect 5 0 0 0;
#X connect 7 0 1 1;
#X connect 9 0 2 1;
#X connect 12 0 4 0;
#X connect 13 0 15 1;
#X connect 15 0 1 0;
#X connect 15 0 2 0;
