#N canvas 1328 282 935 735 12;
#X text 478 44 argt: doll0;
#X obj 191 532 delread4~ \$1-dkliverev_del;
#X obj 224 18 inlet;
#X obj 221 186 t f f;
#X obj 213 406 pack f f;
#X obj 478 118 inlet;
#X obj 524 202 max 0;
#X text 419 417 dur-ramp \, ramp;
#X obj 327 419 pack f f;
#X obj 331 384 - 2;
#X obj 524 226 t f f;
#X msg 327 443 1 \$2 \, 0 \$2 \$1;
#X obj 327 467 vline~;
#X text 469 60 inlet: ms chunk to reverse \, ramp/rate;
#X obj 216 359 * 2;
#X obj 221 210 t f f;
#X obj 191 556 *~;
#X obj 191 658 outlet~;
#X obj 478 142 route rate ramp vol;
#X obj 191 580 *~ 1;
#X obj 226 149 pipe;
#X obj 224 42 t f f b;
#X msg 288 82 clear;
#X obj 266 361 * 1;
#X obj 334 345 * 1;
#X text 32 405 chunk to read \, dur time;
#X obj 319 285 t f f;
#N canvas 510 341 855 623 dkliverev_voice-ratecalc 0;
#X obj 339 96 max 0;
#X obj 344 129 t b f;
#X msg 344 153 1;
#X obj 344 177 /;
#X obj 344 201 t f f, f 20;
#X obj 348 50 inlet;
#X text 396 44 rate;
#X text 483 127 1/rate for duration;
#X text 470 103 rate should be 2^(1/rate) for reading;
#X obj 513 429 outlet;
#X text 574 429 dur;
#X obj 344 225 t b f;
#X msg 344 249 2;
#X obj 344 273 pow;
#X obj 351 452 outlet;
#X text 391 412 rate;
#X connect 0 0 1 0;
#X connect 1 0 2 0;
#X connect 1 1 3 1;
#X connect 2 0 3 0;
#X connect 3 0 4 0;
#X connect 4 0 11 0;
#X connect 4 1 9 0;
#X connect 5 0 0 0;
#X connect 11 0 12 0;
#X connect 11 1 13 1;
#X connect 12 0 13 0;
#X connect 13 0 14 0;
#X restore 306 200 pd dkliverev_voice-ratecalc;
#X obj 213 454 vline~;
#X msg 213 430 0 \, \$1 \$2 0;
#X connect 1 0 16 0;
#X connect 2 0 21 0;
#X connect 3 0 15 0;
#X connect 3 1 24 0;
#X connect 4 0 29 0;
#X connect 5 0 18 0;
#X connect 6 0 10 0;
#X connect 8 0 11 0;
#X connect 9 0 8 0;
#X connect 10 0 9 1;
#X connect 10 1 8 1;
#X connect 11 0 12 0;
#X connect 12 0 16 1;
#X connect 14 0 4 0;
#X connect 15 0 14 0;
#X connect 15 1 23 0;
#X connect 16 0 19 0;
#X connect 18 0 27 0;
#X connect 18 1 6 0;
#X connect 18 2 19 1;
#X connect 19 0 17 0;
#X connect 20 0 3 0;
#X connect 21 0 20 0;
#X connect 21 1 20 1;
#X connect 21 2 22 0;
#X connect 22 0 20 0;
#X connect 23 0 4 1;
#X connect 24 0 9 0;
#X connect 26 0 23 1;
#X connect 26 1 24 1;
#X connect 27 0 14 1;
#X connect 27 1 26 0;
#X connect 28 0 1 0;
#X connect 29 0 28 0;
