#N canvas 872 103 1184 914 12;
#X obj 160 27 inlet;
#X obj 728 70 inlet;
#X text 773 71 array symbol;
#X obj 256 58 inlet;
#X obj 510 67 inlet;
#X text 561 72 rate;
#X obj 473 120 t f f;
#X obj 447 159 t b f;
#X msg 447 184 1;
#X obj 447 209 /;
#X obj 447 234 abs;
#X text 551 708 samp1 \, samp2 \, dur;
#X obj 119 832 outlet, f 7;
#X obj 185 169 t f f, f 17;
#X obj 185 197 * 0;
#X obj 301 202 * 1;
#X text 309 53 start;
#X obj 378 60 inlet;
#X text 430 60 end;
#X obj 178 234 t f f;
#X obj 301 226 t f f;
#X obj 372 328 -;
#X obj 155 398 pack f f;
#X obj 136 479 list prepend;
#X msg 248 590 \$2 \$1;
#X obj 513 158 sel 0;
#X obj 546 194 >= 0;
#X obj 546 218 * 2;
#X obj 546 242 - 1;
#X msg 513 182 0;
#X text 633 213 sign;
#X obj 136 503 route 1 -1 0, f 26;
#X obj 370 371 abs;
#X obj 370 395 t f b;
#X obj 429 432 samplerate~;
#X obj 429 456 / 1000;
#X obj 370 509 /;
#X text 530 451 samples/(samples/msec);
#X obj 370 533 * 1;
#X text 408 536 scale;
#X msg 334 592 \$1;
#X obj 489 840 outlet;
#X text 549 835 dur;
#X obj 126 737 t a a;
#X msg 479 798 \$3;
#X msg 126 761 \$1 \, \$2 \$3;
#X obj 256 82 clip 0 1;
#X obj 378 84 clip 0 1;
#X obj 127 713 list append, f 55;
#X obj 185 145 array size;
#X text 213 23 trig;
#X connect 0 0 49 0;
#X connect 1 0 49 1;
#X connect 3 0 46 0;
#X connect 4 0 6 0;
#X connect 6 0 7 0;
#X connect 6 1 25 0;
#X connect 7 0 8 0;
#X connect 7 1 9 1;
#X connect 8 0 9 0;
#X connect 9 0 10 0;
#X connect 10 0 38 1;
#X connect 13 0 14 0;
#X connect 13 1 15 0;
#X connect 14 0 19 0;
#X connect 15 0 20 0;
#X connect 17 0 47 0;
#X connect 19 0 22 0;
#X connect 19 1 21 0;
#X connect 20 0 21 1;
#X connect 20 1 22 1;
#X connect 21 0 32 0;
#X connect 22 0 23 0;
#X connect 23 0 31 0;
#X connect 24 0 48 0;
#X connect 25 0 29 0;
#X connect 25 1 26 0;
#X connect 26 0 27 0;
#X connect 27 0 28 0;
#X connect 28 0 23 1;
#X connect 29 0 23 1;
#X connect 31 0 48 0;
#X connect 31 1 24 0;
#X connect 31 2 40 0;
#X connect 32 0 33 0;
#X connect 33 0 36 0;
#X connect 33 1 34 0;
#X connect 34 0 35 0;
#X connect 35 0 36 1;
#X connect 36 0 38 0;
#X connect 38 0 48 1;
#X connect 40 0 12 0;
#X connect 43 0 45 0;
#X connect 43 1 44 0;
#X connect 44 0 41 0;
#X connect 45 0 12 0;
#X connect 46 0 14 1;
#X connect 47 0 15 1;
#X connect 48 0 43 0;
#X connect 49 0 13 0;
