#N canvas 372 250 1042 776 12;
#X msg 99 282 0;
#X obj 119 631 *~;
#X obj 377 285 random 201;
#X obj 377 310 / 100;
#X obj 377 335 - 1;
#X obj 376 386 *;
#X obj 424 170 t f b b;
#X obj 332 366 +;
#X text 232 20 input:position in samples;
#X text 525 299 randomize position;
#X text 136 198 grainlength in samples;
#X obj 138 737 outlet~;
#X obj 151 15 inlet;
#X obj 455 247 v \$1-randsamp;
#X obj 445 382 v \$1-samplelen;
#X obj 148 245 v \$1-grainsamp;
#X obj 51 106 v \$1-grainms;
#X text 478 23 args: doll0 \, array name;
#X obj 793 18 inlet;
#X msg 710 111 set \$1;
#X obj 119 656 *~ 1;
#X obj 842 91 clip 0 1;
#X obj 842 116 t f f;
#X obj 826 152 * 200;
#X obj 356 511 random 21, f 17;
#X obj 356 536 / 100;
#X obj 356 561 -;
#X obj 826 177 + 1;
#X obj 356 586 + 1;
#X text 430 571 randomize amplitude;
#X obj 766 78 symbol;
#X text 6 397 hann window;
#X obj 211 538 tabread4~ \$2;
#X obj 38 180 pack f f;
#X msg 44 211 \$2 \$1;
#X obj 223 498 clip~ 0 1;
#X obj 102 435 /~ 1;
#X obj 102 460 cos~;
#X obj 102 485 -~ 1;
#X obj 116 398 - 1;
#X obj 90 335 line~;
#X obj 102 510 *~ -0.5;
#X obj 150 41 t b b f, f 24;
#X obj 793 43 route set randamp randlen;
#X obj 926 124 clip 0 1;
#X obj 83 63 t b b b;
#X obj 148 270 *;
#X obj 148 295 i;
#X obj 51 131 *;
#X obj 159 93 random 101;
#X obj 159 118 / 100;
#X obj 159 143 * 0.2;
#X obj 159 168 + 1;
#X text 266 99 randomize length;
#X connect 0 0 40 0;
#X connect 1 0 20 0;
#X connect 2 0 3 0;
#X connect 3 0 4 0;
#X connect 4 0 5 0;
#X connect 5 0 7 1;
#X connect 6 0 7 0;
#X connect 6 1 2 0;
#X connect 6 2 13 0;
#X connect 7 0 32 1;
#X connect 12 0 42 0;
#X connect 13 0 5 1;
#X connect 14 0 35 2;
#X connect 15 0 46 0;
#X connect 16 0 48 0;
#X connect 18 0 43 0;
#X connect 19 0 32 0;
#X connect 20 0 11 0;
#X connect 21 0 22 0;
#X connect 22 0 23 0;
#X connect 22 1 26 1;
#X connect 23 0 27 0;
#X connect 24 0 25 0;
#X connect 25 0 26 0;
#X connect 26 0 28 0;
#X connect 27 0 24 1;
#X connect 28 0 20 1;
#X connect 30 0 19 0;
#X connect 32 0 1 1;
#X connect 33 0 34 0;
#X connect 34 0 40 0;
#X connect 35 0 32 0;
#X connect 36 0 37 0;
#X connect 37 0 38 0;
#X connect 38 0 41 0;
#X connect 39 0 36 1;
#X connect 40 0 36 0;
#X connect 40 0 35 0;
#X connect 41 0 1 0;
#X connect 42 0 45 0;
#X connect 42 1 14 0;
#X connect 42 1 24 0;
#X connect 42 2 6 0;
#X connect 43 0 30 0;
#X connect 43 1 21 0;
#X connect 43 2 44 0;
#X connect 44 0 51 1;
#X connect 45 0 16 0;
#X connect 45 1 0 0;
#X connect 45 1 15 0;
#X connect 45 2 49 0;
#X connect 46 0 47 0;
#X connect 47 0 33 1;
#X connect 47 0 39 0;
#X connect 48 0 33 0;
#X connect 49 0 50 0;
#X connect 50 0 51 0;
#X connect 51 0 52 0;
#X connect 52 0 46 1;
#X connect 52 0 48 1;
