#N canvas 372 250 1042 776 12;
#X obj 144 209 line~;
#X msg 216 167 0;
#X msg 147 170 1 \$1;
#X obj 145 86 t b b;
#X obj 172 286 *~ 1;
#X obj 168 345 +~ 1;
#X obj 119 631 *~;
#X obj 193 461 clip~ 0 1;
#X obj 283 321 random 201;
#X obj 283 346 / 100;
#X obj 283 371 - 1;
#X obj 288 416 *;
#X obj 244 273 t f b b;
#X obj 236 385 +;
#X text 232 20 input:position in samples;
#X text 457 334 randomize position;
#X obj 150 41 t b b b f;
#X text 305 150 grainlength in samples;
#X obj 138 737 outlet~;
#X obj 151 15 inlet;
#X obj 387 282 v \$1-randsamp;
#X obj 377 417 v \$1-samplelen;
#X obj 255 199 v \$1-grainsamp;
#X obj 139 134 v \$1-grainms;
#X text 478 23 args: doll0 \, array name;
#X obj 793 18 inlet;
#X msg 710 111 set \$1;
#X obj 119 656 *~ 1;
#X obj 793 43 route set randamp;
#X obj 842 91 clip 0 1;
#X obj 842 116 t f f;
#X obj 826 152 * 200;
#X obj 299 598 random 21;
#X obj 299 623 / 100;
#X obj 299 648 -;
#X obj 826 177 + 1;
#X obj 299 673 + 1;
#X text 373 658 randomize amplitude;
#X obj 766 78 symbol;
#X text 15 381 hann window;
#X obj 95 507 cos~;
#X obj 99 428 -~ 0.5;
#X obj 91 557 *~;
#X obj 101 467 *~ 0.5;
#X obj 211 538 tabread4~ \$2;
#X connect 0 0 4 0;
#X connect 0 0 41 0;
#X connect 1 0 0 0;
#X connect 2 0 0 0;
#X connect 3 0 23 0;
#X connect 3 1 1 0;
#X connect 4 0 5 0;
#X connect 5 0 7 0;
#X connect 6 0 27 0;
#X connect 7 0 44 0;
#X connect 8 0 9 0;
#X connect 9 0 10 0;
#X connect 10 0 11 0;
#X connect 11 0 13 1;
#X connect 12 0 13 0;
#X connect 12 1 8 0;
#X connect 12 2 20 0;
#X connect 13 0 5 1;
#X connect 16 0 3 0;
#X connect 16 1 22 0;
#X connect 16 2 21 0;
#X connect 16 2 32 0;
#X connect 16 3 12 0;
#X connect 19 0 16 0;
#X connect 20 0 11 1;
#X connect 21 0 7 2;
#X connect 22 0 4 1;
#X connect 23 0 2 0;
#X connect 25 0 28 0;
#X connect 26 0 44 0;
#X connect 27 0 18 0;
#X connect 28 0 38 0;
#X connect 28 1 29 0;
#X connect 29 0 30 0;
#X connect 30 0 31 0;
#X connect 30 1 34 1;
#X connect 31 0 35 0;
#X connect 32 0 33 0;
#X connect 33 0 34 0;
#X connect 34 0 36 0;
#X connect 35 0 32 1;
#X connect 36 0 27 1;
#X connect 38 0 26 0;
#X connect 40 0 42 0;
#X connect 40 0 42 1;
#X connect 41 0 43 0;
#X connect 42 0 6 0;
#X connect 43 0 40 0;
#X connect 44 0 6 1;
