#N canvas 885 230 1042 776 12;
#X obj 144 209 line~;
#X msg 216 167 0;
#X msg 147 170 1 \$1;
#X obj 145 86 t b b;
#X obj 164 411 *~ 1;
#X obj 160 470 +~ 1;
#X obj 139 674 cos~;
#X obj 110 596 *~ 0.5;
#X obj 110 621 -~ 0.25;
#X obj 139 699 *~;
#X obj 185 586 clip~ 0 1;
#X obj 275 446 random 201;
#X obj 275 471 / 100;
#X obj 275 496 - 1;
#X obj 280 541 *;
#X obj 232 412 t f b b;
#X obj 228 510 +;
#X text 232 20 input:position in samples;
#X text 449 459 randomize position;
#X obj 150 41 t b b b f;
#X text 309 285 grainlength in samples;
#X obj 138 737 outlet~;
#X text 14 565 cosine window;
#X obj 151 15 inlet;
#X obj 203 663 tabread4~ \$2;
#X obj 379 407 v \$1-randsamp;
#X obj 369 542 v \$1-samplelen;
#X obj 247 324 v \$1-grainsamp;
#X obj 139 134 v \$1-grainms;
#X text 478 23 args: doll0 \, array name;
#X obj 793 18 inlet;
#X obj 793 43 route set;
#X msg 793 68 set \$1;
#X connect 0 0 4 0;
#X connect 0 0 7 0;
#X connect 1 0 0 0;
#X connect 2 0 0 0;
#X connect 3 0 28 0;
#X connect 3 1 1 0;
#X connect 4 0 5 0;
#X connect 5 0 10 0;
#X connect 6 0 9 0;
#X connect 7 0 8 0;
#X connect 8 0 6 0;
#X connect 9 0 21 0;
#X connect 10 0 24 0;
#X connect 11 0 12 0;
#X connect 12 0 13 0;
#X connect 13 0 14 0;
#X connect 14 0 16 1;
#X connect 15 0 16 0;
#X connect 15 1 11 0;
#X connect 15 2 25 0;
#X connect 16 0 5 1;
#X connect 19 0 3 0;
#X connect 19 1 27 0;
#X connect 19 2 26 0;
#X connect 19 3 15 0;
#X connect 23 0 19 0;
#X connect 24 0 9 1;
#X connect 25 0 14 1;
#X connect 26 0 10 2;
#X connect 27 0 4 1;
#X connect 28 0 2 0;
#X connect 30 0 31 0;
#X connect 31 0 32 0;
#X connect 32 0 24 0;
