#N canvas 1183 235 848 417 12;
#X obj 91 23 r \$1_\$2b;
#X obj 89 90 f;
#X obj 159 106 + 1;
#X obj 86 122 t f f;
#X obj 86 146 sel 0;
#X obj 85 216 outlet;
#X obj 159 130 % \$2;
#X obj 238 23 loadbang;
#X msg 231 81 0;
#X obj 156 222 s;
#X obj 314 125 symbol \$1;
#X obj 475 129 f \$3;
#X obj 329 66 t b b b, f 12;
#X obj 417 126 f \$2;
#X obj 327 160 pack s f f;
#X msg 327 184 symbol \$1_\$2b\$3;
#X text 101 346 args: send/rcv sym \, subdiv \, grouping;
#X obj 478 33 inlet;
#X text 99 369 inlet: grouping;
#X obj 343 33 inlet;
#X text 390 37 reset;
#X text 534 29 grouping;
#X obj 478 57 t b f;
#X obj 624 24 inlet;
#X text 684 27 on/off;
#X obj 91 47 spigot 1;
#X connect 0 0 25 0;
#X connect 1 0 3 0;
#X connect 2 0 6 0;
#X connect 3 0 4 0;
#X connect 3 1 2 0;
#X connect 4 0 5 0;
#X connect 4 0 9 0;
#X connect 6 0 1 1;
#X connect 7 0 8 0;
#X connect 7 0 12 0;
#X connect 8 0 1 1;
#X connect 10 0 14 0;
#X connect 11 0 14 2;
#X connect 12 0 10 0;
#X connect 12 1 13 0;
#X connect 12 2 11 0;
#X connect 13 0 14 1;
#X connect 14 0 15 0;
#X connect 15 0 9 1;
#X connect 17 0 22 0;
#X connect 19 0 8 0;
#X connect 22 0 10 0;
#X connect 22 1 11 0;
#X connect 23 0 25 1;
#X connect 25 0 1 0;
