#N canvas 1189 504 1157 844 12;
#X obj 118 702 *~;
#X obj 723 296 random 201;
#X obj 723 321 / 100;
#X obj 723 346 - 1;
#X obj 722 397 *;
#X obj 765 230 t f b b;
#X obj 678 377 +;
#X text 232 20 input:position in samples;
#X text 866 359 randomize position;
#X text 135 269 grainlength in samples;
#X obj 137 808 outlet~;
#X obj 154 52 inlet;
#X obj 819 276 v \$1-randsamp;
#X obj 147 316 v \$1-grainsamp;
#X obj 50 177 v \$1-grainms;
#X text 478 23 args: doll0 \, array name;
#X obj 793 18 inlet;
#X msg 710 111 set \$1;
#X obj 118 727 *~ 1;
#X obj 842 91 clip 0 1;
#X obj 842 116 t f f;
#X obj 826 152 * 200;
#X obj 519 302 random 21, f 17;
#X obj 519 327 / 100;
#X obj 519 352 -;
#X obj 826 177 + 1;
#X obj 519 377 + 1;
#X text 512 408 randomize amplitude;
#X text 5 470 hann window;
#X obj 20 321 pack f f;
#X msg 26 352 \$2 \$1;
#X obj 97 546 /~ 1;
#X obj 101 575 cos~;
#X obj 101 607 -~ 1;
#X obj 107 436 line~;
#X obj 101 645 *~ -0.5;
#X obj 926 124 clip 0 1;
#X obj 82 134 t b b b;
#X obj 170 356 *;
#X obj 174 395 i;
#X obj 50 202 *;
#X obj 158 164 random 101;
#X obj 158 189 / 100;
#X obj 158 214 * 0.2;
#X obj 158 239 + 1;
#X obj 793 43 route set randamp randlen reset;
#X obj 110 400 f;
#X obj 149 112 t b f b f, f 66;
#X obj 335 228 - 0;
#X obj 335 253 >= 0;
#X text 382 228 >=0 : advancing;
#X obj 335 278 sel 1 0, f 19;
#X obj 161 467 *~ -1;
#X obj 202 538 +~ 0;
#X msg 236 484 0;
#X msg 212 424 1;
#X msg 329 545 0;
#X obj 326 159 t f f f;
#X obj 291 483 f;
#X msg 412 330 -1;
#X msg 1016 99 0;
#X obj 143 519 - 0;
#X obj 301 654 tabread4~;
#X obj 607 48 loadbang;
#X obj 705 81 dksymbolcheck \$2;
#X connect 0 0 18 0;
#X connect 1 0 2 0;
#X connect 2 0 3 0;
#X connect 3 0 4 0;
#X connect 4 0 6 1;
#X connect 5 0 6 0;
#X connect 5 1 1 0;
#X connect 5 2 12 0;
#X connect 6 0 62 1;
#X connect 11 0 47 0;
#X connect 12 0 4 1;
#X connect 13 0 38 0;
#X connect 14 0 40 0;
#X connect 16 0 45 0;
#X connect 17 0 62 0;
#X connect 18 0 10 0;
#X connect 19 0 20 0;
#X connect 20 0 21 0;
#X connect 20 1 24 1;
#X connect 21 0 25 0;
#X connect 22 0 23 0;
#X connect 23 0 24 0;
#X connect 24 0 26 0;
#X connect 25 0 22 1;
#X connect 26 0 18 1;
#X connect 29 0 30 0;
#X connect 30 0 34 0;
#X connect 31 0 32 0;
#X connect 32 0 33 0;
#X connect 33 0 35 0;
#X connect 34 0 31 0;
#X connect 34 0 52 0;
#X connect 35 0 0 0;
#X connect 36 0 43 1;
#X connect 37 0 14 0;
#X connect 37 1 13 0;
#X connect 37 1 46 0;
#X connect 37 2 41 0;
#X connect 38 0 39 0;
#X connect 39 0 29 1;
#X connect 39 0 61 0;
#X connect 40 0 29 0;
#X connect 41 0 42 0;
#X connect 42 0 43 0;
#X connect 43 0 44 0;
#X connect 44 0 38 1;
#X connect 44 0 40 1;
#X connect 45 0 64 0;
#X connect 45 1 19 0;
#X connect 45 2 36 0;
#X connect 45 3 60 0;
#X connect 46 0 34 0;
#X connect 47 0 37 0;
#X connect 47 1 57 0;
#X connect 47 2 22 0;
#X connect 47 3 5 0;
#X connect 48 0 49 0;
#X connect 49 0 51 0;
#X connect 51 0 55 0;
#X connect 51 0 54 0;
#X connect 51 1 58 0;
#X connect 51 1 56 0;
#X connect 51 1 59 0;
#X connect 52 0 53 0;
#X connect 53 0 62 0;
#X connect 54 0 53 1;
#X connect 55 0 52 1;
#X connect 56 0 62 1;
#X connect 57 0 48 1;
#X connect 57 1 48 0;
#X connect 57 2 58 1;
#X connect 58 0 53 1;
#X connect 59 0 52 1;
#X connect 60 0 48 1;
#X connect 61 0 31 1;
#X connect 62 0 0 1;
#X connect 63 0 64 0;
#X connect 64 0 17 0;
