#N canvas 684 421 1097 580 12;
#X obj 66 176 +~ 0;
#X obj 67 201 wrap~;
#X text 130 276 map to 10 - 50 ms;
#X obj 64 410 delread4~ \$2;
#X obj 64 460 outlet~;
#X obj 271 26 loadbang;
#X obj 67 226 cos~;
#X obj 58 290 *~ 20;
#X obj 56 320 +~ 30;
#X obj 192 98 random 101;
#X obj 192 123 / 100;
#X obj 98 19 inlet~;
#X obj 392 64 inlet;
#X text 439 64 depth;
#X obj 67 250 *~ 1;
#X connect 0 0 1 0;
#X connect 1 0 6 0;
#X connect 3 0 4 0;
#X connect 5 0 9 0;
#X connect 6 0 14 0;
#X connect 7 0 8 0;
#X connect 8 0 3 0;
#X connect 9 0 10 0;
#X connect 10 0 0 1;
#X connect 11 0 0 0;
#X connect 12 0 14 1;
#X connect 14 0 7 0;
