#N canvas 1024 265 1251 813 12;
#X obj 408 468 * 3;
#X obj 408 493 / 2;
#X obj 418 46 inlet;
#X msg 447 443 set \$1 4;
#X text 466 42 fft size;
#X obj 453 561 switch~;
#X obj 664 56 inlet;
#X text 726 52 fft on/off;
#X obj 443 255 max 1;
#X obj 565 88 loadbang;
#X obj 526 163 f \$1;
#X obj 520 188 moses 1, f 12;
#X msg 484 215 1024;
#X msg 569 320 1;
#X obj 566 119 t b b;
#X obj 28 148 inlet~;
#X obj 32 240 *~;
#X obj 138 170 dkhannblock~;
#X text 94 148 sig1;
#X obj 249 140 inlet~;
#X obj 244 241 *~;
#X text 315 140 sig2;
#X obj 32 265 rfft~;
#X obj 244 266 rfft~;
#X obj 84 350 dkcmult~, f 19;
#X obj 113 530 rifft~;
#X obj 197 452 /~ 1;
#X obj 102 453 /~ 1;
#X obj 113 555 *~;
#X obj 112 642 outlet~;
#X text 9 9 dkfftconvolve~ - spectral non-partitioned convolution;
#X text 7 34 arg: fftsize;
#X text 6 63 ins: sig1~ \, sig2~ \, fftsize \, fft on/off;
#X text 1068 33 derek kwan;
#X text 1073 66 pdkvabs;
#X text 1075 99 GPL V 3 2017;
#X connect 0 0 1 0;
#X connect 1 0 27 1;
#X connect 1 0 26 1;
#X connect 2 0 8 0;
#X connect 3 0 5 0;
#X connect 6 0 5 0;
#X connect 8 0 0 0;
#X connect 8 0 3 0;
#X connect 8 0 17 0;
#X connect 9 0 14 0;
#X connect 10 0 11 0;
#X connect 11 0 12 0;
#X connect 11 1 8 0;
#X connect 12 0 8 0;
#X connect 13 0 5 0;
#X connect 14 0 13 0;
#X connect 14 1 10 0;
#X connect 15 0 16 0;
#X connect 16 0 22 0;
#X connect 17 0 16 1;
#X connect 17 0 20 1;
#X connect 17 0 28 1;
#X connect 19 0 20 0;
#X connect 20 0 23 0;
#X connect 22 0 24 0;
#X connect 22 1 24 1;
#X connect 23 0 24 2;
#X connect 23 1 24 3;
#X connect 24 0 27 0;
#X connect 24 1 26 0;
#X connect 25 0 28 0;
#X connect 26 0 25 1;
#X connect 27 0 25 0;
#X connect 28 0 29 0;
