#N canvas 1336 325 1162 599 12;
#X obj 33 116 inlet~;
#X obj 38 175 *~;
#X obj 137 429 /~ 1536;
#X obj 408 468 * 3;
#X obj 408 493 / 2;
#X obj 418 46 inlet;
#X msg 447 443 set \$1 4;
#X text 466 42 fft size;
#X obj 38 200 rfft~;
#X obj 268 88 inlet~;
#X text 332 87 comparator;
#X text 104 120 input;
#X obj 37 480 *~;
#X obj 99 478 *~;
#X obj 37 505 rifft~;
#X obj 37 530 *~;
#X obj 37 555 outlet~;
#X obj 792 101 inlet;
#X text 848 104 above/below;
#X obj 453 561 switch~;
#X obj 664 56 inlet;
#X text 726 52 fft on/off;
#X obj 129 175 dkhannblock~;
#X obj 122 255 dkcmag~;
#X obj 132 338 dkge~;
#X obj 262 339 dkle~;
#X obj 141 394 dkswitch2~;
#X obj 443 255 max 1;
#X obj 565 88 loadbang;
#X obj 526 163 f \$1;
#X obj 520 188 moses 1, f 12;
#X msg 484 215 1024;
#X obj 652 192 f \$2;
#X msg 569 320 1;
#X obj 566 119 t b b;
#X text 14 8 dkfftgate~ - fft spectral gate;
#X text 10 27 args: fftsize \, above/below;
#X text 11 44 ins: input~ \, comparator;
#X text 52 69 fftsize \, on/off \, abv/below;
#X text 959 13 derek kwan;
#X text 964 46 pdkvabs;
#X text 966 79 GPL V 3 2017;
#X connect 0 0 1 0;
#X connect 1 0 8 0;
#X connect 2 0 12 1;
#X connect 2 0 13 1;
#X connect 3 0 4 0;
#X connect 4 0 2 1;
#X connect 5 0 27 0;
#X connect 6 0 19 0;
#X connect 8 0 12 0;
#X connect 8 0 23 0;
#X connect 8 1 13 0;
#X connect 8 1 23 1;
#X connect 9 0 24 1;
#X connect 9 0 25 1;
#X connect 12 0 14 0;
#X connect 13 0 14 1;
#X connect 14 0 15 0;
#X connect 15 0 16 0;
#X connect 17 0 26 2;
#X connect 20 0 19 0;
#X connect 22 0 1 1;
#X connect 22 0 15 1;
#X connect 23 0 24 0;
#X connect 23 0 25 0;
#X connect 24 0 26 0;
#X connect 25 0 26 1;
#X connect 26 0 2 0;
#X connect 27 0 22 0;
#X connect 27 0 3 0;
#X connect 27 0 6 0;
#X connect 28 0 34 0;
#X connect 29 0 30 0;
#X connect 30 0 31 0;
#X connect 30 1 27 0;
#X connect 31 0 27 0;
#X connect 32 0 26 2;
#X connect 33 0 19 0;
#X connect 34 0 33 0;
#X connect 34 1 29 0;
#X connect 34 1 32 0;
