#N canvas 498 307 1162 599 12;
#X obj 33 116 inlet~;
#X obj 38 175 *~;
#X obj 137 429 /~ 1536;
#X obj 408 468 * 3;
#X obj 408 493 / 2;
#X obj 418 46 inlet;
#X msg 447 443 set \$1 4;
#X text 466 42 fft size;
#X obj 38 200 rfft~;
#X text 332 87 comparator;
#X text 104 120 input;
#X obj 37 480 *~;
#X obj 99 478 *~;
#X obj 37 505 rifft~;
#X obj 37 530 *~;
#X obj 37 555 outlet~;
#X obj 653 24 inlet;
#X text 709 27 above/below;
#X obj 779 77 inlet;
#X text 841 73 fft on/off;
#X obj 122 255 dkcmag~;
#X obj 132 338 dkge~;
#X obj 262 339 dkle~;
#X obj 141 394 dkswitch2~;
#X obj 443 255 max 1;
#X obj 541 55 loadbang;
#X text 14 8 dkfftgate~ - fft spectral gate;
#X text 11 44 ins: input~ \, comparator;
#X text 52 69 fftsize \, on/off \, abv/below;
#X text 959 13 derek kwan;
#X text 964 46 pdkvabs;
#X text 966 79 GPL V 3 2017;
#X obj 129 175 dkhannblock~ \$1;
#X obj 453 561 switch~ \$1 4;
#X text 10 27 args: fftsize \, thresh \, above/below;
#X obj 517 114 f \$3;
#X obj 272 127 sig~;
#X obj 268 88 inlet;
#X obj 340 28 loadbang;
#X obj 340 52 f \$2;
#X connect 0 0 1 0;
#X connect 1 0 8 0;
#X connect 2 0 11 1;
#X connect 2 0 12 1;
#X connect 3 0 4 0;
#X connect 4 0 2 1;
#X connect 5 0 24 0;
#X connect 6 0 33 0;
#X connect 8 0 11 0;
#X connect 8 0 20 0;
#X connect 8 1 12 0;
#X connect 8 1 20 1;
#X connect 11 0 13 0;
#X connect 12 0 13 1;
#X connect 13 0 14 0;
#X connect 14 0 15 0;
#X connect 16 0 23 2;
#X connect 18 0 33 0;
#X connect 20 0 21 0;
#X connect 20 0 22 0;
#X connect 21 0 23 0;
#X connect 22 0 23 1;
#X connect 23 0 2 0;
#X connect 24 0 3 0;
#X connect 24 0 6 0;
#X connect 24 0 32 0;
#X connect 25 0 35 0;
#X connect 32 0 1 1;
#X connect 32 0 14 1;
#X connect 35 0 23 2;
#X connect 36 0 21 1;
#X connect 36 0 22 1;
#X connect 37 0 36 0;
#X connect 38 0 39 0;
#X connect 39 0 36 0;
