#N canvas 216 318 1148 597 12;
#X obj 68 103 inlet~;
#X obj 60 189 *~;
#X obj 225 133 pdkvabs/dkhannblock~ 1024;
#X obj 21 252 rfft~;
#X obj 201 274 *~;
#X obj 201 312 *~;
#X obj 201 337 /~ 1536;
#X obj 372 375 * 3;
#X obj 372 400 / 2;
#X obj 20 445 *~;
#X obj 71 448 *~;
#X obj 20 497 rifft~;
#X obj 20 522 *~;
#X obj 20 547 outlet~;
#X obj 496 101 inlet;
#X msg 411 350 set \$1 4;
#X text 20 13 HELPER PATCH;
#X obj 638 114 inlet;
#X text 708 118 fft on/off;
#X obj 417 468 switch~;
#X text 32 64 args: fftsize \, gain table;
#X obj 835 114 inlet;
#X obj 836 172 symbol;
#X obj 835 139 route set;
#X msg 836 197 set \$1;
#X obj 427 283 max 1;
#X obj 645 172 loadbang;
#X obj 589 242 f \$1;
#X obj 571 296 moses 1, f 12;
#X msg 547 334 1024;
#X obj 629 201 t b b;
#X msg 612 355 1;
#X text 551 101 fftsize;
#X text 35 35 inlets: sig \, fftsize \, fft on/off \, gain table (set
message);
#X obj 201 222 tabreceive~ \$2;
#X connect 0 0 1 0;
#X connect 1 0 3 0;
#X connect 2 0 1 1;
#X connect 2 0 12 1;
#X connect 3 0 9 0;
#X connect 3 1 10 0;
#X connect 4 0 5 0;
#X connect 4 0 5 1;
#X connect 5 0 6 0;
#X connect 6 0 9 1;
#X connect 6 0 10 1;
#X connect 7 0 8 0;
#X connect 8 0 6 1;
#X connect 9 0 11 0;
#X connect 10 0 11 1;
#X connect 11 0 12 0;
#X connect 12 0 13 0;
#X connect 14 0 25 0;
#X connect 15 0 19 0;
#X connect 17 0 19 0;
#X connect 21 0 23 0;
#X connect 22 0 24 0;
#X connect 23 0 22 0;
#X connect 24 0 34 0;
#X connect 25 0 15 0;
#X connect 25 0 7 0;
#X connect 25 0 2 0;
#X connect 26 0 30 0;
#X connect 27 0 28 0;
#X connect 28 0 29 0;
#X connect 28 1 25 0;
#X connect 29 0 25 0;
#X connect 30 0 31 0;
#X connect 30 1 27 0;
#X connect 31 0 19 0;
#X connect 34 0 4 0;
#X connect 34 0 4 1;
