#N canvas 825 286 1230 613 12;
#X obj 135 123 inlet~;
#X obj 372 113 inlet~;
#X obj 144 207 rfft~;
#X obj 386 192 rfft~;
#X obj 507 31 inlet;
#X obj 814 55 inlet;
#X obj 232 161 dkhannblock~;
#X obj 143 164 *~;
#X obj 382 157 *~;
#X obj 214 253 dkcmag~;
#X obj 219 320 clip~ 1 1;
#X obj 819 188 t f f;
#X obj 867 216 t f f;
#X obj 867 265 *;
#X obj 817 157 clip 1 100;
#X obj 754 270 t b f;
#X msg 754 295 1;
#X obj 753 320 -;
#X obj 793 295 / 100;
#X obj 154 386 /~;
#X obj 244 387 /~;
#X obj 154 411 *~;
#X obj 244 412 *~;
#X obj 364 256 dkcmag~;
#X obj 244 437 /~ 1536;
#X text 536 56 fftsize;
#X obj 515 238 max 1;
#X obj 522 349 switch~;
#X msg 506 288 set \$1 4;
#X obj 154 436 /~ 1536;
#X obj 418 341 * 3;
#X obj 418 366 / 2;
#X obj 154 498 rifft~;
#X obj 154 523 *~;
#X obj 154 548 outlet~;
#X obj 675 18 inlet;
#X text 732 12 on/off;
#X obj 643 52 loadbang;
#X obj 574 113 f \$1;
#X obj 569 139 moses 1;
#X msg 555 163 1024;
#X obj 701 106 f \$2;
#X obj 701 131 moses 1;
#X msg 701 156 100;
#X text 34 11 dkfftcross~ - fft cross-synthesis;
#X text 32 40 args: fftsize \, compressor val (/100);
#X text 32 67 inlets: input~ \, amplitude source~;
#X text 1055 12 derek kwan;
#X text 1060 45 pdkvabs;
#X text 1062 78 GPL V 3 2017;
#X msg 612 252 1;
#X obj 643 88 t b b;
#X text 96 95 fftsize \, on/off \, compressor (rev);
#X text 873 56 compressor (rev);
#X connect 0 0 7 0;
#X connect 1 0 8 0;
#X connect 2 0 9 0;
#X connect 2 0 19 0;
#X connect 2 1 9 1;
#X connect 2 1 20 0;
#X connect 3 0 23 0;
#X connect 3 1 23 1;
#X connect 4 0 26 0;
#X connect 5 0 14 0;
#X connect 6 0 7 1;
#X connect 6 0 8 1;
#X connect 6 0 33 1;
#X connect 7 0 2 0;
#X connect 8 0 3 0;
#X connect 9 0 10 0;
#X connect 10 0 19 1;
#X connect 10 0 20 1;
#X connect 11 0 15 0;
#X connect 11 1 12 0;
#X connect 12 0 13 0;
#X connect 12 1 13 1;
#X connect 13 0 10 2;
#X connect 14 0 11 0;
#X connect 15 0 16 0;
#X connect 15 1 18 0;
#X connect 16 0 17 0;
#X connect 17 0 10 1;
#X connect 18 0 17 1;
#X connect 19 0 21 0;
#X connect 20 0 22 0;
#X connect 21 0 29 0;
#X connect 22 0 24 0;
#X connect 23 0 21 1;
#X connect 23 0 22 1;
#X connect 24 0 32 1;
#X connect 26 0 6 0;
#X connect 26 0 30 0;
#X connect 26 0 28 0;
#X connect 28 0 27 0;
#X connect 29 0 32 0;
#X connect 30 0 31 0;
#X connect 31 0 29 1;
#X connect 31 0 24 1;
#X connect 32 0 33 0;
#X connect 33 0 34 0;
#X connect 35 0 27 0;
#X connect 37 0 51 0;
#X connect 38 0 39 0;
#X connect 39 0 40 0;
#X connect 39 1 26 0;
#X connect 40 0 26 0;
#X connect 41 0 42 0;
#X connect 42 0 43 0;
#X connect 42 1 14 0;
#X connect 43 0 14 0;
#X connect 50 0 27 0;
#X connect 51 0 50 0;
#X connect 51 1 38 0;
#X connect 51 1 41 0;
