#N canvas 915 327 960 641 12;
#X obj 143 75 inlet~;
#X obj 320 256 / 0.375;
#X msg 320 209 1;
#X obj 318 286 / 4;
#X obj 318 323 /, f 22;
#X obj 324 172 t b f, f 17;
#X text 480 233 normalization for hann:;
#X text 488 251 (1/0.375)*(1/overlap)*(1/windowsize);
#X obj 146 363 *~, f 18;
#X obj 323 105 moses 0.1;
#X msg 323 127 512;
#X obj 452 111 moses 0.1, f 17;
#X msg 452 133 4;
#X obj 395 40 t b f, f 8;
#X obj 286 9 loadbang;
#X obj 490 12 inlet;
#X obj 286 40 t b b, f 13;
#X obj 358 11 inlet;
#X text 72 500 args: \$1 - windowsize \, \$2 - overlap;
#X text 42 522 inlets: 1 - sig \, 2-windowsize \, 3-overlap;
#X obj 143 414 outlet~;
#X obj 323 72 f \$1, f 7;
#X obj 448 73 f \$2;
#X text 406 11 windowsize;
#X text 538 12 overlap;
#X text 20 17 dkhannnorm~ - normalization;
#X text 203 75 sig~;
#X text 33 38 for hann window in fft transform;
#X text 689 19 derek kwan;
#X text 700 43 pdkvabs 2018;
#X text 701 74 gpl v 3;
#X connect 0 0 8 0;
#X connect 1 0 3 0;
#X connect 2 0 1 0;
#X connect 3 0 4 0;
#X connect 4 0 8 1;
#X connect 5 0 2 0;
#X connect 5 1 4 1;
#X connect 8 0 20 0;
#X connect 9 0 10 0;
#X connect 9 1 5 0;
#X connect 10 0 5 0;
#X connect 11 0 12 0;
#X connect 11 1 3 1;
#X connect 12 0 3 1;
#X connect 13 0 21 0;
#X connect 13 1 22 0;
#X connect 14 0 16 0;
#X connect 15 0 13 0;
#X connect 16 0 21 0;
#X connect 16 1 22 0;
#X connect 17 0 21 0;
#X connect 21 0 9 0;
#X connect 22 0 11 0;
