#N canvas 833 241 1215 931 12;
#X obj 251 325 dkcnorm~;
#X obj 251 390 dkcdiv~, f 15;
#X obj 252 486 dkcnorm~, f 15;
#X obj 199 525 dkcmult~, f 23;
#X text 383 383 complex divide prev output by backwindow;
#X text 409 513 cplx mult front window with difference;
#X text 389 405 (subtract phase of prev by back);
#X text 450 234 back window;
#X obj 228 272 tabreceive~ \$0-prev_real;
#X obj 426 272 tabreceive~ \$0-prev_imag;
#X obj 320 595 tabsend~ \$0-prev_real;
#X obj 503 597 tabsend~ \$0-prev_imag;
#X obj 231 680 rifft~;
#X obj 231 704 *~, f 15;
#X obj 231 790 outlet~;
#X text 482 572 so the total result is output = prev + front - back
;
#X text 450 334 normalization since we only care about phases;
#X obj 65 142 inlet~;
#X text 105 170 position;
#X text 418 530 (add phase of diff to front);
#X obj 576 165 dkhannblock~ \$2;
#X obj 232 749 dkhannnorm~ \$2 4;
#X obj 814 161 inlet;
#X obj 226 144 inlet;
#X text 273 142 on/off;
#X obj 227 176 s \$0-on;
#X text 868 159 messages;
#X obj 1011 259 s \$0-reset;
#X obj 924 293 s \$0-offset;
#X obj 882 325 s \$0-transpose;
#X obj 814 246 s \$0-arrayset;
#X obj 814 209 symbol;
#X msg 1010 232 bang;
#X text 48 77 inlets: position signal \, on/off \, messages;
#X text 53 106 outlets: signal;
#X obj 948 414 r \$0-on;
#X text 22 21 dkvanvpoc~ - vanilla phase vocoder;
#X text 820 18 derek kwan;
#X text 825 52 pdkvabs 2018;
#X text 830 79 gpl v 3;
#X text 61 262 front window;
#X obj 1107 228 s \$0-lock;
#X obj 814 185 route set transpose offset reset lock, f 52;
#X text 48 55 args: array name \, fft size \, transposition \, offset
\, lock;
#X text 349 78 (set \, transpose \, offset \, reset \, lock);
#N canvas 487 279 908 740 dkvanpvoc-bufreader 0;
#X obj 34 5 inlet~;
#X obj 35 42 snapshot~;
#X obj 35 67 + 0, f 25;
#X obj 251 67 r \$0-winsize;
#X obj 489 195 * 1;
#X obj 487 32 t b f, f 7;
#X msg 487 57 2;
#X obj 487 82 pow, f 7;
#X obj 534 59 / 12;
#X obj 487 132 t b f;
#X text 554 35 window stretch amt;
#X obj 216 154 samplerate~;
#X obj 149 156 * 1000;
#X text 194 237 compensate for 4x overlap (4 windows/block);
#X obj 76 184 -;
#X obj 91 140 / 2;
#X text 88 84 1/2 window back;
#X text 136 472 front window;
#X text 386 477 backwindow;
#X obj 31 263 f, f 13;
#X obj 31 288 pack f f, f 18;
#X obj 29 92 t b f, f 7;
#X obj 31 313 t l b, f 7;
#X obj 33 387 line~;
#X msg 75 346 0;
#X obj 209 422 -~ 0;
#X text 262 339 backwindow 1/4 cycle behind front in samps;
#X obj 493 268 inlet~;
#X text 555 267 window;
#X obj 30 513 *~, f 14;
#X obj 271 513 *~, f 14;
#X obj 30 472 tabread4~ \$1;
#X obj 269 480 tabread4~ \$1;
#X obj 154 119 t f b, f 11;
#X obj 248 316 / 4;
#X obj 130 14 bang~;
#X text 247 42 windowsize in samps;
#X obj 145 213 /, f 10;
#X obj 145 237 / 4;
#X obj 251 91 t f f, f 25;
#X text 539 202 stretched windowsize in samps;
#X text 252 214 windowsize(ms);
#X obj 30 538 rfft~, f 14;
#X obj 271 538 rfft~, f 14;
#X obj 30 562 outlet~;
#X obj 128 568 outlet~;
#X obj 271 562 outlet~;
#X obj 364 574 outlet~, f 9;
#X obj 213 16 r \$0-offset;
#X obj 487 7 r \$0-transpose;
#X msg 384 419 set \$1, f 8;
#X obj 384 395 r \$0-arrayset;
#X connect 0 0 1 0;
#X connect 1 0 2 0;
#X connect 2 0 21 0;
#X connect 3 0 39 0;
#X connect 4 0 15 0;
#X connect 4 0 34 0;
#X connect 4 0 19 1;
#X connect 5 0 6 0;
#X connect 5 1 8 0;
#X connect 6 0 7 0;
#X connect 7 0 9 0;
#X connect 8 0 7 1;
#X connect 9 0 4 0;
#X connect 9 1 4 1;
#X connect 11 0 37 1;
#X connect 12 0 37 0;
#X connect 14 0 31 1;
#X connect 14 0 32 1;
#X connect 15 0 14 1;
#X connect 19 0 20 0;
#X connect 20 0 22 0;
#X connect 21 0 19 0;
#X connect 21 1 14 0;
#X connect 22 0 23 0;
#X connect 22 1 24 0;
#X connect 23 0 25 0;
#X connect 23 0 31 0;
#X connect 24 0 23 0;
#X connect 25 0 32 0;
#X connect 27 0 29 1;
#X connect 27 0 30 1;
#X connect 29 0 42 0;
#X connect 30 0 43 0;
#X connect 31 0 29 0;
#X connect 32 0 30 0;
#X connect 33 0 12 0;
#X connect 33 1 11 0;
#X connect 34 0 25 1;
#X connect 35 0 1 0;
#X connect 37 0 38 0;
#X connect 38 0 20 1;
#X connect 39 0 33 0;
#X connect 39 1 4 0;
#X connect 42 0 44 0;
#X connect 42 1 45 0;
#X connect 43 0 46 0;
#X connect 43 1 47 0;
#X connect 48 0 2 1;
#X connect 49 0 5 0;
#X connect 50 0 31 0;
#X connect 50 0 32 0;
#X connect 51 0 50 0;
#X restore 95 218 pd dkvanpvoc-bufreader;
#N canvas 922 549 450 300 dkvanpvoc-lock 0;
#X obj 53 32 inlet~;
#X obj 54 185 +~;
#X obj 118 157 *~ 0;
#X obj 104 102 lrshift~ 1;
#X obj 206 98 lrshift~ -1;
#X obj 54 210 outlet~;
#X obj 312 35 r \$0-lock;
#X connect 0 0 1 0;
#X connect 0 0 3 0;
#X connect 0 0 4 0;
#X connect 1 0 5 0;
#X connect 2 0 1 1;
#X connect 3 0 2 0;
#X connect 4 0 2 0;
#X connect 6 0 2 1;
#X restore 248 426 pd dkvanpvoc-lock;
#N canvas 922 549 450 300 dkvanpvoc-lock 0;
#X obj 53 32 inlet~;
#X obj 54 185 +~;
#X obj 118 157 *~ 0;
#X obj 104 102 lrshift~ 1;
#X obj 206 98 lrshift~ -1;
#X obj 54 210 outlet~;
#X obj 312 35 r \$0-lock;
#X connect 0 0 1 0;
#X connect 0 0 3 0;
#X connect 0 0 4 0;
#X connect 1 0 5 0;
#X connect 2 0 1 1;
#X connect 3 0 2 0;
#X connect 4 0 2 0;
#X connect 6 0 2 1;
#X restore 428 433 pd dkvanpvoc-lock;
#X obj 948 442 switch~ \$2 4 1;
#X obj 248 450 +~ 1e-15;
#N canvas 501 408 707 586 dkvanpvoc-stuff 0;
#X msg 443 249 bang;
#X obj 441 278 f \$0;
#X msg 441 303 \; \$1-prev_real const 0 \; \$1-prev_imag const 0 \;
;
#X obj 269 387 array define \$0-prev_real \$2;
#X obj 269 412 array define \$0-prev_imag \$2;
#X obj 439 177 r \$0-reset;
#X obj 76 157 loadbang;
#X obj 232 229 f \$3;
#X obj 287 228 f \$4;
#X text 185 253 transpose;
#X text 282 252 offset;
#X obj 350 226 f \$5;
#X text 338 250 lock;
#X obj 76 183 t b b b b b, f 44;
#X obj 76 289 pack \$0 f f f f, f 44;
#X obj 121 246 f \$2;
#X text 159 227 winsize;
#X msg 76 313 \; \$1-winsize \$2 \; \$1-transpose \$3 \; \$1-offset
\$4 \; \$1-lock \$5 \;;
#X connect 0 0 1 0;
#X connect 1 0 2 0;
#X connect 5 0 0 0;
#X connect 6 0 13 0;
#X connect 7 0 14 2;
#X connect 8 0 14 3;
#X connect 11 0 14 4;
#X connect 13 0 14 0;
#X connect 13 1 15 0;
#X connect 13 2 7 0;
#X connect 13 3 8 0;
#X connect 13 4 11 0;
#X connect 14 0 17 0;
#X connect 15 0 14 1;
#X restore 949 471 pd dkvanpvoc-stuff;
#X connect 0 0 1 0;
#X connect 0 1 1 1;
#X connect 1 0 46 0;
#X connect 1 1 47 0;
#X connect 2 0 3 2;
#X connect 2 1 3 3;
#X connect 3 0 10 0;
#X connect 3 0 12 0;
#X connect 3 1 11 0;
#X connect 3 1 12 1;
#X connect 8 0 0 0;
#X connect 9 0 0 1;
#X connect 12 0 13 0;
#X connect 13 0 21 0;
#X connect 17 0 45 0;
#X connect 20 0 13 1;
#X connect 20 0 45 1;
#X connect 21 0 14 0;
#X connect 22 0 42 0;
#X connect 23 0 25 0;
#X connect 31 0 30 0;
#X connect 32 0 27 0;
#X connect 35 0 48 0;
#X connect 42 0 31 0;
#X connect 42 1 29 0;
#X connect 42 2 28 0;
#X connect 42 3 32 0;
#X connect 42 4 41 0;
#X connect 45 0 3 0;
#X connect 45 1 3 1;
#X connect 45 2 1 2;
#X connect 45 3 1 3;
#X connect 46 0 49 0;
#X connect 47 0 2 1;
#X connect 49 0 2 0;
