#N canvas 677 266 1290 836 12;
#X obj 171 553 rifft~;
#X obj 171 577 *~, f 15;
#X obj 171 663 outlet~;
#X obj 65 142 inlet~;
#X text 105 170 position;
#X obj 576 165 dkhannblock~ \$2;
#X obj 172 622 dkhannnorm~ \$2 4;
#X obj 814 161 inlet;
#X obj 226 144 inlet;
#X text 273 142 on/off;
#X obj 227 176 s \$0-on;
#X text 868 159 messages;
#X obj 1011 259 s \$0-reset;
#X obj 924 293 s \$0-offset;
#X obj 882 325 s \$0-transpose;
#X obj 814 246 s \$0-arrayset;
#X obj 814 209 symbol;
#X msg 1010 232 bang;
#X text 48 77 inlets: position signal \, on/off \, messages;
#X text 53 106 outlets: signal;
#X obj 803 375 r \$0-on;
#X text 820 18 derek kwan;
#X text 825 52 pdkvabs 2018;
#X text 830 79 gpl v 3;
#X obj 803 403 switch~ \$2 4 1;
#N canvas 487 279 908 740 dkvanpaul-bufreader 0;
#X obj 34 5 inlet~;
#X obj 35 42 snapshot~;
#X obj 35 67 + 0, f 25;
#X obj 251 67 r \$0-winsize;
#X obj 489 195 * 1;
#X obj 487 32 t b f, f 7;
#X msg 487 57 2;
#X obj 487 82 pow, f 7;
#X obj 534 59 / 12;
#X obj 487 132 t b f;
#X text 554 35 window stretch amt;
#X obj 216 154 samplerate~;
#X obj 149 156 * 1000;
#X text 194 237 compensate for 4x overlap (4 windows/block);
#X text 88 84 1/2 window back;
#X text 136 472 front window;
#X obj 31 263 f, f 13;
#X obj 31 288 pack f f, f 18;
#X obj 29 92 t b f, f 7;
#X obj 31 313 t l b, f 7;
#X obj 33 387 line~;
#X msg 75 346 0;
#X text 262 339 backwindow 1/4 cycle behind front in samps;
#X obj 493 268 inlet~;
#X text 555 267 window;
#X obj 30 513 *~, f 14;
#X obj 30 472 tabread4~ \$1;
#X obj 154 119 t f b, f 11;
#X obj 130 14 bang~;
#X text 247 42 windowsize in samps;
#X obj 145 213 /, f 10;
#X obj 145 237 / 4;
#X obj 251 91 t f f, f 25;
#X text 539 202 stretched windowsize in samps;
#X text 252 214 windowsize(ms);
#X obj 30 538 rfft~, f 14;
#X obj 30 562 outlet~;
#X obj 128 568 outlet~;
#X obj 213 16 r \$0-offset;
#X obj 487 7 r \$0-transpose;
#X connect 0 0 1 0;
#X connect 1 0 2 0;
#X connect 2 0 18 0;
#X connect 3 0 32 0;
#X connect 4 0 16 1;
#X connect 5 0 6 0;
#X connect 5 1 8 0;
#X connect 6 0 7 0;
#X connect 7 0 9 0;
#X connect 8 0 7 1;
#X connect 9 0 4 0;
#X connect 9 1 4 1;
#X connect 11 0 30 1;
#X connect 12 0 30 0;
#X connect 16 0 17 0;
#X connect 17 0 19 0;
#X connect 18 0 16 0;
#X connect 18 1 26 1;
#X connect 19 0 20 0;
#X connect 19 1 21 0;
#X connect 20 0 26 0;
#X connect 21 0 20 0;
#X connect 23 0 25 1;
#X connect 25 0 35 0;
#X connect 26 0 25 0;
#X connect 27 0 12 0;
#X connect 27 1 11 0;
#X connect 28 0 1 0;
#X connect 30 0 31 0;
#X connect 31 0 17 1;
#X connect 32 0 27 0;
#X connect 32 1 4 0;
#X connect 35 0 36 0;
#X connect 35 1 37 0;
#X connect 38 0 2 1;
#X connect 39 0 5 0;
#X restore 161 283 pd dkvanpaul-bufreader;
#X text 22 21 dkvanpaul~ - vanilla paulstretcher;
#X text 48 55 args: array name \, fft size \, transposition \, offset
;
#X text 349 78 (set \, transpose \, offset \, reset);
#X obj 814 185 route set transpose offset reset, f 52;
#X obj 166 385 dkcmag~;
#X obj 278 348 noise~;
#X obj 275 395 cos~;
#X obj 332 375 -~ 0.25;
#X obj 332 399 cos~;
#X obj 165 472 *~;
#X obj 243 474 *~;
#X text 410 373 random phases;
#N canvas 501 408 707 586 dkvanpaul-stuff 0;
#X msg 443 249 bang;
#X obj 441 278 f \$0;
#X msg 441 303 \; \$1-prev_real const 0 \; \$1-prev_imag const 0 \;
;
#X obj 439 177 r \$0-reset;
#X obj 76 157 loadbang;
#X obj 232 229 f \$3;
#X obj 360 228 f \$4;
#X text 185 253 transpose;
#X text 355 252 offset;
#X obj 121 246 f \$2;
#X text 159 227 winsize;
#X obj 76 183 t b b b b, f 44;
#X obj 76 289 pack \$0 f f f, f 44;
#X msg 76 313 \; \$1-winsize \$2 \; \$1-transpose \$3 \; \$1-offset
\$4 \;;
#X connect 0 0 1 0;
#X connect 1 0 2 0;
#X connect 3 0 0 0;
#X connect 4 0 11 0;
#X connect 5 0 12 2;
#X connect 6 0 12 3;
#X connect 9 0 12 1;
#X connect 11 0 12 0;
#X connect 11 1 9 0;
#X connect 11 2 5 0;
#X connect 11 3 6 0;
#X connect 12 0 13 0;
#X restore 804 432 pd dkvanpaul-stuff;
#X connect 0 0 1 0;
#X connect 1 0 6 0;
#X connect 3 0 25 0;
#X connect 5 0 1 1;
#X connect 5 0 25 1;
#X connect 6 0 2 0;
#X connect 7 0 29 0;
#X connect 8 0 10 0;
#X connect 16 0 15 0;
#X connect 17 0 12 0;
#X connect 20 0 24 0;
#X connect 25 0 30 0;
#X connect 25 1 30 1;
#X connect 29 0 16 0;
#X connect 29 1 14 0;
#X connect 29 2 13 0;
#X connect 29 3 17 0;
#X connect 30 0 35 0;
#X connect 30 0 36 0;
#X connect 31 0 32 0;
#X connect 31 0 33 0;
#X connect 32 0 35 1;
#X connect 33 0 34 0;
#X connect 34 0 36 1;
#X connect 35 0 0 0;
#X connect 36 0 0 1;
