#N canvas 103 301 1074 609 10;
#X obj 846 515 table \$0-hann;
#X obj 781 356 \$0;
#X msg 770 386 symbol \$1-hann;
#X obj 754 414 pack f s;
#X msg 754 436 \; \$2 resize \$1;
#X obj 762 319 t f f b;
#X obj 674 347 / 4;
#X obj 666 407 samplerate~;
#X obj 674 452 t f b;
#X msg 727 472 0;
#X obj 677 479 osc~;
#X obj 674 369 t b b f;
#X obj 677 501 *~ -0.5;
#X obj 677 523 +~ 0.5;
#X obj 677 545 tabwrite~ \$0-hann;
#X obj 649 192 moses 0.5;
#X msg 623 264 set \$1 4 1;
#N canvas 124 110 450 300 nearpow2 0;
#X obj 112 41 log;
#X obj 93 120 /;
#X obj 124 153 log 2;
#X msg 135 107 2;
#X obj 108 87 t f b;
#X obj 99 222 pow 2;
#X msg 80 209 2;
#X obj 116 14 inlet;
#X obj 93 266 outlet;
#X obj 83 153 int;
#X obj 101 183 t b f;
#X connect 0 0 4 0;
#X connect 1 0 9 0;
#X connect 2 0 1 1;
#X connect 3 0 2 0;
#X connect 4 0 1 0;
#X connect 4 1 3 0;
#X connect 5 0 8 0;
#X connect 6 0 5 0;
#X connect 7 0 0 0;
#X connect 9 0 10 0;
#X connect 10 0 6 0;
#X connect 10 1 5 1;
#X restore 769 201 pd nearpow2;
#X obj 130 221 tabreceive~ \$0-hann;
#X obj 269 219 inlet~;
#X obj 130 257 *~;
#X obj 400 210 inlet~;
#X obj 249 261 *~;
#X obj 130 279 rfft~;
#X obj 249 283 rfft~;
#X obj 133 472 rifft~;
#X obj 389 326 t b f;
#X msg 378 359 1;
#X obj 378 381 / 0.375;
#X obj 378 403 / 4;
#X obj 378 425 /;
#X text 431 343 normalization for hann:;
#X text 439 361 (1/0.375)*(1/overlap)*(1/windowsize);
#X text 730 168 if not pow of 2 \, make it;
#X obj 133 494 *~ 1;
#X obj 133 516 *~;
#X obj 246 492 tabreceive~ \$0-hann;
#X obj 133 538 outlet~;
#X obj 596 289 block~ \$1 4 1;
#X obj 664 158 f \$1;
#X obj 697 71 inlet;
#X obj 750 89 loadbang;
#X text 41 71 in1: sig 1;
#X text 40 88 in2: sig 2;
#X text 275 17 DEREK KWAN \, 2016;
#X msg 563 227 set 1024 4 1;
#X obj 666 429 / 256;
#X msg 649 214 1024;
#X text 42 107 in 3: window size (def. 1024);
#X text 72 194 MAG SOURCE;
#X text 399 190 PHASE SOURCE;
#X obj 109 323 *~;
#X obj 925 349 \$0;
#X obj 898 407 pack f s;
#X msg 898 429 \; \$2 resize \$1;
#X msg 914 379 symbol \$1-binchoose;
#X obj 896 325 / 2;
#X obj 843 485 table \$0-binchoose 512;
#X text 41 124 in 4: binwipe;
#X text 20 46 ported from SuperCollider's PV_BinWipe;
#X text 331 58 BINWIPE VARIABLE:;
#X text 330 72 = 0: sig 1 untouched;
#X text 329 87 < 0: sig 2 replaces bins from top down;
#X text 328 108 > 0: sig 2 replaces bins from bottom up;
#X obj 876 280 t f f b;
#X obj 798 301 v \$0-choosesize;
#X obj 361 251 tabreceive~ \$0-binchoose;
#X obj 146 329 *~;
#X obj 361 273 *~ -1;
#X obj 361 295 +~ 1;
#X obj 243 322 *~;
#X obj 280 323 *~;
#N canvas 1 56 824 528 chooser 0;
#X obj 442 122 moses 0;
#X obj 610 154 t f b;
#X obj 649 180 v \$0-choosesize;
#X obj 610 210 *;
#X obj 666 271 \$0;
#X msg 666 293 symbol \$1-binchoose;
#X obj 666 315 t s s;
#X obj 612 272 i;
#X obj 594 318 f;
#X obj 610 232 t b f b, f 8;
#X obj 594 340 t f f;
#X obj 662 369 sel 0;
#X obj 632 316 + 1;
#X msg 570 250 0;
#X obj 505 274 metro 1e-08;
#X msg 518 252 1;
#X obj 605 411 pack f s;
#X msg 705 347 \; \$1 const 0;
#X msg 609 438 \; \$2 \$1 1;
#X obj 290 197 t f b;
#X obj 329 223 v \$0-choosesize;
#X obj 290 253 *;
#X obj 346 314 \$0;
#X msg 346 336 symbol \$1-binchoose;
#X obj 346 358 t s s;
#X obj 292 315 i;
#X obj 274 361 f;
#X obj 290 275 t b f b, f 8;
#X obj 274 383 t f f;
#X obj 342 412 sel 0;
#X obj 312 359 + 1;
#X msg 250 293 0;
#X obj 185 317 metro 1e-08;
#X msg 198 295 1;
#X obj 285 454 pack f s;
#X obj 441 59 inlet;
#X obj 442 144 + 1;
#X msg 289 481 \; \$2 \$1 0;
#X msg 385 390 \; \$1 const 1;
#X obj 434 91 clip -1 1;
#X connect 0 0 36 0;
#X connect 0 1 1 0;
#X connect 1 0 3 0;
#X connect 1 1 2 0;
#X connect 2 0 3 1;
#X connect 2 0 11 1;
#X connect 3 0 9 0;
#X connect 4 0 5 0;
#X connect 5 0 6 0;
#X connect 6 0 16 1;
#X connect 6 1 17 0;
#X connect 7 0 8 1;
#X connect 8 0 10 0;
#X connect 9 0 15 0;
#X connect 9 1 7 0;
#X connect 9 2 4 0;
#X connect 10 0 12 0;
#X connect 10 0 16 0;
#X connect 10 1 11 0;
#X connect 11 0 13 0;
#X connect 12 0 8 1;
#X connect 13 0 14 0;
#X connect 14 0 8 0;
#X connect 15 0 14 0;
#X connect 16 0 18 0;
#X connect 19 0 21 0;
#X connect 19 1 20 0;
#X connect 20 0 21 1;
#X connect 20 0 29 1;
#X connect 21 0 27 0;
#X connect 22 0 23 0;
#X connect 23 0 24 0;
#X connect 24 0 34 1;
#X connect 24 1 38 0;
#X connect 25 0 26 1;
#X connect 26 0 28 0;
#X connect 27 0 33 0;
#X connect 27 1 25 0;
#X connect 27 2 22 0;
#X connect 28 0 30 0;
#X connect 28 0 34 0;
#X connect 28 1 29 0;
#X connect 29 0 31 0;
#X connect 30 0 26 1;
#X connect 31 0 32 0;
#X connect 32 0 26 0;
#X connect 33 0 32 0;
#X connect 34 0 37 0;
#X connect 35 0 39 0;
#X connect 36 0 19 0;
#X connect 39 0 0 0;
#X restore 959 121 pd chooser;
#X obj 967 71 inlet;
#X obj 967 93 f \$2;
#X text 40 155 arg 1: windowsize (def. 1024);
#X text 39 171 arg 2: binwipe;
#X obj 750 111 t b b;
#X text 15 20 FFTBINWIPE~: fft bin wiper;
#X connect 1 0 2 0;
#X connect 2 0 3 1;
#X connect 3 0 4 0;
#X connect 5 0 6 0;
#X connect 5 1 3 0;
#X connect 5 2 1 0;
#X connect 6 0 11 0;
#X connect 7 0 46 0;
#X connect 8 0 10 0;
#X connect 8 1 9 0;
#X connect 9 0 10 1;
#X connect 10 0 12 0;
#X connect 11 0 14 0;
#X connect 11 1 7 0;
#X connect 11 2 46 1;
#X connect 12 0 13 0;
#X connect 13 0 14 0;
#X connect 15 0 45 0;
#X connect 15 0 47 0;
#X connect 15 1 17 0;
#X connect 16 0 38 0;
#X connect 17 0 16 0;
#X connect 17 0 5 0;
#X connect 17 0 26 0;
#X connect 17 0 64 0;
#X connect 18 0 20 0;
#X connect 18 0 22 0;
#X connect 19 0 20 1;
#X connect 20 0 23 0;
#X connect 21 0 22 1;
#X connect 22 0 24 0;
#X connect 23 0 51 0;
#X connect 23 1 67 0;
#X connect 24 0 70 0;
#X connect 24 1 71 0;
#X connect 25 0 34 0;
#X connect 26 0 27 0;
#X connect 26 1 30 1;
#X connect 27 0 28 0;
#X connect 28 0 29 0;
#X connect 29 0 30 0;
#X connect 30 0 34 1;
#X connect 34 0 35 0;
#X connect 35 0 37 0;
#X connect 36 0 35 1;
#X connect 39 0 15 0;
#X connect 40 0 39 0;
#X connect 41 0 77 0;
#X connect 45 0 38 0;
#X connect 46 0 8 0;
#X connect 47 0 5 0;
#X connect 47 0 64 0;
#X connect 51 0 25 0;
#X connect 52 0 55 0;
#X connect 53 0 54 0;
#X connect 55 0 53 1;
#X connect 56 0 53 0;
#X connect 64 0 65 0;
#X connect 64 1 56 0;
#X connect 64 2 52 0;
#X connect 66 0 51 1;
#X connect 66 0 67 1;
#X connect 66 0 68 0;
#X connect 67 0 25 1;
#X connect 68 0 69 0;
#X connect 69 0 70 1;
#X connect 69 0 71 1;
#X connect 70 0 25 0;
#X connect 71 0 25 1;
#X connect 73 0 74 0;
#X connect 74 0 72 0;
#X connect 77 0 74 0;
#X connect 77 1 39 0;
