#N canvas 895 86 1078 666 10;
#X obj 833 234 table \$0-hann;
#X obj 781 356 \$0;
#X msg 770 386 symbol \$1-hann;
#X obj 754 414 pack f s;
#X msg 754 436 \; \$2 resize \$1;
#X obj 762 319 t f f b;
#X obj 674 347 / 4;
#X obj 666 407 samplerate~;
#X obj 674 452 t f b;
#X msg 727 472 0;
#X obj 677 479 osc~;
#X obj 674 369 t b b f;
#X obj 677 501 *~ -0.5;
#X obj 677 523 +~ 0.5;
#X obj 677 545 tabwrite~ \$0-hann;
#X obj 649 192 moses 0.5;
#X msg 711 246 set \$1 4 1;
#N canvas 124 110 450 300 nearpow2 0;
#X obj 112 41 log;
#X obj 93 120 /;
#X obj 124 153 log 2;
#X msg 135 107 2;
#X obj 108 87 t f b;
#X obj 99 222 pow 2;
#X msg 80 209 2;
#X obj 116 14 inlet;
#X obj 93 266 outlet;
#X obj 83 153 int;
#X obj 101 183 t b f;
#X connect 0 0 4 0;
#X connect 1 0 9 0;
#X connect 2 0 1 1;
#X connect 3 0 2 0;
#X connect 4 0 1 0;
#X connect 4 1 3 0;
#X connect 5 0 8 0;
#X connect 6 0 5 0;
#X connect 7 0 0 0;
#X connect 9 0 10 0;
#X connect 10 0 6 0;
#X connect 10 1 5 1;
#X restore 720 211 pd nearpow2;
#X obj 130 221 tabreceive~ \$0-hann;
#X obj 269 219 inlet~;
#X obj 130 257 *~;
#X obj 400 210 inlet~;
#X obj 249 261 *~;
#X obj 130 279 rfft~;
#X obj 249 283 rfft~;
#X obj 133 472 rifft~;
#X obj 389 326 t b f;
#X msg 378 359 1;
#X obj 378 381 / 0.375;
#X obj 378 403 / 4;
#X obj 378 425 /;
#X text 431 343 normalization for hann:;
#X text 439 361 (1/0.375)*(1/overlap)*(1/windowsize);
#X text 730 168 if not pow of 2 \, make it;
#X obj 133 494 *~ 1;
#X obj 133 516 *~;
#X obj 246 492 tabreceive~ \$0-hann;
#X obj 133 538 outlet~;
#X obj 596 289 block~ \$1 4 1;
#X obj 664 158 f \$1;
#X obj 697 71 inlet;
#X obj 750 89 loadbang;
#X text 41 71 in1: sig 1;
#X text 40 88 in2: sig 2;
#X text 275 17 DEREK KWAN \, 2016;
#X msg 563 227 set 1024 4 1;
#X obj 666 429 / 256;
#X msg 649 214 1024;
#X text 36 108 in 3: window size (def. 1024);
#X text 52 152 arg: windowsize (def. 1024);
#X text 72 194 MAG SOURCE;
#X text 399 190 PHASE SOURCE;
#X text 15 20 FFTCROSS~: fft cross-synthesis;
#X text 20 46 inspired by 1 Cross-Synthesis by Alexander Torres-Porres
;
#X obj 63 333 expr~ sqrt($v1*$v1+$v2*$v2)*cos(atan2($v4 \, $v3)) \;
sqrt($v1*$v1+$v2*$v2)*sin(atan2($v4 \, $v3)) \;;
#X connect 1 0 2 0;
#X connect 2 0 3 1;
#X connect 3 0 4 0;
#X connect 5 0 6 0;
#X connect 5 1 3 0;
#X connect 5 2 1 0;
#X connect 6 0 11 0;
#X connect 7 0 46 0;
#X connect 8 0 10 0;
#X connect 8 1 9 0;
#X connect 9 0 10 1;
#X connect 10 0 12 0;
#X connect 11 0 14 0;
#X connect 11 1 7 0;
#X connect 11 2 46 1;
#X connect 12 0 13 0;
#X connect 13 0 14 0;
#X connect 15 0 45 0;
#X connect 15 0 47 0;
#X connect 15 1 17 0;
#X connect 16 0 38 0;
#X connect 17 0 16 0;
#X connect 17 0 5 0;
#X connect 17 0 26 0;
#X connect 18 0 20 0;
#X connect 18 0 22 0;
#X connect 19 0 20 1;
#X connect 20 0 23 0;
#X connect 21 0 22 1;
#X connect 22 0 24 0;
#X connect 23 0 54 0;
#X connect 23 1 54 1;
#X connect 24 0 54 2;
#X connect 24 1 54 3;
#X connect 25 0 34 0;
#X connect 26 0 27 0;
#X connect 26 1 30 1;
#X connect 27 0 28 0;
#X connect 28 0 29 0;
#X connect 29 0 30 0;
#X connect 30 0 34 1;
#X connect 34 0 35 0;
#X connect 35 0 37 0;
#X connect 36 0 35 1;
#X connect 39 0 15 0;
#X connect 40 0 39 0;
#X connect 41 0 39 0;
#X connect 45 0 38 0;
#X connect 46 0 8 0;
#X connect 47 0 5 0;
#X connect 54 0 25 0;
#X connect 54 1 25 1;
