#N canvas 664 390 1352 572 12;
#X msg 638 114 bang;
#X msg 775 159 clear;
#X obj 249 42 inlet;
#X obj 657 20 inlet;
#X obj 755 203 text define \$0-markov_list;
#X obj 400 39 inlet;
#X text 654 60 clear;
#X text 316 45 notes;
#X obj 792 30 inlet;
#X text 852 27 messages;
#X obj 792 80 symbol;
#X msg 792 105 read \$1;
#X obj 875 89 symbol;
#X msg 875 114 write \$1;
#X msg 980 95 click;
#X obj 398 82 f \$1;
#X obj 400 126 == 1;
#X obj 254 273 route 0 1;
#X text 457 73 mode 0: analysis;
#X text 461 100 mode 1: generation;
#X msg 324 179 bang;
#X obj 251 213 pack f f;
#X text 460 43 mode;
#X obj 536 19 loadbang;
#X text 22 136 arg: mode;
#X text 13 171 inlets:;
#X text 15 194 notes/bang (in gen mode) \,;
#X text 14 217 mode \, clear \, messages;
#X text 18 390 outlets:;
#X text 20 419 generated markov seq;
#X text 1194 46 derek kwan;
#X text 1206 74 pdkvabs;
#X text 1209 98 gpl v 3 2017;
#X msg 251 238 \$2 \$1;
#X text 5 283 (notes in gen mode seeds;
#X text 19 310 generator);
#X obj 400 151 t f f;
#X obj 448 192 sel 1;
#X text 15 18 dkvmarkov2o - vanilla second-order markov;
#X obj 221 355 t f b f, f 24;
#X obj 233 461 pack f f f, f 25;
#X obj 233 486 t a a;
#X obj 107 525 unpack f f f;
#X text 448 386 output [last2 \, last1 \, new] \, put new in last1
\, last1 in last2;
#X msg 364 394 -1e+20;
#X obj 248 418 f -1e+20;
#N canvas 1 95 1334 968 \$0-markov2o_store 0;
#X obj 214 45 inlet;
#X text 264 43 list;
#X obj 145 322 moses 0, f 22;
#X obj 205 137 t a a;
#X obj 168 432 list;
#X msg 145 347 bang;
#X text 45 500 if pitch not found \, insert pair as new line;
#X text 426 499 else insert 2nd elt at end of found line;
#X msg 571 393 -1;
#X obj 386 337 t f f b, f 30;
#X obj 371 410 list append;
#X obj 168 457 text insert \$0-markov_list;
#X obj 375 368 text get \$0-markov_list;
#X obj 411 464 text set \$0-markov_list;
#X obj 112 220 moses -1e+19;
#X text 350 158 last2 \, last1 \, new;
#X text 366 213 ignore start (first entry -1e+20 \, means 2nd entry
also);
#X obj 209 180 unpack f f f;
#X obj 171 286 text search \$0-markov_list 0 1;
#X obj 193 250 pack f f;
#X connect 0 0 3 0;
#X connect 2 0 5 0;
#X connect 2 1 9 0;
#X connect 3 0 17 0;
#X connect 3 1 4 1;
#X connect 4 0 11 0;
#X connect 5 0 4 0;
#X connect 8 0 13 2;
#X connect 9 0 12 0;
#X connect 9 1 13 1;
#X connect 9 2 8 0;
#X connect 10 0 13 0;
#X connect 12 0 10 0;
#X connect 14 1 19 0;
#X connect 17 0 14 0;
#X connect 17 1 19 1;
#X connect 17 2 10 1;
#X connect 18 0 2 0;
#X connect 19 0 18 0;
#X restore 251 538 pd \$0-markov2o_store;
#N canvas 1080 322 936 892 \$0-markov2o_gen 0;
#X obj 107 51 inlet;
#X text 162 52 trig;
#X obj 472 55 inlet;
#X text 531 55 trigseed;
#X obj 263 62 inlet;
#X text 316 64 seed;
#X obj 230 496 text get \$0-markov_list;
#X obj 160 466 moses 0;
#X obj 436 557 list length;
#X obj 410 616 random;
#X obj 361 694 list store;
#X msg 359 662 get \$1 1;
#X obj 361 719 t f f;
#X text 424 434 find entry;
#X text 460 653 choose random elt from;
#X text 465 676 corresponding list;
#X text 438 733 output choice and store for;
#X text 441 756 next iteration;
#X obj 367 853 outlet;
#X obj 477 186 text size \$0-markov_list;
#X obj 411 137 t b b;
#X obj 418 242 random;
#X text 465 128 (when switching to gen mode \, pick initial note);
#X obj 353 563 t b a a;
#X obj 418 267 text get \$0-markov_list;
#X text 484 158 start off by seeding with random pitch;
#X obj 195 232 list split 2;
#X obj 160 441 text search \$0-markov_list 0 1;
#X obj 268 535 list split 2;
#X obj 224 613 unpack f f;
#X obj 257 666 pack f f;
#X obj 263 87 route list float;
#N canvas 182 243 840 669 \$0-markov2o_list_handler 0;
#X obj 147 57 inlet;
#X text 193 58 trig;
#X obj 542 62 inlet;
#X text 612 66 list;
#X obj 178 244 list;
#X obj 182 455 outlet;
#X obj 315 60 inlet;
#X text 370 61 float;
#X msg 231 274 \$2;
#X obj 315 85 t b b f b;
#X obj 179 386 spigot 1;
#X msg 350 212 0;
#X obj 231 299 pack f f;
#X msg 293 233 1;
#X connect 0 0 4 0;
#X connect 2 0 4 1;
#X connect 4 0 8 0;
#X connect 4 0 10 0;
#X connect 6 0 9 0;
#X connect 8 0 12 0;
#X connect 9 0 13 0;
#X connect 9 1 4 0;
#X connect 9 2 12 1;
#X connect 9 3 11 0;
#X connect 10 0 5 0;
#X connect 11 0 10 1;
#X connect 12 0 4 1;
#X connect 13 0 10 1;
#X restore 67 394 pd \$0-markov2o_list_handler;
#X obj 128 519 t b b;
#X text 12 545 if not found \, base output;
#X text 11 574 on random seed;
#X connect 0 0 32 0;
#X connect 2 0 20 0;
#X connect 4 0 31 0;
#X connect 6 0 28 0;
#X connect 7 0 33 0;
#X connect 7 1 6 0;
#X connect 8 0 9 1;
#X connect 9 0 11 0;
#X connect 10 0 12 0;
#X connect 11 0 10 0;
#X connect 12 0 18 0;
#X connect 12 1 30 1;
#X connect 19 0 21 1;
#X connect 20 0 21 0;
#X connect 20 1 19 0;
#X connect 21 0 24 0;
#X connect 23 0 9 0;
#X connect 23 1 10 1;
#X connect 23 2 8 0;
#X connect 24 0 26 0;
#X connect 26 1 32 2;
#X connect 27 0 7 0;
#X connect 28 0 29 0;
#X connect 28 1 23 0;
#X connect 29 1 30 0;
#X connect 30 0 32 2;
#X connect 31 0 26 0;
#X connect 31 1 32 1;
#X connect 32 0 27 0;
#X connect 33 0 32 0;
#X connect 33 1 20 0;
#X restore 445 347 pd \$0-markov2o_gen;
#X obj 249 67 route float list;
#X obj 792 55 route read write clear open mode trigseed, f 49;
#X obj 469 550 outlet;
#X connect 0 0 1 0;
#X connect 0 0 44 0;
#X connect 1 0 4 0;
#X connect 2 0 48 0;
#X connect 3 0 0 0;
#X connect 5 0 15 0;
#X connect 8 0 49 0;
#X connect 10 0 11 0;
#X connect 11 0 4 0;
#X connect 12 0 13 0;
#X connect 13 0 4 0;
#X connect 14 0 4 0;
#X connect 15 0 16 0;
#X connect 16 0 36 0;
#X connect 17 0 39 0;
#X connect 17 1 47 1;
#X connect 20 0 47 0;
#X connect 21 0 33 0;
#X connect 23 0 15 0;
#X connect 23 0 0 0;
#X connect 33 0 17 0;
#X connect 36 0 21 1;
#X connect 36 1 37 0;
#X connect 37 0 47 2;
#X connect 39 0 40 1;
#X connect 39 1 45 0;
#X connect 39 2 40 2;
#X connect 40 0 41 0;
#X connect 41 0 42 0;
#X connect 41 1 46 0;
#X connect 42 1 45 1;
#X connect 44 0 45 1;
#X connect 44 0 40 1;
#X connect 45 0 40 0;
#X connect 47 0 50 0;
#X connect 48 0 21 0;
#X connect 48 1 47 1;
#X connect 48 2 20 0;
#X connect 49 0 10 0;
#X connect 49 1 12 0;
#X connect 49 2 0 0;
#X connect 49 3 14 0;
#X connect 49 4 16 0;
#X connect 49 5 47 2;
