#N canvas 311 209 1305 507 12;
#X obj 256 309 t f b f;
#X text 343 327 output [last \, new] \, put new in last;
#X msg 638 114 bang;
#X msg 747 278 clear;
#X obj 270 380 pack f f;
#X obj 249 42 inlet;
#X obj 657 20 inlet;
#X obj 400 39 inlet;
#X text 654 60 clear;
#X text 316 45 notes;
#X obj 791 8 inlet;
#X text 851 5 messages;
#X obj 793 201 symbol;
#X msg 793 226 read \$1;
#X obj 915 213 symbol;
#X msg 915 238 write \$1;
#X msg 926 174 click;
#X msg 361 294 -1e+20;
#X obj 267 346 f -1e+20;
#X text 15 18 dkvmarkov1o - vanilla first-order markov;
#X obj 411 82 f \$1;
#X obj 424 118 == 1;
#X text 457 73 mode 0: analysis;
#X text 461 100 mode 1: generation;
#X text 460 43 mode;
#X obj 536 19 loadbang;
#X text 22 136 arg: mode;
#X text 13 171 inlets:;
#X text 15 194 notes/bang (in gen mode) \,;
#X text 14 217 mode \, clear \, messages;
#X text 18 390 outlets:;
#X text 20 419 generated markov seq;
#X text 1339 17 derek kwan;
#X text 1351 45 pdkvabs;
#X text 1354 69 gpl v 3 2017;
#X text 5 283 (notes in gen mode seeds;
#X text 19 310 generator);
#X obj 475 187 sel 1;
#X obj 496 425 outlet;
#X obj 801 320 text define -k \$0-markov_list;
#A set 12 11 \; 14 13 \; 13 14 12 \; 11 10 10 10 10 6 10 11 1 \; 9
8 8 11 6 6 7 8 11 8 4 5 1 7 9 8 8 \; 10 9 9 8 9 11 9 9 13 9 5 9 2 8
10 0 \; 8 7 9 6 7 10 7 5 4 8 7 6 7 0 4 5 5 9 2 9 6 \; 7 7 6 4 6 8 6
8 6 6 6 6 6 10 6 4 3 4 6 10 6 8 \; 2 7 6 0 3 1 6 11 \; 5 4 6 1 7 4
6 4 4 4 4 5 4 8 9 11 0 4 4 6 0 7 \; 6 5 4 8 3 4 5 7 10 7 5 4 4 8 7
9 4 4 1 7 5 6 5 0 10 10 3 7 8 9 11 0 \; 4 3 6 0 5 0 6 5 10 3 3 6 3
3 3 5 6 9 8 3 3 2 3 5 6 3 6 3 8 5 10 7 6 5 6 7 \; 3 0 4 0 4 2 5 4 4
1 4 0 4 4 0 7 4 4 2 0 4 5 \; 1 0 3 3 4 0 3 0 3 0 2 0 5 10 \; 0 1 1
1 1 3 1 1 1 3 4 6 2 5 8 7 7 8 4 4 9 \;;
#X obj 791 33 route read write clear open mode trigstate state, f
49;
#N canvas 735 230 936 892 dkvmarkov1o_gen 0;
#X obj 107 51 inlet;
#X text 162 52 trig;
#X obj 472 55 inlet;
#X obj 263 62 inlet;
#X obj 230 496 text get \$0-markov_list;
#X obj 160 441 text search \$0-markov_list;
#X obj 160 466 moses 0;
#X obj 396 584 list length;
#X obj 370 643 random;
#X obj 252 552 list split 1;
#X obj 321 721 list store;
#X msg 319 689 get \$1 1;
#X obj 321 746 t f f;
#X obj 111 363 f;
#X text 390 439 find entry;
#X text 420 680 choose random elt from;
#X text 425 703 corresponding list;
#X text 414 748 output choice and store for;
#X text 417 771 next iteration;
#X obj 321 771 outlet;
#X obj 447 253 text size \$0-markov_list;
#X obj 386 224 t b b;
#X obj 388 309 random;
#X text 435 195 (when switching to gen mode \, pick initial note);
#X obj 307 578 t b a a;
#X obj 388 334 text get \$0-markov_list;
#X obj 388 359 list split 1;
#X text 454 225 start off by seeding with random pitch;
#X obj 105 534 t b b;
#X text 21 613 if not found \, base output;
#X text 316 64 state;
#X text 531 55 trigstate;
#X text 26 638 on random state, f 31;
#X connect 0 0 13 0;
#X connect 2 0 21 0;
#X connect 3 0 13 1;
#X connect 4 0 9 0;
#X connect 5 0 6 0;
#X connect 6 0 28 0;
#X connect 6 1 4 0;
#X connect 7 0 8 1;
#X connect 8 0 11 0;
#X connect 9 1 24 0;
#X connect 10 0 12 0;
#X connect 11 0 10 0;
#X connect 12 0 19 0;
#X connect 12 1 13 1;
#X connect 13 0 5 0;
#X connect 20 0 22 1;
#X connect 21 0 22 0;
#X connect 21 1 20 0;
#X connect 22 0 25 0;
#X connect 24 0 8 0;
#X connect 24 1 10 1;
#X connect 24 2 7 0;
#X connect 25 0 26 0;
#X connect 26 0 13 1;
#X connect 28 0 13 0;
#X connect 28 1 21 0;
#X restore 460 310 pd dkvmarkov1o_gen;
#N canvas 1085 294 1220 891 dkvmarkov1o_input 1;
#X obj 74 32 inlet;
#X text 128 31 input;
#X obj 326 36 inlet;
#X obj 74 56 route float, f 33;
#X msg 306 402 bang;
#X obj 310 478 f 0;
#X msg 361 421 0;
#X obj 440 39 loadbang;
#X msg 362 454 1;
#X obj 120 259 t f f, f 15;
#X obj 219 285 text search \$0-markov_list;
#X text 379 324 else do nothing;
#X obj 120 343 spigot 0;
#X obj 120 367 t f b;
#X obj 135 578 f;
#X obj 310 502 sel 1 0;
#X obj 148 677 outlet;
#X text 206 677 output;
#X obj 277 680 outlet;
#X obj 410 670 outlet;
#X text 474 669 normal bangs;
#X obj 135 602 t f f b;
#X obj 219 309 >= 0;
#X text 373 297 if in text \, store and output/state next bang;
#X text 378 503 0 - normal bang \, 1 - float preceded bang (mark for
output);
#X text 327 679 state;
#X text 379 42 mode;
#X obj 326 60 t f f;
#X obj 359 355 sel 1;
#X obj 76 156 swap, f 10;
#X obj 76 180 pack f f;
#X obj 76 204 route 0 1;
#X text 171 190 just let through if in analysis mode;
#X obj 17 679 outlet;
#X text 40 709 analysis;
#X connect 0 0 3 0;
#X connect 2 0 27 0;
#X connect 3 0 29 0;
#X connect 3 1 4 0;
#X connect 4 0 5 0;
#X connect 5 0 15 0;
#X connect 6 0 5 1;
#X connect 7 0 6 0;
#X connect 8 0 5 1;
#X connect 9 0 12 0;
#X connect 9 1 10 0;
#X connect 10 0 22 0;
#X connect 12 0 13 0;
#X connect 13 0 14 1;
#X connect 13 1 8 0;
#X connect 14 0 21 0;
#X connect 15 0 14 0;
#X connect 15 1 19 0;
#X connect 21 0 16 0;
#X connect 21 1 18 0;
#X connect 21 2 6 0;
#X connect 22 0 12 1;
#X connect 27 0 29 1;
#X connect 27 1 28 0;
#X connect 28 0 6 0;
#X connect 29 0 30 0;
#X connect 29 1 30 1;
#X connect 30 0 31 0;
#X connect 31 0 33 0;
#X connect 31 1 9 0;
#X restore 256 213 pd dkvmarkov1o_input;
#N canvas 1 95 998 754 dkvmarkov1o_store 0;
#X obj 214 45 inlet;
#X text 264 43 list;
#X obj 189 323 moses 0, f 22;
#X text 350 158 first \, following;
#X obj 205 137 t a a;
#X obj 168 432 list;
#X obj 209 180 unpack f f;
#X msg 189 348 bang;
#X text 45 500 if pitch not found \, insert pair as new line;
#X text 426 499 else insert 2nd elt at end of found line;
#X msg 571 393 -1;
#X obj 386 337 t f f b, f 30;
#X obj 371 410 list append;
#X obj 168 457 text insert \$0-markov_list;
#X obj 375 368 text get \$0-markov_list;
#X obj 411 464 text set \$0-markov_list;
#X obj 181 286 text search \$0-markov_list;
#X obj 209 205 moses -1e+19;
#X text 366 213 ignore start (-1e+20);
#X connect 0 0 4 0;
#X connect 2 0 7 0;
#X connect 2 1 11 0;
#X connect 4 0 6 0;
#X connect 4 1 5 1;
#X connect 5 0 13 0;
#X connect 6 0 17 0;
#X connect 6 1 12 1;
#X connect 7 0 5 0;
#X connect 10 0 15 2;
#X connect 11 0 14 0;
#X connect 11 1 15 1;
#X connect 11 2 10 0;
#X connect 12 0 15 0;
#X connect 14 0 12 0;
#X connect 16 0 2 0;
#X connect 17 1 16 0;
#X restore 251 428 pd dkvmarkov1o_store;
#X obj 415 150 t f f;
#X connect 0 0 18 1;
#X connect 0 1 18 0;
#X connect 0 2 4 1;
#X connect 2 0 17 0;
#X connect 2 0 3 0;
#X connect 3 0 39 0;
#X connect 4 0 43 0;
#X connect 5 0 42 0;
#X connect 6 0 2 0;
#X connect 7 0 20 0;
#X connect 10 0 40 0;
#X connect 12 0 13 0;
#X connect 13 0 39 0;
#X connect 14 0 15 0;
#X connect 15 0 39 0;
#X connect 16 0 39 0;
#X connect 17 0 18 1;
#X connect 18 0 4 0;
#X connect 20 0 21 0;
#X connect 21 0 44 0;
#X connect 25 0 20 0;
#X connect 25 0 2 0;
#X connect 37 0 41 2;
#X connect 40 0 12 0;
#X connect 40 1 14 0;
#X connect 40 2 2 0;
#X connect 40 3 16 0;
#X connect 40 4 21 0;
#X connect 40 5 41 2;
#X connect 40 6 41 1;
#X connect 41 0 38 0;
#X connect 42 0 0 0;
#X connect 42 1 38 0;
#X connect 42 2 41 1;
#X connect 42 3 41 0;
#X connect 44 0 42 1;
#X connect 44 1 37 0;
