#N canvas 306 211 1352 572 12;
#X msg 663 190 bang;
#X msg 720 289 clear;
#X obj 249 42 inlet;
#X obj 657 20 inlet;
#X obj 750 321 text define \$0-markov_list;
#X obj 400 39 inlet;
#X text 654 60 clear;
#X text 316 45 notes;
#X obj 792 30 inlet;
#X text 852 27 messages;
#X obj 773 227 symbol;
#X msg 773 252 read \$1;
#X obj 880 220 symbol;
#X msg 880 245 write \$1;
#X msg 973 281 click;
#X obj 396 111 f \$1;
#X obj 412 139 == 1;
#X text 457 73 mode 0: analysis;
#X text 461 100 mode 1: generation;
#X text 460 43 mode;
#X obj 536 19 loadbang;
#X text 22 136 arg: mode;
#X text 13 171 inlets:;
#X text 15 194 notes/bang (in gen mode) \,;
#X text 14 217 mode \, clear \, messages;
#X text 18 390 outlets:;
#X text 20 419 generated markov seq;
#X text 1194 46 derek kwan;
#X text 1206 74 pdkvabs;
#X text 1209 98 gpl v 3 2017;
#X text 5 283 (notes in gen mode seeds;
#X text 19 310 generator);
#X obj 415 166 t f f;
#X obj 460 234 sel 1;
#X text 15 18 dkvmarkov2o - vanilla second-order markov;
#X obj 221 355 t f b f, f 24;
#X obj 233 461 pack f f f, f 25;
#X obj 233 486 t a a;
#X obj 107 525 unpack f f f;
#X text 448 386 output [last2 \, last1 \, new] \, put new in last1
\, last1 in last2;
#X msg 364 394 -1e+20;
#X obj 248 418 f -1e+20;
#X obj 469 550 outlet;
#N canvas 1080 322 936 892 dkvmarkov2o_gen 0;
#X obj 107 51 inlet;
#X text 162 52 trig;
#X obj 472 55 inlet;
#X obj 263 62 inlet;
#X obj 230 496 text get \$0-markov_list;
#X obj 160 466 moses 0;
#X obj 436 557 list length;
#X obj 410 616 random;
#X obj 361 694 list store;
#X msg 359 662 get \$1 1;
#X obj 361 719 t f f;
#X text 424 434 find entry;
#X text 460 653 choose random elt from;
#X text 465 676 corresponding list;
#X text 438 733 output choice and store for;
#X text 441 756 next iteration;
#X obj 367 853 outlet;
#X obj 477 186 text size \$0-markov_list;
#X obj 411 137 t b b;
#X obj 418 242 random;
#X text 465 128 (when switching to gen mode \, pick initial note);
#X obj 353 563 t b a a;
#X obj 418 267 text get \$0-markov_list;
#X text 484 158 start off by seeding with random pitch;
#X obj 195 232 list split 2;
#X obj 160 441 text search \$0-markov_list 0 1;
#X obj 268 535 list split 2;
#X obj 224 613 unpack f f;
#X obj 257 666 pack f f;
#X obj 263 87 route list float;
#N canvas 182 243 840 669 \$0-markov2o_list_handler 0;
#X obj 147 57 inlet;
#X text 193 58 trig;
#X obj 542 62 inlet;
#X text 612 66 list;
#X obj 178 244 list;
#X obj 182 455 outlet;
#X obj 315 60 inlet;
#X text 370 61 float;
#X msg 231 274 \$2;
#X obj 315 85 t b b f b;
#X obj 179 386 spigot 1;
#X msg 350 212 0;
#X obj 231 299 pack f f;
#X msg 293 233 1;
#X connect 0 0 4 0;
#X connect 2 0 4 1;
#X connect 4 0 8 0;
#X connect 4 0 10 0;
#X connect 6 0 9 0;
#X connect 8 0 12 0;
#X connect 9 0 13 0;
#X connect 9 1 4 0;
#X connect 9 2 12 1;
#X connect 9 3 11 0;
#X connect 10 0 5 0;
#X connect 11 0 10 1;
#X connect 12 0 4 1;
#X connect 13 0 10 1;
#X restore 67 394 pd \$0-markov2o_list_handler;
#X obj 128 519 t b b;
#X text 12 545 if not found \, base output;
#X text 316 64 state;
#X text 531 55 trigstate;
#X text 11 574 on random state;
#X connect 0 0 30 0;
#X connect 2 0 18 0;
#X connect 3 0 29 0;
#X connect 4 0 26 0;
#X connect 5 0 31 0;
#X connect 5 1 4 0;
#X connect 6 0 7 1;
#X connect 7 0 9 0;
#X connect 8 0 10 0;
#X connect 9 0 8 0;
#X connect 10 0 16 0;
#X connect 10 1 28 1;
#X connect 17 0 19 1;
#X connect 18 0 19 0;
#X connect 18 1 17 0;
#X connect 19 0 22 0;
#X connect 21 0 7 0;
#X connect 21 1 8 1;
#X connect 21 2 6 0;
#X connect 22 0 24 0;
#X connect 24 1 30 2;
#X connect 25 0 5 0;
#X connect 26 0 27 0;
#X connect 26 1 21 0;
#X connect 27 1 28 0;
#X connect 28 0 30 2;
#X connect 29 0 24 0;
#X connect 29 1 30 1;
#X connect 30 0 25 0;
#X connect 31 0 30 0;
#X connect 31 1 18 0;
#X restore 445 347 pd dkvmarkov2o_gen;
#N canvas 1 95 1334 968 dkvmarkov2o_store 0;
#X obj 214 45 inlet;
#X text 264 43 list;
#X obj 145 322 moses 0, f 22;
#X obj 205 137 t a a;
#X obj 168 432 list;
#X msg 145 347 bang;
#X text 45 500 if pitch not found \, insert pair as new line;
#X text 426 499 else insert 2nd elt at end of found line;
#X msg 571 393 -1;
#X obj 386 337 t f f b, f 30;
#X obj 371 410 list append;
#X obj 168 457 text insert \$0-markov_list;
#X obj 375 368 text get \$0-markov_list;
#X obj 411 464 text set \$0-markov_list;
#X obj 112 220 moses -1e+19;
#X text 350 158 last2 \, last1 \, new;
#X text 366 213 ignore start (first entry -1e+20 \, means 2nd entry
also);
#X obj 209 180 unpack f f f;
#X obj 171 286 text search \$0-markov_list 0 1;
#X obj 193 250 pack f f;
#X connect 0 0 3 0;
#X connect 2 0 5 0;
#X connect 2 1 9 0;
#X connect 3 0 17 0;
#X connect 3 1 4 1;
#X connect 4 0 11 0;
#X connect 5 0 4 0;
#X connect 8 0 13 2;
#X connect 9 0 12 0;
#X connect 9 1 13 1;
#X connect 9 2 8 0;
#X connect 10 0 13 0;
#X connect 12 0 10 0;
#X connect 14 1 19 0;
#X connect 17 0 14 0;
#X connect 17 1 19 1;
#X connect 17 2 10 1;
#X connect 18 0 2 0;
#X connect 19 0 18 0;
#X restore 251 538 pd dkvmarkov2o_store;
#N canvas 1243 181 1244 1045 dkvmarkov2o_input 0;
#X obj 119 39 inlet;
#X text 173 38 input;
#X obj 431 31 inlet;
#X msg 320 143 bang;
#X obj 336 577 f 0, f 16;
#X msg 398 462 0;
#X obj 650 27 loadbang;
#X msg 376 516 1;
#X obj 175 377 t f f, f 15;
#X obj 274 403 text search \$0-markov_list;
#X obj 170 502 spigot 0;
#X obj 167 782 f;
#X obj 167 850 outlet;
#X text 241 851 output;
#X obj 309 852 outlet;
#X obj 442 842 outlet;
#X text 506 841 normal bangs;
#X obj 274 427 >= 0;
#X obj 119 63 route float list, f 26;
#X obj 169 295 list split 1, f 36;
#X obj 167 264 list, f 9;
#X text 462 445 else make sure next bang is 0;
#X obj 241 467 t f f;
#X obj 272 505 sel 0;
#X text 460 420 if in text \, store and output/state next bang;
#X text 769 346 (iteratively if list);
#X text 450 291 list empty \, bang normally;
#X obj 426 337 t b b;
#X obj 167 814 t f f, f 21;
#X obj 288 325 route bang;
#X obj 355 363 t a b;
#X msg 458 521 2;
#X obj 344 654 t b b;
#X obj 336 601 sel 1 2 0;
#X text 495 575 0 - normal bang \, 1 - float preceded bang (mark for
output);
#X text 502 611 2 - list preceded bang (output \, iterate);
#X text 359 851 state;
#X text 484 37 mode;
#X obj 432 92 sel 1;
#X obj 420 58 t f f;
#X obj 83 168 list prepend;
#X obj 83 192 route 0 1;
#X obj 54 920 outlet;
#X text 117 920 analysis;
#X text 180 181 just let through if in analysis mode;
#X connect 0 0 18 0;
#X connect 2 0 39 0;
#X connect 3 0 4 0;
#X connect 4 0 33 0;
#X connect 5 0 4 1;
#X connect 6 0 5 0;
#X connect 7 0 4 1;
#X connect 8 0 10 0;
#X connect 8 1 9 0;
#X connect 9 0 17 0;
#X connect 10 0 11 1;
#X connect 11 0 28 0;
#X connect 17 0 22 0;
#X connect 18 0 40 0;
#X connect 18 1 40 0;
#X connect 18 2 3 0;
#X connect 19 0 8 0;
#X connect 19 1 29 0;
#X connect 19 2 27 0;
#X connect 20 0 19 0;
#X connect 22 0 10 1;
#X connect 22 1 23 0;
#X connect 23 0 5 0;
#X connect 27 0 3 0;
#X connect 27 1 5 0;
#X connect 28 0 12 0;
#X connect 28 1 14 0;
#X connect 29 0 7 0;
#X connect 29 1 30 0;
#X connect 30 0 20 1;
#X connect 30 1 31 0;
#X connect 31 0 4 1;
#X connect 32 0 20 0;
#X connect 32 1 11 0;
#X connect 33 0 11 0;
#X connect 33 1 32 0;
#X connect 33 2 15 0;
#X connect 38 0 5 0;
#X connect 39 0 40 1;
#X connect 39 1 38 0;
#X connect 40 0 41 0;
#X connect 41 0 42 0;
#X connect 41 1 20 0;
#X restore 244 270 pd dkvmarkov2o_input;
#X obj 792 55 route read write clear open mode trigstate state, f
49;
#X connect 0 0 1 0;
#X connect 0 0 40 0;
#X connect 1 0 4 0;
#X connect 2 0 45 0;
#X connect 3 0 0 0;
#X connect 5 0 15 0;
#X connect 8 0 46 0;
#X connect 10 0 11 0;
#X connect 11 0 4 0;
#X connect 12 0 13 0;
#X connect 13 0 4 0;
#X connect 14 0 4 0;
#X connect 15 0 16 0;
#X connect 16 0 32 0;
#X connect 20 0 15 0;
#X connect 20 0 0 0;
#X connect 32 0 45 1;
#X connect 32 1 33 0;
#X connect 33 0 43 2;
#X connect 35 0 36 1;
#X connect 35 1 41 0;
#X connect 35 2 36 2;
#X connect 36 0 37 0;
#X connect 37 0 38 0;
#X connect 37 1 44 0;
#X connect 38 1 41 1;
#X connect 40 0 41 1;
#X connect 40 0 36 1;
#X connect 41 0 36 0;
#X connect 43 0 42 0;
#X connect 45 0 35 0;
#X connect 45 1 42 0;
#X connect 45 2 43 1;
#X connect 45 3 43 0;
#X connect 46 0 10 0;
#X connect 46 1 12 0;
#X connect 46 2 0 0;
#X connect 46 3 14 0;
#X connect 46 4 16 0;
#X connect 46 5 43 2;
#X connect 46 6 43 1;
