#N canvas 1061 224 690 667 12;
#X obj 194 46 inlet;
#X obj 256 372 list store;
#X obj 173 154 f;
#X msg 256 347 get \$1 1;
#X obj 191 115 until;
#X obj 121 353 sel 1;
#X obj 206 213 t f f f;
#X obj 392 361 t b f;
#X msg 392 386 2;
#X obj 392 411 pow;
#X obj 256 410 > 0;
#X obj 256 439 *;
#X obj 255 516 f;
#X obj 256 464 t b f;
#X obj 354 521 +;
#X obj 194 71 t b a a b, f 32;
#X msg 378 485 0;
#X obj 215 570 f;
#X obj 215 595 outlet;
#X text 10 22 dk0bl2dec - binary list to dec;
#X text 482 18 derek kwan;
#X text 507 45 pdkvabs;
#X text 499 87 gpl v 3;
#X obj 240 246 -;
#X obj 343 100 list length;
#X obj 224 157 - 1;
#X obj 241 280 abs;
#X obj 121 328 < 0;
#X obj 241 305 - 1;
#X connect 0 0 15 0;
#X connect 1 0 10 0;
#X connect 2 0 25 0;
#X connect 3 0 1 0;
#X connect 4 0 2 0;
#X connect 5 0 4 1;
#X connect 5 0 17 0;
#X connect 6 0 27 0;
#X connect 6 1 23 0;
#X connect 6 2 7 0;
#X connect 7 0 8 0;
#X connect 7 1 9 1;
#X connect 8 0 9 0;
#X connect 9 0 11 1;
#X connect 10 0 11 0;
#X connect 11 0 13 0;
#X connect 12 0 14 0;
#X connect 13 0 12 0;
#X connect 13 1 14 1;
#X connect 14 0 12 1;
#X connect 14 0 17 1;
#X connect 15 0 4 0;
#X connect 15 1 1 1;
#X connect 15 2 24 0;
#X connect 15 3 16 0;
#X connect 16 0 12 1;
#X connect 17 0 18 0;
#X connect 23 0 26 0;
#X connect 24 0 2 1;
#X connect 24 0 23 1;
#X connect 25 0 6 0;
#X connect 25 0 2 1;
#X connect 26 0 28 0;
#X connect 27 0 5 0;
#X connect 28 0 3 0;
