#N canvas 796 352 967 610 12;
#X obj 173 103 inlet;
#X text 236 103 tuple;
#X obj 511 102 inlet;
#X text 567 104 eltsize;
#X obj 327 104 inlet;
#X text 384 103 matrix: x-dim;
#X obj 173 143 unpack f f;
#X obj 254 187 *;
#X obj 169 235 +;
#X obj 169 260 *;
#X obj 169 285 outlet;
#X text 32 26 dk2dto1d - taking 2d coords and mapping to 1d;
#X text 55 50 (if laid out by successive rows);
#X obj 451 154 loadbang;
#X obj 388 174 f \$1;
#X obj 471 205 f \$2;
#X obj 471 230 max 1;
#X obj 388 199 max 1;
#X text 84 377 args: x-dim \, eltsize;
#X text 720 47 derek kwan;
#X text 715 107 gpl v 3 2017;
#X text 721 86 pdkvabs;
#X connect 0 0 6 0;
#X connect 2 0 9 1;
#X connect 4 0 7 1;
#X connect 6 0 8 0;
#X connect 6 1 7 0;
#X connect 7 0 8 1;
#X connect 8 0 9 0;
#X connect 9 0 10 0;
#X connect 13 0 14 0;
#X connect 13 0 15 0;
#X connect 14 0 17 0;
#X connect 15 0 16 0;
#X connect 16 0 9 1;
#X connect 17 0 7 1;
