#N canvas 742 385 690 527 12;
#X obj 199 100 inlet;
#X obj 199 125 t b f;
#X obj 199 175 /;
#X text 280 99 beats per minute;
#X obj 199 225 outlet;
#X text 12 12 dkbpm2ms - beats per minute to milliseconds;
#X text 10 84 inlet - bpm;
#X text 8 109 outlet - ms;
#X text 515 21 derek kwan;
#X text 516 46 pdkvabs;
#X text 519 79 gpl v 3;
#X msg 199 150 60000;
#X connect 0 0 1 0;
#X connect 1 0 11 0;
#X connect 1 1 2 1;
#X connect 2 0 4 0;
#X connect 11 0 2 0;
