#N canvas 158 317 1006 561 12;
#X text 356 331 state;
#X obj 210 65 inlet;
#X text 685 86 step size;
#X obj 491 43 inlet;
#X obj 627 85 inlet;
#X text 555 36 max value;
#X obj 557 266 random 2;
#X obj 645 172 + 1;
#X obj 557 291 t f b;
#X obj 650 309 * 2;
#X obj 645 335 - 1;
#X obj 651 276 random 2;
#X obj 487 396 *;
#X text 702 321 pos/neg step;
#X obj 354 179 t b b;
#X obj 459 429 +;
#X obj 456 466 clip 0 1, f 12;
#X obj 355 518 outlet;
#X obj 382 397 i;
#X obj 442 340 / 2;
#X obj 210 102 route float bang set seed, f 32;
#X msg 534 150 seed \$1;
#X obj 536 179 t a a;
#X obj 489 79 max 1;
#X obj 638 132 max 1;
#X obj 653 19 loadbang;
#X obj 573 72 f \$1;
#X obj 653 44 f \$2;
#X text 13 26 dkdrunk: a vanilla drunk object;
#X text 6 197 in1: bang - trigger;
#X text 47 224 float - set state and output;
#X text 49 254 set - set state;
#X text 51 283 seed - set seet;
#X text 10 326 in2: float - max value;
#X text 16 364 in3: float - step size;
#X text 15 101 arg1: max value;
#X text 17 131 arg2: step size;
#X text 798 33 derek kwan;
#X text 808 59 pdkvabs;
#X text 815 94 gpl v 3 2017;
#X connect 1 0 20 0;
#X connect 3 0 23 0;
#X connect 4 0 24 0;
#X connect 6 0 8 0;
#X connect 7 0 6 1;
#X connect 8 0 12 0;
#X connect 8 1 11 0;
#X connect 9 0 10 0;
#X connect 10 0 12 1;
#X connect 11 0 9 0;
#X connect 12 0 15 1;
#X connect 14 0 18 0;
#X connect 14 1 6 0;
#X connect 15 0 16 0;
#X connect 16 0 17 0;
#X connect 16 0 18 1;
#X connect 18 0 15 0;
#X connect 19 0 18 1;
#X connect 20 0 17 0;
#X connect 20 0 18 1;
#X connect 20 1 14 0;
#X connect 20 2 18 1;
#X connect 20 3 21 0;
#X connect 21 0 22 0;
#X connect 22 0 11 0;
#X connect 22 1 6 0;
#X connect 23 0 19 0;
#X connect 23 0 16 2;
#X connect 24 0 7 0;
#X connect 25 0 26 0;
#X connect 25 0 27 0;
#X connect 26 0 23 0;
#X connect 27 0 24 0;
