#N canvas 448 155 1549 845 12;
#X text 356 331 state;
#X obj 210 65 inlet;
#X text 720 77 step size;
#X obj 491 43 inlet;
#X obj 673 81 inlet;
#X text 555 36 max value;
#X obj 558 370 t f b;
#X obj 737 393 * 2;
#X obj 732 419 - 1;
#X obj 738 360 random 2;
#X obj 497 398 *;
#X text 789 405 pos/neg step;
#X obj 354 179 t b b;
#X obj 459 436 +;
#X obj 458 485 clip 0 1, f 12;
#X obj 365 555 outlet;
#X obj 442 340 / 2;
#X msg 534 150 seed \$1;
#X obj 536 179 t a a;
#X obj 489 79 max 1;
#X obj 653 19 loadbang;
#X obj 573 72 f \$1;
#X obj 628 141 f \$2;
#X text 6 197 in1: bang - trigger;
#X text 47 224 float - set state and output;
#X text 49 254 set - set state;
#X text 10 377 in2: float - max value;
#X text 16 415 in3: float - step size;
#X text 15 101 arg1: max value;
#X text 17 131 arg2: step size;
#X text 1014 22 derek kwan;
#X text 1024 48 pdkvabs;
#X text 1031 83 gpl v 3 2017;
#X text 13 26 dkdrunk2: a vanilla drunk object (float vals);
#X obj 537 266 random 500001;
#X obj 537 291 / 500000;
#X obj 537 316 * 1;
#X obj 382 397 f;
#X obj 537 341 dknearest2 1;
#X text 15 445 in4: float - grainsize;
#X text 57 312 grain - set grainsize;
#X text 51 283 seed - set seed;
#X obj 810 38 inlet;
#X text 863 38 grainsize;
#X obj 735 128 f \$3;
#X obj 735 153 moses 1e-30;
#X msg 735 178 1;
#X obj 735 203 max 0;
#X obj 628 166 max 0;
#X obj 210 102 route float bang set seed grain, f 32;
#X connect 1 0 49 0;
#X connect 3 0 19 0;
#X connect 4 0 22 0;
#X connect 6 0 10 0;
#X connect 6 1 9 0;
#X connect 7 0 8 0;
#X connect 8 0 10 1;
#X connect 9 0 7 0;
#X connect 10 0 13 1;
#X connect 12 0 37 0;
#X connect 12 1 34 0;
#X connect 13 0 14 0;
#X connect 14 0 15 0;
#X connect 14 0 37 1;
#X connect 16 0 37 1;
#X connect 17 0 18 0;
#X connect 18 0 9 0;
#X connect 18 1 34 0;
#X connect 19 0 16 0;
#X connect 19 0 14 2;
#X connect 20 0 21 0;
#X connect 20 0 22 0;
#X connect 20 0 44 0;
#X connect 21 0 19 0;
#X connect 22 0 48 0;
#X connect 34 0 35 0;
#X connect 35 0 36 0;
#X connect 36 0 38 0;
#X connect 37 0 13 0;
#X connect 38 0 6 0;
#X connect 42 0 47 0;
#X connect 44 0 45 0;
#X connect 45 0 46 0;
#X connect 45 1 47 0;
#X connect 46 0 47 0;
#X connect 47 0 38 1;
#X connect 48 0 36 1;
#X connect 49 0 15 0;
#X connect 49 0 37 1;
#X connect 49 1 12 0;
#X connect 49 2 37 1;
#X connect 49 3 17 0;
#X connect 49 4 47 0;
