#N canvas 647 339 1280 793 12;
#X msg 325 392 2;
#X obj 326 435 pow;
#X obj 326 460 * 440, f 27;
#X obj 383 386 / 12, f 7;
#X obj 317 309 t b f;
#X obj 326 485 outlet;
#X obj 294 140 inlet;
#X obj 467 180 f \$1;
#X obj 463 209 moses 1, f 10;
#X msg 449 233 12;
#X text 351 167 degree;
#X obj 435 132 inlet;
#X text 495 163 steps/oct;
#X obj 683 102 inlet;
#X text 704 175 ref pitch;
#X obj 591 199 moses 1, f 13;
#X msg 591 224 440;
#X obj 591 159 f \$2;
#X obj 607 48 loadbang;
#X text 4 7 dkeqtemp - degree to equal temperament in Hz;
#X text 8 92 inlets \;;
#X text 4 228 outlets:;
#X text 0 249 cooked pitch in Hz;
#X text 773 12 derek kwan 2017;
#X text 778 60 pdkvabs;
#X text 779 36 gpl v 3;
#X text 12 112 degree \, steps/oct \, ref pitch \, ref num;
#X obj 384 339 - 49, f 10;
#X obj 821 117 inlet;
#X obj 827 164 f \$3;
#X msg 827 214 49;
#X obj 827 189 moses 1e-20, f 17;
#X text 882 167 ref num;
#X obj 425 264 max 1;
#X text 10 52 args: steps/oct \, ref Hz \, refnum;
#X connect 0 0 1 0;
#X connect 1 0 2 0;
#X connect 2 0 5 0;
#X connect 3 0 1 1;
#X connect 4 0 0 0;
#X connect 4 1 27 0;
#X connect 6 0 4 0;
#X connect 7 0 8 0;
#X connect 8 0 9 0;
#X connect 8 1 33 0;
#X connect 9 0 33 0;
#X connect 11 0 33 0;
#X connect 13 0 2 1;
#X connect 15 0 16 0;
#X connect 15 1 2 1;
#X connect 16 0 2 1;
#X connect 17 0 15 0;
#X connect 18 0 7 0;
#X connect 18 0 17 0;
#X connect 18 0 29 0;
#X connect 27 0 3 0;
#X connect 28 0 27 1;
#X connect 29 0 31 0;
#X connect 30 0 27 1;
#X connect 31 0 30 0;
#X connect 31 1 27 1;
#X connect 33 0 3 1;
