#N canvas 1271 536 1127 663 12;
#X obj 398 40 inlet;
#X obj 305 308 list length;
#X msg 154 401 get \$1 1;
#X obj 142 261 t f f, f 15;
#X obj 271 452 * 12;
#X obj 150 509 +;
#X obj 160 55 inlet;
#X obj 150 533 + 0;
#X obj 150 557 outlet;
#X obj 473 42 loadbang;
#X text 654 144 args: div/oct(12) \, offset(0);
#X obj 479 100 f \$1;
#X obj 479 124 moses 1;
#X msg 479 148 12;
#X obj 602 198 f \$2;
#X obj 315 561 outlet;
#X text 368 562 number of degrees;
#X text 209 559 mapped degree;
#X text 77 13 dkeqtemp_scl: custom scales for EDO;
#X text 805 16 derek kwan;
#X text 812 72 gpl v 3;
#X text 815 41 pdkvabs 2018;
#X obj 264 261 t a a;
#X obj 473 66 t b b, f 21;
#X obj 273 379 / 1;
#X obj 150 455 list store 0;
#X obj 237 53 inlet;
#X obj 302 54 inlet;
#X text 659 184 inlets:degree \, div/oct \, offset \, list of degrees
;
#X text 57 65 degree;
#X text 222 83 div/oct;
#X text 305 84 offset;
#X text 402 17 degree list;
#X obj 305 332 t f f f;
#X obj 153 365 dkwrap 12;
#X obj 272 416 dkfloor;
#X connect 0 0 22 0;
#X connect 1 0 33 0;
#X connect 2 0 25 0;
#X connect 3 0 34 0;
#X connect 3 1 24 0;
#X connect 4 0 5 1;
#X connect 5 0 7 0;
#X connect 6 0 3 0;
#X connect 7 0 8 0;
#X connect 9 0 23 0;
#X connect 11 0 12 0;
#X connect 12 0 13 0;
#X connect 12 1 4 1;
#X connect 13 0 4 1;
#X connect 14 0 7 1;
#X connect 22 0 25 1;
#X connect 22 1 1 0;
#X connect 23 0 11 0;
#X connect 23 1 14 0;
#X connect 24 0 35 0;
#X connect 25 0 5 0;
#X connect 27 0 14 0;
#X connect 33 0 15 0;
#X connect 33 1 34 1;
#X connect 33 2 24 1;
#X connect 34 0 2 0;
#X connect 35 0 4 0;
