#N canvas 1271 536 1127 663 12;
#X obj 398 40 inlet;
#X obj 398 253 list length;
#X obj 61 264 t f f, f 32;
#X obj 271 452 * 12, f 32;
#X obj 45 536 +, f 33;
#X obj 160 55 inlet;
#X obj 45 560 + 0, f 40;
#X obj 45 584 outlet;
#X obj 473 42 loadbang;
#X text 654 144 args: div/oct(12) \, offset(0);
#X obj 479 100 f \$1;
#X obj 479 124 moses 1;
#X msg 479 148 12;
#X obj 602 198 f \$2;
#X obj 405 578 outlet;
#X text 458 579 number of degrees;
#X text 104 586 mapped degree;
#X text 77 13 dkeqtemp_scl: custom scales for EDO;
#X text 805 16 derek kwan;
#X text 812 72 gpl v 3;
#X text 815 41 pdkvabs 2018;
#X obj 289 178 t a a, f 19;
#X obj 473 66 t b b, f 21;
#X obj 273 379 / 1, f 24;
#X obj 237 53 inlet;
#X obj 302 54 inlet;
#X text 659 184 inlets:degree \, div/oct \, offset \, list of degrees
;
#X text 57 65 degree;
#X text 222 83 div/oct;
#X text 305 84 offset;
#X text 402 17 degree list;
#X obj 55 357 dkwrap 12, f 23;
#X obj 272 416 dkfloor;
#X obj 459 324 array size \$0-eqtemp_scl-table;
#X obj 41 411 tabread \$0-eqtemp_scl-table;
#X obj 398 277 t f f f f;
#X obj 283 217 array set \$0-eqtemp_scl-table 0;
#X obj 645 221 array define \$0-eqtemp_scl-table;
#X connect 0 0 21 0;
#X connect 1 0 35 0;
#X connect 2 0 31 0;
#X connect 2 1 23 0;
#X connect 3 0 4 1;
#X connect 4 0 6 0;
#X connect 5 0 2 0;
#X connect 6 0 7 0;
#X connect 8 0 22 0;
#X connect 10 0 11 0;
#X connect 11 0 12 0;
#X connect 11 1 3 1;
#X connect 12 0 3 1;
#X connect 13 0 6 1;
#X connect 21 0 36 0;
#X connect 21 1 1 0;
#X connect 22 0 10 0;
#X connect 22 1 13 0;
#X connect 23 0 32 0;
#X connect 25 0 13 0;
#X connect 31 0 34 0;
#X connect 32 0 3 0;
#X connect 34 0 4 0;
#X connect 35 0 14 0;
#X connect 35 1 31 1;
#X connect 35 2 23 1;
#X connect 35 3 33 0;
