#N canvas 499 467 699 387 12;
#X obj 347 240 >= 0.5;
#X obj 297 294 +;
#X obj 286 173 i;
#X obj 298 92 inlet, f 6;
#X obj 297 319 outlet;
#X text 19 21 dkfround - round float;
#X text 497 8 pdkvabs;
#X text 505 58 gpl v 3 2017;
#X text 495 34 derek x kwan;
#X obj 293 120 t f f f;
#X obj 386 179 i;
#X obj 346 202 -;
#X connect 0 0 1 1;
#X connect 1 0 4 0;
#X connect 2 0 1 0;
#X connect 3 0 9 0;
#X connect 9 0 2 0;
#X connect 9 1 11 0;
#X connect 9 2 10 0;
#X connect 10 0 11 1;
#X connect 11 0 0 0;
