#N canvas 546 447 796 604 12;
#X text 240 60 2*pi = 6.28319;
#X obj 187 198 * 6.28319;
#X text 240 86 rad = 2*pi*fc/T;
#X obj 187 233 /;
#X obj 301 200 samplerate~;
#X obj 190 126 inlet;
#X obj 190 150 t f b, f 17;
#X obj 187 257 outlet;
#X text 23 11 dkhztorad - linear frequency to radial freq;
#X text 664 22 derek kwan;
#X text 661 42 pdkvabs 2018;
#X text 662 65 gpl v 3;
#X connect 1 0 3 0;
#X connect 3 0 7 0;
#X connect 4 0 3 1;
#X connect 5 0 6 0;
#X connect 6 0 1 0;
#X connect 6 1 4 0;
