#N canvas 892 515 757 570 12;
#X obj 370 102 inlet;
#X obj 471 94 loadbang;
#X obj 471 119 f \$1;
#X obj 370 202 outlet;
#X text 36 95 args: grain;
#X obj 564 89 inlet;
#X text 37 126 inlets: input \, grain;
#X text 617 24 derek kwan;
#X text 627 50 pdkvabs;
#X text 634 85 gpl v 3 2017;
#X obj 370 127 /;
#X obj 370 177 *;
#X text 38 25 dknearest2 - round to the nearest specified grain;
#X obj 370 152 dkfround;
#X connect 0 0 10 0;
#X connect 1 0 2 0;
#X connect 2 0 10 1;
#X connect 2 0 11 1;
#X connect 5 0 2 0;
#X connect 10 0 13 0;
#X connect 11 0 3 0;
#X connect 13 0 11 0;
