#N canvas 329 786 799 488 12;
#X obj 370 102 inlet;
#X obj 435 327 i;
#X text 38 25 dknearest - floor to the nearest specified grain;
#X obj 471 94 loadbang;
#X obj 471 119 f \$1;
#X obj 372 435 outlet;
#X text 36 95 args: grain;
#X obj 564 89 inlet;
#X text 37 126 inlets: input \, grain;
#X text 617 24 derek kwan;
#X text 627 50 pdkvabs;
#X text 634 85 gpl v 3 2017;
#X obj 435 302 /, f 5;
#X obj 435 352 *, f 16;
#X obj 356 211 swap 0;
#X obj 356 235 pack f f;
#X obj 356 259 route 0 1;
#X obj 426 165 t f f;
#X obj 426 189 > 0;
#X connect 0 0 14 0;
#X connect 1 0 13 0;
#X connect 3 0 4 0;
#X connect 4 0 17 0;
#X connect 7 0 4 0;
#X connect 12 0 1 0;
#X connect 13 0 5 0;
#X connect 14 0 15 0;
#X connect 14 1 15 1;
#X connect 15 0 16 0;
#X connect 16 0 5 0;
#X connect 16 1 12 0;
#X connect 17 0 18 0;
#X connect 17 1 12 1;
#X connect 17 1 13 1;
#X connect 18 0 14 1;
