#N canvas 488 258 1121 638 12;
#X obj 337 527 line;
#X obj 551 274 dkrunmax;
#X obj 446 246 t f f f;
#X obj 438 373 spigot 0;
#X obj 475 298 >=;
#X obj 341 315 del 9;
#X obj 357 213 t b f;
#X text 296 131 input;
#X obj 243 132 inlet;
#X obj 337 551 t f f;
#X obj 340 587 outlet;
#X obj 360 420 pack 0 1000;
#X obj 459 442 pack f 9;
#X obj 336 470 list;
#X obj 495 59 inlet;
#X obj 507 123 max 0;
#X text 561 54 attack time;
#X obj 674 48 inlet;
#X text 729 48 relax time;
#X obj 662 117 max 0;
#X obj 367 373 t b f;
#X obj 827 52 inlet;
#X text 869 53 relax level;
#X obj 248 186 route set;
#X text 11 12 dkpeakenv - peak envelope of floats;
#N canvas 749 342 1025 652 dkpeakenv-defaults 0;
#X obj 274 53 loadbang;
#X obj 274 77 t b b b, f 69;
#X obj 274 101 f \$1;
#X obj 274 125 moses 1e-20;
#X msg 274 149 9;
#X obj 274 173 outlet;
#X text 326 107 attack time;
#X obj 504 118 f \$2;
#X obj 504 142 moses 1e-20;
#X msg 504 166 1000;
#X obj 504 190 outlet;
#X text 545 121 relaxtime;
#X obj 742 117 f \$3;
#X text 788 118 relax level;
#X obj 742 141 outlet;
#X connect 0 0 1 0;
#X connect 1 0 2 0;
#X connect 1 1 7 0;
#X connect 1 2 12 0;
#X connect 2 0 3 0;
#X connect 3 0 4 0;
#X connect 3 1 5 0;
#X connect 4 0 5 0;
#X connect 7 0 8 0;
#X connect 8 0 9 0;
#X connect 8 1 10 0;
#X connect 9 0 10 0;
#X connect 12 0 14 0;
#X restore 322 84 pd dkpeakenv-defaults;
#X text 367 45 (all in ms);
#X text 13 73 args: attack time \, relax time \, relax lvl;
#X text 3 45 inlets: input \, attack time \, relax time \, relax lvl
;
#X text 23 104 output: peak envelope;
#X text 1008 20 derek kwan;
#X text 1005 76 gpl v 3;
#X text 1001 51 pdkvabs 2018;
#X connect 0 0 9 0;
#X connect 1 0 4 1;
#X connect 2 0 3 0;
#X connect 2 1 4 0;
#X connect 2 2 1 0;
#X connect 3 0 12 0;
#X connect 4 0 3 1;
#X connect 5 0 13 0;
#X connect 6 0 5 0;
#X connect 6 1 2 0;
#X connect 8 0 23 0;
#X connect 9 0 10 0;
#X connect 9 1 1 1;
#X connect 11 0 13 1;
#X connect 12 0 0 0;
#X connect 13 0 0 0;
#X connect 14 0 15 0;
#X connect 15 0 5 1;
#X connect 15 0 12 1;
#X connect 17 0 19 0;
#X connect 19 0 20 0;
#X connect 20 0 11 0;
#X connect 20 1 11 1;
#X connect 21 0 11 0;
#X connect 23 0 0 0;
#X connect 23 1 6 0;
#X connect 25 0 15 0;
#X connect 25 1 19 0;
#X connect 25 2 20 0;
