#N canvas 1076 731 995 603 12;
#X obj 141 100 inlet;
#X text 200 101 input;
#X obj 141 198 -;
#X obj 141 261 *;
#X obj 141 286 +;
#X obj 141 311 outlet;
#X text 762 26 derek kwan;
#X text 763 50 pdkvabs;
#X text 765 73 gpl v 3 2017;
#X text 26 28 dkrange - range mapping (control);
#X obj 292 135 inlet;
#X obj 421 138 inlet;
#X obj 545 136 inlet;
#X obj 629 138 inlet;
#X text 433 111 in-hi;
#X text 341 118 in-lo;
#X text 541 114 out-lo;
#X text 650 118 out-hi;
#X obj 306 235 -;
#X obj 292 168 f \$1;
#X obj 421 166 f \$2;
#X obj 545 163 f \$3;
#X obj 629 168 f \$4;
#X obj 292 193 t b f;
#X obj 545 188 t b f;
#X obj 559 233 -;
#X obj 408 8 loadbang;
#X obj 470 355 /;
#X obj 409 295 t b f;
#X obj 408 33 t b b b b;
#X connect 0 0 2 0;
#X connect 2 0 3 0;
#X connect 3 0 4 0;
#X connect 4 0 5 0;
#X connect 10 0 19 0;
#X connect 11 0 20 0;
#X connect 12 0 21 0;
#X connect 13 0 22 0;
#X connect 18 0 28 0;
#X connect 19 0 23 0;
#X connect 20 0 18 0;
#X connect 21 0 24 0;
#X connect 22 0 25 0;
#X connect 23 0 20 0;
#X connect 23 1 18 1;
#X connect 23 1 2 1;
#X connect 24 0 22 0;
#X connect 24 1 25 1;
#X connect 24 1 4 1;
#X connect 25 0 27 0;
#X connect 26 0 29 0;
#X connect 27 0 3 1;
#X connect 28 0 25 0;
#X connect 28 1 27 1;
#X connect 29 0 19 0;
#X connect 29 1 20 0;
#X connect 29 2 21 0;
#X connect 29 3 22 0;
