#N canvas 1191 283 815 597 12;
#X obj 452 166 inlet;
#X obj 405 311 /;
#X obj 455 236 t b f b;
#X obj 405 336 spigot;
#X msg 513 310 0;
#X msg 461 305 1;
#X obj 292 212 inlet;
#X obj 292 237 t b f;
#X obj 405 361 outlet;
#X text 25 28 dkvanrdiv - vanilla reverse division;
#X text 570 28 derek kwan;
#X obj 452 201 f \$1;
#X obj 584 148 loadbang;
#X text 573 55 pdkvabs;
#X text 569 78 gpl v 3 2017;
#X text 37 53 (argt/input);
#X connect 0 0 11 0;
#X connect 1 0 3 0;
#X connect 2 0 5 0;
#X connect 2 1 1 0;
#X connect 2 2 4 0;
#X connect 3 0 8 0;
#X connect 4 0 3 1;
#X connect 5 0 3 1;
#X connect 6 0 7 0;
#X connect 7 0 1 0;
#X connect 7 1 1 1;
#X connect 11 0 2 0;
#X connect 12 0 11 0;
