#N canvas 689 337 1214 879 12;
#X obj 272 203 i;
#X obj 272 132 t f f;
#X obj 359 194 t f f;
#X obj 359 278 -;
#X obj 397 234 i;
#X text 441 232 get decimal (with sign);
#X obj 359 302 t f f, f 10;
#X obj 427 337 >= 0;
#X text 528 328 positive: should add 1 if > 0.5;
#X text 534 343 negative: should subtract 1 if < 0.5;
#X obj 427 361 * 2;
#X obj 427 385 - 1;
#X obj 358 370 >= 0.5;
#X obj 359 432 * 1;
#X text 267 393 round flag;
#X obj 271 501 + 0;
#X obj 271 525 outlet;
#X obj 269 83 inlet;
#X text 48 23 dkround: round floats to nearest integer;
#X text 1058 11 derek kwan;
#X text 1059 54 gpl v 3 2018;
#X text 1059 30 pdkvabs;
#X obj 359 326 abs;
#X connect 0 0 15 0;
#X connect 1 0 0 0;
#X connect 1 1 2 0;
#X connect 2 0 3 0;
#X connect 2 1 4 0;
#X connect 3 0 6 0;
#X connect 4 0 3 1;
#X connect 6 0 22 0;
#X connect 6 1 7 0;
#X connect 7 0 10 0;
#X connect 10 0 11 0;
#X connect 11 0 13 1;
#X connect 12 0 13 0;
#X connect 13 0 15 1;
#X connect 15 0 16 0;
#X connect 17 0 1 0;
#X connect 22 0 12 0;
