#N canvas 718 468 1216 592 12;
#X obj 335 332 random 500001;
#X obj 335 391 / 50000;
#X obj 316 48 inlet;
#X text 330 76 min;
#X obj 404 36 inlet;
#X text 464 45 max;
#X obj 466 227 -;
#X obj 404 70 t b f;
#X obj 471 277 abs;
#X text 512 278 range;
#X obj 357 231 min;
#X text 398 257 min;
#X text 463 354 map to 0-1;
#X obj 338 490 + 0, f 8;
#X obj 711 19 inlet;
#X text 828 20 messages;
#X obj 711 44 route grain seed;
#X msg 781 84 seed \$1;
#X obj 617 280 max 1;
#X obj 627 325 + 1;
#X text 13 36 args: min \, max \, grainsize;
#X obj 232 108 inlet;
#X text 14 67 inlets: trig \, min \, max \, messages;
#X text 254 132 trig;
#X obj 338 465 * 1, f 10;
#X obj 508 115 loadbang;
#X obj 508 140 t b b;
#X obj 572 172 f \$2;
#X obj 427 156 f \$1;
#X obj 630 241 i;
#X obj 636 141 f \$3;
#X msg 636 191 500000;
#X obj 636 166 moses 1, f 12;
#X obj 338 515 outlet;
#X text 927 108 derek kwan;
#X text 934 128 pdkvabs;
#X text 936 154 gpl v3 \, 2017;
#X text 38 13 dkrrand - random number between two numbers;
#X connect 0 0 1 0;
#X connect 1 0 24 0;
#X connect 2 0 6 0;
#X connect 2 0 10 0;
#X connect 4 0 7 0;
#X connect 6 0 8 0;
#X connect 7 0 6 0;
#X connect 7 0 10 0;
#X connect 7 1 6 1;
#X connect 7 1 10 1;
#X connect 8 0 24 1;
#X connect 10 0 13 1;
#X connect 13 0 33 0;
#X connect 14 0 16 0;
#X connect 16 0 29 0;
#X connect 16 1 17 0;
#X connect 17 0 0 0;
#X connect 18 0 19 0;
#X connect 18 0 1 1;
#X connect 19 0 0 1;
#X connect 21 0 0 0;
#X connect 24 0 13 0;
#X connect 25 0 26 0;
#X connect 26 0 28 0;
#X connect 26 1 27 0;
#X connect 26 1 30 0;
#X connect 27 0 7 0;
#X connect 28 0 10 0;
#X connect 28 0 6 0;
#X connect 29 0 18 0;
#X connect 30 0 32 0;
#X connect 31 0 29 0;
#X connect 32 0 31 0;
#X connect 32 1 29 0;
