#N canvas 632 385 752 683 12;
#X obj 452 166 inlet;
#X obj 455 236 t b f b;
#X msg 513 310 0;
#X msg 461 305 1;
#X obj 292 212 inlet;
#X obj 292 237 t b f;
#X obj 405 361 outlet;
#X text 570 28 derek kwan;
#X obj 452 201 f \$1;
#X obj 584 148 loadbang;
#X text 573 55 pdkvabs;
#X text 569 78 gpl v 3 2017;
#X text 25 28 dkvanrsub - vanilla reverse subtraction;
#X text 30 45 (argt - input);
#X obj 405 311 -;
#X obj 405 336 spigot 1;
#X connect 0 0 8 0;
#X connect 1 0 3 0;
#X connect 1 1 14 0;
#X connect 1 2 2 0;
#X connect 2 0 15 1;
#X connect 3 0 15 1;
#X connect 4 0 5 0;
#X connect 5 0 14 0;
#X connect 5 1 14 1;
#X connect 8 0 1 0;
#X connect 9 0 8 0;
#X connect 14 0 15 0;
#X connect 15 0 6 0;
