#N canvas 643 268 450 300 10;
#X obj 216 120 bng 15 250 50 0 empty empty empty 17 7 0 10 -262144
-1 -1;
#X obj 154 225 max;
#X obj 186 181 f;
#X obj 134 137 t f b;
#X obj 142 88 inlet;
#X obj 215 90 inlet;
#X obj 146 262 outlet;
#X text 242 120 reset;
#X text 94 96 input;
#X obj 333 89 loadbang;
#X obj 205 147 -1e+38;
#X text 309 9 Derek Kwan \, 2016;
#X text 19 2 DKRUNMAX - running maxiumum;
#X text 25 19 in1 - input \, in2 - reset;
#X connect 0 0 10 0;
#X connect 1 0 2 1;
#X connect 1 0 6 0;
#X connect 2 0 1 1;
#X connect 3 0 1 0;
#X connect 3 1 2 0;
#X connect 4 0 3 0;
#X connect 5 0 0 0;
#X connect 9 0 0 0;
#X connect 10 0 2 1;
