#N canvas 526 195 940 725 12;
#X obj 176 107 inlet;
#X obj 185 253 min, f 12;
#X obj 172 322 outlet;
#X obj 180 158 t f b;
#X obj 257 217 f;
#X text 126 108 input;
#X text 19 2 DKRUNMIN - running minimum;
#X obj 288 75 inlet;
#X text 310 143 reset;
#X obj 452 115 loadbang;
#X obj 288 99 route bang float;
#X obj 452 139 f \$1;
#X obj 452 163 t f f, f 12;
#X obj 452 211 pack f f;
#X obj 452 187 != 0;
#X obj 452 235 route 0 1, f 16;
#X obj 269 187 1e+38;
#X msg 421 270 1e+38;
#X text 19 30 in1 - input \, in2 - reset (float to specify new val)
;
#X text 18 52 arg: reset val (cannot be 0);
#X text 719 11 derek kwan;
#X text 712 42 pdkvabs 2016 (rev. 2018);
#X text 716 67 gpl v 3;
#X connect 0 0 3 0;
#X connect 1 0 2 0;
#X connect 1 0 4 1;
#X connect 3 0 1 0;
#X connect 3 1 4 0;
#X connect 4 0 1 1;
#X connect 7 0 10 0;
#X connect 9 0 11 0;
#X connect 10 0 16 0;
#X connect 10 1 16 0;
#X connect 11 0 12 0;
#X connect 12 0 14 0;
#X connect 12 1 13 1;
#X connect 13 0 15 0;
#X connect 14 0 13 0;
#X connect 15 0 17 0;
#X connect 15 1 16 0;
#X connect 16 0 4 0;
#X connect 17 0 16 0;
