#N canvas 754 232 848 567 12;
#X obj 206 362 max, f 10;
#X obj 293 338 f;
#X obj 210 280 t f b;
#X obj 218 231 inlet;
#X obj 365 194 inlet;
#X obj 222 440 outlet;
#X text 387 262 reset;
#X text 170 239 input;
#X obj 529 234 loadbang;
#X obj 346 306 -1e+38;
#X text 19 2 DKRUNMAX - running maxiumum;
#X obj 224 404 change;
#X obj 365 218 route bang float;
#X text 19 30 in1 - input \, in2 - reset (float to specify new val)
;
#X obj 529 258 f \$1;
#X obj 529 282 t f f, f 12;
#X obj 529 330 pack f f;
#X obj 529 306 != 0;
#X obj 529 354 route 0 1, f 16;
#X msg 498 389 -1e+38;
#X text 18 52 arg: reset val (cannot be 0);
#X text 666 11 derek kwan;
#X text 659 42 pdkvabs 2016 (rev. 2018);
#X text 663 67 gpl v 3;
#X connect 0 0 1 1;
#X connect 0 0 11 0;
#X connect 1 0 0 1;
#X connect 2 0 0 0;
#X connect 2 1 1 0;
#X connect 3 0 2 0;
#X connect 4 0 12 0;
#X connect 8 0 14 0;
#X connect 9 0 1 1;
#X connect 11 0 5 0;
#X connect 12 0 9 0;
#X connect 12 1 9 0;
#X connect 14 0 15 0;
#X connect 15 0 17 0;
#X connect 15 1 16 1;
#X connect 16 0 18 0;
#X connect 17 0 16 0;
#X connect 18 0 19 0;
#X connect 18 1 9 0;
#X connect 19 0 9 0;
