#N canvas 150 244 1251 617 12;
#X obj 478 273 array define \$0-avg;
#X obj 765 288 array size \$0-avg;
#X obj 747 93 loadbang;
#X obj 747 118 f \$1;
#X obj 747 143 moses 1;
#X msg 747 168 1;
#X obj 361 76 inlet;
#X obj 580 374 f;
#X obj 632 370 + 1;
#X obj 632 395 % 1;
#X obj 771 218 i;
#X obj 771 243 t f f b;
#X msg 636 323 0;
#X obj 580 399 t f f;
#X obj 498 496 array set \$0-avg;
#X obj 343 124 route bang float list size clear;
#X obj 399 335 list split 1;
#X obj 437 425 list;
#X obj 393 368 t b f;
#X obj 519 336 t f b;
#X msg 581 201 const 0;
#X obj 226 267 array sum \$0-avg;
#X obj 261 205 t b b;
#X obj 226 292 /, f 19;
#X obj 334 222 array size \$0-avg;
#X obj 226 317 outlet;
#X obj 690 60 inlet;
#X text 20 8 dkrunavg-running avg;
#X text 28 71 args: size;
#X text 19 108 inlets;
#X text 34 139 1st - bang to output;
#X text 79 167 float for input;
#X text 90 212 size to set size;
#X text 83 193 list for multiple input;
#X obj 865 72 inlet;
#X text 91 231 clear to clear;
#X text 45 269 2nd - size;
#X text 51 299 3rd - clear;
#X text 29 361 outlet - running avg (on bang);
#X text 727 33 size;
#X text 889 36 clear;
#X text 371 53 various;
#X text 1018 30 derek kwan;
#X text 1025 68 pdkvabs;
#X text 1027 94 gpl v 3;
#X text 1028 117 2020;
#X connect 2 0 3 0;
#X connect 3 0 4 0;
#X connect 4 0 5 0;
#X connect 4 1 10 0;
#X connect 5 0 10 0;
#X connect 6 0 15 0;
#X connect 7 0 13 0;
#X connect 8 0 9 0;
#X connect 9 0 7 1;
#X connect 10 0 11 0;
#X connect 11 0 1 0;
#X connect 11 1 9 1;
#X connect 11 2 12 0;
#X connect 12 0 7 1;
#X connect 13 0 14 1;
#X connect 13 1 8 0;
#X connect 15 0 22 0;
#X connect 15 1 19 0;
#X connect 15 2 16 0;
#X connect 15 3 3 0;
#X connect 15 4 20 0;
#X connect 16 0 18 0;
#X connect 16 1 17 1;
#X connect 17 0 16 0;
#X connect 18 0 17 0;
#X connect 18 1 19 0;
#X connect 19 0 14 0;
#X connect 19 1 7 0;
#X connect 20 0 0 0;
#X connect 21 0 23 0;
#X connect 22 0 21 0;
#X connect 22 1 24 0;
#X connect 23 0 25 0;
#X connect 24 0 23 1;
#X connect 26 0 3 0;
#X connect 34 0 20 0;
