#N canvas 730 151 925 273 12;
#X obj 24 27 inlet;
#X obj 151 233 array define \$0-sort;
#X obj 24 51 t l l;
#X obj 83 111 list length;
#X obj 149 193 array size \$0-sort;
#X obj 83 135 t f f;
#N canvas 803 178 771 606 \$0-sorter 0;
#X obj 60 43 inlet;
#X obj 162 101 array set \$0-sort;
#X obj 226 43 inlet;
#X text 275 42 list length;
#X obj 28 149 f;
#X obj 60 67 t b l;
#X msg 98 207 0;
#X obj 28 211 until;
#X obj 25 259 f;
#X obj 156 272 + 1;
#X obj 25 311 t f f f;
#X obj 28 173 t f b f, f 29;
#X obj 224 293 - 1;
#X obj 25 436 ==;
#X obj 25 471 sel 1;
#X obj 24 536 array get \$0-sort;
#X text 64 512 dump contents when finished;
#X obj 24 560 outlet;
#X obj 396 41 inlet;
#X text 449 43 min or max;
#N canvas 306 346 808 618 \$0-minset 0;
#X obj 110 366 array min \$0-sort;
#X obj 192 255 array get \$0-sort 0 1;
#X obj 287 463 f;
#X text 363 260 get current value of idx;
#X obj 109 437 array set \$0-sort;
#X text 133 469 set min at idx;
#X obj 261 418 t b f;
#X obj 284 499 array set \$0-sort;
#X text 338 432 set min idx with old idx val;
#X obj 147 205 t f f f;
#X obj 145 160 inlet;
#X connect 0 0 4 0;
#X connect 0 1 6 0;
#X connect 1 0 2 1;
#X connect 2 0 7 0;
#X connect 6 0 2 0;
#X connect 6 1 7 1;
#X connect 9 0 0 0;
#X connect 9 1 4 1;
#X connect 9 2 1 0;
#X connect 10 0 9 0;
#X restore 86 431 pd \$0-minset;
#N canvas 306 346 808 618 \$0-maxset 0;
#X obj 192 255 array get \$0-sort 0 1;
#X obj 287 463 f;
#X text 363 260 get current value of idx;
#X obj 109 437 array set \$0-sort;
#X obj 261 418 t b f;
#X obj 284 499 array set \$0-sort;
#X obj 147 205 t f f f;
#X obj 145 160 inlet;
#X obj 110 366 array max \$0-sort;
#X text 338 432 set max idx with old idx val;
#X text 133 469 set max at idx;
#X connect 0 0 1 1;
#X connect 1 0 5 0;
#X connect 4 0 1 0;
#X connect 4 1 5 1;
#X connect 6 0 8 0;
#X connect 6 1 3 1;
#X connect 6 2 0 0;
#X connect 7 0 6 0;
#X connect 8 0 3 0;
#X connect 8 1 4 0;
#X restore 196 431 pd \$0-maxset;
#X obj 83 376 spigot 1;
#X obj 194 374 spigot 0;
#X obj 396 65 t f f;
#X obj 357 242 <= 0;
#X obj 411 241 > 0;
#X connect 0 0 5 0;
#X connect 2 0 4 1;
#X connect 4 0 11 0;
#X connect 5 0 4 0;
#X connect 5 1 1 0;
#X connect 6 0 8 1;
#X connect 7 0 8 0;
#X connect 8 0 10 0;
#X connect 9 0 8 1;
#X connect 10 0 13 0;
#X connect 10 1 22 0;
#X connect 10 1 23 0;
#X connect 10 2 9 0;
#X connect 11 0 7 0;
#X connect 11 1 6 0;
#X connect 11 2 12 0;
#X connect 12 0 13 1;
#X connect 13 0 14 0;
#X connect 14 0 15 0;
#X connect 15 0 17 0;
#X connect 18 0 24 0;
#X connect 22 0 20 0;
#X connect 23 0 21 0;
#X connect 24 0 25 0;
#X connect 24 1 26 0;
#X connect 25 0 22 1;
#X connect 26 0 23 1;
#X restore 14 211 pd \$0-sorter;
#X obj 14 235 outlet;
#X text 20 1 dkselsort - selection sort for lists of floats;
#X text 656 56 derek kwan;
#X text 652 77 pdkvabs;
#X text 661 100 gpl v 3;
#X text 728 104 2018;
#X text 434 10 arg1/in2: increasing(0)/decreasing(1);
#X obj 322 89 loadbang;
#X obj 266 126 f \$1;
#X obj 269 36 inlet;
#X text 315 35 inc/dec;
#X connect 0 0 2 0;
#X connect 2 0 6 0;
#X connect 2 1 3 0;
#X connect 3 0 5 0;
#X connect 5 0 6 1;
#X connect 5 1 4 0;
#X connect 6 0 7 0;
#X connect 14 0 15 0;
#X connect 15 0 6 2;
#X connect 16 0 15 0;
