#N canvas 667 256 1018 987 12;
#X obj 168 925 outlet;
#X obj 326 926 outlet;
#X text 384 919 if unique;
#X obj 106 148 inlet;
#X obj 693 159 inlet;
#X obj 494 157 inlet;
#X text 541 161 let repeats through;
#X obj 222 433 change;
#X text 218 928 output;
#X obj 197 792 route 0 1, f 31;
#X msg 371 492 0;
#X msg 326 488 1;
#X obj 35 684 spigot 0;
#X msg 81 533 1;
#X obj 219 461 t f b b, f 15;
#X msg 113 551 0;
#X obj 194 727 swap, f 31;
#X obj 194 756 pack f f, f 14;
#X obj 186 844 t f b;
#X msg 246 890 0;
#X obj 289 834 t f b, f 13;
#X msg 369 870 1;
#X obj 584 339 f \$1;
#X obj 150 569 == 1, f 6;
#X obj 95 602 &&;
#X obj 80 315 t f f b b f, f 59;
#X obj 486 802 f, f 15;
#X text 630 802 cur_val;
#X text 14 638 let repeats through if specified;
#X obj 455 669 spigot;
#X obj 80 339 t f b, f 12;
#X msg 440 604 0;
#X obj 779 260 f \$2;
#X obj 779 284 t f f, f 8;
#X obj 780 315 == 0;
#X obj 780 380 route 1 0;
#X obj 677 270 f;
#X obj 780 339 pack f f;
#X msg 765 411 -1e-20;
#X obj 595 201 loadbang;
#X obj 595 225 t b b, f 25;
#X msg 238 405 set \$1;
#X obj 106 172 route float bang, f 48;
#X text 156 132 bang for current val \, float for input;
#X text 4 13 dkunique - flag input floats as unique;
#X text 21 103 outlets: output \, unique flag;
#X text 855 11 derek kwan;
#X text 849 71 gpl v 3;
#X text 852 38 pdkvabs 2018;
#X obj 326 518 f;
#X obj 445 457 t b b, f 7;
#X obj 483 573 f;
#X text 562 481 if rpts not let through AND not unique (both 0);
#X text 565 506 indicate repeated val with 0;
#X obj 584 363 == 0;
#X obj 483 601 == 0;
#X obj 488 633 &&, f 5;
#X text 20 75 inlets: input (f/b) \, let repeats through \, rest (f/b)
;
#X text 744 157 reset (bang to use prev reset val);
#X text 14 47 args: let repeats through \, reset val;
#X text 272 50 (default 1e-20 \, will not set to 0);
#X connect 3 0 42 0;
#X connect 4 0 36 0;
#X connect 5 0 22 0;
#X connect 7 0 14 0;
#X connect 9 0 18 0;
#X connect 9 1 20 0;
#X connect 10 0 49 0;
#X connect 11 0 49 0;
#X connect 12 0 16 0;
#X connect 13 0 24 0;
#X connect 14 0 16 0;
#X connect 14 1 15 0;
#X connect 14 2 11 0;
#X connect 15 0 24 0;
#X connect 16 0 17 0;
#X connect 16 1 17 1;
#X connect 17 0 9 0;
#X connect 18 0 0 0;
#X connect 18 1 19 0;
#X connect 19 0 1 0;
#X connect 20 0 0 0;
#X connect 20 1 21 0;
#X connect 21 0 1 0;
#X connect 22 0 23 0;
#X connect 22 0 54 0;
#X connect 23 0 24 1;
#X connect 24 0 12 1;
#X connect 25 0 30 0;
#X connect 25 1 7 0;
#X connect 25 2 13 0;
#X connect 25 3 10 0;
#X connect 25 4 26 1;
#X connect 26 0 0 0;
#X connect 29 0 1 0;
#X connect 30 0 12 0;
#X connect 30 1 50 0;
#X connect 31 0 29 0;
#X connect 32 0 33 0;
#X connect 33 0 34 0;
#X connect 33 1 37 1;
#X connect 34 0 37 0;
#X connect 35 0 38 0;
#X connect 35 1 36 0;
#X connect 36 0 41 0;
#X connect 36 0 26 1;
#X connect 37 0 35 0;
#X connect 38 0 36 0;
#X connect 39 0 40 0;
#X connect 40 0 22 0;
#X connect 40 1 32 0;
#X connect 41 0 7 0;
#X connect 42 0 25 0;
#X connect 42 1 26 0;
#X connect 49 0 51 1;
#X connect 49 0 16 1;
#X connect 50 0 31 0;
#X connect 50 1 51 0;
#X connect 51 0 55 0;
#X connect 54 0 56 1;
#X connect 55 0 56 0;
#X connect 56 0 29 1;
