#N canvas 923 289 1127 848 12;
#X obj 451 297 dkrrand -1 1;
#X obj 572 297 dkrrand -1 1;
#X obj 572 322 pow 2;
#X obj 559 391 +;
#X obj 584 638 t f f;
#X obj 584 663 log;
#X obj 584 688 /;
#X obj 584 713 * -2;
#X obj 584 738 sqrt;
#X obj 487 380 pow 2;
#X obj 446 204 t b b;
#X obj 583 798 outlet;
#X obj 446 172 until;
#X obj 615 465 >= 1;
#X obj 558 442 == 0;
#X obj 558 467 ||;
#X obj 436 340 t f f;
#X obj 577 589 f;
#X obj 584 763 *;
#X obj 558 492 sel 1 0;
#X obj 559 416 t f f f;
#X obj 584 529 t b b;
#X msg 442 116 bang;
#X obj 439 66 inlet;
#X text 36 25 dkvanrgauss - random numbers with gaussian distribution
;
#X text 65 46 (i think);
#X text 68 66 using the Marsaglia polar method;
#X text 823 31 derek kwan;
#X text 830 53 pdkvabs;
#X text 836 80 gpl v 3 2017;
#X connect 0 0 16 0;
#X connect 1 0 2 0;
#X connect 2 0 3 1;
#X connect 3 0 20 0;
#X connect 4 0 5 0;
#X connect 4 1 6 1;
#X connect 5 0 6 0;
#X connect 6 0 7 0;
#X connect 7 0 8 0;
#X connect 8 0 18 0;
#X connect 9 0 3 0;
#X connect 10 0 0 0;
#X connect 10 1 1 0;
#X connect 12 0 10 0;
#X connect 13 0 15 1;
#X connect 14 0 15 0;
#X connect 15 0 19 0;
#X connect 16 0 18 1;
#X connect 16 1 9 0;
#X connect 17 0 4 0;
#X connect 18 0 11 0;
#X connect 19 1 21 0;
#X connect 20 0 14 0;
#X connect 20 1 13 0;
#X connect 20 2 17 1;
#X connect 21 0 17 0;
#X connect 21 1 12 1;
#X connect 22 0 12 0;
#X connect 23 0 22 0;
