#N canvas 1138 175 907 721 12;
#X obj 229 200 inlet;
#X obj 230 363 outlet;
#X obj 427 204 loadbang;
#X obj 334 217 inlet;
#X obj 334 269 max 0;
#X obj 230 256 / 1;
#X obj 230 280 wrap;
#X obj 230 304 * 1;
#X obj 427 228 f \$1;
#X text 22 23 dkwrap - wrapping with argt (like zexy's wrap);
#X text 639 35 derek kwan;
#X text 645 53 pdkvabs;
#X text 644 76 gpl v 3;
#X text 26 104 inlets: input \, argt;
#X connect 0 0 5 0;
#X connect 2 0 8 0;
#X connect 3 0 4 0;
#X connect 4 0 5 1;
#X connect 4 0 7 1;
#X connect 5 0 6 0;
#X connect 6 0 7 0;
#X connect 7 0 1 0;
#X connect 8 0 4 0;
