#N canvas 319 218 801 630 12;
#X obj 356 202 list split 1;
#X obj 356 237 log;
#X obj 356 261 list append;
#X obj 357 133 inlet;
#X obj 523 135 inlet;
#X text 643 55 derek kwan;
#X text 640 97 pdkvabs;
#X text 641 118 gpl v 3 2018;
#X text 50 30 dklineexp~:exponential line~ generator;
#X obj 356 376 line~, f 25;
#X obj 356 400 exp~;
#X obj 356 424 outlet~;
#X obj 571 291 loadbang;
#X msg 571 315 -1000;
#X connect 0 0 1 0;
#X connect 0 1 2 1;
#X connect 1 0 2 0;
#X connect 2 0 9 0;
#X connect 3 0 0 0;
#X connect 4 0 9 1;
#X connect 9 0 10 0;
#X connect 10 0 11 0;
#X connect 12 0 13 0;
#X connect 13 0 9 0;
