#N canvas 893 407 924 662 12;
#X obj 356 202 list split 1;
#X obj 356 237 log;
#X obj 356 261 list append;
#X obj 356 376 line, f 25;
#X obj 356 400 exp;
#X obj 356 424 outlet;
#X obj 357 133 inlet;
#X obj 447 130 inlet;
#X obj 548 126 inlet;
#X text 50 30 dklineexp:exponential line generator;
#X text 643 55 derek kwan;
#X text 640 97 pdkvabs;
#X text 641 118 gpl v 3 2018;
#X connect 0 0 1 0;
#X connect 0 1 2 1;
#X connect 1 0 2 0;
#X connect 2 0 3 0;
#X connect 3 0 4 0;
#X connect 4 0 5 0;
#X connect 6 0 0 0;
#X connect 7 0 3 1;
#X connect 8 0 3 2;
