#N canvas 1242 612 817 585 12;
#X obj 356 202 list split 1;
#X obj 356 237 log;
#X obj 356 261 list append;
#X obj 357 133 inlet;
#X obj 445 123 inlet;
#X text 643 55 derek kwan;
#X text 640 97 pdkvabs;
#X text 641 118 gpl v 3 2018;
#X obj 356 400 exp~;
#X obj 356 424 outlet~;
#X obj 571 291 loadbang;
#X text 50 30 dkvlineexp~:exponential vline~ generator;
#X obj 356 376 vline~, f 25;
#X obj 515 126 inlet;
#X msg 571 315 -1000;
#X connect 0 0 1 0;
#X connect 0 1 2 1;
#X connect 1 0 2 0;
#X connect 2 0 12 0;
#X connect 3 0 0 0;
#X connect 4 0 12 1;
#X connect 8 0 9 0;
#X connect 10 0 14 0;
#X connect 12 0 8 0;
#X connect 13 0 12 2;
#X connect 14 0 12 0;
