#N canvas 644 198 1064 511 12;
#X obj 335 100 inlet;
#X obj 347 378 del 125;
#X msg 488 301 0;
#X obj 354 428 f;
#X obj 252 292 moses 4;
#X obj 252 317 t b f;
#X obj 184 407 + 1;
#X msg 335 125 bang;
#X obj 354 453 outlet;
#X text 14 1 dktimedctr - on bang \, output floats counting up to x
;
#X text 7 47 in1: bang;
#X text 5 93 in3: count up to x;
#X text 9 68 in2: y ms between floats;
#X text 3 150 arg1: y ms between floats (125*);
#X text 2 175 arg2: count up to x (4*);
#X obj 427 68 inlet;
#X obj 428 131 moses 1, f 15;
#X msg 428 156 125;
#X obj 608 58 inlet;
#X obj 605 138 moses 1, f 18;
#X msg 605 167 4;
#X obj 427 93 f \$1;
#X obj 608 83 f \$2;
#X obj 608 108 i;
#X obj 510 47 loadbang;
#X text 468 109 y ms between f;
#X text 650 106 count up to x;
#X text 891 13 derek kwan \, 2017;
#X text 888 33 pdkvabs;
#X text 888 55 gpl v 3;
#X connect 0 0 7 0;
#X connect 1 0 3 0;
#X connect 2 0 3 0;
#X connect 3 0 6 0;
#X connect 3 0 8 0;
#X connect 4 0 5 0;
#X connect 5 0 1 0;
#X connect 5 1 3 1;
#X connect 6 0 4 0;
#X connect 7 0 2 0;
#X connect 15 0 21 0;
#X connect 16 0 17 0;
#X connect 16 1 1 1;
#X connect 17 0 1 1;
#X connect 18 0 22 0;
#X connect 19 0 20 0;
#X connect 19 1 4 1;
#X connect 20 0 4 1;
#X connect 21 0 16 0;
#X connect 22 0 23 0;
#X connect 23 0 19 0;
#X connect 24 0 22 0;
#X connect 24 0 21 0;
