#N canvas 385 187 1204 830 12;
#X obj 519 232 + 1;
#X obj 512 308 swap, f 28;
#X obj 557 104 inlet;
#X text 604 103 stepsize;
#X obj 704 249 >= 0;
#X obj 512 344 pack f f, f 28;
#X text 754 385 route input based on stepsize >= 0;
#X obj 511 268 t f f, f 10;
#X obj 510 621 f, f 11;
#X obj 513 571 sel 0 1, f 69;
#X obj 506 385 route 0 1, f 30;
#X obj 613 430 >=, f 6;
#X obj 517 432 <=, f 7;
#X text 701 520 if beyond or equal bounds \, reset to startval;
#X text 705 542 else let float through;
#X obj 682 660 t f b, f 18;
#X obj 794 733 outlet;
#X text 850 730 count end;
#X obj 550 208 t f f, f 23;
#X obj 39 725 outlet;
#X text 95 724 count;
#X obj 39 408 t f f f, f 36;
#X obj 158 727 outlet;
#X text 212 733 count begin;
#X obj 39 106 inlet;
#X obj 452 108 inlet;
#X obj 682 636 f, f 13;
#X text 82 106 trig/msgs;
#X msg 262 168 bang;
#X obj 776 108 inlet;
#X text 827 112 reset;
#X msg 776 132 bang;
#N canvas 1143 668 698 539 dkvanctr_defaults 0;
#X obj 164 220 loadbang;
#X obj 164 244 t b b b, f 50;
#X obj 164 277 f \$1;
#X obj 337 278 f \$2;
#X obj 506 275 f \$3;
#X obj 337 302 t f f, f 12;
#X obj 337 326 == 0;
#X obj 337 350 pack f f, f 13;
#X msg 337 398 1;
#X obj 337 469 outlet;
#X obj 507 470 outlet;
#X obj 164 301 t f f, f 14;
#X obj 164 325 == 0;
#X obj 164 349 pack f f, f 15;
#X msg 164 397 1;
#X obj 165 483 outlet;
#X text 166 161 args: limit \, stepsize \, startval;
#X obj 337 374 route 1 0, f 18;
#X obj 164 373 route 1 0, f 16;
#X connect 0 0 1 0;
#X connect 1 0 2 0;
#X connect 1 1 3 0;
#X connect 1 2 4 0;
#X connect 2 0 11 0;
#X connect 3 0 5 0;
#X connect 4 0 10 0;
#X connect 5 0 6 0;
#X connect 5 1 7 1;
#X connect 6 0 7 0;
#X connect 7 0 17 0;
#X connect 8 0 9 0;
#X connect 11 0 12 0;
#X connect 11 1 13 1;
#X connect 12 0 13 0;
#X connect 13 0 18 0;
#X connect 14 0 15 0;
#X connect 17 0 8 0;
#X connect 17 1 9 0;
#X connect 18 0 14 0;
#X connect 18 1 15 0;
#X restore 858 144 pd dkvanctr_defaults;
#X obj 831 205 f;
#X text 503 110 limit;
#X text 793 629 startval;
#X obj 39 130 route bang float set stepsize limit reset start;
#X text 40 12 dkvanctr - vanilla counter;
#X text 36 64 inlets: trig/msgs \, limit \, stepsize \, reset;
#X text 32 87 outlets: count \, count start \, count finish;
#X text 406 12 msgs: bang (trigger) \, float (set + output) \,;
#X text 460 32 set (set + no output) \, stepsize \, limit \, reset
;
#X text 464 51 start;
#X text 953 28 pdkvabs 2018;
#X obj 160 686 sel 0;
#X text 955 49 gpl v 3;
#X text 953 7 derek kwan;
#X obj 39 384 f 0, f 29;
#X text 37 42 args: limit (*1) \, stepsize (*1) \, start (*0);
#X text 419 83 * = default;
#X connect 0 0 7 0;
#X connect 1 0 5 0;
#X connect 1 1 5 1;
#X connect 2 0 18 0;
#X connect 4 0 1 1;
#X connect 5 0 10 0;
#X connect 7 0 1 0;
#X connect 7 1 8 1;
#X connect 8 0 47 1;
#X connect 9 0 8 0;
#X connect 9 1 26 0;
#X connect 10 0 12 0;
#X connect 10 1 11 0;
#X connect 11 0 9 0;
#X connect 12 0 9 0;
#X connect 15 0 47 1;
#X connect 15 1 16 0;
#X connect 18 0 0 1;
#X connect 18 1 4 0;
#X connect 21 0 0 0;
#X connect 21 1 19 0;
#X connect 21 2 44 0;
#X connect 24 0 36 0;
#X connect 25 0 33 0;
#X connect 26 0 15 0;
#X connect 28 0 26 0;
#X connect 29 0 31 0;
#X connect 31 0 26 0;
#X connect 32 0 33 0;
#X connect 32 1 18 0;
#X connect 32 2 26 0;
#X connect 33 0 12 1;
#X connect 33 0 11 1;
#X connect 36 0 47 0;
#X connect 36 1 47 0;
#X connect 36 2 47 1;
#X connect 36 3 18 0;
#X connect 36 4 33 0;
#X connect 36 5 28 0;
#X connect 36 6 26 1;
#X connect 44 0 22 0;
#X connect 47 0 21 0;
