#N canvas 499 339 1002 756 12;
#X obj 460 161 loadbang;
#X obj 326 68 inlet;
#X obj 150 65 inlet;
#X obj 143 388 f, f 10;
#X obj 232 386 + 1;
#X obj 221 66 inlet;
#X obj 210 534 outlet;
#X obj 301 299 f \$2;
#X obj 485 321 f \$1;
#X text 638 399 figure out sign;
#X obj 544 56 inlet;
#X obj 381 566 outlet;
#X text 212 552 count;
#X text 381 588 count end;
#X obj 304 521 sel 0;
#X obj 301 558 outlet;
#X text 294 582 count beg;
#N canvas 37 86 682 535 dkvanctr_sign 0;
#X text 157 378 lim;
#X text 280 426 pos spigot;
#X obj 159 354 outlet;
#X obj 297 393 outlet;
#X obj 409 382 outlet;
#X text 406 421 neg spigot;
#X obj 260 10 inlet;
#X obj 255 110 moses 0;
#X obj 219 242 + 1;
#X obj 154 225 - 1;
#X text 262 248 if lim > 0 \, need one step below lim to reset to 0
;
#X text 269 268 else need one step above lim to reset to 0;
#X msg 273 336 1;
#X msg 405 353 0;
#X obj 229 150 t f b;
#X obj 304 161 t f b;
#X msg 359 319 0;
#X msg 431 323 1;
#X connect 6 0 7 0;
#X connect 7 0 14 0;
#X connect 7 1 15 0;
#X connect 8 0 2 0;
#X connect 9 0 2 0;
#X connect 12 0 3 0;
#X connect 13 0 4 0;
#X connect 14 0 8 0;
#X connect 14 1 16 0;
#X connect 14 1 17 0;
#X connect 15 0 9 0;
#X connect 15 1 12 0;
#X connect 15 1 13 0;
#X connect 16 0 3 0;
#X connect 17 0 4 0;
#X restore 379 403 pd dkvanctr_sign, f 29;
#N canvas 99 614 450 300 dkvanctr_lim 0;
#X obj 118 128 spigot;
#X obj 193 128 spigot;
#X obj 101 46 >= 15;
#X obj 166 47 <= 15;
#X obj 142 9 inlet;
#X obj 165 163 outlet;
#X obj 291 20 inlet;
#X obj 350 24 inlet;
#X obj 216 9 inlet;
#X text 99 219 resets counter back to 0 upon reaching limit;
#X obj 101 68 sel 1;
#X obj 166 69 sel 1;
#X connect 0 0 5 0;
#X connect 1 0 5 0;
#X connect 2 0 10 0;
#X connect 3 0 11 0;
#X connect 4 0 2 0;
#X connect 4 0 3 0;
#X connect 6 0 0 1;
#X connect 7 0 1 1;
#X connect 8 0 3 1;
#X connect 8 0 2 1;
#X connect 10 0 0 0;
#X connect 11 0 1 0;
#X restore 408 500 pd dkvanctr_lim, f 24;
#X obj 144 426 t f f f, f 22;
#N canvas 374 374 857 651 dkvanctr_filt0 0;
#X obj 404 201 t f f, f 16;
#X obj 404 225 == 0;
#X obj 404 249 pack f f;
#X obj 404 273 route 0 1;
#X msg 365 311 1;
#X obj 415 134 inlet;
#X obj 379 345 outlet;
#X text 481 141 if == 0 \, output 1 \, else input;
#X connect 0 0 1 0;
#X connect 0 1 2 1;
#X connect 1 0 2 0;
#X connect 2 0 3 0;
#X connect 3 0 4 0;
#X connect 3 1 6 0;
#X connect 4 0 6 0;
#X connect 5 0 0 0;
#X restore 278 337 pd dkvanctr_filt0;
#N canvas 374 374 857 651 dkvanctr_filt0 0;
#X obj 404 201 t f f, f 16;
#X obj 404 225 == 0;
#X obj 404 249 pack f f;
#X obj 404 273 route 0 1;
#X msg 365 311 1;
#X obj 415 134 inlet;
#X obj 379 345 outlet;
#X text 481 141 if == 0 \, output 1 \, else input;
#X connect 0 0 1 0;
#X connect 0 1 2 1;
#X connect 1 0 2 0;
#X connect 2 0 3 0;
#X connect 3 0 4 0;
#X connect 3 1 6 0;
#X connect 4 0 6 0;
#X connect 5 0 0 0;
#X restore 413 367 pd dkvanctr_filt0;
#X obj 226 316 f \$3;
#X text 428 636 inlets: trig \, count up to \, stepsize \, reset+output
\, reset;
#X text 430 665 outlets: count \, count beg \, count end;
#X text 430 687 args: count up to \, stepsize \, reset val;
#X text 225 39 count up to;
#X text 149 32 trig;
#X msg 150 89 bang;
#X text 339 39 stepsize;
#X obj 460 185 t b b b;
#X obj 422 64 inlet;
#X text 540 34 reset;
#X text 421 40 set+output;
#X text 21 15 dkvanctr - vanilla counter;
#X text 688 105 derek kwan;
#X text 691 135 pdkvabs 2016 (rev 2018);
#X text 689 154 gpl v 3;
#X connect 0 0 30 0;
#X connect 1 0 7 0;
#X connect 2 0 28 0;
#X connect 3 0 4 0;
#X connect 3 0 19 0;
#X connect 4 0 3 1;
#X connect 5 0 17 0;
#X connect 7 0 20 0;
#X connect 8 0 21 0;
#X connect 10 0 22 0;
#X connect 14 0 15 0;
#X connect 17 0 18 1;
#X connect 17 1 18 2;
#X connect 17 2 18 3;
#X connect 18 0 11 0;
#X connect 18 0 22 0;
#X connect 19 0 18 0;
#X connect 19 1 6 0;
#X connect 19 2 14 0;
#X connect 20 0 4 1;
#X connect 21 0 17 0;
#X connect 22 0 3 1;
#X connect 28 0 3 0;
#X connect 30 0 22 0;
#X connect 30 1 7 0;
#X connect 30 2 8 0;
#X connect 31 0 3 0;
