#N canvas 173 184 1019 688 10;
#X obj 64 30 inlet;
#X text 83 52 fundamental;
#X obj 210 44 inlet;
#X text 251 46 carrier harm;
#X obj 50 72 f \$1;
#X obj 206 69 f \$2;
#X obj 172 11 loadbang;
#X obj 52 174 phasor~;
#X obj 64 214 +~;
#X obj 175 238 osc~;
#X obj 175 271 *~;
#X obj 249 161 inlet;
#X obj 251 226 / 100;
#X obj 67 270 hip~, f 6;
#X obj 69 298 outlet~;
#X text 279 183 mod idx (percent);
#X obj 64 241 cos~;
#X obj 52 143 *~;
#X obj 179 197 *~;
#X obj 189 124 inlet;
#X obj 187 161 f \$3;
#X obj 252 202 f \$4;
#X text 241 127 mod harm;
#X obj 221 413 osc~;
#X obj 221 446 *~;
#X obj 371 307 inlet;
#X obj 351 379 / 100;
#X obj 225 372 *~;
#X obj 290 301 inlet;
#X text 273 324 mod2 harm;
#X text 385 324 mod2 idx (percent);
#X obj 233 336 f \$5;
#X obj 351 355 f \$6;
#X obj 394 239 osc~;
#X obj 394 272 *~;
#X obj 544 133 inlet;
#X obj 523 205 / 100;
#X obj 398 198 *~;
#X obj 463 127 inlet;
#X text 445 148 mod3 harm;
#X text 559 151 mod3 idx (percent);
#X obj 406 162 f \$7;
#X obj 525 181 f \$8;
#X obj 531 411 osc~;
#X obj 531 444 *~;
#X obj 681 305 inlet;
#X obj 660 377 / 100;
#X obj 535 370 *~;
#X obj 600 299 inlet;
#X text 583 320 mod4 harm;
#X text 696 323 mod4 idx (percent);
#X obj 543 334 f \$9;
#X obj 662 353 f \$10;
#X obj 676 215 osc~;
#X obj 676 248 *~;
#X obj 826 109 inlet;
#X obj 805 181 / 100;
#X obj 680 174 *~;
#X obj 745 103 inlet;
#X obj 688 138 f \$11;
#X obj 807 157 f \$12;
#X obj 351 401 sig~;
#X obj 660 399 sig~;
#X obj 792 247 sig~;
#X obj 510 271 sig~;
#X obj 238 271 sig~;
#X obj 143 91 sig~;
#X obj 43 100 sig~;
#X text 728 124 mod5 harm;
#X text 841 127 mod5 idx (percent);
#X obj 816 419 osc~;
#X obj 816 452 *~;
#X obj 966 313 inlet;
#X obj 945 385 / 100;
#X obj 820 378 *~;
#X obj 885 307 inlet;
#X obj 932 451 sig~;
#X text 868 328 mod6 harm;
#X text 981 331 mod6 idx (percent);
#X obj 828 342 f \$13;
#X obj 947 361 f \$14;
#X connect 0 0 4 0;
#X connect 2 0 5 0;
#X connect 4 0 9 0;
#X connect 4 0 67 0;
#X connect 5 0 66 0;
#X connect 6 0 4 0;
#X connect 6 0 5 0;
#X connect 6 0 21 0;
#X connect 6 0 31 0;
#X connect 6 0 32 0;
#X connect 6 0 41 0;
#X connect 6 0 42 0;
#X connect 6 0 51 0;
#X connect 6 0 52 0;
#X connect 6 0 59 0;
#X connect 6 0 60 0;
#X connect 6 0 79 0;
#X connect 6 0 80 0;
#X connect 7 0 8 0;
#X connect 8 0 16 0;
#X connect 9 0 10 0;
#X connect 10 0 8 1;
#X connect 11 0 21 0;
#X connect 12 0 65 0;
#X connect 13 0 14 0;
#X connect 16 0 13 0;
#X connect 17 0 7 0;
#X connect 18 0 9 0;
#X connect 19 0 20 0;
#X connect 20 0 18 1;
#X connect 21 0 12 0;
#X connect 23 0 24 0;
#X connect 24 0 8 1;
#X connect 25 0 32 0;
#X connect 26 0 61 0;
#X connect 27 0 23 0;
#X connect 28 0 31 0;
#X connect 31 0 27 1;
#X connect 32 0 26 0;
#X connect 33 0 34 0;
#X connect 34 0 8 1;
#X connect 35 0 42 0;
#X connect 36 0 64 0;
#X connect 37 0 33 0;
#X connect 38 0 41 0;
#X connect 41 0 37 1;
#X connect 42 0 36 0;
#X connect 43 0 44 0;
#X connect 44 0 8 1;
#X connect 45 0 52 0;
#X connect 46 0 62 0;
#X connect 47 0 43 0;
#X connect 48 0 51 0;
#X connect 51 0 47 1;
#X connect 52 0 46 0;
#X connect 53 0 54 0;
#X connect 54 0 8 1;
#X connect 55 0 60 0;
#X connect 56 0 63 0;
#X connect 57 0 53 0;
#X connect 58 0 59 0;
#X connect 59 0 57 1;
#X connect 60 0 56 0;
#X connect 61 0 24 1;
#X connect 62 0 44 1;
#X connect 63 0 54 1;
#X connect 64 0 34 1;
#X connect 65 0 10 1;
#X connect 66 0 17 1;
#X connect 67 0 17 0;
#X connect 67 0 18 0;
#X connect 67 0 27 0;
#X connect 67 0 47 0;
#X connect 67 0 37 0;
#X connect 67 0 57 0;
#X connect 67 0 74 0;
#X connect 70 0 71 0;
#X connect 71 0 8 1;
#X connect 72 0 80 0;
#X connect 73 0 76 0;
#X connect 74 0 70 0;
#X connect 75 0 79 0;
#X connect 76 0 71 1;
#X connect 79 0 74 1;
#X connect 80 0 73 0;
