#N canvas 869 197 1533 808 12;
#X obj 221 29 inlet;
#X obj 221 190 route list, f 61;
#X obj 607 396 list;
#X obj 228 478 list;
#X obj 604 434 list trim;
#X obj 230 691 outlet;
#X obj 221 64 t a a, f 17;
#X obj 421 32 inlet;
#X text 485 34 bang syncer;
#X obj 611 42 inlet;
#X text 656 40 if we want to be syncing;
#X obj 524 80 loadbang;
#X obj 613 121 f \$1;
#X obj 217 152 spigot 0;
#X obj 419 116 == 0;
#X obj 222 427 spigot 0;
#X obj 333 160 spigot 0;
#X obj 273 353 &&;
#X msg 310 269 1;
#X obj 233 520 t a b;
#X msg 360 340 0;
#X obj 605 356 spigot 0;
#X obj 665 302 &&;
#X msg 715 271 1;
#X msg 800 278 0;
#X obj 613 145 t f f;
#X obj 602 480 t a b;
#X obj 894 40 inlet;
#X text 945 39 reset;
#X obj 894 64 t b b;
#X text 1246 23 derek kwan;
#X text 1242 36 pdkvabs;
#X text 1248 51 gpl v 3 2018;
#X text 1062 249 args: if we want to be syncing;
#X text 275 30 input;
#X obj 221 214 t a b b;
#X obj 639 228 t a b b;
#X text 292 216 reset other spigot first;
#X text 295 233 then open current spigot;
#X obj 421 56 t b b;
#X text 13 15 dkanysync: sync anything;
#X connect 0 0 6 0;
#X connect 1 0 35 0;
#X connect 1 1 36 0;
#X connect 2 0 4 0;
#X connect 3 0 19 0;
#X connect 4 0 26 0;
#X connect 6 0 13 0;
#X connect 6 1 16 0;
#X connect 7 0 39 0;
#X connect 9 0 12 0;
#X connect 11 0 12 0;
#X connect 12 0 25 0;
#X connect 13 0 1 0;
#X connect 14 0 16 1;
#X connect 15 0 3 0;
#X connect 16 0 5 0;
#X connect 17 0 15 1;
#X connect 18 0 17 0;
#X connect 19 0 5 0;
#X connect 19 1 20 0;
#X connect 20 0 17 0;
#X connect 21 0 2 0;
#X connect 22 0 21 1;
#X connect 23 0 22 0;
#X connect 24 0 22 0;
#X connect 25 0 14 0;
#X connect 25 0 13 1;
#X connect 25 1 17 1;
#X connect 25 1 22 1;
#X connect 26 0 5 0;
#X connect 26 1 24 0;
#X connect 27 0 29 0;
#X connect 29 0 20 0;
#X connect 29 1 24 0;
#X connect 35 0 3 1;
#X connect 35 1 18 0;
#X connect 35 2 24 0;
#X connect 36 0 2 1;
#X connect 36 1 23 0;
#X connect 36 2 20 0;
#X connect 39 0 15 0;
#X connect 39 1 21 0;
