#N canvas 357 239 1024 502 12;
#X obj 54 77 inlet;
#X text 113 101 incoming bangs;
#X obj 186 163 == 0;
#X obj 55 288 spigot 0;
#X obj 69 400 outlet;
#X msg 116 229 1;
#X obj 195 280 f;
#X msg 201 221 0;
#X obj 228 170 t b b;
#X text 468 254 idea: incoming bang sets flag that bang arrived;
#X obj 195 305 sel 1;
#X obj 183 369 spigot 1;
#X obj 426 100 inlet;
#X text 482 101 if we want to be syncing;
#X obj 249 107 inlet;
#X text 271 89 bang syncer;
#X text 17 9 dkbangsync - bang syncer;
#X text 329 68 arg1: syncing?;
#X text 12 34 Derek Kwan \, 2016 - gpl v3;
#X text 328 14 in1: incoming bangs (or clear) \, in2: bang syncer;
#X text 340 31 in3: syncing? \, in4: clear;
#X obj 705 100 inlet;
#X text 755 100 clear;
#X obj 326 159 f \$1;
#X obj 362 125 loadbang;
#X obj 328 226 t f f;
#X obj 396 272 sel 1;
#X connect 0 0 5 0;
#X connect 0 0 3 0;
#X connect 2 0 3 1;
#X connect 3 0 4 0;
#X connect 5 0 6 1;
#X connect 6 0 10 0;
#X connect 7 0 6 1;
#X connect 8 0 7 0;
#X connect 8 1 6 0;
#X connect 10 0 11 0;
#X connect 11 0 4 0;
#X connect 12 0 25 0;
#X connect 14 0 8 0;
#X connect 21 0 7 0;
#X connect 23 0 25 0;
#X connect 24 0 23 0;
#X connect 25 0 2 0;
#X connect 25 0 11 1;
#X connect 25 1 26 0;
#X connect 26 0 7 0;
