#N canvas 989 321 1070 937 12;
#X obj 221 29 inlet;
#X obj 230 691 outlet;
#X obj 421 32 inlet;
#X text 485 34 bang syncer;
#X obj 611 42 inlet;
#X text 656 40 if we want to be syncing;
#X obj 524 80 loadbang;
#X obj 613 121 f \$1;
#X obj 217 152 spigot 0;
#X obj 419 116 == 0;
#X obj 222 427 spigot 0;
#X obj 333 160 spigot 0;
#X obj 273 353 &&;
#X msg 310 269 1;
#X msg 360 340 0;
#X obj 613 145 t f f;
#X obj 894 40 inlet;
#X text 945 39 reset;
#X text 916 118 derek kwan;
#X text 912 131 pdkvabs;
#X text 918 146 gpl v 3 2018;
#X text 732 344 args: if we want to be syncing;
#X text 275 30 input;
#X text 292 216 reset other spigot first;
#X text 295 233 then open current spigot;
#X obj 221 64 t p p, f 17;
#X obj 228 478 pointer;
#X obj 233 520 t p b;
#X obj 221 214 t p b b;
#X text 13 15 dkptrsync: sync pointers;
#X connect 0 0 25 0;
#X connect 2 0 10 0;
#X connect 4 0 7 0;
#X connect 6 0 7 0;
#X connect 7 0 15 0;
#X connect 8 0 28 0;
#X connect 9 0 11 1;
#X connect 10 0 26 0;
#X connect 11 0 1 0;
#X connect 12 0 10 1;
#X connect 13 0 12 0;
#X connect 14 0 12 0;
#X connect 15 0 9 0;
#X connect 15 0 8 1;
#X connect 15 1 12 1;
#X connect 16 0 14 0;
#X connect 25 0 8 0;
#X connect 25 1 11 0;
#X connect 26 0 27 0;
#X connect 27 0 1 0;
#X connect 27 1 14 0;
#X connect 28 0 26 1;
#X connect 28 1 13 0;
