#N canvas 783 261 1588 723 12;
#X obj 248 238 *~ 2;
#X obj 248 262 -~ 1;
#X obj 248 286 abs~;
#X obj 248 310 *~ 2;
#X obj 248 334 -~ 1;
#X obj 248 214 pow~ 2;
#X text 32 17 dkcurvesaw~ - sawtooth wave with curvature;
#X obj 252 71 inlet;
#X text 305 82 freq;
#X obj 248 190 phasor~;
#X obj 148 58 loadbang;
#X obj 252 135 * -1;
#X obj 148 98 f \$1;
#X text 397 33 args - freq \, curvature \,;
#X obj 371 142 f \$2;
#X obj 371 166 sel 0;
#X msg 371 190 2;
#X obj 486 58 inlet;
#X text 547 59 curvature;
#X obj 674 60 inlet;
#X text 727 61 phase;
#X text 585 36 inlets: freq \, curvature \, phase;
#X obj 248 358 outlet~;
#X text 926 26 derek kwan;
#X text 930 80 gpl v 3 2018;
#X text 936 47 pdkvabs;
#X connect 0 0 1 0;
#X connect 1 0 2 0;
#X connect 2 0 3 0;
#X connect 3 0 4 0;
#X connect 4 0 22 0;
#X connect 5 0 0 0;
#X connect 7 0 11 0;
#X connect 9 0 5 0;
#X connect 10 0 12 0;
#X connect 10 0 14 0;
#X connect 11 0 9 0;
#X connect 12 0 11 0;
#X connect 14 0 15 0;
#X connect 15 0 16 0;
#X connect 15 1 5 1;
#X connect 16 0 5 1;
#X connect 17 0 5 1;
