#N canvas 970 472 939 677 12;
#X obj 103 324 osc~;
#X obj 179 325 osc~;
#X obj 106 427 +~;
#X obj 110 615 outlet~;
#X obj 91 85 inlet;
#X obj 184 179 * 1.002;
#X obj 184 87 inlet;
#X text 102 123 freq;
#X obj 455 83 inlet;
#X obj 439 205 loadbang;
#X obj 439 286 f \$1;
#X obj 522 271 f \$2;
#X obj 522 295 sel 0;
#X obj 522 343 f;
#X text 805 16 derek kwan;
#X text 812 72 gpl v 3;
#X text 815 41 pdkvabs 2018;
#X msg 522 319 1.005;
#X obj 106 403 *~ 1;
#X obj 182 404 *~ 1;
#X text 296 458 inlets: freq \, detuneratio \, phase/vols;
#X text 506 80 phase/vols;
#X obj 455 107 route phase1 phase2 phase3 phase vol1 vol2 vol3;
#X text 197 121 ratio1;
#X obj 106 226 t f f f;
#X text 288 421 args: freq \, detune ratio1 (1.005) \, ratio2 (1.01)
;
#X obj 439 229 t b b b, f 19;
#X obj 575 272 f \$3;
#X obj 575 296 sel 0;
#X msg 575 320 1.01;
#X obj 575 344 f;
#X obj 250 325 osc~;
#X obj 255 179 * 1.002;
#X obj 255 87 inlet;
#X obj 253 404 *~ 1;
#X obj 106 451 +~;
#X obj 106 538 *~ 0.333;
#X text 268 121 ratio2;
#X text 14 26 dkoscdetune3~ - osc + 2 detuned osc;
#X connect 0 0 18 0;
#X connect 1 0 19 0;
#X connect 2 0 35 0;
#X connect 4 0 24 0;
#X connect 5 0 1 0;
#X connect 6 0 5 1;
#X connect 8 0 22 0;
#X connect 9 0 26 0;
#X connect 10 0 24 0;
#X connect 11 0 12 0;
#X connect 12 0 17 0;
#X connect 12 1 13 0;
#X connect 13 0 5 1;
#X connect 17 0 13 0;
#X connect 18 0 2 0;
#X connect 19 0 2 1;
#X connect 22 0 0 1;
#X connect 22 1 1 1;
#X connect 22 2 31 1;
#X connect 22 3 0 1;
#X connect 22 3 1 1;
#X connect 22 3 31 1;
#X connect 22 4 18 1;
#X connect 22 5 19 1;
#X connect 22 6 34 1;
#X connect 24 0 0 0;
#X connect 24 1 5 0;
#X connect 24 2 32 0;
#X connect 26 0 10 0;
#X connect 26 1 11 0;
#X connect 26 2 27 0;
#X connect 27 0 28 0;
#X connect 28 0 29 0;
#X connect 28 1 30 0;
#X connect 29 0 30 0;
#X connect 31 0 34 0;
#X connect 32 0 31 0;
#X connect 33 0 32 1;
#X connect 34 0 35 1;
#X connect 35 0 36 0;
#X connect 36 0 3 0;
