#N canvas 1197 234 966 582 12;
#X obj 103 324 osc~;
#X obj 179 325 osc~;
#X obj 106 427 +~;
#X obj 110 528 outlet~;
#X obj 91 85 inlet;
#X obj 106 226 t f f;
#X obj 164 154 * 1.002;
#X obj 184 87 inlet;
#X text 102 123 freq;
#X text 197 121 ratio;
#X obj 312 87 inlet;
#X obj 439 205 loadbang;
#X obj 439 286 f \$1;
#X obj 522 271 f \$2;
#X obj 522 295 sel 0;
#X obj 522 343 f;
#X text 14 26 dkoscdetune2~ - osc + detuned osc;
#X obj 439 229 t b b;
#X text 805 16 derek kwan;
#X text 812 72 gpl v 3;
#X text 815 41 pdkvabs 2018;
#X text 288 421 args: freq \, detune ratio (1.005);
#X msg 522 319 1.005;
#X obj 106 403 *~ 1;
#X obj 182 404 *~ 1;
#X text 296 458 inlets: freq \, detuneratio \, phase/vols;
#X obj 106 451 *~ 0.5;
#X obj 312 111 route phase1 phase2 phase vol1 vol2;
#X text 363 84 phase/vols;
#X connect 0 0 23 0;
#X connect 1 0 24 0;
#X connect 2 0 26 0;
#X connect 4 0 5 0;
#X connect 5 0 0 0;
#X connect 5 1 6 0;
#X connect 6 0 1 0;
#X connect 7 0 6 1;
#X connect 10 0 27 0;
#X connect 11 0 17 0;
#X connect 12 0 5 0;
#X connect 13 0 14 0;
#X connect 14 0 22 0;
#X connect 14 1 15 0;
#X connect 15 0 6 1;
#X connect 17 0 12 0;
#X connect 17 1 13 0;
#X connect 22 0 15 0;
#X connect 23 0 2 0;
#X connect 24 0 2 1;
#X connect 26 0 3 0;
#X connect 27 0 0 1;
#X connect 27 1 1 1;
#X connect 27 2 0 1;
#X connect 27 2 1 1;
#X connect 27 3 23 1;
#X connect 27 4 24 1;
