#N canvas 239 199 1046 577 12;
#X obj 252 320 *~;
#X obj 317 295 *~ -1;
#X obj 373 382 *~;
#X obj 250 434 +~;
#X obj 317 270 -~ 1;
#X obj 225 62 inlet;
#X obj 250 459 outlet~;
#X text 12 14 dkdutysaw~;
#X text 11 41 variable-duty saw;
#X obj 218 129 phasor~ \$1;
#X text 11 188 ARGS:;
#X text 13 210 freq;
#X obj 624 28 inlet;
#X text 24 273 INLETS:;
#X text 17 299 freq/duty/phase;
#X text 23 372 OUTLETS:;
#X text 17 399 sig~;
#X text 907 7 derek kwan 2017;
#X text 904 37 pdksynth;
#X text 905 66 gpl v 3;
#X text 405 288 0 \, 1 -> -1 \, 0 -> 1 \, 0;
#X text 626 155 x \, 1-x;
#X obj 472 27 inlet;
#X obj 536 127 clip 0 1;
#X obj 570 245 - 1;
#X obj 570 270 * -1;
#X obj 227 263 /~ 0;
#X obj 329 341 /~ 1;
#X obj 347 170 dklt~;
#X obj 429 240 dkgt~;
#X connect 0 0 3 0;
#X connect 1 0 27 0;
#X connect 2 0 3 1;
#X connect 3 0 6 0;
#X connect 4 0 1 0;
#X connect 5 0 9 0;
#X connect 9 0 4 0;
#X connect 9 0 26 0;
#X connect 9 0 28 0;
#X connect 9 0 29 0;
#X connect 12 0 9 1;
#X connect 22 0 23 0;
#X connect 23 0 24 0;
#X connect 23 0 26 1;
#X connect 23 0 28 1;
#X connect 23 0 29 1;
#X connect 24 0 25 0;
#X connect 25 0 27 1;
#X connect 26 0 0 0;
#X connect 27 0 2 0;
#X connect 28 0 0 1;
#X connect 29 0 2 1;
