#N canvas 1259 393 901 513 12;
#X obj 213 299 dkle~;
#X obj 392 67 loadbang;
#X obj 210 205 phasor~ \$1;
#X obj 549 90 inlet;
#X text 594 92 phase;
#X obj 390 217 f 0.5;
#X obj 272 74 inlet;
#X text 316 80 duty;
#X obj 390 241 clip 0 1;
#X obj 199 72 inlet;
#X text 138 72 freq;
#X obj 213 323 outlet~;
#X text 48 16 dksq~ - vanilla square wave oscillator;
#X text 776 10 derek kwan;
#X text 776 36 pdkvabs 2018;
#X text 772 61 gpl v 3;
#X text 23 148 args: freq;
#X text 8 200 inlets: freq \, duty \, phase;
#X connect 0 0 11 0;
#X connect 1 0 5 0;
#X connect 2 0 0 0;
#X connect 3 0 2 1;
#X connect 5 0 8 0;
#X connect 6 0 5 0;
#X connect 8 0 0 1;
#X connect 9 0 2 0;
