#N canvas 515 350 1198 776 12;
#X obj 106 427 +~;
#X obj 110 528 outlet~;
#X obj 91 85 inlet;
#X obj 106 226 t f f;
#X obj 164 154 * 1.002;
#X obj 184 87 inlet;
#X text 102 123 freq;
#X text 197 121 ratio;
#X obj 312 87 inlet;
#X obj 439 205 loadbang;
#X obj 522 295 sel 0;
#X obj 522 343 f;
#X text 805 16 derek kwan;
#X text 812 72 gpl v 3;
#X text 815 41 pdkvabs 2018;
#X msg 522 319 1.005;
#X obj 106 403 *~ 1;
#X obj 182 404 *~ 1;
#X obj 106 451 *~ 0.5;
#X text 363 84 phase/vols;
#X text 14 26 dktaboscdetune2~ - tabosc + detuned tabosc;
#X text 288 421 args: table \, freq \, detune ratio (1.005);
#X obj 312 111 route phase1 phase2 phase vol1 vol2 set;
#X text 296 458 inlets: freq \, detuneratio \, phase/vols/set;
#X obj 522 271 f \$3;
#X obj 463 287 f \$2;
#X obj 439 229 t b b;
#X obj 59 326 tabosc4~ \$1;
#X obj 179 325 tabosc4~ \$1;
#X obj 503 139 symbol;
#X msg 503 163 set \$1;
#X connect 0 0 18 0;
#X connect 2 0 3 0;
#X connect 3 0 27 0;
#X connect 3 1 4 0;
#X connect 4 0 28 0;
#X connect 5 0 4 1;
#X connect 8 0 22 0;
#X connect 9 0 26 0;
#X connect 10 0 15 0;
#X connect 10 1 11 0;
#X connect 11 0 4 1;
#X connect 15 0 11 0;
#X connect 16 0 0 0;
#X connect 17 0 0 1;
#X connect 18 0 1 0;
#X connect 22 0 27 1;
#X connect 22 1 28 1;
#X connect 22 2 27 1;
#X connect 22 2 28 1;
#X connect 22 3 16 1;
#X connect 22 4 17 1;
#X connect 22 5 29 0;
#X connect 24 0 10 0;
#X connect 25 0 3 0;
#X connect 26 0 25 0;
#X connect 26 1 24 0;
#X connect 27 0 16 0;
#X connect 28 0 17 0;
#X connect 29 0 30 0;
#X connect 30 0 27 0;
#X connect 30 0 28 0;
