#N canvas 489 284 1306 922 12;
#X obj 106 427 +~;
#X obj 110 615 outlet~;
#X obj 91 85 inlet;
#X obj 184 179 * 1.002;
#X obj 184 87 inlet;
#X text 102 123 freq;
#X obj 455 83 inlet;
#X obj 439 205 loadbang;
#X obj 522 295 sel 0;
#X obj 522 343 f;
#X text 805 16 derek kwan;
#X text 812 72 gpl v 3;
#X text 815 41 pdkvabs 2018;
#X msg 522 319 1.005;
#X obj 106 403 *~ 1;
#X obj 182 404 *~ 1;
#X text 506 80 phase/vols;
#X text 197 121 ratio1;
#X obj 106 226 t f f f;
#X obj 439 229 t b b b, f 19;
#X obj 575 296 sel 0;
#X msg 575 320 1.01;
#X obj 575 344 f;
#X obj 255 179 * 1.002;
#X obj 255 87 inlet;
#X obj 253 404 *~ 1;
#X obj 106 451 +~;
#X obj 106 538 *~ 0.333;
#X text 268 121 ratio2;
#X text 288 421 args: table \, freq \, detune ratio1 (1.005) \, ratio2
(1.01);
#X text 296 458 inlets: freq \, detuneratio \, phase/vols/set;
#X obj 455 107 route phase1 phase2 phase3 phase vol1 vol2 vol3 set
;
#X obj 718 194 symbol;
#X msg 718 218 set \$1;
#X obj 106 277 tabosc4~ \$1;
#X obj 179 307 tabosc4~ \$1;
#X obj 249 338 tabosc4~ \$1;
#X obj 439 286 f \$2;
#X obj 522 271 f \$3;
#X obj 575 272 f \$4;
#X text 14 26 dktaboscdetune3~ - tabosc + 2 detuned tabosc;
#X connect 0 0 26 0;
#X connect 2 0 18 0;
#X connect 3 0 35 0;
#X connect 4 0 3 1;
#X connect 6 0 31 0;
#X connect 7 0 19 0;
#X connect 8 0 13 0;
#X connect 8 1 9 0;
#X connect 9 0 3 1;
#X connect 13 0 9 0;
#X connect 14 0 0 0;
#X connect 15 0 0 1;
#X connect 18 0 34 0;
#X connect 18 1 3 0;
#X connect 18 2 23 0;
#X connect 19 0 37 0;
#X connect 19 1 38 0;
#X connect 19 2 39 0;
#X connect 20 0 21 0;
#X connect 20 1 22 0;
#X connect 21 0 22 0;
#X connect 23 0 36 0;
#X connect 24 0 23 1;
#X connect 25 0 26 1;
#X connect 26 0 27 0;
#X connect 27 0 1 0;
#X connect 31 0 34 1;
#X connect 31 1 35 1;
#X connect 31 2 36 1;
#X connect 31 3 34 1;
#X connect 31 3 35 1;
#X connect 31 3 36 1;
#X connect 31 4 14 1;
#X connect 31 5 15 1;
#X connect 31 6 25 1;
#X connect 31 7 32 0;
#X connect 32 0 33 0;
#X connect 33 0 34 0;
#X connect 33 0 35 0;
#X connect 33 0 36 0;
#X connect 34 0 14 0;
#X connect 35 0 15 0;
#X connect 36 0 25 0;
#X connect 37 0 18 0;
#X connect 38 0 8 0;
#X connect 39 0 20 0;
