#N canvas 411 331 831 482 12;
#X obj 286 42 inlet;
#X obj 277 129 phasor~ \$1;
#X obj 367 171 *~ -1;
#X obj 367 195 +~ 1;
#X obj 280 255 min~, f 13;
#X obj 280 279 *~ 2;
#X obj 280 303 outlet~;
#X obj 419 41 inlet;
#X text 475 38 phase;
#X text 341 40 freq;
#X text 11 11 dktri~ - triangle oscillator;
#X text 4 37 inlets:freq \, phase;
#X text 12 63 args: freq;
#X text 16 90 outlet: sig;
#X text 661 5 derek kwan;
#X text 664 31 pdkvabs 2018;
#X text 657 56 gpl v 3;
#X connect 0 0 1 0;
#X connect 1 0 2 0;
#X connect 1 0 4 0;
#X connect 2 0 3 0;
#X connect 3 0 4 1;
#X connect 4 0 5 0;
#X connect 5 0 6 0;
#X connect 7 0 1 1;
