#N canvas 1162 247 783 629 12;
#X obj 389 321 samplerate~;
#X obj 389 345 / 1000;
#X obj 327 278 t f b;
#X obj 327 378 /;
#X obj 247 435 f;
#X msg 247 459 1 0 \, 0 0 \$1;
#X obj 247 483 vline~;
#X obj 247 507 outlet~;
#X msg 247 248 bang;
#X obj 249 176 inlet;
#X obj 327 179 inlet;
#X obj 327 222 f \$1;
#X obj 327 246 max 1;
#X text 14 12 dkvanssimp~ - vanilla single sample impulse;
#X text 15 38 inlets: trig \, sample width;
#X text 22 58 args: sample width;
#X text 26 82 outlet: signal;
#X text 541 54 derek kwan;
#X obj 418 189 loadbang;
#X text 547 80 pdkvabs;
#X text 551 105 gpl v 3;
#X connect 0 0 1 0;
#X connect 1 0 3 1;
#X connect 2 0 3 0;
#X connect 2 1 0 0;
#X connect 3 0 4 1;
#X connect 4 0 5 0;
#X connect 5 0 6 0;
#X connect 6 0 7 0;
#X connect 8 0 4 0;
#X connect 9 0 8 0;
#X connect 10 0 11 0;
#X connect 11 0 12 0;
#X connect 12 0 2 0;
#X connect 18 0 11 0;
