#N canvas 433 128 781 289 12;
#X obj 244 114 inlet;
#X obj 244 139 t f f;
#X obj 290 175 >= \$1;
#X obj 244 218 spigot;
#X obj 244 243 outlet;
#X text 21 8 dkgegt - greater or equal gate;
#X text 21 51 arg: input must be greater or equal to given to go through
;
#X text 19 84 in1: input;
#X text 19 114 in2: greater or equal to x;
#X text 19 151 out: filtered output;
#X text 610 21 derek kwan \, 2017;
#X text 610 47 pdkvabs;
#X text 608 72 gpl v 3;
#X obj 334 111 inlet;
#X connect 0 0 1 0;
#X connect 1 0 3 0;
#X connect 1 1 2 0;
#X connect 2 0 3 1;
#X connect 3 0 4 0;
#X connect 13 0 2 1;
