#N canvas 424 409 450 300 10;
#X obj 62 81 t f f;
#X obj 62 47 inlet;
#X obj 63 132 spigot;
#X obj 63 154 outlet;
#X text 176 32 Derek Kwan - 2016;
#X text 14 4 dknzgt: only lets non-zero floats through;
#X connect 0 0 2 0;
#X connect 0 1 2 1;
#X connect 1 0 0 0;
#X connect 2 0 3 0;
