#N canvas 783 403 1020 722 12;
#X obj 180 259 spigot;
#X obj 178 55 inlet;
#X obj 170 112 t a b, f 13;
#X obj 180 281 outlet;
#X text 21 32 args: \$1 - percent of time to let stuff through;
#X text 32 7 DKRNDGT by Derek X. Kwan;
#X obj 354 81 inlet;
#X obj 260 222 < \$1;
#X obj 261 141 random 100000;
#X obj 256 170 / 1000;
#X connect 0 0 3 0;
#X connect 1 0 2 0;
#X connect 2 0 0 0;
#X connect 2 1 8 0;
#X connect 6 0 7 1;
#X connect 7 0 0 1;
#X connect 8 0 9 0;
#X connect 9 0 7 0;
