#N canvas 556 231 1135 711 12;
#X obj 229 472 exp;
#X obj 224 337 log;
#X msg 221 302 0.001;
#X obj 312 291 t b f, f 15;
#X obj 312 315 samplerate~;
#X obj 316 403 *;
#X obj 231 200 t b f;
#X obj 224 397 /;
#X obj 175 536 rpole~;
#X obj 223 140 inlet;
#X text 279 129 decay time (ms);
#X obj 150 132 inlet~;
#X obj 175 560 outlet~;
#X text 14 13 dkdecay~ - exponential decay (port of SuperCollider's
Decay);
#X obj 397 160 loadbang;
#X obj 397 184 f \$1;
#X obj 397 208 moses 1;
#X msg 397 232 1000;
#X text 495 41 arg: 60 dB decay time (ms);
#X text 477 98 inlets:sig~ \, decaytime(ms);
#X text 838 72 derek kwan;
#X text 847 97 pdkvabs 2018;
#X text 849 121 gpl v 3;
#X obj 401 332 / 1000;
#X connect 0 0 8 1;
#X connect 1 0 7 0;
#X connect 2 0 1 0;
#X connect 3 0 4 0;
#X connect 3 1 23 0;
#X connect 4 0 5 0;
#X connect 5 0 7 1;
#X connect 6 0 2 0;
#X connect 6 1 3 0;
#X connect 7 0 0 0;
#X connect 8 0 12 0;
#X connect 9 0 6 0;
#X connect 11 0 8 0;
#X connect 14 0 15 0;
#X connect 15 0 16 0;
#X connect 16 0 17 0;
#X connect 16 1 6 0;
#X connect 17 0 6 0;
#X connect 23 0 5 1;
