#N canvas 870 321 1090 821 12;
#X obj 201 452 dkdecay~;
#X obj 318 456 dkdecay~;
#X obj 204 116 inlet~;
#X obj 209 516 -~;
#X obj 209 540 outlet~;
#X obj 333 124 inlet;
#X obj 434 293 loadbang;
#X obj 434 317 t b b, f 22;
#X obj 434 341 f \$1;
#X obj 434 365 moses 1e-20;
#X msg 434 389 10;
#X obj 434 413 f;
#X obj 590 344 f \$2;
#X obj 590 368 moses 1e-20;
#X msg 590 392 1000;
#X obj 590 416 f;
#X obj 443 122 inlet;
#X text 357 152 attack(ms);
#X text 487 148 decay(ms);
#X text 22 16 dkdecay2~ - exponential attack/decay;
#X text 43 47 (port of SuperCollider's Decay2);
#X text 650 216 args: attack time(ms) \, decaytime (ms);
#X text 653 233 inlets: signal \, attack \, decay;
#X text 786 31 derek kwan;
#X text 799 60 pdkvabs 2018;
#X text 801 78 gpl v 3;
#X connect 0 0 3 0;
#X connect 1 0 3 1;
#X connect 2 0 0 0;
#X connect 2 0 1 0;
#X connect 3 0 4 0;
#X connect 5 0 1 1;
#X connect 6 0 7 0;
#X connect 7 0 8 0;
#X connect 7 1 12 0;
#X connect 8 0 9 0;
#X connect 9 0 10 0;
#X connect 9 1 11 0;
#X connect 10 0 11 0;
#X connect 11 0 1 1;
#X connect 12 0 13 0;
#X connect 13 0 14 0;
#X connect 13 1 15 0;
#X connect 14 0 15 0;
#X connect 15 0 0 1;
#X connect 16 0 0 1;
