#N canvas 942 282 1154 782 12;
#X obj 105 558 biquad~;
#X obj 224 217 inlet;
#X text 266 214 center freq;
#X obj 374 211 inlet;
#X text 430 217 ring time in ms;
#X text 13 89 Ken Stieglitz: "A Note on Constant-Gain" Digital Resonators"
;
#X text 14 64 based on:;
#X text 13 118 Julius O. Smith: "Time Constant of One Pole" \, "Two-Pole"
;
#X text 54 141 from "Introduction to Digital Filters with Audio Applications"
;
#X obj 77 205 inlet~;
#X text 135 212 sig;
#X obj 105 640 outlet~;
#X obj 572 209 inlet;
#X msg 414 511 clear;
#X obj 833 294 max 1;
#X text 1030 31 derek kwan;
#X text 1031 54 pdkvabs 2018;
#X text 1027 80 gpl v 3;
#X obj 793 255 f \$1;
#X obj 847 260 f \$2;
#N canvas 615 189 1412 824 dkring_coeff_calc 0;
#X obj 149 290 * 6.28319;
#X obj 149 314 /;
#X obj 228 290 samplerate~;
#X obj 146 241 t f b, f 13;
#X obj 149 338 cos;
#X text 263 255 theta;
#X text 194 336 cos theta;
#X obj 333 244 t b f b, f 20;
#X obj 333 320 /;
#X obj 469 278 samplerate~;
#X obj 407 280 *;
#X obj 334 348 exp;
#X text 382 328 R;
#X obj 394 401 pow 2;
#X text 440 394 R^2;
#X obj 335 417 * 2;
#X text 358 403 2 R;
#X obj 151 554 *;
#X text 185 562 2R*cos;
#X obj 612 664 t f f, f 14;
#X obj 379 482 * -1;
#X text 413 495 -R^2;
#X text 767 682 -G;
#X obj 717 685 * -1;
#X text 251 771 2R*cos \, -R^2 \, G \, -G;
#X obj 162 711 pack f f f f, f 80;
#X obj 158 786 outlet;
#X text 891 163 where G = [(1-R^2)/2]^0.5 and R = pole radius;
#X text 889 189 theta = wT = 2*pi*f*T \, 2pi = 6.28319;
#X text 886 224 R = exp(-T/tau) where tau = decay time in seconds;
#X text 911 272 (from "time constant of one pole" from JOS filter book)
;
#X text 905 246 = exp(-T*1000/tau') where tau' = deay time in ms;
#X text 633 38 y(n) = G*x(n)-G*x(n-2);
#X text 680 60 +2R*cos*y(n-1) - R^2*y(n-2);
#X text 888 300 pd: fb1 fb2 ff1 ff2 ff3;
#X obj 154 91 inlet;
#X text 196 88 center freq;
#X obj 353 94 inlet;
#X text 409 100 ring time in ms;
#X obj 353 118 t b f;
#X obj 407 304 / 1000;
#X obj 383 430 t f f, f 30;
#X obj 690 528 t b f;
#X msg 690 552 1;
#X obj 690 576 -;
#X obj 693 609 / 2;
#X obj 334 371 t f f, f 9;
#X msg 333 268 0.001;
#X obj 333 292 log;
#X text 1036 342 tweaks:;
#X text 1109 343 using ln(0.001) in calc of R;
#X text 1110 361 (taken from SuperCollider's Ringz);
#X obj 560 97 inlet;
#X text 616 100 scaling mode;
#X obj 152 170 pack f f f, f 25;
#X obj 151 202 unpack f f f, f 74;
#X obj 560 121 t b f;
#X obj 591 466 list prepend;
#X obj 591 490 route 0 1 2, f 52;
#X msg 591 514 1;
#X obj 808 524 t b f;
#X msg 808 548 1;
#X obj 808 572 -;
#X obj 811 605 / 2;
#X obj 811 629 sqrt, f 5;
#X msg 161 747 \$1 \$2 \$3 0 \$4;
#X connect 0 0 1 0;
#X connect 1 0 4 0;
#X connect 2 0 1 1;
#X connect 3 0 0 0;
#X connect 3 1 2 0;
#X connect 4 0 17 0;
#X connect 7 0 47 0;
#X connect 7 1 10 0;
#X connect 7 2 9 0;
#X connect 8 0 11 0;
#X connect 9 0 10 1;
#X connect 10 0 40 0;
#X connect 11 0 46 0;
#X connect 13 0 41 0;
#X connect 15 0 17 1;
#X connect 17 0 25 0;
#X connect 19 0 25 2;
#X connect 19 1 23 0;
#X connect 20 0 25 1;
#X connect 23 0 25 3;
#X connect 25 0 65 0;
#X connect 35 0 54 0;
#X connect 37 0 39 0;
#X connect 39 0 54 0;
#X connect 39 1 54 1;
#X connect 40 0 8 1;
#X connect 41 0 20 0;
#X connect 41 1 57 0;
#X connect 42 0 43 0;
#X connect 42 1 44 1;
#X connect 43 0 44 0;
#X connect 44 0 45 0;
#X connect 45 0 19 0;
#X connect 46 0 15 0;
#X connect 46 1 13 0;
#X connect 47 0 48 0;
#X connect 48 0 8 0;
#X connect 52 0 56 0;
#X connect 54 0 55 0;
#X connect 55 0 3 0;
#X connect 55 1 7 0;
#X connect 55 2 57 1;
#X connect 56 0 54 0;
#X connect 56 1 54 2;
#X connect 57 0 58 0;
#X connect 58 0 59 0;
#X connect 58 1 42 0;
#X connect 58 2 60 0;
#X connect 59 0 19 0;
#X connect 60 0 61 0;
#X connect 60 1 62 1;
#X connect 61 0 62 0;
#X connect 62 0 63 0;
#X connect 63 0 64 0;
#X connect 64 0 19 0;
#X connect 65 0 26 0;
#X restore 227 438 pd dkring_coeff_calc;
#X text 474 39 args: center freq \, ring time in ms \, scaling mode
;
#X text 468 12 inlets: sig \, center freq \, ring time in ms \, (scale/clear)
;
#X text 617 210 scale/clear;
#X obj 546 422 clip 0 2;
#X obj 748 214 t b b b b, f 24;
#X obj 915 257 f \$3;
#X obj 756 170 loadbang;
#X text 17 12 dkringer~ - two-pole resonator with ring time argt;
#X obj 566 244 route clear scale amp;
#X obj 105 587 *~ 1, f 66;
#X connect 0 0 30 0;
#X connect 1 0 20 0;
#X connect 3 0 20 1;
#X connect 9 0 0 0;
#X connect 12 0 29 0;
#X connect 13 0 0 0;
#X connect 14 0 20 1;
#X connect 18 0 20 0;
#X connect 19 0 14 0;
#X connect 20 0 0 0;
#X connect 24 0 20 2;
#X connect 25 0 13 0;
#X connect 25 1 18 0;
#X connect 25 2 19 0;
#X connect 25 3 26 0;
#X connect 26 0 24 0;
#X connect 27 0 25 0;
#X connect 29 0 13 0;
#X connect 29 1 24 0;
#X connect 29 2 30 1;
#X connect 30 0 11 0;
