#N canvas 840 761 1407 665 12;
#X obj 283 440 /~ \$1;
#X obj 549 38 inlet;
#X text 592 37 freqs;
#X obj 781 43 inlet;
#X text 833 37 amps;
#X obj 944 42 inlet;
#X text 996 41 ringtimes;
#X obj 280 77 inlet~;
#X text 337 83 sig;
#X obj 389 48 inlet;
#X text 438 44 fundamental;
#X obj 1110 37 inlet;
#X text 1160 29 msgs;
#X text 684 125 mode rel/abs;
#X obj 388 154 swap, f 13;
#X obj 388 178 pack f f, f 14;
#X obj 611 120 t f f;
#X obj 504 152 == 1;
#X obj 388 203 route 1 0;
#X obj 416 237 t b f;
#X obj 627 153 == 0;
#X obj 586 295 * 1;
#X obj 1110 61 route mode clear;
#X msg 1153 98 all clear;
#X text 26 10 dkringerbank~ - bank of ringing resonant filters;
#X text 20 35 args: number of filters \, rel/abs freqs;
#X obj 672 23 loadbang;
#X text 2 79 inlets:sig \, fundamental;
#X text 42 110 freq list \, amp list \, ringtime list;
#X text 41 141 msgs (abs or rel mode/clear);
#X text 19 200 outlets: signal;
#X obj 283 464 outlet~;
#X text 1274 20 derek kwan;
#X text 1279 43 pdkvabs 2018;
#X text 1281 74 gpl v 3;
#X obj 285 372 clone -x dkringer~ \$1, f 85;
#X obj 614 90 f \$2;
#X obj 431 295 dklisttoclone, f 18;
#X obj 788 176 route all;
#X obj 788 217 dklisttoclone amp;
#X msg 718 247 all amp \$1;
#X obj 978 123 dklisttoclone;
#X obj 936 81 route all;
#X msg 915 118 all \$1;
#X connect 0 0 31 0;
#X connect 1 0 37 0;
#X connect 3 0 38 0;
#X connect 5 0 42 0;
#X connect 7 0 35 0;
#X connect 9 0 14 0;
#X connect 11 0 22 0;
#X connect 14 0 15 0;
#X connect 14 1 15 1;
#X connect 15 0 18 0;
#X connect 16 0 17 0;
#X connect 16 1 20 0;
#X connect 17 0 14 1;
#X connect 18 1 19 0;
#X connect 19 0 37 0;
#X connect 19 1 21 1;
#X connect 20 0 37 4;
#X connect 21 0 37 5;
#X connect 22 0 16 0;
#X connect 22 1 23 0;
#X connect 23 0 35 3;
#X connect 26 0 36 0;
#X connect 35 0 0 0;
#X connect 36 0 16 0;
#X connect 37 0 35 1;
#X connect 37 1 21 0;
#X connect 38 0 40 0;
#X connect 38 1 39 0;
#X connect 39 0 35 3;
#X connect 40 0 35 3;
#X connect 41 0 35 2;
#X connect 42 0 43 0;
#X connect 42 1 41 0;
#X connect 43 0 35 2;
