#N canvas 121 366 1225 433 12;
#X obj 191 359 biquad~;
#N canvas 483 256 1084 833 dkring_coeff_calc 0;
#X obj 149 290 * 6.28319;
#X obj 149 314 /;
#X obj 228 290 samplerate~;
#X obj 146 241 t f b, f 13;
#X obj 149 338 cos;
#X text 263 255 theta;
#X text 194 336 cos theta;
#X obj 375 242 t b f b, f 20;
#X obj 375 290 /;
#X msg 375 266 -1000;
#X obj 511 276 samplerate~;
#X obj 449 278 *;
#X obj 375 314 exp;
#X text 423 316 R;
#X obj 570 389 pow 2;
#X text 621 392 R^2;
#X obj 377 415 * 2;
#X text 400 401 2 R;
#X obj 375 338 t f f, f 30;
#X obj 570 413 t f f, f 15;
#X obj 672 459 t b f, f 9;
#X msg 672 483 1;
#X obj 672 507 -;
#X obj 672 531 / 2;
#X obj 672 555 sqrt;
#X text 722 547 G;
#X obj 151 202 unpack f f, f 27;
#X obj 151 554 *;
#X text 185 562 2R*cos;
#X obj 672 579 t f f, f 14;
#X obj 572 587 * -1;
#X text 587 552 -R^2;
#X text 788 589 -G;
#X obj 761 616 * -1;
#X text 544 713 2R*cos \, -R^2 \, G \, -G;
#X obj 423 701 pack f f f f;
#X msg 423 725 \$1 \$2 \$3 0 \$4;
#X text 396 202 freq in Hz \, ringtime in ms;
#X obj 423 749 outlet;
#X obj 152 170 pack f f, f 25;
#X text 625 181 where G = [(1-R^2)/2]^0.5 and R = pole radius;
#X text 623 207 theta = wT = 2*pi*f*T \, 2pi = 6.28319;
#X text 620 242 R = exp(-T/tau) where tau = decay time in seconds;
#X text 645 290 (from "time constant of one pole" from JOS filter book)
;
#X text 639 264 = exp(-T*1000/tau') where tau' = deay time in ms;
#X text 633 38 y(n) = G*x(n)-G*x(n-2);
#X text 680 60 +2R*cos*y(n-1) - R^2*y(n-2);
#X text 622 318 pd: fb1 fb2 ff1 ff2 ff3;
#X obj 154 91 inlet;
#X text 196 88 center freq;
#X obj 353 94 inlet;
#X text 409 100 ring time in ms;
#X obj 353 118 t b f;
#X connect 0 0 1 0;
#X connect 1 0 4 0;
#X connect 2 0 1 1;
#X connect 3 0 0 0;
#X connect 3 1 2 0;
#X connect 4 0 27 0;
#X connect 7 0 9 0;
#X connect 7 1 11 0;
#X connect 7 2 10 0;
#X connect 8 0 12 0;
#X connect 9 0 8 0;
#X connect 10 0 11 1;
#X connect 11 0 8 1;
#X connect 12 0 18 0;
#X connect 14 0 19 0;
#X connect 16 0 27 1;
#X connect 18 0 16 0;
#X connect 18 1 14 0;
#X connect 19 0 30 0;
#X connect 19 1 20 0;
#X connect 20 0 21 0;
#X connect 20 1 22 1;
#X connect 21 0 22 0;
#X connect 22 0 23 0;
#X connect 23 0 24 0;
#X connect 24 0 29 0;
#X connect 26 0 3 0;
#X connect 26 1 7 0;
#X connect 27 0 35 0;
#X connect 29 0 35 2;
#X connect 29 1 33 0;
#X connect 30 0 35 1;
#X connect 33 0 35 3;
#X connect 35 0 36 0;
#X connect 36 0 38 0;
#X connect 39 0 26 0;
#X connect 48 0 39 0;
#X connect 50 0 52 0;
#X connect 52 0 39 0;
#X connect 52 1 39 1;
#X restore 370 337 pd dkring_coeff_calc;
#X obj 224 217 inlet;
#X text 266 214 center freq;
#X obj 374 211 inlet;
#X text 430 217 ring time in ms;
#X text 17 12 dkringer~ - two-pole resonator;
#X text 13 89 Ken Stieglitz: "A Note on Constant-Gain" Digital Resonators"
;
#X text 14 64 based on:;
#X text 13 118 Julius O. Smith: "Time Constant of One Pole" \, "Two-Pole"
;
#X text 54 141 from "Introduction to Digital Filters with Audio Applications"
;
#X obj 77 205 inlet~;
#X text 135 212 sig;
#X obj 191 383 outlet~;
#X obj 701 160 loadbang;
#X obj 564 207 inlet;
#X text 609 208 clear;
#X msg 564 243 clear;
#X text 468 12 inlets: sig \, center freq \, ring time in ms \, clear
;
#X text 474 39 args: center freq \, ring time in ms;
#X obj 800 230 f \$3;
#X obj 800 254 max 1;
#X obj 746 225 f \$2;
#X obj 701 184 t b b b, f 15;
#X text 1030 31 derek kwan;
#X text 1031 54 pdkvabs 2018;
#X text 1027 80 gpl v 3;
#X connect 0 0 13 0;
#X connect 1 0 0 0;
#X connect 2 0 1 0;
#X connect 4 0 1 1;
#X connect 11 0 0 0;
#X connect 14 0 23 0;
#X connect 15 0 17 0;
#X connect 17 0 0 0;
#X connect 20 0 21 0;
#X connect 21 0 1 1;
#X connect 22 0 1 0;
#X connect 23 0 17 0;
#X connect 23 1 22 0;
#X connect 23 2 20 0;
