#N canvas 448 386 939 689 12;
#X obj 459 180 text define -k \$0-dkringerpreset;
#A set wineglass 5 1 2.32 4.25 6.63 9.38 1 1 1 1 1 1800 1600 1000 1100
1500 \; flowerpot 4 1 2.72222 4.97222 7.86111 1 0.398108 0.251189 0.0794333
5000 1000 200 100 \;;
#X obj 82 39 inlet;
#X obj 82 105 text search \$0-dkringerpreset 0;
#X text 484 85 (amplist) (ringlist);
#X obj 82 129 moses 0;
#X obj 75 176 text get \$0-dkringerpreset;
#X obj 75 200 t l l, f 32;
#X msg 291 232 \$2;
#X obj 68 640 outlet;
#X obj 259 351 list split 5, f 30;
#X obj 325 431 list split 5, f 52;
#X obj 237 600 outlet;
#X obj 307 569 outlet;
#X text 365 569 amp list;
#X obj 481 527 outlet;
#X text 120 646 number of voices;
#X text 535 535 ringlist;
#X text 394 67 file format: (number of voices) (relfreqlist);
#X text 303 601 relfreq list;
#N canvas 3 103 450 300 dkringerpreset-inputs 0;
#X text 19 10 wineglass;
#X text 20 30 flowerpot;
#X restore 717 246 pd dkringerpreset-inputs;
#X text 778 16 derek kwan;
#X text 772 38 pdkvabs;
#X text 767 62 gpl v 3 2018;
#X obj 82 63 symbol;
#X obj 59 284 list split 2, f 58;
#X text 384 126 outputs settings for dkringerbank on given symbol input
;
#X text 392 153 (options in subpatch);
#X obj 291 256 t f f f, f 43;
#X connect 1 0 23 0;
#X connect 2 0 4 0;
#X connect 4 1 5 0;
#X connect 5 0 6 0;
#X connect 6 0 24 0;
#X connect 6 1 7 0;
#X connect 7 0 27 0;
#X connect 9 0 11 0;
#X connect 9 1 10 0;
#X connect 10 0 12 0;
#X connect 10 1 14 0;
#X connect 23 0 2 0;
#X connect 24 1 9 0;
#X connect 27 0 9 1;
#X connect 27 1 10 1;
#X connect 27 2 8 0;
