#N canvas 739 178 1095 709 12;
#X obj 183 278 biquad~;
#X obj 261 113 inlet;
#X text 306 139 cutoff freq;
#X text 616 229 fc = cut-off freq (phase response passes -180 deg)
;
#X text 30 58 y(n) = -c * x[n] + d(1-c) * x[n-1] + x[n-2];
#X text 76 87 -d(1-c) * y[n-1] + c * y[n-2];
#X text 617 256 fs = sampling freq;
#X text 616 173 d = - cos (2*pi*fc/fs);
#X text 617 199 fb = bandwidth parameter;
#X text 613 137 c = (b - 1)/(b+1) where b = tan(pi*fb/fs);
#X obj 490 160 inlet;
#N canvas 907 404 1019 991 \$0-vap2o_coeffs 0;
#X obj 117 51 inlet;
#X obj 417 69 inlet;
#X obj 600 260 atan;
#X msg 600 231 1;
#X obj 600 285 * 4;
#X text 646 296 pi = atan(1) * 4;
#X obj 275 343 samplerate~;
#X obj 386 386 /;
#X obj 391 345 *;
#X obj 386 411 tan;
#X obj 386 436 t f f;
#X obj 383 507 /;
#X obj 201 92 loadbang;
#X obj 251 225 f \$1;
#X obj 383 482 - 1;
#X obj 431 478 + 1;
#X obj 383 295 t f b, f 12;
#X obj 332 180 f \$2;
#X obj 170 284 t f b, f 15;
#X obj 169 330 *;
#X obj 169 355 * 2;
#X obj 167 440 cos;
#X text 204 54 cutoff freq;
#X text 468 506 c;
#X text 221 433 d;
#X obj 376 640 t b f;
#X msg 376 665 1;
#X obj 376 690 -, f 7;
#X text 740 669 want a1 a2 b0 b1 b2;
#X obj 91 867 pack f f f f 1, f 35;
#X obj 147 658 *;
#X obj 466 780 * -1;
#X obj 173 471 * -1;
#X obj 154 615 f;
#X obj 383 542 f;
#X obj 173 496 t f b;
#X obj 199 129 t b b b, f 20;
#X obj 131 702 t f f;
#X obj 136 734 * -1;
#X text 203 633 d(1-c);
#X obj 91 892 outlet;
#X obj 169 394 /;
#X obj 335 585 t b f f, f 15;
#X obj 399 197 t b f;
#X obj 396 268 /;
#X text 477 75 q;
#X text 514 121 q = fc / bandwidth;
#X text 518 149 bw = fc / q;
#X connect 0 0 13 0;
#X connect 1 0 17 0;
#X connect 2 0 4 0;
#X connect 3 0 2 0;
#X connect 4 0 8 1;
#X connect 4 0 19 1;
#X connect 6 0 7 1;
#X connect 6 0 41 1;
#X connect 7 0 9 0;
#X connect 8 0 7 0;
#X connect 9 0 10 0;
#X connect 10 0 14 0;
#X connect 10 1 15 0;
#X connect 11 0 34 0;
#X connect 12 0 36 0;
#X connect 13 0 18 0;
#X connect 13 0 44 0;
#X connect 14 0 11 0;
#X connect 15 0 11 1;
#X connect 16 0 8 0;
#X connect 16 1 6 0;
#X connect 17 0 43 0;
#X connect 18 0 19 0;
#X connect 18 1 6 0;
#X connect 19 0 20 0;
#X connect 20 0 41 0;
#X connect 21 0 32 0;
#X connect 25 0 26 0;
#X connect 25 1 27 1;
#X connect 26 0 27 0;
#X connect 27 0 30 1;
#X connect 29 0 40 0;
#X connect 30 0 37 0;
#X connect 31 0 29 2;
#X connect 32 0 35 0;
#X connect 33 0 30 0;
#X connect 34 0 42 0;
#X connect 35 0 33 0;
#X connect 35 1 34 0;
#X connect 36 0 17 0;
#X connect 36 1 13 0;
#X connect 36 2 3 0;
#X connect 37 0 38 0;
#X connect 37 1 29 3;
#X connect 38 0 29 0;
#X connect 41 0 21 0;
#X connect 42 0 33 0;
#X connect 42 1 25 0;
#X connect 42 2 31 0;
#X connect 42 2 29 1;
#X connect 43 0 13 0;
#X connect 43 1 44 1;
#X connect 44 0 16 0;
#X restore 283 214 pd \$0-vap2o_coeffs;
#X obj 176 196 inlet~;
#X obj 183 303 outlet~;
#X text 346 322 arg1/in2: cutoff freq;
#X text 502 127 q;
#X text 872 17 derek kwan;
#X text 879 41 pdkvabs;
#X text 881 72 gpl v 3 2017;
#X text 350 356 arg2/in3: q;
#X text 627 349 from the DAFX book (asks for bw instead of q);
#X text 32 23 dkvap2o~ - vanilla second-order allpass filter;
#X connect 0 0 13 0;
#X connect 1 0 11 0;
#X connect 10 0 11 1;
#X connect 11 0 0 0;
#X connect 12 0 0 0;
