#N canvas 1384 316 801 722 12;
#X obj 313 582 rzero_rev~;
#X obj 318 618 rpole~;
#X text 21 143 y(n) = c*x(n) + x(n-1) - cy(n-1);
#X text 24 179 c = (b - 1)/(b+1) where b = tan(pi*fc/fs);
#X text 36 211 fc = cut-off freq (phase response passes -90 deg);
#X text 35 244 fs = sampling freq;
#X obj 494 303 atan;
#X msg 490 267 1;
#X obj 494 328 * 4;
#X text 540 339 pi = atan(1) * 4;
#X obj 540 389 samplerate~;
#X obj 453 418 /;
#X obj 452 236 t f b b, f 12;
#X obj 458 377 *;
#X obj 453 443 tan;
#X obj 453 468 t f f;
#X obj 450 539 /;
#X obj 450 564 * -1;
#X text 497 566 requires negative c;
#X obj 315 379 inlet~, f 9;
#X obj 448 158 inlet;
#X obj 520 162 loadbang;
#X obj 520 187 f \$1;
#X text 488 138 cutoff freq;
#X text 607 15 derek kwan;
#X text 617 54 pdkvabs;
#X text 621 91 gpl v 3 2017;
#X text 19 14 dkvap1o~ - vanilla first order all pass;
#X obj 318 658 outlet~;
#X obj 450 514 - 1;
#X obj 498 510 + 1;
#X text 24 40 arg/in2: cutoff freq;
#X text 32 314 phase response approaches -180 deg for high freqs;
#X connect 0 0 1 0;
#X connect 1 0 28 0;
#X connect 6 0 8 0;
#X connect 7 0 6 0;
#X connect 8 0 13 1;
#X connect 10 0 11 1;
#X connect 11 0 14 0;
#X connect 12 0 13 0;
#X connect 12 1 7 0;
#X connect 12 2 10 0;
#X connect 13 0 11 0;
#X connect 14 0 15 0;
#X connect 15 0 29 0;
#X connect 15 1 30 0;
#X connect 16 0 17 0;
#X connect 17 0 0 1;
#X connect 17 0 1 1;
#X connect 19 0 0 0;
#X connect 20 0 12 0;
#X connect 21 0 22 0;
#X connect 22 0 12 0;
#X connect 29 0 16 0;
#X connect 30 0 16 1;
