#N canvas 462 453 868 898 12;
#X obj 492 424 cos~;
#X obj 424 399 -~ 0.25;
#X obj 424 424 cos~;
#X obj 437 297 *~ 0.5;
#X obj 424 449 /~;
#X obj 424 571 *~ -1;
#X obj 299 515 rzero_rev~;
#X obj 299 540 rpole~;
#X text 520 278 map to pi;
#X obj 299 565 outlet~;
#X obj 301 338 inlet~;
#X obj 433 206 inlet~;
#X text 21 99 y(n) = c*x(n) + x(n-1) - cy(n-1);
#X text 24 135 c = (b - 1)/(b+1) where b = tan(pi*fc/fs);
#X text 36 167 fc = cut-off freq (phase response passes -90 deg);
#X text 35 200 fs = sampling freq;
#X text 501 216 cutoff freq;
#X text 607 15 derek kwan;
#X text 617 54 pdkvabs;
#X text 621 91 gpl v 3 2017;
#X text 24 40 in2: cutoff freq;
#X text 19 14 dkvap1os~ - vanilla first order all pass (signal version)
;
#X obj 648 233 loadbang;
#X obj 648 258 samplerate~;
#X obj 437 322 /~ 1;
#X text 20 289 phase response approaches -180 deg for high freqs;
#X connect 0 0 4 1;
#X connect 1 0 2 0;
#X connect 2 0 4 0;
#X connect 3 0 24 0;
#X connect 4 0 5 0;
#X connect 5 0 6 1;
#X connect 5 0 7 1;
#X connect 6 0 7 0;
#X connect 7 0 9 0;
#X connect 10 0 6 0;
#X connect 11 0 3 0;
#X connect 22 0 23 0;
#X connect 23 0 24 1;
#X connect 24 0 1 0;
#X connect 24 0 0 0;
