#N canvas 351 276 787 651 12;
#X obj 189 381 *~ 0.5;
#X obj 197 316 -~;
#X obj 273 256 dkvap2o~ \$1 \$2;
#X obj 300 145 inlet;
#X text 358 137 cutoff freq;
#X obj 476 151 inlet;
#X text 541 148 q;
#X obj 189 406 outlet~;
#X obj 208 105 inlet~;
#X text 346 322 arg1/in2: cutoff freq;
#X text 350 356 arg2/in3: q;
#X text 631 29 derek kwan;
#X text 638 53 pdkvabs;
#X text 640 84 gpl v 3 2017;
#X text 27 25 dkvbp2o~ - vannilla second-order bandpass filter;
#X connect 0 0 7 0;
#X connect 1 0 0 0;
#X connect 2 0 1 1;
#X connect 3 0 2 1;
#X connect 5 0 2 2;
#X connect 8 0 1 0;
#X connect 8 0 2 0;
