#N canvas 1053 429 687 544 12;
#X obj 189 381 *~ 0.5;
#X obj 300 145 inlet;
#X text 358 137 cutoff freq;
#X obj 476 151 inlet;
#X text 541 148 q;
#X obj 189 406 outlet~;
#X obj 208 105 inlet~;
#X text 346 322 arg1/in2: cutoff freq;
#X text 350 356 arg2/in3: q;
#X text 478 29 derek kwan;
#X text 485 53 pdkvabs;
#X text 487 84 gpl v 3 2017;
#X obj 197 316 +~;
#X obj 273 256 dkvap2o~ \$1 \$2;
#X text 27 25 dkvbr2o~ - vanilla second-order band reject filter;
#X connect 0 0 5 0;
#X connect 1 0 13 1;
#X connect 3 0 13 2;
#X connect 6 0 12 0;
#X connect 6 0 13 0;
#X connect 12 0 0 0;
#X connect 13 0 12 1;
