#N canvas 744 291 607 738 12;
#X obj 230 403 *~ 0.5;
#X obj 300 188 inlet;
#X obj 199 191 inlet~;
#X text 355 193 cut-off freq;
#X obj 262 284 dkvap1o~ \$1;
#X obj 230 428 outlet~;
#X text 24 40 arg/in2: cutoff freq;
#X text 445 21 derek kwan;
#X text 452 53 pdkvabs;
#X text 453 87 gpl v 3 2017;
#X text 13 15 dkvhp1o~ vanilla first-order highpass;
#X obj 230 378 -~;
#X connect 0 0 5 0;
#X connect 1 0 4 1;
#X connect 2 0 4 0;
#X connect 2 0 11 0;
#X connect 4 0 11 1;
#X connect 11 0 0 0;
