#N canvas 201 198 1315 794 10;
#X obj 156 79 inlet~;
#X obj 158 116 vsnapshot~;
#X text 158 46 pos (samps);
#X obj 127 246 t f b;
#X obj 146 314 +;
#X obj 174 256 random 882;
#X obj 213 302 - 441;
#X obj 368 262 / 2;
#X obj 357 75 inlet;
#X text 335 43 randpos (ms);
#X obj 357 97 / 1000;
#X obj 326 171 *;
#X obj 354 163 samplerate~;
#X obj 396 238 i;
#X obj 328 142 t f b;
#X obj 729 81 inlet;
#X text 725 52 transposition (hs);
#X obj 542 398 t b f;
#X obj 532 494 pow;
#X obj 589 439 / 12;
#X msg 520 439 2;
#X obj 389 468 f 1;
#X text 1005 51 amp;
#X obj 1021 95 inlet;
#X obj 1082 93 inlet;
#X obj 218 345 t f b;
#X text 556 48 dur rand (ms);
#X obj 568 84 inlet;
#X obj 212 374 + 0;
#X obj 551 305 f 0;
#X text 853 54 transposition rand (c);
#X obj 858 87 inlet;
#X obj 596 362 / 100;
#X obj 635 314 random 0;
#X obj 561 117 i;
#X obj 830 161 i;
#X obj 540 366 +;
#X obj 549 328 t f b;
#X obj 174 565 pack 0 0 0 0 0;
#X obj 649 570 / 100;
#X text 1060 55 amp rand (%);
#X obj 587 569 t f b;
#X obj 587 591 +;
#X obj 168 659 outlet~;
#X text 256 23 grain rate;
#X obj 263 52 inlet;
#X msg 232 102 1;
#X obj 544 150 / 1000;
#X obj 541 201 *;
#X obj 569 193 samplerate~;
#X obj 543 172 t f b;
#X obj 541 223 t f f;
#X obj 541 245 i;
#X obj 476 528 * 132;
#X obj 265 421 samplerate~;
#X obj 322 451 * 1000;
#X obj 228 440 /;
#X obj 216 398 t f f b;
#X obj 402 379 t b b b f;
#X obj 587 547 f 1;
#X msg 261 105 0, f 2;
#X obj 251 78 t b b f;
#X obj 139 188 t f b;
#X obj 149 217 pipe;
#X obj 649 548 random 1;
#N canvas 246 133 1324 921 graindist 0;
#X obj 85 39 inlet;
#X obj 186 56 route 1 2 3 4 5 6 7 8 9 10 11 12 13 14 15 16;
#X obj 78 165 throw~ \$0-out;
#X obj 101 214 throw~ \$0-out;
#X obj 183 165 throw~ \$0-out;
#X obj 206 214 throw~ \$0-out;
#X obj 282 160 throw~ \$0-out;
#X obj 305 209 throw~ \$0-out;
#X obj 387 160 throw~ \$0-out;
#X obj 410 209 throw~ \$0-out;
#X obj 509 157 throw~ \$0-out;
#X obj 532 206 throw~ \$0-out;
#X obj 614 157 throw~ \$0-out;
#X obj 637 206 throw~ \$0-out;
#X obj 713 152 throw~ \$0-out;
#X obj 736 201 throw~ \$0-out;
#X obj 818 152 throw~ \$0-out;
#X obj 841 201 throw~ \$0-out;
#X obj 84 369 throw~ \$0-out;
#X obj 107 418 throw~ \$0-out;
#X obj 189 369 throw~ \$0-out;
#X obj 212 418 throw~ \$0-out;
#X obj 288 364 throw~ \$0-out;
#X obj 311 413 throw~ \$0-out;
#X obj 393 364 throw~ \$0-out;
#X obj 416 413 throw~ \$0-out;
#X obj 515 361 throw~ \$0-out;
#X obj 538 410 throw~ \$0-out;
#X obj 620 361 throw~ \$0-out;
#X obj 643 410 throw~ \$0-out;
#X obj 719 356 throw~ \$0-out;
#X obj 742 405 throw~ \$0-out;
#X obj 824 356 throw~ \$0-out;
#X obj 847 405 throw~ \$0-out;
#X obj 192 260 route 17 18 19 20 21 22 23 24 25 26 27 28 29 30 31 32
;
#X obj 118 551 throw~ \$0-out;
#X obj 141 600 throw~ \$0-out;
#X obj 223 551 throw~ \$0-out;
#X obj 246 600 throw~ \$0-out;
#X obj 322 546 throw~ \$0-out;
#X obj 345 595 throw~ \$0-out;
#X obj 427 546 throw~ \$0-out;
#X obj 450 595 throw~ \$0-out;
#X obj 549 543 throw~ \$0-out;
#X obj 572 592 throw~ \$0-out;
#X obj 654 543 throw~ \$0-out;
#X obj 677 592 throw~ \$0-out;
#X obj 753 538 throw~ \$0-out;
#X obj 776 587 throw~ \$0-out;
#X obj 858 538 throw~ \$0-out;
#X obj 881 587 throw~ \$0-out;
#X obj 226 442 route 33 34 35 36 37 38 39 40 41 42 43 44 45 46 47 48
;
#X obj 147 743 throw~ \$0-out;
#X obj 170 792 throw~ \$0-out;
#X obj 252 743 throw~ \$0-out;
#X obj 275 792 throw~ \$0-out;
#X obj 351 738 throw~ \$0-out;
#X obj 374 787 throw~ \$0-out;
#X obj 456 738 throw~ \$0-out;
#X obj 479 787 throw~ \$0-out;
#X obj 578 735 throw~ \$0-out;
#X obj 601 784 throw~ \$0-out;
#X obj 683 735 throw~ \$0-out;
#X obj 706 784 throw~ \$0-out;
#X obj 782 730 throw~ \$0-out;
#X obj 805 779 throw~ \$0-out;
#X obj 887 730 throw~ \$0-out;
#X obj 910 779 throw~ \$0-out;
#X obj 255 634 route 49 50 51 52 53 54 55 56 57 58 59 60 61 62 63 64
;
#X obj 1062 743 catch~ \$0-out;
#X obj 1112 836 outlet~;
#X obj 387 138 grain \$1;
#X obj 78 143 grain \$1;
#X obj 101 192 grain \$1;
#X obj 183 143 grain \$1;
#X obj 206 192 grain \$1;
#X obj 282 138 grain \$1;
#X obj 305 187 grain \$1;
#X obj 410 187 grain \$1;
#X obj 509 135 grain \$1;
#X obj 532 184 grain \$1;
#X obj 614 135 grain \$1;
#X obj 637 184 grain \$1;
#X obj 713 130 grain \$1;
#X obj 736 179 grain \$1;
#X obj 818 130 grain \$1;
#X obj 841 179 grain \$1;
#X obj 84 347 grain \$1;
#X obj 107 396 grain \$1;
#X obj 189 347 grain \$1;
#X obj 212 396 grain \$1;
#X obj 288 342 grain \$1;
#X obj 311 391 grain \$1;
#X obj 393 342 grain \$1;
#X obj 416 391 grain \$1;
#X obj 515 339 grain \$1;
#X obj 538 388 grain \$1;
#X obj 620 339 grain \$1;
#X obj 643 388 grain \$1;
#X obj 719 334 grain \$1;
#X obj 742 383 grain \$1;
#X obj 824 334 grain \$1;
#X obj 847 383 grain \$1;
#X obj 118 529 grain \$1;
#X obj 141 578 grain \$1;
#X obj 223 529 grain \$1;
#X obj 246 578 grain \$1;
#X obj 322 524 grain \$1;
#X obj 345 573 grain \$1;
#X obj 427 524 grain \$1;
#X obj 450 573 grain \$1;
#X obj 549 521 grain \$1;
#X obj 572 570 grain \$1;
#X obj 654 521 grain \$1;
#X obj 677 570 grain \$1;
#X obj 753 516 grain \$1;
#X obj 776 565 grain \$1;
#X obj 858 516 grain \$1;
#X obj 881 565 grain \$1;
#X obj 147 721 grain \$1;
#X obj 170 770 grain \$1;
#X obj 252 721 grain \$1;
#X obj 275 770 grain \$1;
#X obj 351 716 grain \$1;
#X obj 374 765 grain \$1;
#X obj 456 716 grain \$1;
#X obj 479 765 grain \$1;
#X obj 578 713 grain \$1;
#X obj 601 762 grain \$1;
#X obj 683 713 grain \$1;
#X obj 706 762 grain \$1;
#X obj 782 708 grain \$1;
#X obj 805 757 grain \$1;
#X obj 887 708 grain \$1;
#X obj 910 757 grain \$1;
#X connect 0 0 1 0;
#X connect 1 0 72 0;
#X connect 1 1 73 0;
#X connect 1 2 74 0;
#X connect 1 3 75 0;
#X connect 1 4 76 0;
#X connect 1 5 77 0;
#X connect 1 6 71 0;
#X connect 1 7 78 0;
#X connect 1 8 79 0;
#X connect 1 9 80 0;
#X connect 1 10 81 0;
#X connect 1 11 82 0;
#X connect 1 12 83 0;
#X connect 1 13 84 0;
#X connect 1 14 85 0;
#X connect 1 15 86 0;
#X connect 1 16 34 0;
#X connect 34 0 87 0;
#X connect 34 1 88 0;
#X connect 34 2 89 0;
#X connect 34 3 90 0;
#X connect 34 4 91 0;
#X connect 34 5 92 0;
#X connect 34 6 93 0;
#X connect 34 7 94 0;
#X connect 34 8 95 0;
#X connect 34 9 96 0;
#X connect 34 10 97 0;
#X connect 34 11 98 0;
#X connect 34 12 99 0;
#X connect 34 13 100 0;
#X connect 34 14 101 0;
#X connect 34 15 102 0;
#X connect 34 16 51 0;
#X connect 51 0 103 0;
#X connect 51 1 104 0;
#X connect 51 2 105 0;
#X connect 51 3 106 0;
#X connect 51 4 107 0;
#X connect 51 5 108 0;
#X connect 51 6 109 0;
#X connect 51 7 110 0;
#X connect 51 8 111 0;
#X connect 51 9 112 0;
#X connect 51 10 113 0;
#X connect 51 11 114 0;
#X connect 51 12 115 0;
#X connect 51 13 116 0;
#X connect 51 14 117 0;
#X connect 51 15 118 0;
#X connect 51 16 68 0;
#X connect 68 0 119 0;
#X connect 68 1 120 0;
#X connect 68 2 121 0;
#X connect 68 3 122 0;
#X connect 68 4 123 0;
#X connect 68 5 124 0;
#X connect 68 6 125 0;
#X connect 68 7 126 0;
#X connect 68 8 127 0;
#X connect 68 9 128 0;
#X connect 68 10 129 0;
#X connect 68 11 130 0;
#X connect 68 12 131 0;
#X connect 68 13 132 0;
#X connect 68 14 133 0;
#X connect 68 15 134 0;
#X connect 69 0 70 0;
#X connect 71 0 8 0;
#X connect 72 0 2 0;
#X connect 73 0 3 0;
#X connect 74 0 4 0;
#X connect 75 0 5 0;
#X connect 76 0 6 0;
#X connect 77 0 7 0;
#X connect 78 0 9 0;
#X connect 79 0 10 0;
#X connect 80 0 11 0;
#X connect 81 0 12 0;
#X connect 82 0 13 0;
#X connect 83 0 14 0;
#X connect 84 0 15 0;
#X connect 85 0 16 0;
#X connect 86 0 17 0;
#X connect 87 0 18 0;
#X connect 88 0 19 0;
#X connect 89 0 20 0;
#X connect 90 0 21 0;
#X connect 91 0 22 0;
#X connect 92 0 23 0;
#X connect 93 0 24 0;
#X connect 94 0 25 0;
#X connect 95 0 26 0;
#X connect 96 0 27 0;
#X connect 97 0 28 0;
#X connect 98 0 29 0;
#X connect 99 0 30 0;
#X connect 100 0 31 0;
#X connect 101 0 32 0;
#X connect 102 0 33 0;
#X connect 103 0 35 0;
#X connect 104 0 36 0;
#X connect 105 0 37 0;
#X connect 106 0 38 0;
#X connect 107 0 39 0;
#X connect 108 0 40 0;
#X connect 109 0 41 0;
#X connect 110 0 42 0;
#X connect 111 0 43 0;
#X connect 112 0 44 0;
#X connect 113 0 45 0;
#X connect 114 0 46 0;
#X connect 115 0 47 0;
#X connect 116 0 48 0;
#X connect 117 0 49 0;
#X connect 118 0 50 0;
#X connect 119 0 52 0;
#X connect 120 0 53 0;
#X connect 121 0 54 0;
#X connect 122 0 55 0;
#X connect 123 0 56 0;
#X connect 124 0 57 0;
#X connect 125 0 58 0;
#X connect 126 0 59 0;
#X connect 127 0 60 0;
#X connect 128 0 61 0;
#X connect 129 0 62 0;
#X connect 130 0 63 0;
#X connect 131 0 64 0;
#X connect 132 0 65 0;
#X connect 133 0 66 0;
#X connect 134 0 67 0;
#X restore 173 614 pd graindist;
#X obj 190 509 stripnote;
#X obj 121 526 f;
#X obj 156 536 t b f;
#X obj 131 482 poly 64 1, f 27;
#X obj 200 194 random 3;
#X obj 242 140 metro 50;
#X obj 32 39 loadbang;
#X obj 204 10 r \$0-gr;
#X obj 18 234 f \$2;
#X obj 18 256 moses 0.5;
#X msg 18 278 5;
#X obj 41 309 s \$0-gr;
#X obj 277 192 / 1000;
#X obj 303 213 t b f;
#X obj 258 235 samplerate~;
#X obj 300 267 *;
#X obj 259 361 random 441;
#X obj 89 641 print;
#X obj 90 601 spigot;
#X obj 122 567 tgl 15 0 empty empty empty 17 7 0 10 -262144 -1 -1 0
1;
#X obj 270 309 f;
#X obj 146 342 t f b;
#X obj 192 160 * 8;
#X obj 270 331 * 24;
#X connect 0 0 1 0;
#X connect 1 0 62 0;
#X connect 3 0 4 0;
#X connect 3 1 5 0;
#X connect 4 0 87 0;
#X connect 5 0 6 0;
#X connect 6 0 4 1;
#X connect 7 0 6 1;
#X connect 8 0 10 0;
#X connect 10 0 14 0;
#X connect 11 0 13 0;
#X connect 12 0 11 1;
#X connect 13 0 7 0;
#X connect 13 0 5 1;
#X connect 14 0 11 0;
#X connect 14 1 12 0;
#X connect 15 0 29 1;
#X connect 17 0 20 0;
#X connect 17 1 19 0;
#X connect 18 0 53 0;
#X connect 19 0 18 1;
#X connect 20 0 18 0;
#X connect 21 0 38 3;
#X connect 23 0 59 1;
#X connect 24 0 64 1;
#X connect 25 0 28 0;
#X connect 25 1 82 0;
#X connect 27 0 34 0;
#X connect 28 0 57 0;
#X connect 29 0 37 0;
#X connect 31 0 35 0;
#X connect 32 0 36 1;
#X connect 33 0 32 0;
#X connect 34 0 47 0;
#X connect 35 0 33 1;
#X connect 36 0 17 0;
#X connect 37 0 36 0;
#X connect 37 1 33 0;
#X connect 38 0 65 0;
#X connect 38 0 84 0;
#X connect 39 0 42 1;
#X connect 41 0 42 0;
#X connect 41 1 64 0;
#X connect 42 0 38 4;
#X connect 45 0 61 0;
#X connect 46 0 71 0;
#X connect 47 0 50 0;
#X connect 48 0 51 0;
#X connect 49 0 48 1;
#X connect 50 0 48 0;
#X connect 50 1 49 0;
#X connect 51 0 52 0;
#X connect 52 0 82 1;
#X connect 53 0 21 1;
#X connect 54 0 56 1;
#X connect 54 0 56 1;
#X connect 55 0 58 0;
#X connect 56 0 55 0;
#X connect 56 0 55 0;
#X connect 57 0 69 1;
#X connect 57 1 56 0;
#X connect 57 2 54 0;
#X connect 58 0 21 0;
#X connect 58 1 29 0;
#X connect 58 2 59 0;
#X connect 58 3 53 1;
#X connect 59 0 41 0;
#X connect 60 0 71 0;
#X connect 61 0 46 0;
#X connect 61 1 60 0;
#X connect 61 2 71 1;
#X connect 61 2 78 0;
#X connect 61 2 88 0;
#X connect 62 0 63 0;
#X connect 62 1 70 0;
#X connect 63 0 3 0;
#X connect 64 0 39 0;
#X connect 65 0 43 0;
#X connect 66 0 68 0;
#X connect 66 1 38 2;
#X connect 67 0 38 0;
#X connect 68 0 67 0;
#X connect 68 1 38 1;
#X connect 69 0 67 1;
#X connect 69 1 66 0;
#X connect 69 2 66 1;
#X connect 70 0 63 1;
#X connect 71 0 1 0;
#X connect 72 0 74 0;
#X connect 73 0 61 0;
#X connect 74 0 75 0;
#X connect 75 0 76 0;
#X connect 75 1 77 0;
#X connect 76 0 77 0;
#X connect 78 0 79 0;
#X connect 79 0 80 0;
#X connect 79 1 81 1;
#X connect 80 0 81 0;
#X connect 81 0 86 1;
#X connect 82 0 28 1;
#X connect 84 0 83 0;
#X connect 85 0 84 1;
#X connect 86 0 89 0;
#X connect 87 0 69 0;
#X connect 87 1 86 0;
#X connect 88 0 70 1;
#X connect 89 0 25 0;
