#N canvas 190 219 799 726 10;
#X obj 156 79 inlet~;
#X obj 158 116 vsnapshot~;
#X text 158 46 pos (samps);
#X obj 127 246 t f b;
#X obj 146 314 +;
#X obj 174 256 random 882;
#X obj 213 302 - 441;
#X obj 550 72 inlet;
#X text 546 43 transposition (hs);
#X obj 542 398 t b f;
#X obj 532 494 pow;
#X obj 589 439 / 12;
#X msg 520 439 2;
#X obj 389 468 f 1;
#X text 689 36 amp;
#X obj 705 80 inlet;
#X obj 218 345 t f b;
#X obj 212 374 + 0;
#X obj 552 292 f 0;
#X obj 596 362 / 100;
#X obj 635 314 random 0;
#X obj 540 366 +;
#X obj 547 334 t f b;
#X obj 174 565 pack 0 0 0 0 0;
#X obj 649 570 / 100;
#X obj 587 569 t f b;
#X obj 587 591 +;
#X obj 168 659 outlet~;
#X text 256 23 grain rate;
#X obj 263 52 inlet;
#X msg 232 102 1;
#X obj 476 528 * 132;
#X obj 265 421 samplerate~;
#X obj 322 451 * 1000;
#X obj 228 440 /;
#X obj 216 398 t f f b;
#X obj 402 379 t b b b f;
#X obj 587 547 f 1;
#X msg 261 105 0, f 2;
#X obj 251 78 t b b f;
#X obj 139 188 t f b;
#X obj 149 217 pipe;
#N canvas 399 200 895 237 graindist 0;
#X obj 578 11 catch~ \$0-out;
#X obj 590 47 outlet~;
#X obj 230 2 inlet;
#X obj 352 28 loadbang;
#X obj 352 50 tukeymaker \$0-tukey 1024 0.25;
#X obj 338 102 table \$0-tukey 1024;
#N canvas 24 201 886 498 grains1-16 0;
#X obj -4 91 throw~ \$0-out;
#X obj 8 150 throw~ \$0-out;
#X obj 169 26 route 1 2 3 4 5 6 7 8 9 10 11 12 13 14 15 16;
#X obj 23 209 throw~ \$0-out;
#X obj 38 268 throw~ \$0-out;
#X obj 167 100 throw~ \$0-out;
#X obj 179 159 throw~ \$0-out;
#X obj 191 217 throw~ \$0-out;
#X obj 206 276 throw~ \$0-out;
#X obj 317 95 throw~ \$0-out;
#X obj 329 154 throw~ \$0-out;
#X obj 344 213 throw~ \$0-out;
#X obj 359 272 throw~ \$0-out;
#X obj 488 104 throw~ \$0-out;
#X obj 500 163 throw~ \$0-out;
#X obj 512 221 throw~ \$0-out;
#X obj 527 280 throw~ \$0-out;
#X obj -8 62 fgrain \$1 \$0-tukey 1024;
#X obj -4 125 fgrain \$1 \$0-tukey 1024;
#X obj 19 180 fgrain \$1 \$0-tukey 1024;
#X obj 26 243 fgrain \$1 \$0-tukey 1024;
#X obj 163 71 fgrain \$1 \$0-tukey 1024;
#X obj 167 134 fgrain \$1 \$0-tukey 1024;
#X obj 187 188 fgrain \$1 \$0-tukey 1024;
#X obj 194 251 fgrain \$1 \$0-tukey 1024;
#X obj 313 66 fgrain \$1 \$0-tukey 1024;
#X obj 317 129 fgrain \$1 \$0-tukey 1024;
#X obj 340 184 fgrain \$1 \$0-tukey 1024;
#X obj 347 247 fgrain \$1 \$0-tukey 1024;
#X obj 484 75 fgrain \$1 \$0-tukey 1024;
#X obj 488 138 fgrain \$1 \$0-tukey 1024;
#X obj 508 192 fgrain \$1 \$0-tukey 1024;
#X obj 515 255 fgrain \$1 \$0-tukey 1024;
#X obj 180 -2 inlet;
#X obj 505 33 outlet;
#X connect 2 0 17 0;
#X connect 2 1 18 0;
#X connect 2 2 19 0;
#X connect 2 3 20 0;
#X connect 2 4 21 0;
#X connect 2 5 22 0;
#X connect 2 6 23 0;
#X connect 2 7 24 0;
#X connect 2 8 25 0;
#X connect 2 9 26 0;
#X connect 2 10 27 0;
#X connect 2 11 28 0;
#X connect 2 12 29 0;
#X connect 2 13 30 0;
#X connect 2 14 31 0;
#X connect 2 15 32 0;
#X connect 2 16 34 0;
#X connect 17 0 0 0;
#X connect 18 0 1 0;
#X connect 19 0 3 0;
#X connect 20 0 4 0;
#X connect 21 0 5 0;
#X connect 22 0 6 0;
#X connect 23 0 7 0;
#X connect 24 0 8 0;
#X connect 25 0 9 0;
#X connect 26 0 10 0;
#X connect 27 0 11 0;
#X connect 28 0 12 0;
#X connect 29 0 13 0;
#X connect 30 0 14 0;
#X connect 31 0 15 0;
#X connect 32 0 16 0;
#X connect 33 0 2 0;
#X restore 227 45 pd grains1-16;
#N canvas 1 56 1017 633 grains17-32 0;
#X obj 111 380 throw~ \$0-out;
#X obj 123 439 throw~ \$0-out;
#X obj 138 498 throw~ \$0-out;
#X obj 153 557 throw~ \$0-out;
#X obj 282 389 throw~ \$0-out;
#X obj 294 448 throw~ \$0-out;
#X obj 306 506 throw~ \$0-out;
#X obj 321 565 throw~ \$0-out;
#X obj 432 384 throw~ \$0-out;
#X obj 444 443 throw~ \$0-out;
#X obj 459 502 throw~ \$0-out;
#X obj 474 561 throw~ \$0-out;
#X obj 603 393 throw~ \$0-out;
#X obj 615 452 throw~ \$0-out;
#X obj 627 510 throw~ \$0-out;
#X obj 642 569 throw~ \$0-out;
#X obj 285 317 route 17 18 19 20 21 22 23 24 25 26 27 28 29 30 31 32
;
#X obj 107 351 fgrain \$1 \$0-tukey 1024;
#X obj 111 414 fgrain \$1 \$0-tukey 1024;
#X obj 134 469 fgrain \$1 \$0-tukey 1024;
#X obj 141 532 fgrain \$1 \$0-tukey 1024;
#X obj 278 360 fgrain \$1 \$0-tukey 1024;
#X obj 282 423 fgrain \$1 \$0-tukey 1024;
#X obj 302 477 fgrain \$1 \$0-tukey 1024;
#X obj 309 540 fgrain \$1 \$0-tukey 1024;
#X obj 428 355 fgrain \$1 \$0-tukey 1024;
#X obj 432 418 fgrain \$1 \$0-tukey 1024;
#X obj 455 473 fgrain \$1 \$0-tukey 1024;
#X obj 462 536 fgrain \$1 \$0-tukey 1024;
#X obj 599 364 fgrain \$1 \$0-tukey 1024;
#X obj 603 427 fgrain \$1 \$0-tukey 1024;
#X obj 623 481 fgrain \$1 \$0-tukey 1024;
#X obj 630 544 fgrain \$1 \$0-tukey 1024;
#X obj 338 257 inlet;
#X obj 684 303 outlet;
#X connect 16 0 17 0;
#X connect 16 1 18 0;
#X connect 16 2 19 0;
#X connect 16 3 20 0;
#X connect 16 4 21 0;
#X connect 16 5 22 0;
#X connect 16 6 23 0;
#X connect 16 7 24 0;
#X connect 16 8 25 0;
#X connect 16 9 26 0;
#X connect 16 10 27 0;
#X connect 16 11 28 0;
#X connect 16 12 29 0;
#X connect 16 13 30 0;
#X connect 16 14 31 0;
#X connect 16 15 32 0;
#X connect 16 16 34 0;
#X connect 17 0 0 0;
#X connect 18 0 1 0;
#X connect 19 0 2 0;
#X connect 20 0 3 0;
#X connect 21 0 4 0;
#X connect 22 0 5 0;
#X connect 23 0 6 0;
#X connect 24 0 7 0;
#X connect 25 0 8 0;
#X connect 26 0 9 0;
#X connect 27 0 10 0;
#X connect 28 0 11 0;
#X connect 29 0 12 0;
#X connect 30 0 13 0;
#X connect 31 0 14 0;
#X connect 32 0 15 0;
#X connect 33 0 16 0;
#X restore 217 73 pd grains17-32;
#N canvas 1 56 1210 843 grains 0;
#X obj 217 152 throw~ \$0-out;
#X obj 229 211 throw~ \$0-out;
#X obj 244 270 throw~ \$0-out;
#X obj 259 329 throw~ \$0-out;
#X obj 388 161 throw~ \$0-out;
#X obj 400 220 throw~ \$0-out;
#X obj 412 278 throw~ \$0-out;
#X obj 427 337 throw~ \$0-out;
#X obj 538 156 throw~ \$0-out;
#X obj 550 215 throw~ \$0-out;
#X obj 565 274 throw~ \$0-out;
#X obj 580 333 throw~ \$0-out;
#X obj 709 165 throw~ \$0-out;
#X obj 721 224 throw~ \$0-out;
#X obj 733 282 throw~ \$0-out;
#X obj 748 341 throw~ \$0-out;
#X obj 213 123 fgrain \$1 \$0-tukey 1024;
#X obj 217 186 fgrain \$1 \$0-tukey 1024;
#X obj 240 241 fgrain \$1 \$0-tukey 1024;
#X obj 247 304 fgrain \$1 \$0-tukey 1024;
#X obj 384 132 fgrain \$1 \$0-tukey 1024;
#X obj 388 195 fgrain \$1 \$0-tukey 1024;
#X obj 408 249 fgrain \$1 \$0-tukey 1024;
#X obj 415 312 fgrain \$1 \$0-tukey 1024;
#X obj 534 127 fgrain \$1 \$0-tukey 1024;
#X obj 538 190 fgrain \$1 \$0-tukey 1024;
#X obj 561 245 fgrain \$1 \$0-tukey 1024;
#X obj 568 308 fgrain \$1 \$0-tukey 1024;
#X obj 705 136 fgrain \$1 \$0-tukey 1024;
#X obj 709 199 fgrain \$1 \$0-tukey 1024;
#X obj 729 253 fgrain \$1 \$0-tukey 1024;
#X obj 736 316 fgrain \$1 \$0-tukey 1024;
#X obj 408 64 route 33 34 35 36 37 38 39 40 41 42 43 44 45 46 47 48
;
#X obj 497 28 inlet;
#X obj 737 87 outlet;
#X connect 16 0 0 0;
#X connect 17 0 1 0;
#X connect 18 0 2 0;
#X connect 19 0 3 0;
#X connect 20 0 4 0;
#X connect 21 0 5 0;
#X connect 22 0 6 0;
#X connect 23 0 7 0;
#X connect 24 0 8 0;
#X connect 25 0 9 0;
#X connect 26 0 10 0;
#X connect 27 0 11 0;
#X connect 28 0 12 0;
#X connect 29 0 13 0;
#X connect 30 0 14 0;
#X connect 31 0 15 0;
#X connect 32 0 16 0;
#X connect 32 1 17 0;
#X connect 32 2 18 0;
#X connect 32 3 19 0;
#X connect 32 4 20 0;
#X connect 32 5 21 0;
#X connect 32 6 22 0;
#X connect 32 7 23 0;
#X connect 32 8 24 0;
#X connect 32 9 25 0;
#X connect 32 10 26 0;
#X connect 32 11 27 0;
#X connect 32 12 28 0;
#X connect 32 13 29 0;
#X connect 32 14 30 0;
#X connect 32 15 31 0;
#X connect 32 16 34 0;
#X connect 33 0 32 0;
#X restore 173 101 pd grains 33-48;
#N canvas 1 59 1210 843 grains 0;
#X obj 217 152 throw~ \$0-out;
#X obj 229 211 throw~ \$0-out;
#X obj 244 270 throw~ \$0-out;
#X obj 259 329 throw~ \$0-out;
#X obj 388 161 throw~ \$0-out;
#X obj 400 220 throw~ \$0-out;
#X obj 412 278 throw~ \$0-out;
#X obj 427 337 throw~ \$0-out;
#X obj 538 156 throw~ \$0-out;
#X obj 550 215 throw~ \$0-out;
#X obj 565 274 throw~ \$0-out;
#X obj 580 333 throw~ \$0-out;
#X obj 709 165 throw~ \$0-out;
#X obj 721 224 throw~ \$0-out;
#X obj 733 282 throw~ \$0-out;
#X obj 748 341 throw~ \$0-out;
#X obj 213 123 fgrain \$1 \$0-tukey 1024;
#X obj 217 186 fgrain \$1 \$0-tukey 1024;
#X obj 240 241 fgrain \$1 \$0-tukey 1024;
#X obj 247 304 fgrain \$1 \$0-tukey 1024;
#X obj 384 132 fgrain \$1 \$0-tukey 1024;
#X obj 388 195 fgrain \$1 \$0-tukey 1024;
#X obj 408 249 fgrain \$1 \$0-tukey 1024;
#X obj 415 312 fgrain \$1 \$0-tukey 1024;
#X obj 534 127 fgrain \$1 \$0-tukey 1024;
#X obj 538 190 fgrain \$1 \$0-tukey 1024;
#X obj 561 245 fgrain \$1 \$0-tukey 1024;
#X obj 568 308 fgrain \$1 \$0-tukey 1024;
#X obj 705 136 fgrain \$1 \$0-tukey 1024;
#X obj 709 199 fgrain \$1 \$0-tukey 1024;
#X obj 729 253 fgrain \$1 \$0-tukey 1024;
#X obj 736 316 fgrain \$1 \$0-tukey 1024;
#X obj 497 28 inlet;
#X obj 737 87 outlet;
#X obj 408 64 route 49 50 51 52 53 54 55 56 57 58 59 60 61 62 63 64
;
#X connect 16 0 0 0;
#X connect 17 0 1 0;
#X connect 18 0 2 0;
#X connect 19 0 3 0;
#X connect 20 0 4 0;
#X connect 21 0 5 0;
#X connect 22 0 6 0;
#X connect 23 0 7 0;
#X connect 24 0 8 0;
#X connect 25 0 9 0;
#X connect 26 0 10 0;
#X connect 27 0 11 0;
#X connect 28 0 12 0;
#X connect 29 0 13 0;
#X connect 30 0 14 0;
#X connect 31 0 15 0;
#X connect 32 0 34 0;
#X connect 34 0 16 0;
#X connect 34 1 17 0;
#X connect 34 2 18 0;
#X connect 34 3 19 0;
#X connect 34 4 20 0;
#X connect 34 5 21 0;
#X connect 34 6 22 0;
#X connect 34 7 23 0;
#X connect 34 8 24 0;
#X connect 34 9 25 0;
#X connect 34 10 26 0;
#X connect 34 11 27 0;
#X connect 34 12 28 0;
#X connect 34 13 29 0;
#X connect 34 14 30 0;
#X connect 34 15 31 0;
#X connect 34 16 33 0;
#X restore 175 129 pd grains 49-64;
#X connect 0 0 1 0;
#X connect 2 0 6 0;
#X connect 3 0 4 0;
#X connect 6 0 7 0;
#X connect 7 0 8 0;
#X connect 8 0 9 0;
#X restore 173 614 pd graindist;
#X obj 190 509 stripnote;
#X obj 121 526 f;
#X obj 156 536 t b f;
#X obj 200 194 random 3;
#X obj 242 140 metro 50;
#X obj 32 39 loadbang;
#X obj 204 10 r \$0-gr;
#X obj 18 234 f \$2;
#X obj 18 256 moses 0.5;
#X msg 18 278 5;
#X obj 41 309 s \$0-gr;
#X obj 277 192 / 1000;
#X obj 303 213 t b f;
#X obj 258 235 samplerate~;
#X obj 300 267 *;
#X obj 259 361 random 441;
#X obj 89 641 print;
#X obj 90 601 spigot;
#X obj 122 567 tgl 15 0 empty empty empty 17 7 0 10 -262144 -1 -1 0
1;
#X obj 270 309 f;
#X obj 146 342 t f b;
#X obj 552 314 * -1;
#X text 335 341 rand pos;
#X text 221 162 rand dur;
#X obj 649 548 random 6;
#X text 696 567 amp rand;
#X text 643 359 transposition rand;
#X obj 191 162 * 3;
#X obj 130 481 poly 64 1, f 27;
#X obj 270 331 * 32;
#X connect 0 0 1 0;
#X connect 1 0 40 0;
#X connect 3 0 4 0;
#X connect 3 1 5 0;
#X connect 4 0 63 0;
#X connect 5 0 6 0;
#X connect 6 0 4 1;
#X connect 7 0 18 1;
#X connect 9 0 12 0;
#X connect 9 1 11 0;
#X connect 10 0 31 0;
#X connect 11 0 10 1;
#X connect 12 0 10 0;
#X connect 13 0 23 3;
#X connect 15 0 37 1;
#X connect 16 0 17 0;
#X connect 16 1 58 0;
#X connect 17 0 35 0;
#X connect 18 0 64 0;
#X connect 19 0 21 1;
#X connect 20 0 19 0;
#X connect 21 0 9 0;
#X connect 22 0 21 0;
#X connect 22 1 20 0;
#X connect 23 0 60 0;
#X connect 23 0 42 0;
#X connect 24 0 26 1;
#X connect 25 0 26 0;
#X connect 25 1 67 0;
#X connect 26 0 23 4;
#X connect 29 0 39 0;
#X connect 30 0 47 0;
#X connect 31 0 13 1;
#X connect 32 0 34 1;
#X connect 32 0 34 1;
#X connect 33 0 36 0;
#X connect 34 0 33 0;
#X connect 34 0 33 0;
#X connect 35 0 71 1;
#X connect 35 1 34 0;
#X connect 35 2 32 0;
#X connect 36 0 13 0;
#X connect 36 1 18 0;
#X connect 36 2 37 0;
#X connect 36 3 31 1;
#X connect 37 0 25 0;
#X connect 38 0 47 0;
#X connect 39 0 30 0;
#X connect 39 1 38 0;
#X connect 39 2 47 1;
#X connect 39 2 54 0;
#X connect 39 2 70 0;
#X connect 40 0 41 0;
#X connect 40 1 46 0;
#X connect 41 0 3 0;
#X connect 42 0 27 0;
#X connect 43 0 45 0;
#X connect 43 1 23 2;
#X connect 44 0 23 0;
#X connect 45 0 44 0;
#X connect 45 1 23 1;
#X connect 46 0 41 1;
#X connect 47 0 1 0;
#X connect 48 0 50 0;
#X connect 49 0 39 0;
#X connect 50 0 51 0;
#X connect 51 0 52 0;
#X connect 51 1 53 0;
#X connect 52 0 53 0;
#X connect 54 0 55 0;
#X connect 55 0 56 0;
#X connect 55 1 57 1;
#X connect 56 0 57 0;
#X connect 57 0 62 1;
#X connect 58 0 17 1;
#X connect 60 0 59 0;
#X connect 61 0 60 1;
#X connect 62 0 72 0;
#X connect 63 0 71 0;
#X connect 63 1 62 0;
#X connect 64 0 22 0;
#X connect 67 0 24 0;
#X connect 70 0 46 1;
#X connect 71 0 44 1;
#X connect 71 1 43 0;
#X connect 71 2 43 1;
#X connect 72 0 16 0;
