#N canvas 794 373 498 451 10;
#X obj 158 53 inlet;
#X obj 122 239 tabread~ \$1;
#X obj 163 261 *~;
#X text 229 48 args: \$1-array to read \, \$2-catchname;
#X text 29 17 inlet: pos (samps) \, grain size (samps) \, dur (ms)
\, amp;
#X obj 94 88 unpack f f f f;
#X obj 155 305 *~ 1;
#X obj 121 347 outlet~;
#X obj 107 140 +;
#X obj 82 182 pack 0 0 0;
#X msg 82 204 \$1 \, \$2 \$3;
#X obj 55 241 line~;
#X obj 37 119 t f f f;
#X obj 60 289 -~ 1;
#X obj 59 311 /~ 1;
#X obj 59 333 cos~;
#X obj 59 355 *~ -0.5;
#X obj 59 377 +~ 0.5;
#X connect 0 0 5 0;
#X connect 1 0 2 0;
#X connect 2 0 6 0;
#X connect 5 0 12 0;
#X connect 5 1 8 1;
#X connect 5 1 14 1;
#X connect 5 2 9 2;
#X connect 5 3 6 1;
#X connect 6 0 7 0;
#X connect 8 0 9 1;
#X connect 9 0 10 0;
#X connect 10 0 11 0;
#X connect 11 0 1 0;
#X connect 11 0 13 0;
#X connect 12 0 9 0;
#X connect 12 1 8 0;
#X connect 12 1 13 1;
#X connect 13 0 14 0;
#X connect 14 0 15 0;
#X connect 15 0 16 0;
#X connect 16 0 17 0;
#X connect 17 0 2 1;
