#N canvas 999 151 637 674 10;
#X obj 242 302 moses 0.25;
#X obj 321 321 moses 0.75;
#X obj 251 439 cos;
#X obj 235 353 - 0.25;
#X msg 321 345 1;
#X obj 249 530 pack 0 0;
#X obj 259 496 * 0.5;
#X obj 211 152 f;
#X obj 287 159 + 1;
#X msg 270 128 0;
#X obj 211 174 t f f;
#X obj 227 101 metro 0.0001;
#X msg 270 75 0;
#X obj 237 232 t f f;
#X msg 227 71 1;
#X obj 240 40 t b b;
#X obj 244 264 / 1024;
#X obj 306 212 sel 1025;
#X obj 245 381 * 6.28319;
#X obj 243 411 / 0.5;
#X obj 251 461 + 1;
#X obj 367 359 + 0.75;
#X obj 444 207 f \$3;
#X obj 446 242 clip 0 1;
#X obj 458 272 / 2;
#X obj 471 295 t b f;
#X msg 461 330 1;
#X obj 461 352 -;
#X obj 220 558 tabwrite \$1;
#X obj 381 14 inlet;
#X obj 365 57 t b b b;
#X obj 350 132 f \$2;
#X obj 350 154 + 1;
#X connect 0 0 3 0;
#X connect 0 1 1 0;
#X connect 1 0 4 0;
#X connect 1 1 21 0;
#X connect 2 0 20 0;
#X connect 3 0 18 0;
#X connect 4 0 5 0;
#X connect 5 0 28 0;
#X connect 6 0 5 0;
#X connect 7 0 8 0;
#X connect 7 0 10 0;
#X connect 8 0 7 1;
#X connect 9 0 7 1;
#X connect 10 0 13 0;
#X connect 10 1 17 0;
#X connect 11 0 7 0;
#X connect 12 0 11 0;
#X connect 13 0 16 0;
#X connect 13 1 5 1;
#X connect 14 0 11 0;
#X connect 15 0 14 0;
#X connect 15 1 9 0;
#X connect 16 0 0 0;
#X connect 17 0 12 0;
#X connect 18 0 19 0;
#X connect 19 0 2 0;
#X connect 20 0 6 0;
#X connect 21 0 18 0;
#X connect 22 0 23 0;
#X connect 23 0 24 0;
#X connect 23 0 19 1;
#X connect 24 0 0 1;
#X connect 24 0 3 1;
#X connect 24 0 25 0;
#X connect 25 0 26 0;
#X connect 25 1 27 1;
#X connect 26 0 27 0;
#X connect 27 0 21 1;
#X connect 27 0 1 1;
#X connect 29 0 30 0;
#X connect 30 0 15 0;
#X connect 30 1 31 0;
#X connect 30 2 22 0;
#X connect 31 0 16 1;
#X connect 31 0 32 0;
#X connect 32 0 17 1;
