#N canvas 858 312 1700 819 12;
#X obj 184 617 outlet;
#X text 241 612 wait;
#X text 473 693 done;
#X obj 419 690 outlet;
#X obj 216 428 t a a;
#X obj 147 29 inlet;
#X msg 285 350 stop;
#X obj 385 289 list prepend tempo;
#X obj 385 313 list trim;
#X obj 534 288 list prepend args;
#X obj 534 312 list trim;
#X obj 121 249 dkfloatsync 0;
#X msg 130 366 line \$1 \, auto;
#N canvas 1244 336 608 742 dktextloop_sectparse 0;
#X obj 138 111 inlet;
#X obj 118 150 t a a;
#X obj 161 181 list length;
#X obj 170 269 moses 1;
#X obj 173 435 outlet;
#X obj 275 113 inlet;
#X text 325 116 text symbol;
#X msg 82 273 \$1 0;
#X obj 161 205 > 0;
#X obj 161 229 t f f;
#X obj 81 233 spigot 0;
#X obj 85 315 text search \$1 0 1;
#X obj 85 339 moses 0;
#X obj 129 390 + 1;
#X connect 0 0 1 0;
#X connect 1 0 10 0;
#X connect 1 1 2 0;
#X connect 2 0 8 0;
#X connect 3 0 13 0;
#X connect 5 0 11 1;
#X connect 7 0 11 0;
#X connect 8 0 9 0;
#X connect 9 0 10 1;
#X connect 9 1 3 0;
#X connect 10 0 7 0;
#X connect 11 0 12 0;
#X connect 12 1 13 0;
#X connect 13 0 4 0;
#X restore 115 136 pd dktextloop_sectparse;
#X obj 708 120 symbol;
#X obj 216 400 text sequence \$1 -g;
#X obj 276 308 dkbangsync 0;
#X obj 147 57 route start stop tempo args text syncer sync syncreset
;
#X obj 706 144 t s s;
#X obj 581 52 inlet;
#X text 637 56 syncer;
#X obj 798 52 inlet;
#X text 859 55 sync;
#X obj 924 57 inlet;
#X text 977 59 text symbol;
#X obj 304 194 bang;
#X obj 443 248 bang;
#X text 20 10 dktextloop: text looper built around text sequence -g
;
#X obj 526 122 loadbang;
#X text 666 462 sectnum 0 loopback;
#X text 1049 164 derek kwan;
#X text 1052 192 pdkvabs;
#X text 1046 218 gpl v 3 2018;
#X obj 523 186 f \$3;
#X text 622 342 args: text symbol \, tempo in msec \, sync;
#X text 629 445 - loop points/sections follow:;
#X text 663 492 use a nonexisting sectnum to stop;
#X text 626 542 - like text sequence -g \, commands are bound to symbols
;
#X obj 850 160 loadbang;
#X obj 850 184 f \$2;
#X text 653 367 - not passing a tempo number (or 0) means default to
1 msec units;
#X obj 850 208 moses 1;
#X msg 883 239 tempo \$1 msec;
#X obj 295 645 text search \$1 0 1;
#X obj 295 669 moses 0;
#X obj 339 720 + 1;
#X obj 372 430 t b b;
#X obj 342 544 f;
#X obj 263 457 list split 2;
#X obj 260 499 route bang;
#X msg 342 568 \$1 0;
#X obj 115 160 t f f, f 13;
#X connect 4 0 0 0;
#X connect 4 1 48 0;
#X connect 5 0 17 0;
#X connect 6 0 15 0;
#X connect 7 0 8 0;
#X connect 8 0 15 0;
#X connect 9 0 10 0;
#X connect 10 0 15 0;
#X connect 11 0 12 0;
#X connect 12 0 15 0;
#X connect 13 0 51 0;
#X connect 14 0 18 0;
#X connect 15 0 4 0;
#X connect 15 1 46 0;
#X connect 16 0 6 0;
#X connect 17 0 13 0;
#X connect 17 1 16 0;
#X connect 17 2 7 0;
#X connect 17 3 9 0;
#X connect 17 4 14 0;
#X connect 17 5 25 0;
#X connect 17 6 33 0;
#X connect 17 7 26 0;
#X connect 18 0 13 1;
#X connect 18 1 15 1;
#X connect 19 0 25 0;
#X connect 21 0 33 0;
#X connect 23 0 14 0;
#X connect 25 0 11 1;
#X connect 25 0 16 1;
#X connect 26 0 11 3;
#X connect 26 0 16 3;
#X connect 28 0 33 0;
#X connect 33 0 11 2;
#X connect 33 0 16 2;
#X connect 38 0 39 0;
#X connect 39 0 41 0;
#X connect 41 1 42 0;
#X connect 42 0 15 0;
#X connect 43 0 44 0;
#X connect 44 1 45 0;
#X connect 45 0 12 0;
#X connect 46 0 3 0;
#X connect 46 1 47 0;
#X connect 47 0 50 0;
#X connect 48 1 49 0;
#X connect 49 1 47 0;
#X connect 50 0 43 0;
#X connect 51 0 11 0;
#X connect 51 1 47 1;
