#N canvas 330 429 706 534 12;
#X obj 248 250 text search \$1 0;
#X obj 248 275 text get \$1;
#X obj 248 300 list split 1;
#X obj 248 325 outlet;
#X obj 321 328 outlet;
#X obj 387 329 outlet;
#X obj 247 194 inlet;
#X text 10 17 pdktext-getval;
#X text 8 53 treating text somewhat like a hash table;
#X text 8 74 and getting field from associated key (field 0);
#X text 10 139 args: text name;
#X text 9 171 inlets: key name/text name symbol;
#X text 10 212 outlets:;
#X text 8 238 key/value/separator type;
#X text 538 16 derek kwan 2017;
#X text 537 38 pdkvabs;
#X text 536 61 gpl v 3;
#X connect 0 0 1 0;
#X connect 1 0 2 0;
#X connect 1 1 5 0;
#X connect 2 0 3 0;
#X connect 2 1 4 0;
#X connect 6 0 0 0;
