#N canvas 1270 507 1101 651 12;
#X obj 302 118 phasor~ \$1;
#X obj 149 207 /~;
#X obj 411 197 loadbang;
#X obj 419 252 array size \$2;
#X obj 149 253 *~;
#X obj 54 333 tabread4~ \$2;
#X obj 189 474 *~;
#X obj 189 499 outlet~;
#X obj 501 96 inlet~;
#X obj 306 85 inlet;
#X text 367 90 freq;
#X text 564 100 duty cycle(0 - 1);
#X obj 736 89 inlet;
#X obj 736 114 symbol;
#X obj 736 139 t b s;
#X msg 593 247 set \$1;
#X text 796 88 array symbol;
#X text 29 5 dkpulsar~ - pulsar synthesis;
#X text 31 41 args: freq \, array symbol;
#X text 31 59 inlets: freq \, duty cycle \, array symbol;
#X text 903 7 derek kwan;
#X text 915 33 pdkvabs;
#X text 923 55 gpl v 3 2017;
#X obj 344 254 - 1;
#X obj 302 179 dkle~;
#X obj 173 338 dkhann~;
#X obj 114 406 *~;
#X connect 0 0 1 0;
#X connect 0 0 24 0;
#X connect 1 0 4 0;
#X connect 1 0 25 0;
#X connect 2 0 3 0;
#X connect 3 0 23 0;
#X connect 4 0 5 0;
#X connect 5 0 26 0;
#X connect 6 0 7 0;
#X connect 8 0 1 1;
#X connect 8 0 24 1;
#X connect 9 0 0 0;
#X connect 12 0 13 0;
#X connect 13 0 14 0;
#X connect 14 0 3 0;
#X connect 14 1 3 1;
#X connect 14 1 15 0;
#X connect 15 0 5 0;
#X connect 23 0 4 1;
#X connect 24 0 6 1;
#X connect 25 0 26 1;
#X connect 26 0 6 0;
